<?xml version="1.0" encoding="iso-8859-1"?>
<!-- Generator: Adobe Illustrator 19.0.0, SVG Export Plug-In . SVG Version: 6.00 Build 0)  -->
<svg version="1.1" id="Layer_1" xmlns="http://www.w3.org/2000/svg" xmlns:xlink="http://www.w3.org/1999/xlink" x="0px" y="0px"
	 viewBox="0 0 512 512" style="enable-background:new 0 0 512 512;" xml:space="preserve">
<g>
	<g>
		<path d="M511.682,339.032L451.949,125.7c-1.031-3.684-4.39-6.232-8.216-6.232H68.268c-3.827,0-7.185,2.548-8.217,6.232
			L0.318,339.032c-1.219,4.35,1.165,8.896,5.435,10.369c1.25,0.431,126.516,43.132,250.246,43.132s248.997-42.701,250.246-43.132
			C510.517,347.927,512.901,343.382,511.682,339.032z M425.742,353.944L383.999,312.2v-56.806c0-4.713-3.821-8.533-8.533-8.533
			c-4.712,0-8.533,3.821-8.533,8.533v39.739l-96.366-96.367c-3.333-3.331-8.737-3.331-12.067,0c-3.333,3.332-3.333,8.735,0,12.069
			l147.462,147.464c-40.16,8.42-88.994,15.961-138.241,17.026c-0.273-0.384-0.559-0.762-0.904-1.107L230.4,337.8v-56.806
			c0-4.712-3.821-8.533-8.533-8.533c-4.712,0-8.533,3.821-8.533,8.533v39.74l-104.9-104.901c-3.333-3.331-8.737-3.331-12.066,0
			c-3.333,3.332-3.333,8.735,0,12.069l147.408,147.409c-99.404-2.241-197.248-30.863-224.816-39.561l55.781-199.215h362.519
			l55.781,199.218C481.409,339.423,457.255,346.65,425.742,353.944z"/>
	</g>
</g>
<g>
</g>
<g>
</g>
<g>
</g>
<g>
</g>
<g>
</g>
<g>
</g>
<g>
</g>
<g>
</g>
<g>
</g>
<g>
</g>
<g>
</g>
<g>
</g>
<g>
</g>
<g>
</g>
<g>
</g>
</svg>
