<?xml version="1.0" encoding="iso-8859-1"?>
<!-- Generator: Adobe Illustrator 19.0.0, SVG Export Plug-In . SVG Version: 6.00 Build 0)  -->
<svg version="1.1" id="Layer_1" xmlns="http://www.w3.org/2000/svg" xmlns:xlink="http://www.w3.org/1999/xlink" x="0px" y="0px"
	 viewBox="0 0 512 512" style="enable-background:new 0 0 512 512;" xml:space="preserve">
<g>
	<g>
		<path d="M506.192,69.175c-0.062-2.089-0.89-4.16-2.484-5.754l-6.336-6.336c-0.01-0.011-0.023-0.023-0.033-0.034
			c-1.598-1.598-3.673-2.426-5.765-2.487c-18.12-9.377-41.377-7.396-57.28,6.389l-16.881,14.634
			c-0.679,0.587-1.258,1.279-1.721,2.047l-27.584,45.944l-16.833,5.611c-2.795,0.932-4.908,3.245-5.585,6.112
			c-0.679,2.867,0.179,5.881,2.262,7.964l7.401,7.401l-82.355,82.355c-0.208,0.208-0.364,0.446-0.547,0.669h-79.93v-59.505h34.003
			c4.695,0,8.501-3.806,8.501-8.501v-8.501h17.002v8.501c0,4.695,3.806,8.501,8.501,8.501h42.504c4.695,0,8.501-3.806,8.501-8.501
			V89.178c0-4.695-3.806-8.501-8.501-8.501h-42.504c-4.695,0-8.501,3.806-8.501,8.501v8.501h-17.002v-8.501
			c0-4.695-3.806-8.501-8.501-8.501h-110.51c-2.486,0-61.191,0.102-87.695,8.937c-27.19,9.063-45.206,27.676-45.96,28.465
			c-2.353,2.459-3.011,6.085-1.675,9.216c1.339,3.13,4.414,5.16,7.818,5.16c0.498,0,50.023,0.084,74.041,7.362
			c23.049,6.985,47.134,31.545,47.37,31.789c1.6,1.649,3.8,2.58,6.1,2.58h8.501v59.505H51.005c-4.695,0-8.501,3.806-8.501,8.501
			V395.23c0,37.485,30.485,67.981,67.958,67.981h297.62c37.473,0,67.96-30.497,67.96-67.981V242.191
			c0-4.695-3.806-8.501-8.501-8.501H361.801l48.287-48.288l7.404,7.404c1.613,1.613,3.781,2.489,6.01,2.489
			c0.65,0,1.306-0.075,1.953-0.227c2.868-0.678,5.18-2.79,6.112-5.586l5.614-16.845l46.642-28.167
			c0.768-0.464,1.457-1.045,2.042-1.724l14.05-16.279C513.647,110.556,515.586,87.293,506.192,69.175z M139.497,157.184
			L139.497,157.184c-7.424-7.122-29.362-26.771-52.024-33.638c-15.102-4.576-38.065-6.566-55.355-7.429
			c5.994-3.792,13.303-7.618,21.574-10.374c23.896-7.965,81.739-8.065,82.32-8.065h102.009v8.501c0,4.695,3.806,8.501,8.501,8.501
			h34.003c4.695,0,8.501-3.806,8.501-8.501v-8.501h25.502v59.505h-25.502v-8.501c0-4.695-3.806-8.501-8.501-8.501h-34.003
			c-4.695,0-8.501,3.806-8.501,8.501v8.501h-34.003h-51.005H139.497z M195.518,174.185v59.505h-34.003v-59.505H195.518z
			 M459.042,250.692V395.23c0,28.11-22.86,50.98-50.959,50.98h-297.62c-28.099,0-50.957-22.87-50.957-50.98V250.692h93.508h51.005
			H459.042z M338.41,233.039c-0.202,0.203-0.354,0.434-0.532,0.652h-21.507l71.004-71.002l10.692,10.693L338.41,233.039z
			 M487.045,115.361l-13.166,15.255l-48.166,29.087c-1.731,1.045-3.032,2.672-3.671,4.59l-2.254,6.766l-18.83-18.83l-7.571-7.572
			c-0.002-0.002-0.004-0.003-0.006-0.005l-3.682-3.682l6.766-2.255c1.924-0.641,3.557-1.95,4.601-3.689l28.505-47.478l15.858-13.747
			c12.033-10.427,30.369-10.719,42.85-1.315C497.694,84.975,497.432,103.323,487.045,115.361z"/>
	</g>
</g>
<g>
	<g>
		<polygon points="94.734,312.951 94.734,324.224 117.022,324.224 117.022,386.704 130.742,386.704 130.742,324.224 
			152.929,324.224 152.929,312.951 		"/>
	</g>
</g>
<g>
	<g>
		<path d="M307.269,334.807c-1.803-4.607-4.335-8.586-7.6-11.935c-3.263-3.35-7.191-5.976-11.782-7.88
			c-4.59-1.904-9.673-2.856-15.25-2.856s-10.668,0.943-15.276,2.83c-4.607,1.888-8.552,4.514-11.833,7.88
			c-3.282,3.366-5.823,7.354-7.626,11.961c-1.802,4.607-2.703,9.614-2.703,15.021s0.902,10.414,2.703,15.021
			c1.803,4.607,4.344,8.594,7.626,11.96c3.281,3.366,7.225,5.993,11.833,7.88c4.607,1.887,9.699,2.831,15.276,2.831
			s10.66-0.944,15.25-2.831c4.591-1.887,8.518-4.514,11.782-7.88c3.265-3.366,5.797-7.353,7.6-11.96s2.703-9.615,2.703-15.021
			C309.972,344.422,309.072,339.415,307.269,334.807z M294.289,360.717c-1.071,3.213-2.61,5.934-4.616,8.161
			c-2.007,2.227-4.447,3.936-7.32,5.126c-2.873,1.19-6.112,1.785-9.716,1.785c-3.605,0-6.852-0.595-9.742-1.785
			c-2.89-1.19-5.347-2.899-7.371-5.126c-2.023-2.227-3.579-4.948-4.666-8.161c-1.089-3.213-1.632-6.843-1.632-10.889
			s0.544-7.676,1.632-10.889c1.087-3.213,2.644-5.942,4.667-8.186c2.023-2.245,4.481-3.961,7.371-5.152
			c2.89-1.19,6.137-1.785,9.742-1.785c3.604,0,6.842,0.595,9.716,1.785c2.873,1.19,5.313,2.907,7.32,5.152
			c2.006,2.244,3.545,4.972,4.616,8.186c1.071,3.213,1.606,6.843,1.606,10.889S295.36,357.504,294.289,360.717z"/>
	</g>
</g>
<g>
	<g>
		<path d="M225.713,334.807c-1.803-4.607-4.335-8.586-7.6-11.935c-3.263-3.35-7.191-5.976-11.782-7.88
			c-4.59-1.904-9.673-2.856-15.25-2.856s-10.668,0.943-15.276,2.83c-4.607,1.888-8.552,4.514-11.834,7.88
			c-3.281,3.366-5.822,7.354-7.625,11.961c-1.802,4.607-2.703,9.614-2.703,15.021s0.902,10.414,2.703,15.021
			c1.802,4.607,4.344,8.594,7.625,11.96c3.282,3.366,7.227,5.993,11.834,7.88c4.607,1.887,9.699,2.831,15.276,2.831
			s10.66-0.944,15.25-2.831c4.591-1.887,8.518-4.514,11.782-7.88c3.265-3.366,5.797-7.353,7.6-11.96s2.703-9.615,2.703-15.021
			C228.416,344.422,227.516,339.415,225.713,334.807z M212.732,360.717c-1.071,3.213-2.61,5.934-4.616,8.161
			c-2.007,2.227-4.447,3.936-7.32,5.126c-2.873,1.19-6.112,1.785-9.716,1.785c-3.605,0-6.852-0.595-9.742-1.785
			c-2.891-1.19-5.347-2.899-7.371-5.126c-2.023-2.227-3.579-4.948-4.667-8.161c-1.089-3.213-1.632-6.843-1.632-10.889
			s0.544-7.676,1.632-10.889c1.087-3.213,2.644-5.942,4.667-8.186c2.023-2.245,4.48-3.961,7.371-5.152
			c2.89-1.19,6.137-1.785,9.742-1.785c3.604,0,6.842,0.595,9.716,1.785c2.873,1.19,5.313,2.907,7.32,5.152
			c2.006,2.244,3.545,4.973,4.616,8.186s1.606,6.843,1.606,10.889S213.803,357.504,212.732,360.717z"/>
	</g>
</g>
<g>
	<g>
		<path d="M416.292,355.796c-0.968-2.142-2.252-3.953-3.851-5.432c-1.598-1.479-3.417-2.703-5.457-3.672
			c-2.04-0.969-4.123-1.82-6.248-2.551c-2.125-0.731-4.208-1.42-6.248-2.065c-2.04-0.646-3.859-1.377-5.457-2.193
			s-2.882-1.802-3.851-2.958c-0.969-1.156-1.454-2.601-1.454-4.335c0-1.36,0.238-2.609,0.714-3.749
			c0.476-1.139,1.199-2.117,2.168-2.933c0.969-0.816,2.159-1.454,3.571-1.913c1.41-0.459,3.068-0.689,4.973-0.689
			c2.109,0,3.936,0.263,5.483,0.791s2.898,1.113,4.054,1.759c1.156,0.646,2.159,1.233,3.009,1.76
			c0.851,0.527,1.616,0.791,2.295,0.791c0.681,0,1.267-0.153,1.76-0.459s0.927-0.833,1.3-1.581l3.366-6.477
			c-2.584-2.448-5.713-4.353-9.385-5.713c-3.672-1.36-7.684-2.04-12.037-2.04c-3.841,0-7.259,0.595-10.251,1.785
			c-2.993,1.19-5.517,2.771-7.574,4.743c-2.058,1.973-3.622,4.234-4.692,6.784s-1.606,5.168-1.606,7.855
			c0,3.366,0.485,6.197,1.453,8.492c0.969,2.295,2.253,4.208,3.851,5.738c1.598,1.53,3.418,2.771,5.458,3.723
			c2.04,0.952,4.114,1.768,6.222,2.448c2.109,0.68,4.183,1.309,6.223,1.888c2.04,0.578,3.859,1.284,5.457,2.116
			c1.598,0.833,2.882,1.862,3.851,3.086c0.969,1.224,1.454,2.805,1.454,4.743c0,3.469-1.071,6.129-3.214,7.982
			c-2.142,1.854-5.169,2.78-9.079,2.78c-2.55,0-4.735-0.349-6.554-1.045c-1.819-0.697-3.401-1.471-4.743-2.321
			s-2.508-1.623-3.494-2.321c-0.986-0.697-1.904-1.045-2.754-1.045c-0.646,0-1.233,0.161-1.76,0.485
			c-0.527,0.323-0.978,0.722-1.351,1.199l-3.979,6.579c1.428,1.462,3.052,2.788,4.871,3.979s3.774,2.21,5.865,3.06
			c2.091,0.85,4.276,1.505,6.554,1.964c2.279,0.459,4.591,0.689,6.937,0.689c4.08,0,7.702-0.621,10.864-1.862
			c3.163-1.241,5.84-2.941,8.034-5.101c2.193-2.159,3.859-4.692,4.999-7.599c1.138-2.907,1.708-6.027,1.708-9.36
			C417.745,360.539,417.261,357.938,416.292,355.796z"/>
	</g>
</g>
<g>
	<g>
		<polygon points="334.505,375.382 334.505,312.951 320.785,312.951 320.785,386.704 364.037,386.704 364.037,375.382 		"/>
	</g>
</g>
<g>
</g>
<g>
</g>
<g>
</g>
<g>
</g>
<g>
</g>
<g>
</g>
<g>
</g>
<g>
</g>
<g>
</g>
<g>
</g>
<g>
</g>
<g>
</g>
<g>
</g>
<g>
</g>
<g>
</g>
</svg>
