<?xml version="1.0" encoding="iso-8859-1"?>
<!-- Generator: Adobe Illustrator 19.0.0, SVG Export Plug-In . SVG Version: 6.00 Build 0)  -->
<svg version="1.1" id="Layer_1" xmlns="http://www.w3.org/2000/svg" xmlns:xlink="http://www.w3.org/1999/xlink" x="0px" y="0px"
	 viewBox="0 0 512 512" style="enable-background:new 0 0 512 512;" xml:space="preserve">
<g>
	<g>
		<path d="M452.248,149.333h-34.115h-17.067v-29.867c0-35.29-28.691-64-63.957-64H174.891c-35.267,0-63.957,28.71-63.957,64v29.867
			H93.867H59.751C26.804,149.333,0,176.13,0,209.069v187.729c0,32.939,26.804,59.735,59.751,59.735h34.116H128h256h34.133h34.115
			c32.948,0,59.752-26.797,59.752-59.735V209.069C512,176.13,485.196,149.333,452.248,149.333z M85.333,439.467H59.751
			c-23.536,0-42.684-19.141-42.684-42.669V209.069c0-23.528,19.148-42.669,42.684-42.669h25.582V439.467z M119.467,439.467H102.4
			V166.4h17.067V439.467z M375.467,439.467H136.533V166.4h238.933V439.467z M179.2,149.333v-25.61
			c0-9.405,7.69-17.056,17.142-17.056h127.85c9.452,0,17.142,7.651,17.142,17.056v25.61H179.2z M384,149.333h-25.6v-25.61
			c0-18.816-15.346-34.123-34.208-34.123h-127.85c-18.863,0-34.208,15.307-34.208,34.123v25.61H128v-29.867
			c0-25.879,21.036-46.933,46.891-46.933h162.219c25.855,0,46.891,21.054,46.891,46.933V149.333z M409.6,439.467h-17.067V166.4
			H409.6V439.467z M494.933,396.798c0,23.528-19.149,42.669-42.685,42.669h-25.581V166.4h25.581
			c23.536,0,42.685,19.141,42.685,42.669V396.798z"/>
	</g>
</g>
<g>
	<g>
		<path d="M347.526,337.968l-59.628-59.627l1.605-1.605c1.631-1.632,2.532-3.854,2.498-6.161
			c-0.087-5.857,0.934-23.393,6.631-34.046c7.294-13.634,29.196-35.62,29.416-35.841c2.416-2.417,3.157-6.042,1.884-9.211
			c-1.273-3.171-4.314-5.277-7.729-5.353c-0.725-0.019-17.939-0.296-34.911,8.192c-16.328,8.164-43.102,34.844-44.234,35.975
			l-49.655,49.655c-3.332,3.333-3.332,8.735,0,12.069l1.606,1.605l-14.671,14.671l-1.605-1.606c-3.333-3.331-8.735-3.331-12.069,0
			l-19.098,19.098c-3.332,3.333-3.332,8.736,0,12.069l34.377,34.377c1.667,1.666,3.85,2.499,6.034,2.499
			c2.183,0,4.368-0.833,6.033-2.499l19.099-19.098c1.601-1.601,2.5-3.771,2.5-6.034s-0.899-4.433-2.499-6.034l-1.606-1.605
			l14.67-14.67l1.605,1.606c1.601,1.6,3.771,2.499,6.034,2.499c2.263,0,4.433-0.899,6.034-2.499l13.064-13.064l59.627,59.627
			c4.826,4.825,11.161,7.236,17.5,7.236c6.334,0,12.67-2.411,17.492-7.233C357.174,363.313,357.173,347.617,347.526,337.968z
			 M246.877,295.224c-0.005,0.005-0.008,0.01-0.013,0.016l-13.051,13.051l-1.605-1.606c-3.333-3.331-8.735-3.331-12.069,0
			l-26.737,26.738c-3.332,3.333-3.332,8.735,0,12.069l1.606,1.605l-7.031,7.03l-22.309-22.309l7.03-7.03l1.605,1.606
			c3.333,3.331,8.735,3.331,12.069,0l26.739-26.739c3.332-3.333,3.332-8.735,0-12.069l-1.606-1.605l43.622-43.621
			c7.165-7.165,28.281-27.02,39.799-32.779c1.091-0.545,2.186-1.045,3.277-1.501c-5.631,6.714-11.257,14.119-14.619,20.4
			c-6.979,13.05-8.341,30.953-8.595,38.636l-5.186,5.187c-0.002,0.002-0.004,0.003-0.006,0.005L246.877,295.224z M335.462,360.891
			c-2.991,2.994-7.862,2.991-10.854-0.004L264.98,301.26l10.85-10.851l59.627,59.626
			C338.502,353.08,338.503,357.849,335.462,360.891z"/>
	</g>
</g>
<g>
</g>
<g>
</g>
<g>
</g>
<g>
</g>
<g>
</g>
<g>
</g>
<g>
</g>
<g>
</g>
<g>
</g>
<g>
</g>
<g>
</g>
<g>
</g>
<g>
</g>
<g>
</g>
<g>
</g>
</svg>
