<?xml version="1.0" encoding="iso-8859-1"?>
<!-- Generator: Adobe Illustrator 19.0.0, SVG Export Plug-In . SVG Version: 6.00 Build 0)  -->
<svg version="1.1" id="Layer_1" xmlns="http://www.w3.org/2000/svg" xmlns:xlink="http://www.w3.org/1999/xlink" x="0px" y="0px"
	 viewBox="0 0 512 512" style="enable-background:new 0 0 512 512;" xml:space="preserve">
<g>
	<g>
		<path d="M510.756,251.355L387.399,37.698c-1.659-2.873-4.725-4.645-8.044-4.645h-246.71c-3.319,0-6.385,1.771-8.044,4.645
			L1.244,251.355c-1.659,2.873-1.659,6.416,0,9.289l123.356,213.657c1.659,2.873,4.725,4.645,8.044,4.645h246.71
			c3.319,0,6.385-1.771,8.044-4.645l123.356-213.657C512.415,257.771,512.415,254.229,510.756,251.355z M373.991,460.368H138.009
			L20.016,256L138.009,51.632h235.983L491.984,256L373.991,460.368z"/>
	</g>
</g>
<g>
	<g>
		<path d="M148.02,257.412c-1.412-3.122-3.282-5.76-5.611-7.915c-2.329-2.155-4.979-3.938-7.952-5.351
			c-2.973-1.412-6.007-2.65-9.104-3.716c-3.096-1.066-6.131-2.069-9.104-3.01c-2.973-0.941-5.623-2.007-7.952-3.196
			c-2.329-1.189-4.199-2.627-5.611-4.311c-1.412-1.684-2.118-3.79-2.118-6.317c0-1.981,0.347-3.802,1.04-5.462
			c0.694-1.661,1.746-3.084,3.158-4.273c1.412-1.189,3.146-2.118,5.202-2.787c2.056-0.669,4.471-1.003,7.246-1.003
			c3.072,0,5.735,0.383,7.989,1.152c2.254,0.769,4.224,1.623,5.908,2.564s3.146,1.795,4.385,2.564
			c1.239,0.769,2.353,1.152,3.344,1.152s1.846-0.223,2.564-0.669c0.718-0.446,1.35-1.214,1.895-2.304l4.905-9.438
			c-3.765-3.567-8.323-6.342-13.674-8.323s-11.197-2.973-17.539-2.973c-5.599,0-10.578,0.866-14.937,2.601
			c-4.36,1.735-8.038,4.038-11.036,6.911c-2.997,2.872-5.276,6.168-6.837,9.884c-1.561,3.716-2.341,7.531-2.341,11.445
			c0,4.905,0.706,9.03,2.118,12.374c1.412,3.344,3.282,6.131,5.611,8.361c2.329,2.23,4.979,4.039,7.952,5.425
			c2.973,1.386,5.995,2.576,9.066,3.567c3.072,0.992,6.094,1.906,9.067,2.75c2.973,0.843,5.623,1.87,7.952,3.084
			c2.329,1.215,4.199,2.713,5.611,4.496c1.412,1.783,2.118,4.087,2.118,6.911c0,5.053-1.561,8.93-4.682,11.631
			c-3.121,2.701-7.531,4.05-13.228,4.05c-3.716,0-6.899-0.509-9.55-1.523c-2.651-1.015-4.954-2.144-6.911-3.382
			c-1.957-1.238-3.654-2.366-5.091-3.381c-1.437-1.015-2.775-1.523-4.013-1.523c-0.941,0-1.796,0.235-2.564,0.706
			c-0.768,0.471-1.424,1.052-1.969,1.746l-5.797,9.587c2.081,2.13,4.447,4.062,7.097,5.797c2.651,1.735,5.499,3.221,8.546,4.459
			s6.23,2.192,9.55,2.861c3.319,0.669,6.688,1.003,10.107,1.003c5.945,0,11.222-0.903,15.829-2.713
			c4.607-1.809,8.509-4.285,11.705-7.432c3.196-3.147,5.623-6.837,7.283-11.073c1.66-4.236,2.49-8.781,2.49-13.637
			C150.137,264.324,149.432,260.534,148.02,257.412z"/>
	</g>
</g>
<g>
	<g>
		<polygon points="156.38,194.987 156.38,211.411 188.856,211.411 188.856,302.447 208.847,302.447 208.847,211.411 
			241.174,211.411 241.174,194.987 		"/>
	</g>
</g>
<g>
	<g>
		<path d="M441.826,215.424c-1.635-4.21-4.162-7.829-7.58-10.85c-3.419-3.021-7.754-5.376-13.005-7.06
			c-5.252-1.684-11.469-2.527-18.653-2.527h-35.003v107.46h0h19.991v-37.827h15.012c6.986,0,13.08-0.866,18.282-2.601
			c5.202-1.735,9.537-4.162,13.005-7.283c3.468-3.121,6.069-6.849,7.803-11.185c1.734-4.336,2.601-9.104,2.601-14.306
			C444.279,224.242,443.461,219.634,441.826,215.424z M422.95,237.458c-0.892,2.452-2.229,4.533-4.013,6.243
			c-1.783,1.709-4.038,3.021-6.763,3.939c-2.725,0.917-5.92,1.375-9.587,1.375h-15.012v-38.569h15.012
			c3.666,0,6.862,0.434,9.587,1.3c2.725,0.866,4.979,2.118,6.763,3.753c1.784,1.635,3.122,3.616,4.013,5.945s1.338,4.93,1.338,7.803
			C424.288,232.268,423.842,235.006,422.95,237.458z"/>
	</g>
</g>
<g>
	<g>
		<path d="M347.223,226.831c-2.626-6.714-6.317-12.51-11.073-17.39c-4.756-4.88-10.478-8.707-17.167-11.482
			c-6.688-2.775-14.095-4.162-22.22-4.162s-15.544,1.375-22.258,4.125c-6.713,2.75-12.46,6.577-17.241,11.482
			c-4.781,4.905-8.484,10.713-11.11,17.427c-2.626,6.714-3.939,14.009-3.939,21.886c0,7.877,1.313,15.172,3.939,21.886
			c2.626,6.714,6.329,12.522,11.11,17.427c4.781,4.905,10.528,8.732,17.241,11.482c6.713,2.75,14.132,4.125,22.258,4.125
			s15.532-1.375,22.22-4.125c6.688-2.75,12.411-6.577,17.167-11.482c4.756-4.905,8.447-10.713,11.073-17.427
			c2.626-6.714,3.939-14.008,3.939-21.886S349.848,233.545,347.223,226.831z M328.309,264.583
			c-1.561,4.682-3.802,8.646-6.726,11.891c-2.923,3.244-6.478,5.734-10.664,7.469c-4.187,1.735-8.906,2.601-14.157,2.601
			c-5.252,0-9.983-0.866-14.194-2.601c-4.211-1.735-7.791-4.224-10.739-7.469c-2.948-3.245-5.214-7.209-6.8-11.891
			c-1.585-4.682-2.378-9.97-2.378-15.866c0-5.897,0.793-11.185,2.378-15.866c1.586-4.682,3.852-8.658,6.8-11.928
			c2.948-3.27,6.527-5.771,10.739-7.506c4.211-1.735,8.943-2.601,14.194-2.601c5.252,0,9.971,0.866,14.157,2.601
			c4.187,1.735,7.741,4.236,10.664,7.506s5.165,7.246,6.726,11.928c1.561,4.682,2.341,9.97,2.341,15.866
			S329.87,259.902,328.309,264.583z"/>
	</g>
</g>
<g>
</g>
<g>
</g>
<g>
</g>
<g>
</g>
<g>
</g>
<g>
</g>
<g>
</g>
<g>
</g>
<g>
</g>
<g>
</g>
<g>
</g>
<g>
</g>
<g>
</g>
<g>
</g>
<g>
</g>
</svg>
