<?xml version="1.0" encoding="iso-8859-1"?>
<!-- Generator: Adobe Illustrator 19.0.0, SVG Export Plug-In . SVG Version: 6.00 Build 0)  -->
<svg version="1.1" id="Layer_1" xmlns="http://www.w3.org/2000/svg" xmlns:xlink="http://www.w3.org/1999/xlink" x="0px" y="0px"
	 viewBox="0 0 512 512" style="enable-background:new 0 0 512 512;" xml:space="preserve">
<g>
	<g>
		<path d="M256,52.966C144.046,52.966,52.966,144.047,52.966,256S144.046,459.034,256,459.034S459.034,367.953,459.034,256
			S367.954,52.966,256,52.966z M256,441.379c-102.219,0-185.379-83.162-185.379-185.379S153.781,70.621,256,70.621
			S441.379,153.782,441.379,256S358.219,441.379,256,441.379z"/>
	</g>
</g>
<g>
	<g>
		<path d="M256,0C114.842,0,0,114.841,0,256s114.842,256,256,256s256-114.841,256-256S397.158,0,256,0z M256,494.345
			c-131.424,0-238.345-106.92-238.345-238.345S124.576,17.655,256,17.655S494.345,124.575,494.345,256S387.424,494.345,256,494.345z
			"/>
	</g>
</g>
<g>
	<g>
		<path d="M241.744,254.903c-4.873-6.057-11.845-10.372-20.913-12.943c7.581-2.842,13.332-7.089,17.258-12.74
			c3.926-5.651,5.888-12.402,5.888-20.253c0-5.347-1.048-10.355-3.147-15.025c-2.099-4.67-5.076-8.731-8.934-12.182
			c-3.858-3.452-8.494-6.159-13.908-8.121s-11.403-2.944-17.969-2.944c-6.632,0-12.639,0.981-18.019,2.944
			c-5.38,1.963-9.999,4.67-13.857,8.121c-3.857,3.452-6.835,7.512-8.933,12.182c-2.099,4.67-3.147,9.678-3.147,15.025
			c0,7.851,1.947,14.602,5.837,20.253c3.891,5.651,9.662,9.898,17.309,12.74c-9.068,2.572-16.04,6.886-20.913,12.943
			c-4.873,6.057-7.309,13.756-7.309,23.095c0,6.362,1.185,12.098,3.553,17.207c2.368,5.109,5.718,9.458,10.05,13.045
			c4.332,3.587,9.51,6.345,15.532,8.274c6.023,1.929,12.657,2.893,19.897,2.893c7.241,0,13.875-0.964,19.897-2.893
			c6.023-1.929,11.185-4.687,15.481-8.274s7.647-7.935,10.05-13.045c2.403-5.11,3.604-10.845,3.604-17.207
			C249.053,268.659,246.617,260.96,241.744,254.903z M175.148,218.915c-0.947-3.113-1.421-6.328-1.421-9.644
			c0-3.384,0.559-6.565,1.675-9.543c1.117-2.978,2.774-5.583,4.974-7.817c2.2-2.233,4.941-3.993,8.223-5.279
			c3.282-1.286,7.089-1.929,11.421-1.929c4.332,0,8.139,0.643,11.42,1.929c3.282,1.286,6.023,3.045,8.223,5.279
			c2.2,2.233,3.857,4.839,4.974,7.817c1.117,2.978,1.675,6.159,1.675,9.543c0,3.316-0.474,6.531-1.421,9.644
			c-0.947,3.113-2.47,5.871-4.568,8.274c-2.099,2.403-4.822,4.331-8.172,5.786c-3.35,1.455-7.393,2.183-12.131,2.183
			c-4.738,0-8.781-0.728-12.132-2.183c-3.35-1.455-6.073-3.384-8.172-5.786C177.618,224.786,176.095,222.029,175.148,218.915z
			 M228.292,288.81c-1.388,3.35-3.383,6.226-5.99,8.629c-2.606,2.403-5.786,4.264-9.543,5.583c-3.756,1.32-8.002,1.98-12.74,1.98
			c-4.738,0-8.984-0.66-12.741-1.98c-3.756-1.32-6.936-3.181-9.543-5.583s-4.601-5.279-5.99-8.629
			c-1.388-3.35-2.081-7.055-2.081-11.116c0-5.008,0.83-9.289,2.487-12.842c1.658-3.553,3.891-6.446,6.7-8.68
			c2.81-2.233,6.04-3.875,9.695-4.924c3.655-1.049,7.479-1.573,11.471-1.573c3.992,0,7.817,0.525,11.471,1.573
			c3.655,1.049,6.885,2.69,9.695,4.924c2.81,2.233,5.043,5.127,6.7,8.68c1.657,3.553,2.487,7.834,2.487,12.842
			C230.373,281.754,229.681,285.46,228.292,288.81z"/>
	</g>
</g>
<g>
	<g>
		<path d="M366.559,212.012c-2.741-9.34-6.479-17.072-11.218-23.197c-4.738-6.125-10.337-10.676-16.801-13.654
			c-6.464-2.978-13.383-4.467-20.76-4.467c-7.444,0-14.365,1.489-20.76,4.467c-6.396,2.978-11.961,7.529-16.7,13.654
			c-4.738,6.125-8.459,13.857-11.167,23.197c-2.708,9.34-4.061,20.371-4.061,33.095c0,12.724,1.353,23.738,4.061,33.044
			c2.708,9.306,6.429,17.004,11.167,23.095c4.738,6.091,10.304,10.626,16.7,13.603c6.395,2.978,13.316,4.467,20.76,4.467
			c7.378,0,14.296-1.489,20.76-4.467c6.464-2.978,12.063-7.512,16.801-13.603c4.738-6.091,8.476-13.79,11.218-23.095
			c2.741-9.306,4.111-20.32,4.111-33.044C370.67,232.383,369.3,221.352,366.559,212.012z M349.098,273.024
			c-1.86,7.512-4.365,13.57-7.512,18.172c-3.147,4.602-6.784,7.901-10.913,9.898c-4.129,1.997-8.426,2.995-12.893,2.995
			c-4.467,0-8.764-0.998-12.893-2.995c-4.129-1.997-7.748-5.296-10.862-9.898c-3.114-4.602-5.601-10.659-7.461-18.172
			s-2.792-16.818-2.792-27.917s0.931-20.422,2.792-27.968s4.348-13.62,7.461-18.222s6.733-7.901,10.862-9.898
			c4.129-1.997,8.426-2.995,12.893-2.995c4.467,0,8.763,0.998,12.893,2.995c4.129,1.997,7.766,5.296,10.913,9.898
			c3.147,4.602,5.652,10.676,7.512,18.222c1.86,7.546,2.792,16.869,2.792,27.968S350.958,265.512,349.098,273.024z"/>
	</g>
</g>
<g>
</g>
<g>
</g>
<g>
</g>
<g>
</g>
<g>
</g>
<g>
</g>
<g>
</g>
<g>
</g>
<g>
</g>
<g>
</g>
<g>
</g>
<g>
</g>
<g>
</g>
<g>
</g>
<g>
</g>
</svg>
