<?xml version="1.0" encoding="iso-8859-1"?>
<!-- Generator: Adobe Illustrator 19.0.0, SVG Export Plug-In . SVG Version: 6.00 Build 0)  -->
<svg version="1.1" id="Layer_1" xmlns="http://www.w3.org/2000/svg" xmlns:xlink="http://www.w3.org/1999/xlink" x="0px" y="0px"
	 viewBox="0 0 512 512" style="enable-background:new 0 0 512 512;" xml:space="preserve">
<g>
	<g>
		<path d="M256,52.966C144.046,52.966,52.966,144.047,52.966,256S144.046,459.034,256,459.034S459.034,367.953,459.034,256
			S367.954,52.966,256,52.966z M256,441.379c-102.219,0-185.379-83.162-185.379-185.379S153.781,70.621,256,70.621
			S441.379,153.782,441.379,256S358.219,441.379,256,441.379z"/>
	</g>
</g>
<g>
	<g>
		<path d="M256,0C114.842,0,0,114.841,0,256s114.842,256,256,256s256-114.841,256-256S397.158,0,256,0z M256,494.345
			c-131.424,0-238.345-106.92-238.345-238.345S124.576,17.655,256,17.655S494.345,124.575,494.345,256S387.424,494.345,256,494.345z
			"/>
	</g>
</g>
<g>
	<g>
		<path d="M366.559,212.012c-2.741-9.34-6.479-17.072-11.218-23.197c-4.738-6.125-10.337-10.676-16.801-13.654
			c-6.464-2.978-13.383-4.467-20.76-4.467c-7.444,0-14.365,1.489-20.76,4.467c-6.396,2.978-11.961,7.529-16.7,13.654
			c-4.738,6.125-8.459,13.857-11.167,23.197c-2.708,9.34-4.061,20.371-4.061,33.095c0,12.724,1.353,23.738,4.061,33.044
			c2.708,9.306,6.429,17.004,11.167,23.095c4.738,6.091,10.304,10.626,16.7,13.603c6.395,2.978,13.316,4.467,20.76,4.467
			c7.378,0,14.296-1.489,20.76-4.467c6.464-2.978,12.063-7.512,16.801-13.603c4.738-6.091,8.476-13.79,11.218-23.095
			c2.741-9.306,4.111-20.32,4.111-33.044C370.67,232.383,369.3,221.352,366.559,212.012z M349.098,273.024
			c-1.86,7.512-4.365,13.57-7.512,18.172c-3.147,4.602-6.784,7.901-10.913,9.898c-4.129,1.997-8.426,2.995-12.893,2.995
			c-4.467,0-8.764-0.998-12.893-2.995c-4.129-1.997-7.748-5.296-10.862-9.898c-3.114-4.602-5.601-10.659-7.461-18.172
			s-2.792-16.818-2.792-27.917s0.931-20.422,2.792-27.968s4.348-13.62,7.461-18.222s6.733-7.901,10.862-9.898
			c4.129-1.997,8.426-2.995,12.893-2.995c4.467,0,8.763,0.998,12.893,2.995c4.129,1.997,7.766,5.296,10.913,9.898
			c3.147,4.602,5.652,10.676,7.512,18.222c1.86,7.546,2.792,16.869,2.792,27.968S350.958,265.512,349.098,273.024z"/>
	</g>
</g>
<g>
	<g>
		<path d="M246.819,253.583c-2.302-5.38-5.413-9.915-9.34-13.603c-3.926-3.688-8.494-6.497-13.705-8.426s-10.727-2.893-16.547-2.893
			c-4.873,0-9.407,0.66-13.603,1.98s-8.02,3.164-11.471,5.533l50.454-63.854h-16.04c-2.166,0-4.094,0.423-5.786,1.269
			c-1.692,0.846-3.012,1.878-3.959,3.096l-36.851,49.642c-6.159,8.257-10.659,15.972-13.502,23.146s-4.264,13.942-4.264,20.303
			c0,7.58,1.134,14.432,3.401,20.557c2.267,6.125,5.499,11.336,9.695,15.634c4.196,4.297,9.255,7.614,15.177,9.949
			c5.922,2.335,12.537,3.502,19.847,3.502c7.377,0,14.145-1.218,20.303-3.655c6.159-2.436,11.421-5.786,15.786-10.05
			c4.365-4.264,7.766-9.272,10.202-15.025c2.436-5.753,3.655-11.979,3.655-18.679C250.271,265.106,249.121,258.964,246.819,253.583z
			 M229.815,285.714c-1.523,3.79-3.688,7.072-6.497,9.847c-2.809,2.775-6.176,4.941-10.101,6.497
			c-3.925,1.557-8.324,2.335-13.197,2.335c-4.805,0-9.086-0.761-12.842-2.284s-6.937-3.672-9.543-6.446
			c-2.606-2.775-4.585-6.091-5.939-9.949c-1.353-3.858-2.03-8.121-2.03-12.791c0-3.993,0.728-7.834,2.183-11.522
			c1.455-3.688,3.553-6.937,6.294-9.746c2.741-2.809,6.074-5.042,9.999-6.7c3.925-1.658,8.324-2.487,13.197-2.487
			c4.534,0,8.697,0.711,12.487,2.132s7.038,3.469,9.746,6.142s4.805,5.922,6.294,9.746c1.49,3.824,2.233,8.104,2.233,12.842
			C232.099,277.795,231.338,281.924,229.815,285.714z"/>
	</g>
</g>
<g>
</g>
<g>
</g>
<g>
</g>
<g>
</g>
<g>
</g>
<g>
</g>
<g>
</g>
<g>
</g>
<g>
</g>
<g>
</g>
<g>
</g>
<g>
</g>
<g>
</g>
<g>
</g>
<g>
</g>
</svg>
