<?xml version="1.0" encoding="iso-8859-1"?>
<!-- Generator: Adobe Illustrator 19.0.0, SVG Export Plug-In . SVG Version: 6.00 Build 0)  -->
<svg version="1.1" id="Layer_1" xmlns="http://www.w3.org/2000/svg" xmlns:xlink="http://www.w3.org/1999/xlink" x="0px" y="0px"
	 viewBox="0 0 512 512" style="enable-background:new 0 0 512 512;" xml:space="preserve">
<g>
	<g>
		<path d="M256,52.966C144.046,52.966,52.966,144.047,52.966,256S144.046,459.034,256,459.034S459.034,367.953,459.034,256
			S367.954,52.966,256,52.966z M256,441.379c-102.219,0-185.379-83.162-185.379-185.379S153.781,70.621,256,70.621
			S441.379,153.782,441.379,256S358.219,441.379,256,441.379z"/>
	</g>
</g>
<g>
	<g>
		<path d="M256,0C114.842,0,0,114.841,0,256s114.842,256,256,256s256-114.841,256-256S397.158,0,256,0z M256,494.345
			c-131.424,0-238.345-106.92-238.345-238.345S124.576,17.655,256,17.655S494.345,124.575,494.345,256S387.424,494.345,256,494.345z
			"/>
	</g>
</g>
<g>
	<g>
		<path d="M241.997,251.299c-1.997-5.347-4.958-9.982-8.883-13.908c-3.925-3.925-8.781-7.005-14.568-9.238s-12.47-3.35-20.05-3.35
			c-6.429,0-13.434,0.812-21.014,2.436l6.7-38.17h45.683c3.858,0,6.599-0.829,8.223-2.487c1.624-1.658,2.436-3.773,2.436-6.345
			v-7.918h-68.93l-11.776,68.017l11.37,3.35c4.196-1.354,8.257-2.335,12.182-2.944c3.925-0.609,7.715-0.914,11.37-0.914
			c5.347,0,10.016,0.711,14.009,2.132c3.993,1.421,7.326,3.418,9.999,5.99c2.673,2.572,4.67,5.685,5.99,9.34
			c1.32,3.655,1.98,7.749,1.98,12.284c0,5.211-0.778,9.915-2.335,14.111s-3.773,7.8-6.649,10.812
			c-2.876,3.012-6.345,5.33-10.406,6.954c-4.061,1.624-8.629,2.436-13.705,2.436c-4.534,0-8.443-0.525-11.725-1.573
			c-3.282-1.049-6.142-2.216-8.578-3.502c-2.436-1.286-4.518-2.454-6.243-3.502c-1.726-1.049-3.232-1.574-4.518-1.574
			c-2.03,0-3.654,0.88-4.873,2.639l-5.482,7.715c2.233,2.03,4.805,3.959,7.715,5.786c2.91,1.827,6.057,3.452,9.441,4.873
			c3.384,1.421,7.038,2.555,10.964,3.401c3.925,0.846,8.02,1.269,12.284,1.269c7.377,0,14.246-1.184,20.608-3.553
			s11.894-5.769,16.598-10.203c4.704-4.433,8.409-9.763,11.116-15.989c2.707-6.226,4.061-13.197,4.061-20.913
			C244.992,262.466,243.994,256.646,241.997,251.299z"/>
	</g>
</g>
<g>
	<g>
		<path d="M366.559,212.012c-2.741-9.34-6.48-17.072-11.218-23.197c-4.738-6.125-10.338-10.676-16.801-13.654
			c-6.463-2.978-13.383-4.467-20.76-4.467c-7.445,0-14.365,1.489-20.76,4.467c-6.395,2.978-11.962,7.529-16.7,13.654
			c-4.738,6.125-8.46,13.857-11.167,23.197c-2.707,9.34-4.061,20.371-4.061,33.095c0,12.724,1.354,23.738,4.061,33.044
			c2.707,9.306,6.429,17.004,11.167,23.095c4.738,6.091,10.304,10.626,16.7,13.603c6.396,2.978,13.316,4.467,20.76,4.467
			c7.377,0,14.297-1.489,20.76-4.467c6.463-2.978,12.064-7.512,16.801-13.603c4.738-6.091,8.477-13.79,11.218-23.095
			c2.741-9.306,4.112-20.32,4.112-33.044C370.67,232.383,369.3,221.352,366.559,212.012z M349.098,273.024
			c-1.861,7.512-4.365,13.57-7.512,18.172c-3.147,4.602-6.785,7.901-10.913,9.898c-4.128,1.997-8.426,2.995-12.893,2.995
			c-4.467,0-8.764-0.998-12.893-2.995s-7.749-5.296-10.862-9.898c-3.113-4.602-5.6-10.659-7.462-18.172
			c-1.861-7.512-2.792-16.818-2.792-27.917s0.931-20.422,2.792-27.968c1.861-7.546,4.348-13.62,7.462-18.222
			s6.734-7.901,10.862-9.898s8.426-2.995,12.893-2.995c4.467,0,8.764,0.998,12.893,2.995c4.128,1.997,7.766,5.296,10.913,9.898
			s5.651,10.676,7.512,18.222c1.861,7.546,2.792,16.869,2.792,27.968S350.959,265.512,349.098,273.024z"/>
	</g>
</g>
<g>
</g>
<g>
</g>
<g>
</g>
<g>
</g>
<g>
</g>
<g>
</g>
<g>
</g>
<g>
</g>
<g>
</g>
<g>
</g>
<g>
</g>
<g>
</g>
<g>
</g>
<g>
</g>
<g>
</g>
</svg>
