<?xml version="1.0" encoding="iso-8859-1"?>
<!-- Generator: Adobe Illustrator 19.0.0, SVG Export Plug-In . SVG Version: 6.00 Build 0)  -->
<svg version="1.1" id="Layer_1" xmlns="http://www.w3.org/2000/svg" xmlns:xlink="http://www.w3.org/1999/xlink" x="0px" y="0px"
	 viewBox="0 0 512 512" style="enable-background:new 0 0 512 512;" xml:space="preserve">
<g>
	<g>
		<path d="M256,52.966C144.046,52.966,52.966,144.047,52.966,256S144.046,459.034,256,459.034S459.034,367.953,459.034,256
			S367.954,52.966,256,52.966z M256,441.379c-102.219,0-185.379-83.162-185.379-185.379S153.781,70.621,256,70.621
			S441.379,153.782,441.379,256S358.219,441.379,256,441.379z"/>
	</g>
</g>
<g>
	<g>
		<path d="M256,0C114.842,0,0,114.841,0,256s114.842,256,256,256s256-114.841,256-256S397.158,0,256,0z M256,494.345
			c-131.424,0-238.345-106.92-238.345-238.345S124.576,17.655,256,17.655S494.345,124.575,494.345,256S387.424,494.345,256,494.345z
			"/>
	</g>
</g>
<g>
	<g>
		<path d="M224.084,265.309v-92.99h-16.852l-70.758,93.903l1.827,9.238c0.271,1.151,0.896,2.115,1.878,2.893
			c0.981,0.778,2.149,1.167,3.502,1.167h64.463v38.272h15.938v-38.272h18.07c1.353,0,2.352-0.372,2.995-1.117
			s0.964-1.658,0.964-2.741v-10.355H224.084z M208.298,199.627c-0.102,2.03-0.152,3.925-0.152,5.685v59.997h-52.078l52.891-71.976
			C208.62,195.499,208.399,197.597,208.298,199.627z"/>
	</g>
</g>
<g>
	<g>
		<path d="M357.731,212.012c-2.741-9.34-6.48-17.072-11.217-23.197c-4.738-6.125-10.338-10.676-16.801-13.654
			c-6.463-2.978-13.383-4.467-20.76-4.467c-7.445,0-14.365,1.489-20.76,4.467s-11.962,7.529-16.7,13.654
			c-4.738,6.125-8.46,13.857-11.167,23.197c-2.707,9.34-4.061,20.371-4.061,33.095c0,12.724,1.354,23.738,4.061,33.044
			c2.707,9.306,6.429,17.004,11.167,23.095c4.738,6.091,10.304,10.626,16.7,13.603c6.395,2.978,13.316,4.467,20.76,4.467
			c7.377,0,14.297-1.489,20.76-4.467c6.463-2.978,12.064-7.512,16.801-13.603c4.738-6.091,8.477-13.79,11.217-23.095
			c2.741-9.306,4.112-20.32,4.112-33.044C361.843,232.383,360.472,221.352,357.731,212.012z M340.27,273.024
			c-1.861,7.512-4.365,13.57-7.512,18.172c-3.147,4.602-6.785,7.901-10.913,9.898c-4.128,1.997-8.426,2.995-12.893,2.995
			c-4.467,0-8.764-0.998-12.893-2.995s-7.749-5.296-10.862-9.898c-3.113-4.602-5.6-10.659-7.461-18.172s-2.792-16.818-2.792-27.917
			s0.931-20.422,2.792-27.968s4.348-13.62,7.461-18.222c3.113-4.602,6.734-7.901,10.862-9.898s8.426-2.995,12.893-2.995
			c4.467,0,8.764,0.998,12.893,2.995c4.128,1.997,7.766,5.296,10.913,9.898c3.147,4.602,5.651,10.676,7.512,18.222
			s2.792,16.869,2.792,27.968S342.131,265.512,340.27,273.024z"/>
	</g>
</g>
<g>
</g>
<g>
</g>
<g>
</g>
<g>
</g>
<g>
</g>
<g>
</g>
<g>
</g>
<g>
</g>
<g>
</g>
<g>
</g>
<g>
</g>
<g>
</g>
<g>
</g>
<g>
</g>
<g>
</g>
</svg>
