<?xml version="1.0"?>
<svg xmlns="http://www.w3.org/2000/svg" id="Layer_1" data-name="Layer 1" viewBox="0 0 512 512" width="512" height="512"><title>Speedometer</title><circle cx="256" cy="269" r="8"/><polygon points="250.314 194 261.686 194 256 161.101 250.314 194"/><path d="M256,33A223,223,0,0,0,98.315,413.685a223,223,0,0,0,315.37-315.37A221.542,221.542,0,0,0,256,33Zm0,258a22,22,0,1,1,22-22A22.025,22.025,0,0,1,256,291Zm200-29H288.609a7,7,0,0,1-7-7,25.609,25.609,0,0,0-51.218,0,7,7,0,0,1-7,7H56a7,7,0,0,1-7-7C49,140.859,141.86,48,256,48s207,92.859,207,207A7,7,0,0,1,456,262Z"/><path d="M395.918,150.4l15.428-9.8a194.713,194.713,0,0,0-32.472-34.313l-11.555,14.377a7,7,0,0,1-10.913-8.772l11.365-14.138a192.847,192.847,0,0,0-40.352-22.047l-6.772,18.6a7,7,0,1,1-13.156-4.789l6.65-18.534A188.078,188.078,0,0,0,264,62.185V80a7,7,0,0,1-14,0V62.1a191.361,191.361,0,0,0-48.982,7.864l6.442,17.566a6.98,6.98,0,1,1-13.113,4.789l-6.5-17.878a192.59,192.59,0,0,0-41.062,21.521L159.593,111.9a7,7,0,0,1-10.912,8.772l-13.144-16.354a194.71,194.71,0,0,0-33.917,35L119.082,150.4a7,7,0,1,1-7.5,11.819l-17.966-11.41A192.34,192.34,0,0,0,72.87,194.065l20.1,4.873a7,7,0,1,1-3.3,13.606l-20.75-5.03A192.3,192.3,0,0,0,63.125,248H217.011a39.613,39.613,0,0,1,77.978,0H448.875a192.3,192.3,0,0,0-5.8-40.486l-20.75,5.03a7,7,0,1,1-3.3-13.606l20.1-4.873a192.235,192.235,0,0,0-19.879-41.9l-15.828,10.053a7,7,0,0,1-7.5-11.819ZM275.355,205.509A7,7,0,0,1,270,208H242a7,7,0,0,1-6.9-8.192l14-81a7,7,0,0,1,13.8,0l14,81A7,7,0,0,1,275.355,205.509Z"/></svg>
