<?xml version="1.0" encoding="iso-8859-1"?>
<!-- Generator: Adobe Illustrator 19.0.0, SVG Export Plug-In . SVG Version: 6.00 Build 0)  -->
<svg version="1.1" id="Layer_1" xmlns="http://www.w3.org/2000/svg" xmlns:xlink="http://www.w3.org/1999/xlink" x="0px" y="0px"
	 viewBox="0 0 512 512" style="enable-background:new 0 0 512 512;" xml:space="preserve">
<g>
	<g>
		<path d="M474.923,387.893l-47.281-54.545c-0.605-0.698-1.318-1.296-2.111-1.772l-88.445-53.1l-11.365-34.094
			c-0.96-2.88-3.343-5.058-6.299-5.755c-2.951-0.693-6.059,0.186-8.206,2.331l-24.778,24.778L127.761,107.058L96.932,51.92
			c-0.858-1.533-2.156-2.774-3.728-3.56L43.651,23.583c-3.373-1.685-7.447-1.027-10.112,1.64L2.567,56.195
			c-2.667,2.667-3.328,6.74-1.643,10.113l24.777,49.553c0.787,1.572,2.027,2.871,3.561,3.729l55.137,30.829l158.68,158.679
			l-24.776,24.776c-2.147,2.147-3.031,5.253-2.331,8.207c0.697,2.955,2.874,5.338,5.755,6.298l34.105,11.368l54.192,89.745
			c0.477,0.79,1.076,1.5,1.775,2.103l53.495,46.163c10.266,8.858,23.316,13.236,36.366,13.235
			c14.483-0.001,28.96-5.394,39.602-16.037l31.037-31.037C492.538,443.681,493.716,409.575,474.923,387.893z M95.929,137.171
			c-0.569-0.57-1.215-1.058-1.918-1.451l-53.843-30.105L19.42,64.12l22.043-22.042l41.492,20.746l30.106,53.844
			c0.394,0.704,0.881,1.349,1.452,1.92l159.537,159.538l-18.583,18.584L95.929,137.171z M459.912,451.533l-31.037,31.037
			c-13.886,13.887-37.273,14.749-52.135,1.926l-52.44-45.252l-55.139-91.315c-1.076-1.783-2.752-3.124-4.729-3.782l-23.718-7.906
			l24.289-24.29l27.63-27.63c0.002-0.002,0.003-0.005,0.005-0.006l20.943-20.944l7.907,23.72c0.661,1.983,2.01,3.664,3.802,4.739
			l90.026,54.05l46.369,53.489C474.586,414.252,473.79,437.654,459.912,451.533z"/>
	</g>
</g>
<g>
	<g>
		<path d="M509.433,226.005l-30.972-30.97c-3.422-3.42-8.97-3.42-12.387,0l-6.194,6.194l-30.972-30.971l6.194-6.195
			c3.422-3.421,3.422-8.967,0-12.388l-80.525-80.525c-1.811-1.811-44.66-44.513-70.414-57.388
			C257.756,0.555,231.063,0.989,229.934,1.012c-3.508,0.078-6.63,2.24-7.934,5.495c-1.307,3.256-0.545,6.976,1.936,9.457
			c0.361,0.362,36.387,36.51,48.584,59.316c11.707,21.884,11.361,57.329,11.354,57.68c-0.034,2.368,0.892,4.649,2.567,6.325
			l6.195,6.195l-50.177,50.176c-3.422,3.421-3.422,8.967,0,12.389c3.422,3.42,8.97,3.42,12.387,0l50.178-50.177l24.777,24.777
			l-50.175,50.177c-3.422,3.422-3.422,8.967,0,12.389c1.709,1.71,3.952,2.565,6.194,2.565c2.241,0,4.485-0.855,6.194-2.565
			l50.178-50.178l24.777,24.777c3.422,3.42,8.965,3.42,12.387,0l6.196-6.194l30.972,30.971l-6.194,6.195
			c-3.422,3.421-3.422,8.966,0,12.388l30.97,30.971c1.643,1.643,3.871,2.565,6.194,2.565s4.551-0.923,6.194-2.565l55.749-55.749
			c1.643-1.644,2.566-3.871,2.566-6.195S511.076,227.647,509.433,226.005z M447.491,275.56l-18.583-18.583l6.194-6.195
			c3.422-3.421,3.422-8.967,0-12.388l-43.359-43.359c-3.422-3.42-8.965-3.42-12.387,0l-6.196,6.194l-71.791-71.792
			c-0.222-10.599-1.891-40.902-13.399-62.418c-7.663-14.329-22.929-32.495-34.895-45.721c7.145,1.605,15.262,4.138,23.252,8.133
			c23.219,11.608,65.439,53.684,65.863,54.107l74.332,74.331l-6.194,6.195c-3.422,3.421-3.422,8.967,0,12.388l43.359,43.359
			c3.418,3.42,8.97,3.42,12.387,0l6.194-6.194l18.583,18.582L447.491,275.56z"/>
	</g>
</g>
<g>
	<g>
		<path d="M213.904,310.93c-3.418-3.42-8.97-3.42-12.387,0L63.449,448.999c-6.835,6.833-17.95,6.832-24.781,0.001
			c-3.302-3.302-5.122-7.7-5.124-12.383c-0.002-4.685,1.816-9.083,5.118-12.386l137.344-137.345c3.422-3.422,3.422-8.969,0-12.389
			c-3.422-3.42-8.97-3.42-12.387,0L26.274,411.842c-6.615,6.615-10.257,15.417-10.251,24.785
			c0.004,9.359,3.646,18.153,10.257,24.763c6.831,6.831,15.803,10.246,24.777,10.245c8.974,0,17.948-3.417,24.779-10.247
			l138.069-138.069C217.326,319.897,217.326,314.351,213.904,310.93z"/>
	</g>
</g>
<g>
</g>
<g>
</g>
<g>
</g>
<g>
</g>
<g>
</g>
<g>
</g>
<g>
</g>
<g>
</g>
<g>
</g>
<g>
</g>
<g>
</g>
<g>
</g>
<g>
</g>
<g>
</g>
<g>
</g>
</svg>
