<?xml version="1.0" encoding="iso-8859-1"?>
<!-- Generator: Adobe Illustrator 19.0.0, SVG Export Plug-In . SVG Version: 6.00 Build 0)  -->
<svg version="1.1" id="Layer_1" xmlns="http://www.w3.org/2000/svg" xmlns:xlink="http://www.w3.org/1999/xlink" x="0px" y="0px"
	 viewBox="0 0 512 512" style="enable-background:new 0 0 512 512;" xml:space="preserve">
<g>
	<g>
		<path d="M510.73,27.35c-1.645-2.786-4.638-4.493-7.873-4.493H9.143c-3.234,0-6.228,1.708-7.873,4.493
			c-1.643,2.784-1.697,6.23-0.134,9.063l246.857,448c1.607,2.917,4.674,4.73,8.007,4.73s6.4-1.813,8.007-4.73l246.857-448
			C512.427,33.58,512.373,30.134,510.73,27.35z M256,461.056L24.62,41.143h462.759L256,461.056z"/>
	</g>
</g>
<g>
	<g>
		<path d="M437.545,63.85c-1.656-2.743-4.625-4.422-7.83-4.422H82.286c-3.205,0-6.174,1.679-7.83,4.422
			c-1.654,2.743-1.752,6.154-0.254,8.989l173.714,329.143c1.582,2.998,4.694,4.875,8.085,4.875s6.502-1.877,8.085-4.875
			L437.799,72.839C439.297,70.005,439.199,66.594,437.545,63.85z M256,378.127L97.449,77.714h317.103L256,378.127z"/>
	</g>
</g>
<g>
</g>
<g>
</g>
<g>
</g>
<g>
</g>
<g>
</g>
<g>
</g>
<g>
</g>
<g>
</g>
<g>
</g>
<g>
</g>
<g>
</g>
<g>
</g>
<g>
</g>
<g>
</g>
<g>
</g>
</svg>
