<?xml version="1.0" encoding="iso-8859-1"?>
<!-- Generator: Adobe Illustrator 17.1.0, SVG Export Plug-In . SVG Version: 6.00 Build 0)  -->
<!DOCTYPE svg PUBLIC "-//W3C//DTD SVG 1.1//EN" "http://www.w3.org/Graphics/SVG/1.1/DTD/svg11.dtd">
<svg version="1.1" id="Capa_1" xmlns="http://www.w3.org/2000/svg" xmlns:xlink="http://www.w3.org/1999/xlink" x="0px" y="0px"
	 viewBox="0 0 201.809 201.809" style="enable-background:new 0 0 201.809 201.809;" xml:space="preserve">
<path d="M196.809,30.238h-12.833c-2.762,0-5,2.238-5,5v3.417L35.162,87.348L7.342,72.597c-1.549-0.823-3.416-0.772-4.92,0.133
	C0.919,73.634,0,75.26,0,77.014v47.78c0,1.754,0.919,3.38,2.422,4.284c0.792,0.477,1.685,0.716,2.578,0.716
	c0.804,0,1.608-0.193,2.342-0.582l27.822-14.751l12.663,4.288l-2.925,9.09c-1.643,5.104-1.198,10.542,1.249,15.313
	c2.448,4.771,6.607,8.303,11.712,9.945l32.366,10.415c1.998,0.643,4.067,0.969,6.151,0.969c8.747,0,16.426-5.598,19.106-13.93
	l2.581-8.02l60.908,20.622v3.417c0,2.762,2.238,5,5,5h12.833c2.762,0,5-2.238,5-5V35.238
	C201.809,32.476,199.57,30.238,196.809,30.238z M105.967,147.489c-1.346,4.183-5.198,6.992-9.587,6.992
	c-1.043,0-2.082-0.164-3.089-0.488l-32.366-10.415c-2.562-0.824-4.648-2.597-5.877-4.99c-1.229-2.395-1.451-5.124-0.627-7.686
	l2.879-8.945l51.295,17.367L105.967,147.489z"/>
<g>
</g>
<g>
</g>
<g>
</g>
<g>
</g>
<g>
</g>
<g>
</g>
<g>
</g>
<g>
</g>
<g>
</g>
<g>
</g>
<g>
</g>
<g>
</g>
<g>
</g>
<g>
</g>
<g>
</g>
</svg>
