<?xml version="1.0" encoding="iso-8859-1"?>
<!-- Generator: Adobe Illustrator 19.0.0, SVG Export Plug-In . SVG Version: 6.00 Build 0)  -->
<svg version="1.1" id="Capa_1" xmlns="http://www.w3.org/2000/svg" xmlns:xlink="http://www.w3.org/1999/xlink" x="0px" y="0px"
	 viewBox="0 0 512 512" style="enable-background:new 0 0 512 512;" xml:space="preserve">
<g>
	<g>
		<rect x="112" y="163.5" width="166" height="168"/>
	</g>
</g>
<g>
	<g>
		<path d="M102.189,361.5l-8.851,26.552c-4.959,14.878-2.544,30.707,6.625,43.429c9.17,12.722,23.423,20.019,39.105,20.019
			c20.781,0,39.158-13.246,45.73-32.961l19.013-57.039H102.189z"/>
	</g>
</g>
<g>
	<g>
		<path d="M65,163.5c-35.841,0-65,29.159-65,65v38c0,35.841,29.159,65,65,65h17v-168H65z"/>
	</g>
</g>
<g>
	<g>
		<path d="M482,60.5c0,57.926-99.555,97.611-174,102.49v169.02c74.445,4.878,174,44.564,174,102.49h30v-374H482z"/>
	</g>
</g>
<g>
</g>
<g>
</g>
<g>
</g>
<g>
</g>
<g>
</g>
<g>
</g>
<g>
</g>
<g>
</g>
<g>
</g>
<g>
</g>
<g>
</g>
<g>
</g>
<g>
</g>
<g>
</g>
<g>
</g>
</svg>
