<?xml version="1.0" encoding="iso-8859-1"?>
<!-- Generator: Adobe Illustrator 19.0.0, SVG Export Plug-In . SVG Version: 6.00 Build 0)  -->
<svg version="1.1" id="Layer_1" xmlns="http://www.w3.org/2000/svg" xmlns:xlink="http://www.w3.org/1999/xlink" x="0px" y="0px"
	 viewBox="0 0 512 512" style="enable-background:new 0 0 512 512;" xml:space="preserve">
<g>
	<g>
		<path d="M477.899,128H349.867V76.8h0.049C368.709,76.8,384,61.488,384,42.667c0-18.821-15.291-34.133-34.084-34.133H153.551
			c-18.794,0-34.084,15.312-34.084,34.133c0,18.821,15.291,34.133,34.084,34.133h0.049V128H34.101C15.298,128,0,143.327,0,162.165
			v307.138c0,18.838,15.298,34.165,34.101,34.165h443.798c18.803,0,34.101-15.327,34.101-34.164V162.165
			C512,143.327,496.702,128,477.899,128z M153.551,59.733c-9.383,0-17.018-7.656-17.018-17.067c0-9.41,7.634-17.067,17.018-17.067
			h196.365c9.383,0,17.018,7.656,17.018,17.067c0,9.41-7.634,17.067-17.018,17.067h-8.582h-179.2H153.551z M332.8,76.8V128H170.667
			V76.8H332.8z M494.933,469.302c0,9.427-7.642,17.098-17.034,17.098H34.101c-9.393,0-17.034-7.671-17.034-17.098V162.165
			c0-9.427,7.642-17.098,17.034-17.098h128.032h179.2h136.566c9.393,0,17.034,7.671,17.034,17.098V469.302z"/>
	</g>
</g>
<g>
	<g>
		<path d="M42.667,170.667c-4.713,0-8.533,3.821-8.533,8.533v273.2c0,4.713,3.821,8.533,8.533,8.533s8.533-3.821,8.533-8.533V179.2
			C51.2,174.488,47.379,170.667,42.667,170.667z"/>
	</g>
</g>
<g>
	<g>
		<path d="M170.667,170.667c-4.713,0-8.533,3.821-8.533,8.533v273.2c0,4.713,3.821,8.533,8.533,8.533s8.533-3.821,8.533-8.533V179.2
			C179.2,174.488,175.379,170.667,170.667,170.667z"/>
	</g>
</g>
<g>
	<g>
		<path d="M298.667,170.667c-4.713,0-8.533,3.821-8.533,8.533v273.2c0,4.713,3.821,8.533,8.533,8.533s8.533-3.821,8.533-8.533V179.2
			C307.2,174.488,303.379,170.667,298.667,170.667z"/>
	</g>
</g>
<g>
	<g>
		<path d="M426.667,170.667c-4.713,0-8.533,3.821-8.533,8.533v273.2c0,4.713,3.821,8.533,8.533,8.533s8.533-3.821,8.533-8.533V179.2
			C435.2,174.488,431.379,170.667,426.667,170.667z"/>
	</g>
</g>
<g>
	<g>
		<path d="M85.333,170.667c-4.713,0-8.533,3.821-8.533,8.533v273.2c0,4.713,3.821,8.533,8.533,8.533
			c4.713,0,8.533-3.821,8.533-8.533V179.2C93.867,174.488,90.046,170.667,85.333,170.667z"/>
	</g>
</g>
<g>
	<g>
		<path d="M213.333,170.667c-4.713,0-8.533,3.821-8.533,8.533v273.2c0,4.713,3.821,8.533,8.533,8.533
			c4.713,0,8.533-3.821,8.533-8.533V179.2C221.867,174.488,218.046,170.667,213.333,170.667z"/>
	</g>
</g>
<g>
	<g>
		<path d="M341.333,170.667c-4.713,0-8.533,3.821-8.533,8.533v273.2c0,4.713,3.821,8.533,8.533,8.533
			c4.713,0,8.533-3.821,8.533-8.533V179.2C349.867,174.488,346.046,170.667,341.333,170.667z"/>
	</g>
</g>
<g>
	<g>
		<path d="M469.333,170.667c-4.713,0-8.533,3.821-8.533,8.533v273.2c0,4.713,3.821,8.533,8.533,8.533s8.533-3.821,8.533-8.533V179.2
			C477.867,174.488,474.046,170.667,469.333,170.667z"/>
	</g>
</g>
<g>
	<g>
		<path d="M128,170.667c-4.713,0-8.533,3.821-8.533,8.533v273.2c0,4.713,3.821,8.533,8.533,8.533s8.533-3.821,8.533-8.533V179.2
			C136.533,174.488,132.713,170.667,128,170.667z"/>
	</g>
</g>
<g>
	<g>
		<path d="M256,170.667c-4.713,0-8.533,3.821-8.533,8.533v273.2c0,4.713,3.821,8.533,8.533,8.533s8.533-3.821,8.533-8.533V179.2
			C264.533,174.488,260.713,170.667,256,170.667z"/>
	</g>
</g>
<g>
	<g>
		<path d="M384,170.667c-4.713,0-8.533,3.821-8.533,8.533v273.2c0,4.713,3.821,8.533,8.533,8.533s8.533-3.821,8.533-8.533V179.2
			C392.533,174.488,388.713,170.667,384,170.667z"/>
	</g>
</g>
<g>
</g>
<g>
</g>
<g>
</g>
<g>
</g>
<g>
</g>
<g>
</g>
<g>
</g>
<g>
</g>
<g>
</g>
<g>
</g>
<g>
</g>
<g>
</g>
<g>
</g>
<g>
</g>
<g>
</g>
</svg>
