<?xml version="1.0" encoding="iso-8859-1"?>
<!-- Generator: Adobe Illustrator 19.0.0, SVG Export Plug-In . SVG Version: 6.00 Build 0)  -->
<svg version="1.1" id="Layer_1" xmlns="http://www.w3.org/2000/svg" xmlns:xlink="http://www.w3.org/1999/xlink" x="0px" y="0px"
	 viewBox="0 0 512 512" style="enable-background:new 0 0 512 512;" xml:space="preserve">
<g>
	<g>
		<path d="M505.194,62.59c-1.105-2.815-3.554-4.886-6.513-5.504c-2.961-0.617-6.034,0.296-8.172,2.436l-57.025,57.027
			l-38.032-38.034l57.025-57.023c2.138-2.139,3.055-5.212,2.436-8.172c-0.617-2.961-2.688-5.41-5.504-6.513
			C412.896-7.5,371.382,1.168,343.655,28.893c-26.319,26.319-35.468,65.059-24.091,100.155L129.049,319.563
			c-35.093-11.383-73.837-2.23-100.154,24.09C1.166,371.38-7.503,412.891,6.806,449.408c1.105,2.815,3.554,4.886,6.513,5.504
			c2.963,0.617,6.032-0.297,8.172-2.436l57.025-57.027l38.032,38.034l-57.025,57.023c-2.138,2.139-3.055,5.212-2.436,8.172
			c0.617,2.961,2.687,5.41,5.504,6.513c11.689,4.582,23.888,6.807,35.984,6.806c25.693-0.001,50.921-10.043,69.771-28.894
			c26.317-26.318,35.465-65.058,24.091-100.154l190.513-190.515c35.089,11.378,73.835,2.229,100.154-24.09
			C510.834,140.618,519.503,99.107,505.194,62.59z M470.429,155.667c-22.686,22.689-56.657,29.782-86.537,18.074
			c-3.318-1.301-7.091-0.511-9.608,2.007L175.75,374.282c-2.519,2.52-3.309,6.292-2.009,9.609
			c11.709,29.881,4.613,63.848-18.071,86.536c-19.27,19.27-46.673,27.289-72.808,22.096l52.702-52.7
			c1.681-1.682,2.626-3.961,2.626-6.339c0-2.378-0.945-4.657-2.626-6.339l-50.71-50.711c-1.681-1.681-3.961-2.625-6.338-2.625
			s-4.657,0.944-6.338,2.626l-52.7,52.701c-5.198-26.129,2.823-53.535,22.093-72.804c22.689-22.687,56.657-29.786,86.535-18.074
			c3.324,1.3,7.093,0.512,9.61-2.007l198.536-198.535c2.521-2.52,3.309-6.292,2.009-9.61c-11.711-29.88-4.616-63.847,18.071-86.535
			c19.272-19.27,46.673-27.289,72.806-22.096l-52.702,52.7c-1.681,1.682-2.626,3.961-2.626,6.339c0,2.378,0.945,4.657,2.626,6.339
			l50.711,50.711c1.681,1.681,3.961,2.625,6.338,2.625s4.657-0.944,6.338-2.626l52.7-52.701
			C497.72,108.991,489.699,136.397,470.429,155.667z"/>
	</g>
</g>
<g>
</g>
<g>
</g>
<g>
</g>
<g>
</g>
<g>
</g>
<g>
</g>
<g>
</g>
<g>
</g>
<g>
</g>
<g>
</g>
<g>
</g>
<g>
</g>
<g>
</g>
<g>
</g>
<g>
</g>
</svg>
