<?xml version="1.0" encoding="iso-8859-1"?>
<!-- Generator: Adobe Illustrator 19.0.0, SVG Export Plug-In . SVG Version: 6.00 Build 0)  -->
<svg version="1.1" id="Layer_1" xmlns="http://www.w3.org/2000/svg" xmlns:xlink="http://www.w3.org/1999/xlink" x="0px" y="0px"
	 viewBox="0 0 512 512" style="enable-background:new 0 0 512 512;" xml:space="preserve">
<g>
	<g>
		<path d="M483.104,343.654c-26.319-26.317-65.056-35.472-100.152-24.089L319.387,256l63.563-63.564
			c35.089,11.378,73.837,2.229,100.154-24.09c27.729-27.727,36.398-69.238,22.089-105.755c-1.105-2.815-3.554-4.886-6.513-5.504
			c-2.963-0.617-6.034,0.297-8.172,2.436l-57.024,57.027L395.45,78.516l57.024-57.024c2.138-2.139,3.055-5.212,2.436-8.172
			c-0.617-2.961-2.688-5.41-5.504-6.513c-36.511-14.31-78.026-5.642-105.752,22.087c-26.319,26.319-35.467,65.058-24.094,100.155
			l-63.562,63.564l-63.561-63.561c11.376-35.098,2.228-73.837-24.091-100.155C140.619,1.169,99.11-7.501,62.591,6.808
			c-2.815,1.103-4.885,3.552-5.502,6.513c-0.619,2.96,0.295,6.033,2.436,8.172l57.022,57.024l-38.03,38.032L21.491,59.525
			c-2.138-2.14-5.211-3.051-8.172-2.436c-2.961,0.618-5.41,2.689-6.513,5.505C-7.501,99.109,1.168,140.62,28.895,168.347
			c26.319,26.319,65.059,35.467,100.156,24.089l63.562,63.563l-63.564,63.564c-35.093-11.383-73.837-2.23-100.154,24.091
			C1.168,371.382-7.503,412.892,6.806,449.408c1.105,2.815,3.554,4.886,6.513,5.504c2.963,0.617,6.034-0.297,8.172-2.436
			l57.027-57.027l38.03,38.034l-57.022,57.023c-2.138,2.139-3.055,5.212-2.436,8.172c0.617,2.961,2.687,5.41,5.504,6.513
			c11.689,4.582,23.888,6.807,35.984,6.807c25.691-0.001,50.916-10.043,69.766-28.894c26.321-26.32,35.469-65.059,24.094-100.155
			L256,319.387l63.563,63.564c-11.376,35.096-2.228,73.835,24.091,100.155C362.506,501.958,387.729,512,413.425,512
			c12.094-0.001,24.295-2.226,35.982-6.806c2.817-1.103,4.887-3.552,5.504-6.513c0.619-2.96-0.295-6.033-2.436-8.171l-57.022-57.027
			l38.03-38.031l57.027,57.024c2.138,2.139,5.206,3.052,8.172,2.436c2.959-0.618,5.408-2.689,6.513-5.504
			C519.503,412.894,510.832,371.382,483.104,343.654z M336.248,137.717c2.519-2.52,3.309-6.292,2.009-9.609
			c-11.709-29.881-4.613-63.848,18.073-86.536c19.272-19.271,46.673-27.289,72.806-22.096l-52.702,52.7
			c-1.681,1.682-2.626,3.961-2.626,6.339c0,2.378,0.946,4.657,2.626,6.339l50.711,50.711c1.681,1.681,3.961,2.625,6.338,2.625
			s4.657-0.944,6.338-2.626l52.7-52.701c5.198,26.129-2.823,53.535-22.093,72.804c-22.688,22.688-56.655,29.782-86.537,18.074
			c-3.316-1.301-7.091-0.511-9.608,2.007l-67.573,67.574l-38.034-38.032L336.248,137.717z M175.75,374.282
			c-2.521,2.52-3.309,6.292-2.009,9.61c11.711,29.879,4.616,63.846-18.073,86.535c-19.272,19.272-46.671,27.294-72.804,22.096
			l52.7-52.7c3.502-3.501,3.502-9.177,0-12.677l-50.708-50.711c-1.681-1.682-3.961-2.626-6.338-2.626s-4.657,0.944-6.338,2.625
			l-52.702,52.703c-5.196-26.129,2.823-53.535,22.093-72.805c22.686-22.687,56.659-29.786,86.535-18.074
			c3.327,1.3,7.093,0.512,9.61-2.007l67.574-67.574l38.033,38.033L175.75,374.282z M492.523,429.137l-52.702-52.701
			c-3.502-3.499-9.179-3.499-12.676,0l-50.708,50.708c-3.502,3.502-3.502,9.176,0,12.678l52.7,52.702
			c-26.131,5.196-53.534-2.826-72.806-22.097c-22.686-22.688-29.782-56.656-18.071-86.535c1.3-3.318,0.512-7.09-2.009-9.61
			l-72.354-72.355c-0.374-0.629-0.802-1.233-1.343-1.774c-0.541-0.541-1.146-0.968-1.774-1.343l-47.595-47.595
			c-0.374-0.628-0.801-1.232-1.341-1.772c-0.539-0.54-1.144-0.967-1.772-1.341l-72.354-72.355c-1.711-1.713-4.005-2.625-6.34-2.625
			c-1.099,0-2.206,0.202-3.267,0.618c-29.882,11.71-63.846,4.615-86.539-18.072c-19.268-19.271-27.289-46.676-22.094-72.805
			l52.702,52.701c1.681,1.681,3.961,2.625,6.338,2.625c2.377,0,4.657-0.944,6.338-2.625l50.709-50.709
			c3.502-3.502,3.502-9.176,0-12.678l-52.7-52.701c26.12-5.2,53.534,2.824,72.806,22.097c22.686,22.686,29.782,56.654,18.071,86.535
			c-1.3,3.318-0.51,7.09,2.009,9.61l198.535,198.533c2.521,2.519,6.288,3.307,9.61,2.007c29.874-11.705,63.846-4.616,86.533,18.073
			C489.698,375.603,497.719,403.009,492.523,429.137z"/>
	</g>
</g>
<g>
</g>
<g>
</g>
<g>
</g>
<g>
</g>
<g>
</g>
<g>
</g>
<g>
</g>
<g>
</g>
<g>
</g>
<g>
</g>
<g>
</g>
<g>
</g>
<g>
</g>
<g>
</g>
<g>
</g>
</svg>
