<?xml version="1.0" encoding="iso-8859-1"?>
<!-- Generator: Adobe Illustrator 19.0.0, SVG Export Plug-In . SVG Version: 6.00 Build 0)  -->
<svg version="1.1" id="Layer_1" xmlns="http://www.w3.org/2000/svg" xmlns:xlink="http://www.w3.org/1999/xlink" x="0px" y="0px"
	 viewBox="0 0 512 512" style="enable-background:new 0 0 512 512;" xml:space="preserve">
<g>
	<g>
		<path d="M420.81,147.525c35.927,0,65.156-29.197,65.156-65.085V26.034c0-4.792-3.886-8.678-8.678-8.678h-117.53
			C353.732,6.998,342.532,0,329.703,0H182.297c-12.828,0-24.028,6.998-30.055,17.356H34.712c-4.792,0-8.678,3.886-8.678,8.678
			v56.407c0,35.888,29.229,65.085,65.156,65.085h56.336v26.034H34.712c-4.792,0-8.678,3.886-8.678,8.678v56.407
			c0,35.888,29.229,65.085,65.156,65.085h56.336v26.034H34.712c-4.792,0-8.678,3.886-8.678,8.678v56.407
			c0,35.888,29.229,65.085,65.156,65.085h56.336v17.318c0,19.161,15.598,34.75,34.771,34.75h147.407
			c19.173,0,34.771-15.589,34.771-34.75v-17.318h56.336c35.927,0,65.156-29.197,65.156-65.085v-56.407
			c0-4.792-3.886-8.678-8.678-8.678H364.475v-26.034h56.336c35.927,0,65.156-29.197,65.156-65.085v-56.407
			c0-4.792-3.886-8.678-8.678-8.678H364.475v-26.034H420.81z M364.475,34.75v-0.038H468.61v47.729
			c0,26.318-21.443,47.729-47.8,47.729h-56.336V34.75z M147.525,442.576H91.19c-26.357,0-47.8-21.411-47.8-47.729v-47.729h104.136
			V442.576z M147.525,286.373H91.19c-26.357,0-47.8-21.411-47.8-47.729v-47.729h104.136V286.373z M147.525,34.75v95.419H91.19
			c-26.357,0-47.8-21.411-47.8-47.729V34.712h104.136V34.75z M347.119,138.847v43.39v112.814v43.39v112.814v25.996
			c0,9.591-7.813,17.394-17.415,17.394H182.297c-9.603,0-17.415-7.803-17.415-17.394v-25.996V338.441v-43.39V182.237v-43.39V34.75
			c0-9.591,7.813-17.394,17.415-17.394h147.407c9.603,0,17.415,7.803,17.415,17.394V138.847z M468.61,347.119v47.729
			c0,26.318-21.443,47.729-47.8,47.729h-56.336v-95.458H468.61z M468.61,190.915v47.729c0,26.318-21.443,47.729-47.8,47.729h-56.336
			v-95.458H468.61z"/>
	</g>
</g>
<g>
	<g>
		<path d="M256,338.441c-35.888,0-65.085,29.197-65.085,65.085c0,35.888,29.197,65.085,65.085,65.085
			c35.888,0,65.085-29.197,65.085-65.085C321.085,367.638,291.888,338.441,256,338.441z M256,451.254
			c-26.318,0-47.729-21.411-47.729-47.729c0-26.318,21.411-47.729,47.729-47.729s47.729,21.411,47.729,47.729
			C303.729,429.843,282.318,451.254,256,451.254z"/>
	</g>
</g>
<g>
	<g>
		<path d="M256,190.915c-35.888,0-65.085,29.197-65.085,65.085c0,35.888,29.197,65.085,65.085,65.085
			c35.888,0,65.085-29.197,65.085-65.085S291.888,190.915,256,190.915z M256,303.729c-26.318,0-47.729-21.411-47.729-47.729
			s21.411-47.729,47.729-47.729s47.729,21.411,47.729,47.729S282.318,303.729,256,303.729z"/>
	</g>
</g>
<g>
	<g>
		<path d="M256,43.39c-35.888,0-65.085,29.197-65.085,65.085c0,35.888,29.197,65.085,65.085,65.085
			c35.888,0,65.085-29.197,65.085-65.085C321.085,72.587,291.888,43.39,256,43.39z M256,156.203
			c-26.318,0-47.729-21.411-47.729-47.729c0-26.318,21.411-47.729,47.729-47.729s47.729,21.411,47.729,47.729
			C303.729,134.792,282.318,156.203,256,156.203z"/>
	</g>
</g>
<g>
</g>
<g>
</g>
<g>
</g>
<g>
</g>
<g>
</g>
<g>
</g>
<g>
</g>
<g>
</g>
<g>
</g>
<g>
</g>
<g>
</g>
<g>
</g>
<g>
</g>
<g>
</g>
<g>
</g>
</svg>
