<?xml version="1.0" encoding="iso-8859-1"?>
<!-- Generator: Adobe Illustrator 19.0.0, SVG Export Plug-In . SVG Version: 6.00 Build 0)  -->
<svg version="1.1" id="Layer_1" xmlns="http://www.w3.org/2000/svg" xmlns:xlink="http://www.w3.org/1999/xlink" x="0px" y="0px"
	 viewBox="0 0 512 512" style="enable-background:new 0 0 512 512;" xml:space="preserve">
<g>
	<g>
		<path d="M420.296,461.102L385.413,49.479C383.101,22.197,358.911,0,331.491,0H180.507c-27.422,0-51.611,22.197-53.92,49.481V49.48
			L91.704,461.102c-1.148,13.531,3.094,26.288,11.947,35.92c8.873,9.659,21.268,14.977,34.9,14.977H373.45
			c13.631,0,26.023-5.317,34.893-14.97C417.198,487.393,421.444,474.634,420.296,461.102z M395.981,485.672
			c-5.654,6.153-13.654,9.541-22.531,9.541H138.55c-8.877,0-16.881-3.391-22.539-9.548c-5.635-6.132-8.326-14.352-7.582-23.144
			l34.883-411.623c0,0,0,0,0-0.001c1.594-18.808,18.279-34.109,37.195-34.109h150.984c18.916,0,35.602,15.302,37.197,34.111
			l34.883,411.622C404.315,471.314,401.62,479.536,395.981,485.672z"/>
	</g>
</g>
<g>
	<g>
		<path d="M272.786,50.361h-33.574c-4.635,0-8.393,3.758-8.393,8.393v75.541c0,4.635,3.758,8.393,8.393,8.393h33.574
			c4.635,0,8.393-3.758,8.393-8.393V58.754C281.179,54.119,277.421,50.361,272.786,50.361z M264.393,125.902h-16.787V67.148h16.787
			V125.902z"/>
	</g>
</g>
<g>
	<g>
		<path d="M272.786,159.475h-33.574c-4.635,0-8.393,3.758-8.393,8.393v75.541c0,4.635,3.758,8.393,8.393,8.393h33.574
			c4.635,0,8.393-3.758,8.393-8.393v-75.541C281.179,163.234,277.421,159.475,272.786,159.475z M264.393,235.016h-16.787v-58.754
			h16.787V235.016z"/>
	</g>
</g>
<g>
	<g>
		<path d="M272.786,268.59h-33.574c-4.635,0-8.393,3.758-8.393,8.393v75.541c0,4.635,3.758,8.393,8.393,8.393h33.574
			c4.635,0,8.393-3.758,8.393-8.393v-75.541C281.179,272.348,277.421,268.59,272.786,268.59z M264.393,344.131h-16.787v-58.754
			h16.787V344.131z"/>
	</g>
</g>
<g>
	<g>
		<path d="M272.786,377.705h-33.574c-4.635,0-8.393,3.758-8.393,8.393v75.541c0,4.635,3.758,8.393,8.393,8.393h33.574
			c4.635,0,8.393-3.758,8.393-8.393v-75.541C281.179,381.463,277.421,377.705,272.786,377.705z M264.393,453.246h-16.787v-58.754
			h16.787V453.246z"/>
	</g>
</g>
<g>
</g>
<g>
</g>
<g>
</g>
<g>
</g>
<g>
</g>
<g>
</g>
<g>
</g>
<g>
</g>
<g>
</g>
<g>
</g>
<g>
</g>
<g>
</g>
<g>
</g>
<g>
</g>
<g>
</g>
</svg>
