<?xml version="1.0" encoding="iso-8859-1"?>
<!-- Generator: Adobe Illustrator 19.0.0, SVG Export Plug-In . SVG Version: 6.00 Build 0)  -->
<svg version="1.1" id="Layer_1" xmlns="http://www.w3.org/2000/svg" xmlns:xlink="http://www.w3.org/1999/xlink" x="0px" y="0px"
	 viewBox="0 0 512 512" style="enable-background:new 0 0 512 512;" xml:space="preserve">
<g>
	<g>
		<path d="M496.91,69.798l-29.206-29.205c-19.046-19.048-51.14-20.157-71.544-2.469L344.83,82.617
			c-0.657,0.57-1.221,1.24-1.668,1.985l-49.967,83.23l-32.082,10.694c-2.711,0.904-4.761,3.147-5.417,5.927
			c-0.656,2.78,0.174,5.703,2.194,7.723l87.436,87.435c1.565,1.564,3.669,2.414,5.829,2.414c0.631,0,1.266-0.073,1.894-0.22
			c2.78-0.656,5.023-2.706,5.927-5.417l10.697-32.093l84.454-50.996c0.744-0.45,1.412-1.013,1.979-1.671l43.44-50.34
			C517.133,120.908,515.949,88.838,496.91,69.798z M487.063,130.516l-42.583,49.347l-85.93,51.888
			c-1.678,1.013-2.939,2.591-3.559,4.451l-7.439,22.32l-19.703-19.702c-0.004-0.004-0.006-0.009-0.01-0.013l-29.146-29.145
			c-0.003-0.003-0.007-0.005-0.01-0.008l-19.704-19.705l22.32-7.439c1.867-0.623,3.448-1.891,4.461-3.577l50.861-84.719
			l50.337-43.633c14.005-12.139,36.026-11.393,49.086,1.669l29.207,29.206C498.32,94.524,499.132,116.532,487.063,130.516z"/>
	</g>
</g>
<g>
	<g>
		<path d="M457.114,430.202L206.429,179.518l5.829-5.829c1.573-1.574,2.443-3.722,2.413-5.947
			c-0.004-0.335-0.331-33.69,10.685-54.284c11.467-21.438,45.381-55.478,45.722-55.819c2.333-2.333,3.05-5.835,1.82-8.899
			c-1.229-3.063-4.167-5.098-7.466-5.171c-1.052-0.022-26.17-0.434-51.031,11.997c-24.234,12.115-64.557,52.299-66.262,54.004
			l-75.778,75.777c-1.546,1.547-2.414,3.643-2.414,5.829c0,2.187,0.868,4.284,2.415,5.829l5.828,5.828l-29.145,29.145l-5.829-5.828
			c-3.218-3.218-8.438-3.218-11.658,0L2.414,255.294C0.868,256.84,0,258.936,0,261.123c0,2.187,0.868,4.283,2.414,5.829
			l52.461,52.461c1.61,1.609,3.719,2.414,5.829,2.414c2.109,0,4.219-0.805,5.829-2.414l29.145-29.145
			c1.546-1.547,2.414-3.643,2.414-5.829s-0.868-4.284-2.415-5.829l-5.828-5.828l29.145-29.145l5.829,5.828
			c3.218,3.218,8.438,3.218,11.658,0l23.315-23.315l55.374,55.374l-83.287,83.289l-51.887,29.01c-1.443,0.807-2.61,2.03-3.35,3.509
			l-23.315,46.631c-1.587,3.174-0.965,7.007,1.544,9.516l29.145,29.145c1.583,1.583,3.693,2.414,5.831,2.414
			c1.252,0,2.514-0.285,3.685-0.87l46.631-23.316c1.479-0.74,2.702-1.907,3.509-3.35l29.01-51.888l83.289-83.286L410.48,476.834
			c6.412,6.412,14.836,9.616,23.264,9.616c8.446,0,16.896-3.218,23.332-9.652C469.932,463.941,469.95,443.038,457.114,430.202z
			 M130.652,231.978l-5.829-5.828c-3.218-3.218-8.438-3.218-11.658,0l-40.804,40.803c-1.546,1.547-2.414,3.643-2.414,5.829
			c0,2.187,0.868,4.284,2.415,5.829l5.829,5.828l-17.487,17.487l-40.804-40.804l17.487-17.486l5.829,5.828
			c3.218,3.218,8.438,3.218,11.658,0l40.804-40.803c1.546-1.547,2.414-3.643,2.414-5.829s-0.868-4.284-2.415-5.829l-5.828-5.828
			l69.948-69.947c0.399-0.399,40.109-39.985,61.976-50.917c7.521-3.76,15.159-6.144,21.883-7.655
			c-11.26,12.447-25.626,29.541-32.839,43.025c-10.83,20.248-12.399,48.764-12.607,58.739L130.652,231.978z M160.22,394.766
			c-0.536,0.536-0.995,1.144-1.366,1.806l-28.33,50.67l-39.047,19.523l-20.742-20.742l19.523-39.048l50.669-28.329
			c0.662-0.37,1.27-0.829,1.806-1.365l84.096-84.097l17.487,17.487L160.22,394.766z M445.417,465.139
			c-6.427,6.427-16.871,6.445-23.278,0.036L171.455,214.492l23.317-23.315l250.683,250.684
			C451.863,448.268,451.847,458.711,445.417,465.139z"/>
	</g>
</g>
<g>
</g>
<g>
</g>
<g>
</g>
<g>
</g>
<g>
</g>
<g>
</g>
<g>
</g>
<g>
</g>
<g>
</g>
<g>
</g>
<g>
</g>
<g>
</g>
<g>
</g>
<g>
</g>
<g>
</g>
</svg>
