<?xml version="1.0" encoding="iso-8859-1"?>
<!-- Generator: Adobe Illustrator 19.0.0, SVG Export Plug-In . SVG Version: 6.00 Build 0)  -->
<svg version="1.1" id="Layer_1" xmlns="http://www.w3.org/2000/svg" xmlns:xlink="http://www.w3.org/1999/xlink" x="0px" y="0px"
	 viewBox="0 0 512 512" style="enable-background:new 0 0 512 512;" xml:space="preserve">
<g>
	<g>
		<path d="M497.509,0H14.491C9.156,0,4.83,4.325,4.83,9.66V502.34c0,5.335,4.325,9.66,9.66,9.66h483.019
			c5.335,0,9.66-4.325,9.66-9.66V9.66C507.17,4.325,502.844,0,497.509,0z M487.849,492.679H24.151V19.321h463.698V492.679z"/>
	</g>
</g>
<g>
	<g>
		<path d="M410.566,193.208h-96.604V96.604c0-5.335-4.325-9.66-9.66-9.66h-96.604c-5.335,0-9.66,4.325-9.66,9.66v96.604h-96.604
			c-5.335,0-9.66,4.325-9.66,9.66v96.604c0,5.335,4.325,9.66,9.66,9.66h96.604v96.604c0,5.335,4.325,9.66,9.66,9.66h96.604
			c5.335,0,9.66-4.325,9.66-9.66v-96.604h96.604c5.335,0,9.66-4.325,9.66-9.66v-96.604
			C420.226,197.533,415.901,193.208,410.566,193.208z M400.906,289.811h-96.604c-5.335,0-9.66,4.325-9.66,9.66v96.604h-77.283
			v-96.604c0-5.335-4.325-9.66-9.66-9.66h-96.604v-77.283h96.604c5.335,0,9.66-4.325,9.66-9.66v-96.604h77.283v96.604
			c0,5.335,4.325,9.66,9.66,9.66h96.604V289.811z"/>
	</g>
</g>
<g>
</g>
<g>
</g>
<g>
</g>
<g>
</g>
<g>
</g>
<g>
</g>
<g>
</g>
<g>
</g>
<g>
</g>
<g>
</g>
<g>
</g>
<g>
</g>
<g>
</g>
<g>
</g>
<g>
</g>
</svg>
