<?xml version="1.0" encoding="iso-8859-1"?>
<!-- Generator: Adobe Illustrator 19.0.0, SVG Export Plug-In . SVG Version: 6.00 Build 0)  -->
<svg version="1.1" id="Layer_1" xmlns="http://www.w3.org/2000/svg" xmlns:xlink="http://www.w3.org/1999/xlink" x="0px" y="0px"
	 viewBox="0 0 512 512" style="enable-background:new 0 0 512 512;" xml:space="preserve">
<g>
	<g>
		<path d="M480.631,0H31.369c-9.867,0-17.896,8.057-17.896,17.963v26.952c0,9.906,8.029,17.963,17.896,17.963h18.034v386.246h-8.96
			c-9.918,0-17.987,8.057-17.987,17.963v26.952c0,9.906,8.069,17.963,17.987,17.963h89.781c9.918,0,17.987-8.057,17.987-17.963
			v-26.952c0-9.906-8.069-17.963-17.987-17.963h-8.96V62.877h269.474v386.246h-8.96c-9.918,0-17.987,8.057-17.987,17.963v26.952
			c0,9.906,8.069,17.963,17.987,17.963h89.781c9.918,0,17.987-8.057,17.987-17.963v-26.952c0-9.906-8.069-17.963-17.987-17.963
			h-8.961V62.877h18.034c9.867,0,17.896-8.057,17.896-17.963V17.963C498.526,8.057,490.498,0,480.631,0z M130.246,467.085
			l-0.022,26.95l-89.803,0.002v-26.952l0.022,0.002l17.939,0c0.002,0,0.003,0,0.004,0h53.895c0.006,0,0.011-0.002,0.018-0.002
			L130.246,467.085z M67.368,449.123V62.877h35.93v386.246H67.368z M471.579,467.085l-0.022,26.95l-89.803,0.002v-26.952
			l0.022,0.002l17.939,0c0.002,0,0.003,0,0.004,0h53.895c0.006,0,0.011-0.002,0.018-0.002L471.579,467.085z M408.702,449.123V62.877
			h35.93v386.246H408.702z M453.615,44.912C453.615,44.912,453.615,44.912,453.615,44.912h-53.896c-0.001,0-0.003,0-0.004,0
			l-287.417,0.001c-0.006,0-0.012-0.002-0.018-0.002H58.386c-0.007,0-0.013,0.002-0.02,0.002H31.439v-26.95l449.123-0.002
			l0.069,26.95H453.615z"/>
	</g>
</g>
<g>
	<g>
		<path d="M189.804,146.259c-4.253-2.553-9.771-1.173-12.323,3.079l-9.243,15.404c-2.553,4.254-1.174,9.772,3.08,12.325
			c1.447,0.868,3.039,1.283,4.613,1.283c3.052,0,6.026-1.557,7.711-4.362l9.243-15.404
			C195.436,154.329,194.058,148.811,189.804,146.259z"/>
	</g>
</g>
<g>
	<g>
		<path d="M217.531,100.044c-4.253-2.555-9.772-1.173-12.323,3.081l-9.242,15.406c-2.551,4.254-1.172,9.772,3.082,12.322
			c1.446,0.868,3.039,1.283,4.612,1.283c3.052,0,6.027-1.557,7.712-4.364l9.242-15.406
			C223.164,108.112,221.785,102.594,217.531,100.044z"/>
	</g>
</g>
<g>
	<g>
		<path d="M162.073,192.472c-4.254-2.555-9.773-1.173-12.323,3.081l-9.242,15.406c-2.551,4.254-1.172,9.772,3.082,12.322
			c1.446,0.868,3.039,1.283,4.612,1.283c3.052,0,6.027-1.557,7.712-4.364l9.242-15.406
			C167.707,200.539,166.328,195.022,162.073,192.472z"/>
	</g>
</g>
<g>
	<g>
		<path d="M189.804,254.048c-4.253-2.55-9.771-1.173-12.323,3.079l-9.243,15.404c-2.553,4.254-1.174,9.772,3.08,12.325
			c1.447,0.868,3.039,1.283,4.613,1.283c3.052,0,6.026-1.557,7.711-4.362l9.243-15.404
			C195.436,262.118,194.058,256.601,189.804,254.048z"/>
	</g>
</g>
<g>
	<g>
		<path d="M217.531,207.833c-4.253-2.557-9.772-1.173-12.323,3.081l-9.242,15.406c-2.551,4.254-1.172,9.772,3.082,12.322
			c1.446,0.868,3.039,1.283,4.612,1.283c3.052,0,6.027-1.557,7.712-4.364l9.242-15.406
			C223.164,215.901,221.785,210.384,217.531,207.833z"/>
	</g>
</g>
<g>
	<g>
		<path d="M162.073,300.261c-4.254-2.555-9.773-1.171-12.323,3.081l-9.242,15.406c-2.551,4.254-1.172,9.772,3.082,12.322
			c1.446,0.868,3.039,1.283,4.612,1.283c3.052,0,6.027-1.557,7.712-4.364l9.242-15.406
			C167.707,308.329,166.328,302.811,162.073,300.261z"/>
	</g>
</g>
<g>
	<g>
		<path d="M217.531,315.623c-4.253-2.555-9.772-1.171-12.323,3.081l-9.242,15.406c-2.551,4.254-1.172,9.772,3.082,12.322
			c1.446,0.868,3.039,1.283,4.612,1.283c3.052,0,6.027-1.557,7.712-4.364l9.242-15.406
			C223.164,323.691,221.785,318.173,217.531,315.623z"/>
	</g>
</g>
<g>
	<g>
		<path d="M189.804,361.838c-4.253-2.555-9.771-1.171-12.323,3.079l-9.243,15.404c-2.553,4.254-1.174,9.772,3.08,12.325
			c1.447,0.868,3.039,1.283,4.613,1.283c3.052,0,6.026-1.557,7.711-4.362l9.243-15.404
			C195.436,369.908,194.058,364.39,189.804,361.838z"/>
	</g>
</g>
<g>
	<g>
		<path d="M162.073,408.051c-4.254-2.555-9.773-1.173-12.323,3.081l-9.242,15.406c-2.551,4.254-1.172,9.772,3.082,12.322
			c1.446,0.868,3.039,1.283,4.612,1.283c3.052,0,6.027-1.557,7.712-4.364l9.242-15.406
			C167.707,416.118,166.328,410.601,162.073,408.051z"/>
	</g>
</g>
<g>
	<g>
		<path d="M343.763,164.741l-9.243-15.404c-2.551-4.252-8.071-5.634-12.323-3.079c-4.254,2.553-5.633,8.07-3.08,12.325l9.243,15.404
			c1.684,2.807,4.659,4.362,7.711,4.362c1.572,0,3.167-0.415,4.613-1.283C344.937,174.513,346.316,168.996,343.763,164.741z"/>
	</g>
</g>
<g>
	<g>
		<path d="M316.035,118.531l-9.242-15.406c-2.551-4.252-8.071-5.634-12.323-3.081c-4.254,2.55-5.634,8.068-3.082,12.322
			l9.242,15.406c1.684,2.807,4.66,4.364,7.712,4.364c1.572,0,3.166-0.415,4.612-1.283
			C317.207,128.303,318.587,122.785,316.035,118.531z"/>
	</g>
</g>
<g>
	<g>
		<path d="M371.492,210.958l-9.242-15.406c-2.553-4.252-8.07-5.636-12.323-3.081c-4.254,2.55-5.634,8.068-3.082,12.322l9.242,15.406
			c1.684,2.807,4.66,4.364,7.712,4.364c1.572,0,3.166-0.415,4.612-1.283C372.664,220.73,374.044,215.213,371.492,210.958z"/>
	</g>
</g>
<g>
	<g>
		<path d="M371.492,318.748l-9.242-15.406c-2.553-4.252-8.07-5.634-12.323-3.081c-4.255,2.55-5.634,8.068-3.082,12.322l9.242,15.406
			c1.684,2.807,4.66,4.364,7.712,4.364c1.572,0,3.166-0.415,4.612-1.283C372.664,328.52,374.044,323.002,371.492,318.748z"/>
	</g>
</g>
<g>
	<g>
		<path d="M316.035,226.32l-9.242-15.406c-2.551-4.254-8.071-5.636-12.323-3.081c-4.254,2.55-5.634,8.068-3.082,12.322l9.242,15.406
			c1.684,2.807,4.66,4.364,7.712,4.364c1.572,0,3.166-0.415,4.612-1.283C317.207,236.092,318.587,230.575,316.035,226.32z"/>
	</g>
</g>
<g>
	<g>
		<path d="M343.763,272.531l-9.243-15.404c-2.551-4.252-8.071-5.632-12.323-3.079c-4.254,2.553-5.633,8.07-3.08,12.325l9.243,15.404
			c1.684,2.807,4.659,4.362,7.711,4.362c1.572,0,3.167-0.415,4.613-1.283C344.937,282.303,346.316,276.785,343.763,272.531z"/>
	</g>
</g>
<g>
	<g>
		<path d="M316.035,334.11l-9.242-15.406c-2.551-4.252-8.071-5.634-12.323-3.081c-4.254,2.55-5.634,8.068-3.082,12.322l9.242,15.406
			c1.684,2.807,4.66,4.364,7.712,4.364c1.572,0,3.166-0.415,4.612-1.283C317.207,343.882,318.587,338.364,316.035,334.11z"/>
	</g>
</g>
<g>
	<g>
		<path d="M371.492,426.537l-9.242-15.406c-2.553-4.254-8.07-5.636-12.323-3.081c-4.254,2.55-5.634,8.068-3.082,12.322l9.242,15.406
			c1.684,2.807,4.66,4.364,7.712,4.364c1.572,0,3.166-0.415,4.612-1.283C372.664,436.309,374.044,430.792,371.492,426.537z"/>
	</g>
</g>
<g>
	<g>
		<path d="M343.763,380.32l-9.243-15.404c-2.551-4.252-8.071-5.634-12.323-3.079c-4.254,2.553-5.633,8.07-3.08,12.325l9.243,15.404
			c1.684,2.807,4.659,4.362,7.711,4.362c1.572,0,3.167-0.415,4.613-1.283C344.937,390.092,346.316,384.575,343.763,380.32z"/>
	</g>
</g>
<g>
</g>
<g>
</g>
<g>
</g>
<g>
</g>
<g>
</g>
<g>
</g>
<g>
</g>
<g>
</g>
<g>
</g>
<g>
</g>
<g>
</g>
<g>
</g>
<g>
</g>
<g>
</g>
<g>
</g>
</svg>
