<?xml version="1.0" encoding="iso-8859-1"?>
<!-- Generator: Adobe Illustrator 19.0.0, SVG Export Plug-In . SVG Version: 6.00 Build 0)  -->
<svg version="1.1" id="Layer_1" xmlns="http://www.w3.org/2000/svg" xmlns:xlink="http://www.w3.org/1999/xlink" x="0px" y="0px"
	 viewBox="0 0 512 512" style="enable-background:new 0 0 512 512;" xml:space="preserve">
<g>
	<g>
		<path d="M469.252,140.8H435.2v-25.618c0-14.106-11.454-25.582-25.532-25.582h-59.87c-14.078,0-25.531,11.476-25.531,25.582V140.8
			H187.733v-25.618c0-14.106-11.454-25.582-25.532-25.582h-59.87c-14.078,0-25.531,11.476-25.531,25.582V140.8H42.747
			C19.176,140.8,0,159.959,0,183.51V379.69c0,23.551,19.176,42.71,42.747,42.71h426.505c23.571,0,42.748-19.159,42.748-42.71V183.51
			C512,159.959,492.823,140.8,469.252,140.8z M341.333,115.182c0-4.696,3.797-8.516,8.465-8.516h59.87
			c4.668,0,8.466,3.82,8.466,8.516V140.8h-76.8V115.182z M93.867,115.182c0-4.696,3.797-8.516,8.465-8.516h59.87
			c4.668,0,8.466,3.82,8.466,8.516V140.8h-76.8V115.182z M494.933,379.69c0,14.14-11.521,25.644-25.681,25.644H42.747
			c-14.16,0-25.68-11.504-25.68-25.644V183.51c0-14.14,11.52-25.644,25.68-25.644h42.586H179.2h153.6h93.867h42.585
			c14.16,0,25.681,11.504,25.681,25.644V379.69z"/>
	</g>
</g>
<g>
	<g>
		<rect x="76.8" y="268.8" width="110.933" height="17.067"/>
	</g>
</g>
<g>
	<g>
		<polygon points="392.533,268.8 392.533,217.6 375.467,217.6 375.467,268.8 324.267,268.8 324.267,285.867 375.467,285.867 
			375.467,337.067 392.533,337.067 392.533,285.867 443.733,285.867 443.733,268.8 		"/>
	</g>
</g>
<g>
</g>
<g>
</g>
<g>
</g>
<g>
</g>
<g>
</g>
<g>
</g>
<g>
</g>
<g>
</g>
<g>
</g>
<g>
</g>
<g>
</g>
<g>
</g>
<g>
</g>
<g>
</g>
<g>
</g>
</svg>
