<?xml version="1.0" encoding="iso-8859-1"?>
<!-- Generator: Adobe Illustrator 19.0.0, SVG Export Plug-In . SVG Version: 6.00 Build 0)  -->
<svg version="1.1" id="Layer_1" xmlns="http://www.w3.org/2000/svg" xmlns:xlink="http://www.w3.org/1999/xlink" x="0px" y="0px"
	 viewBox="0 0 512 512" style="enable-background:new 0 0 512 512;" xml:space="preserve">
<g>
	<g>
		<path d="M477.899,68.267H34.101C15.298,68.267,0,83.593,0,102.431v307.138c0,18.839,15.298,34.165,34.101,34.165h443.798
			c18.803,0,34.101-15.326,34.101-34.164V102.431C512,83.593,496.702,68.267,477.899,68.267z M494.933,409.569
			c0,9.428-7.642,17.098-17.034,17.098H34.101c-9.393,0-17.034-7.67-17.034-17.098V102.431c0-9.428,7.642-17.098,17.034-17.098
			h443.798c9.393,0,17.034,7.67,17.034,17.098V409.569z"/>
	</g>
</g>
<g>
	<g>
		<path d="M379.651,312.61l-19.109-11.033l15.07-4.038c4.552-1.22,7.254-5.899,6.034-10.451c-1.221-4.553-5.902-7.254-10.451-6.034
			l-31.557,8.455l-15.626-9.021l37.829-16.68c3.094-1.365,5.091-4.427,5.091-7.808s-1.997-6.444-5.091-7.808l-37.829-16.68
			l15.626-9.021l31.557,8.456c0.74,0.198,1.482,0.293,2.214,0.293c3.768,0,7.216-2.515,8.237-6.327
			c1.22-4.552-1.481-9.231-6.034-10.451l-15.072-4.039l19.11-11.033c4.081-2.356,5.481-7.575,3.123-11.656
			c-2.356-4.08-7.573-5.48-11.656-3.123l-19.109,11.032l4.038-15.071c1.22-4.552-1.482-9.231-6.034-10.451
			c-4.548-1.213-9.231,1.482-10.451,6.034l-8.455,31.556l-15.626,9.021l4.469-41.1c0.366-3.363-1.289-6.622-4.217-8.313
			c-2.929-1.693-6.58-1.493-9.307,0.504l-33.36,24.421v-18.043l23.101-23.101c3.332-3.333,3.332-8.735,0-12.069
			c-3.333-3.331-8.735-3.331-12.069,0l-11.032,11.033V128c0-4.713-3.821-8.533-8.533-8.533S256,123.288,256,128v22.065
			l-11.032-11.033c-3.333-3.331-8.735-3.331-12.069,0c-3.332,3.333-3.332,8.735,0,12.069L256,174.202v18.043l-33.359-24.421
			c-2.728-1.997-6.378-2.198-9.307-0.504c-2.928,1.691-4.582,4.95-4.217,8.313l4.469,41.1l-15.626-9.021l-8.455-31.556
			c-1.221-4.552-5.901-7.25-10.451-6.034c-4.552,1.22-7.254,5.899-6.034,10.451l4.038,15.071l-19.109-11.032
			c-4.081-2.356-9.3-0.959-11.656,3.123c-2.357,4.081-0.958,9.3,3.123,11.656l19.11,11.033l-15.072,4.039
			c-4.553,1.22-7.254,5.899-6.034,10.451c1.022,3.813,4.47,6.327,8.237,6.327c0.731,0,1.474-0.095,2.214-0.293l31.557-8.456
			l15.626,9.021l-37.829,16.68c-3.094,1.365-5.091,4.427-5.091,7.808s1.997,6.444,5.091,7.808l37.829,16.68l-15.626,9.021
			l-31.557-8.456c-4.547-1.218-9.231,1.483-10.451,6.034c-1.22,4.552,1.482,9.231,6.034,10.451l15.07,4.038l-19.109,11.033
			c-4.081,2.356-5.48,7.575-3.123,11.656c1.58,2.737,4.448,4.268,7.398,4.268c1.447,0,2.915-0.369,4.258-1.145l19.109-11.033
			l-4.038,15.072c-1.22,4.552,1.482,9.231,6.034,10.451c0.74,0.198,1.482,0.293,2.214,0.293c3.768,0,7.216-2.515,8.237-6.327
			l8.455-31.557l15.626-9.022l-4.469,41.102c-0.366,3.363,1.289,6.622,4.217,8.314c2.93,1.691,6.579,1.492,9.307-0.505L256,319.756
			v18.042l-23.101,23.101c-3.332,3.333-3.332,8.735,0,12.069c3.333,3.331,8.735,3.331,12.069,0L256,361.935V384
			c0,4.713,3.821,8.533,8.533,8.533s8.533-3.821,8.533-8.533v-22.065l11.032,11.033c1.667,1.666,3.85,2.499,6.034,2.499
			s4.368-0.833,6.034-2.499c3.332-3.333,3.332-8.735,0-12.069l-23.101-23.101v-18.042l33.359,24.421
			c1.494,1.094,3.265,1.648,5.042,1.648c1.468,0,2.941-0.378,4.266-1.143c2.928-1.692,4.582-4.951,4.217-8.314l-4.469-41.102
			l15.626,9.022l8.455,31.557c1.022,3.812,4.47,6.327,8.237,6.327c0.731,0,1.474-0.095,2.214-0.293
			c4.552-1.22,7.254-5.899,6.034-10.451l-4.038-15.072l19.109,11.033c1.344,0.776,2.81,1.145,4.258,1.145
			c2.949,0,5.818-1.53,7.398-4.268C385.131,320.185,383.732,314.967,379.651,312.61z M301.737,271.658
			c-3.403,1.501-5.443,5.033-5.041,8.731l4.196,38.584l-31.318-22.926c-1.501-1.099-3.271-1.648-5.041-1.648
			c-1.77,0-3.54,0.549-5.041,1.648l-31.318,22.926l4.196-38.584c0.402-3.698-1.638-7.23-5.041-8.731L191.818,256l35.513-15.658
			c3.403-1.501,5.443-5.033,5.041-8.731l-4.196-38.584l31.318,22.926c3.002,2.198,7.079,2.198,10.081,0l31.318-22.926l-4.196,38.584
			c-0.402,3.698,1.638,7.23,5.041,8.731L337.249,256L301.737,271.658z"/>
	</g>
</g>
<g>
</g>
<g>
</g>
<g>
</g>
<g>
</g>
<g>
</g>
<g>
</g>
<g>
</g>
<g>
</g>
<g>
</g>
<g>
</g>
<g>
</g>
<g>
</g>
<g>
</g>
<g>
</g>
<g>
</g>
</svg>
