<?xml version="1.0" encoding="iso-8859-1"?>
<!-- Generator: Adobe Illustrator 19.0.0, SVG Export Plug-In . SVG Version: 6.00 Build 0)  -->
<svg version="1.1" id="Capa_1" xmlns="http://www.w3.org/2000/svg" xmlns:xlink="http://www.w3.org/1999/xlink" x="0px" y="0px"
	 viewBox="0 0 495.641 495.641" style="enable-background:new 0 0 495.641 495.641;" xml:space="preserve">
<g>
	<g>
		<path d="M71.82,295.78h-16c-4.418,0-8,3.582-8,8s3.582,8,8,8h16c4.418,0,8-3.582,8-8S76.239,295.78,71.82,295.78z"/>
	</g>
</g>
<g>
	<g>
		<path d="M71.82,199.78h-16c-4.418,0-8,3.582-8,8s3.582,8,8,8h16c4.418,0,8-3.582,8-8S76.239,199.78,71.82,199.78z"/>
	</g>
</g>
<g>
	<g>
		<path d="M71.82,231.78h-16c-4.418,0-8,3.582-8,8s3.582,8,8,8h16c4.418,0,8-3.582,8-8S76.239,231.78,71.82,231.78z"/>
	</g>
</g>
<g>
	<g>
		<path d="M119.82,295.78h-16c-4.418,0-8,3.582-8,8s3.582,8,8,8h16c4.418,0,8-3.582,8-8S124.239,295.78,119.82,295.78z"/>
	</g>
</g>
<g>
	<g>
		<path d="M119.82,199.78h-16c-4.418,0-8,3.582-8,8s3.582,8,8,8h16c4.418,0,8-3.582,8-8S124.239,199.78,119.82,199.78z"/>
	</g>
</g>
<g>
	<g>
		<path d="M119.82,167.78h-16c-4.418,0-8,3.582-8,8s3.582,8,8,8h16c4.418,0,8-3.582,8-8S124.239,167.78,119.82,167.78z"/>
	</g>
</g>
<g>
	<g>
		<path d="M119.82,231.78h-16c-4.418,0-8,3.582-8,8s3.582,8,8,8h16c4.418,0,8-3.582,8-8S124.239,231.78,119.82,231.78z"/>
	</g>
</g>
<g>
	<g>
		<path d="M119.82,263.78h-16c-4.418,0-8,3.582-8,8s3.582,8,8,8h16c4.418,0,8-3.582,8-8S124.239,263.78,119.82,263.78z"/>
	</g>
</g>
<g>
	<g>
		<path d="M71.82,359.78h-16c-4.418,0-8,3.582-8,8s3.582,8,8,8h16c4.418,0,8-3.582,8-8S76.239,359.78,71.82,359.78z"/>
	</g>
</g>
<g>
	<g>
		<path d="M71.82,327.78h-16c-4.418,0-8,3.582-8,8s3.582,8,8,8h16c4.418,0,8-3.582,8-8S76.239,327.78,71.82,327.78z"/>
	</g>
</g>
<g>
	<g>
		<path d="M119.82,359.78h-16c-4.418,0-8,3.582-8,8s3.582,8,8,8h16c4.418,0,8-3.582,8-8S124.239,359.78,119.82,359.78z"/>
	</g>
</g>
<g>
	<g>
		<path d="M119.82,327.78h-16c-4.418,0-8,3.582-8,8s3.582,8,8,8h16c4.418,0,8-3.582,8-8S124.239,327.78,119.82,327.78z"/>
	</g>
</g>
<g>
	<g>
		<path d="M479.82,409.22V134.34c12.46-4.521,18.896-18.287,14.375-30.747c-3.421-9.429-12.345-15.735-22.375-15.813h-33.36
			c-2.126,0.012-4.17-0.823-5.68-2.32l-8.96-8.96c-2.987-3.005-7.043-4.702-11.28-4.72h-40.96c-4.147-0.004-8.134,1.602-11.12,4.48
			l-9.52,9.2c-1.503,1.449-3.513,2.253-5.6,2.24H135.82V71.78c8.837,0,16-7.163,16-16v-16c0-8.837-7.163-16-16-16h-80
			c-8.837,0-16,7.163-16,16v16c0,8.837,7.163,16,16,16v16h-32C10.566,87.883-0.096,98.711,0.007,111.966
			c0.078,10.03,6.385,18.953,15.813,22.375v274.88c-12.46,4.521-18.896,18.287-14.375,30.747
			c3.421,9.429,12.345,15.735,22.375,15.813h33.44c2.099,0.009,4.11,0.842,5.6,2.32l9.36,9.2c2.993,2.927,7.014,4.564,11.2,4.56
			h41.44c4.137-0.122,8.065-1.843,10.96-4.8l8.96-8.96c1.51-1.497,3.554-2.332,5.68-2.32h194.4c2.087-0.013,4.097,0.791,5.6,2.24
			l9.36,9.28c2.986,2.878,6.973,4.484,11.12,4.48h41.84c4.343,0.004,8.501-1.757,11.52-4.88l8.4-8.72
			c1.516-1.547,3.594-2.413,5.76-2.4h33.36c13.254-0.103,23.916-10.931,23.813-24.185
			C495.556,421.565,489.249,412.641,479.82,409.22z M55.82,39.78h80v16h-80V39.78z M119.82,71.78v16h-48v-16H119.82z M23.82,103.78
			h321.52c6.246-0.005,12.244-2.444,16.72-6.8l9.52-9.2h40.96l8.96,8.96c4.497,4.502,10.597,7.034,16.96,7.04h33.36
			c4.418,0,8,3.582,8,8s-3.582,8-8,8h-448c-4.418,0-8-3.582-8-8S19.402,103.78,23.82,103.78z M327.82,279.78c-4.418,0-8,3.582-8,8
			v120h-288v-272h128v168c0,4.418,3.582,8,8,8s8-3.582,8-8v-168h288v272h-128v-120C335.82,283.362,332.239,279.78,327.82,279.78z
			 M471.82,439.78h-33.2c-6.509-0.017-12.745,2.611-17.28,7.28l-8.4,8.72H371.1l-9.52-9.2c-4.476-4.356-10.474-6.795-16.72-6.8
			H150.78c-6.363,0.006-12.463,2.538-16.96,7.04l-8.96,8.96H83.42l-9.36-9.12c-4.483-4.405-10.515-6.875-16.8-6.88H23.82
			c-4.418,0-8-3.582-8-8s3.582-8,8-8h448c4.418,0,8,3.582,8,8S476.239,439.78,471.82,439.78z"/>
	</g>
</g>
<g>
	<g>
		<path d="M167.82,327.78c-4.418,0-8,3.582-8,8v32c0,4.418,3.582,8,8,8s8-3.582,8-8v-32
			C175.82,331.362,172.239,327.78,167.82,327.78z"/>
	</g>
</g>
<g>
	<g>
		<path d="M231.82,295.78h-16c-4.418,0-8,3.582-8,8s3.582,8,8,8h16c4.418,0,8-3.582,8-8S236.239,295.78,231.82,295.78z"/>
	</g>
</g>
<g>
	<g>
		<path d="M231.82,199.78h-16c-4.418,0-8,3.582-8,8s3.582,8,8,8h16c4.418,0,8-3.582,8-8S236.239,199.78,231.82,199.78z"/>
	</g>
</g>
<g>
	<g>
		<path d="M231.82,231.78h-16c-4.418,0-8,3.582-8,8s3.582,8,8,8h16c4.418,0,8-3.582,8-8S236.239,231.78,231.82,231.78z"/>
	</g>
</g>
<g>
	<g>
		<path d="M231.82,263.78h-16c-4.418,0-8,3.582-8,8s3.582,8,8,8h16c4.418,0,8-3.582,8-8S236.239,263.78,231.82,263.78z"/>
	</g>
</g>
<g>
	<g>
		<path d="M279.82,199.78h-16c-4.418,0-8,3.582-8,8s3.582,8,8,8h16c4.418,0,8-3.582,8-8S284.239,199.78,279.82,199.78z"/>
	</g>
</g>
<g>
	<g>
		<path d="M279.82,167.78h-16c-4.418,0-8,3.582-8,8s3.582,8,8,8h16c4.418,0,8-3.582,8-8S284.239,167.78,279.82,167.78z"/>
	</g>
</g>
<g>
	<g>
		<path d="M279.82,231.78h-16c-4.418,0-8,3.582-8,8s3.582,8,8,8h16c4.418,0,8-3.582,8-8S284.239,231.78,279.82,231.78z"/>
	</g>
</g>
<g>
	<g>
		<path d="M279.82,263.78h-16c-4.418,0-8,3.582-8,8s3.582,8,8,8h16c4.418,0,8-3.582,8-8S284.239,263.78,279.82,263.78z"/>
	</g>
</g>
<g>
	<g>
		<path d="M231.82,327.78h-16c-4.418,0-8,3.582-8,8s3.582,8,8,8h16c4.418,0,8-3.582,8-8S236.239,327.78,231.82,327.78z"/>
	</g>
</g>
<g>
	<g>
		<path d="M279.82,359.78h-16c-4.418,0-8,3.582-8,8s3.582,8,8,8h16c4.418,0,8-3.582,8-8S284.239,359.78,279.82,359.78z"/>
	</g>
</g>
<g>
	<g>
		<path d="M279.82,327.78h-16c-4.418,0-8,3.582-8,8s3.582,8,8,8h16c4.418,0,8-3.582,8-8S284.239,327.78,279.82,327.78z"/>
	</g>
</g>
<g>
	<g>
		<path d="M391.82,295.78h-16c-4.418,0-8,3.582-8,8s3.582,8,8,8h16c4.418,0,8-3.582,8-8S396.239,295.78,391.82,295.78z"/>
	</g>
</g>
<g>
	<g>
		<path d="M391.82,167.78h-16c-4.418,0-8,3.582-8,8s3.582,8,8,8h16c4.418,0,8-3.582,8-8S396.239,167.78,391.82,167.78z"/>
	</g>
</g>
<g>
	<g>
		<path d="M391.82,199.78h-16c-4.418,0-8,3.582-8,8s3.582,8,8,8h16c4.418,0,8-3.582,8-8S396.239,199.78,391.82,199.78z"/>
	</g>
</g>
<g>
	<g>
		<path d="M391.82,231.78h-16c-4.418,0-8,3.582-8,8s3.582,8,8,8h16c4.418,0,8-3.582,8-8S396.239,231.78,391.82,231.78z"/>
	</g>
</g>
<g>
	<g>
		<path d="M439.82,295.78h-16c-4.418,0-8,3.582-8,8s3.582,8,8,8h16c4.418,0,8-3.582,8-8S444.239,295.78,439.82,295.78z"/>
	</g>
</g>
<g>
	<g>
		<path d="M439.82,167.78h-16c-4.418,0-8,3.582-8,8s3.582,8,8,8h16c4.418,0,8-3.582,8-8S444.239,167.78,439.82,167.78z"/>
	</g>
</g>
<g>
	<g>
		<path d="M439.82,231.78h-16c-4.418,0-8,3.582-8,8s3.582,8,8,8h16c4.418,0,8-3.582,8-8S444.239,231.78,439.82,231.78z"/>
	</g>
</g>
<g>
	<g>
		<path d="M439.82,263.78h-16c-4.418,0-8,3.582-8,8s3.582,8,8,8h16c4.418,0,8-3.582,8-8S444.239,263.78,439.82,263.78z"/>
	</g>
</g>
<g>
	<g>
		<path d="M391.82,327.78h-16c-4.418,0-8,3.582-8,8s3.582,8,8,8h16c4.418,0,8-3.582,8-8S396.239,327.78,391.82,327.78z"/>
	</g>
</g>
<g>
	<g>
		<path d="M439.82,359.78h-16c-4.418,0-8,3.582-8,8s3.582,8,8,8h16c4.418,0,8-3.582,8-8S444.239,359.78,439.82,359.78z"/>
	</g>
</g>
<g>
	<g>
		<path d="M439.82,327.78h-16c-4.418,0-8,3.582-8,8s3.582,8,8,8h16c4.418,0,8-3.582,8-8S444.239,327.78,439.82,327.78z"/>
	</g>
</g>
<g>
	<g>
		<path d="M327.82,215.78c-4.418,0-8,3.582-8,8v32c0,4.418,3.582,8,8,8s8-3.582,8-8v-32
			C335.82,219.362,332.239,215.78,327.82,215.78z"/>
	</g>
</g>
<g>
</g>
<g>
</g>
<g>
</g>
<g>
</g>
<g>
</g>
<g>
</g>
<g>
</g>
<g>
</g>
<g>
</g>
<g>
</g>
<g>
</g>
<g>
</g>
<g>
</g>
<g>
</g>
<g>
</g>
</svg>
