<?xml version="1.0" encoding="iso-8859-1"?>
<!-- Generator: Adobe Illustrator 19.0.0, SVG Export Plug-In . SVG Version: 6.00 Build 0)  -->
<svg version="1.1" id="Capa_1" xmlns="http://www.w3.org/2000/svg" xmlns:xlink="http://www.w3.org/1999/xlink" x="0px" y="0px"
	 viewBox="0 0 464.33 464.33" style="enable-background:new 0 0 464.33 464.33;" xml:space="preserve">
<g>
	<g>
		<path d="M152.125,400.33c-4.418,0-8,3.582-8,8v16c0,4.418,3.582,8,8,8s8-3.582,8-8v-16
			C160.125,403.912,156.544,400.33,152.125,400.33z"/>
	</g>
</g>
<g>
	<g>
		<path d="M192.125,400.33c-4.418,0-8,3.582-8,8v16c0,4.418,3.582,8,8,8s8-3.582,8-8v-16
			C200.125,403.912,196.544,400.33,192.125,400.33z"/>
	</g>
</g>
<g>
	<g>
		<path d="M232.125,400.33c-4.418,0-8,3.582-8,8v16c0,4.418,3.582,8,8,8s8-3.582,8-8v-16
			C240.125,403.912,236.544,400.33,232.125,400.33z"/>
	</g>
</g>
<g>
	<g>
		<path d="M272.125,400.33c-4.418,0-8,3.582-8,8v16c0,4.418,3.582,8,8,8s8-3.582,8-8v-16
			C280.125,403.912,276.544,400.33,272.125,400.33z"/>
	</g>
</g>
<g>
	<g>
		<path d="M312.125,400.33c-4.418,0-8,3.582-8,8v16c0,4.418,3.582,8,8,8s8-3.582,8-8v-16
			C320.125,403.912,316.544,400.33,312.125,400.33z"/>
	</g>
</g>
<g>
	<g>
		<path d="M406.285,323.21l-89.44-106.88h29.52c4.413-0.21,7.821-3.957,7.612-8.37c-0.083-1.743-0.733-3.411-1.852-4.75
			l-62.24-74.88h16c4.418,0.052,8.041-3.488,8.093-7.906c0.022-1.903-0.635-3.752-1.853-5.214l-43.2-51.68l33.84-50.72
			c2.248-3.803,0.988-8.709-2.815-10.958c-3.508-2.074-8.015-1.179-10.465,2.078l-31.28,46.8l-19.68-23.52
			c-1.576-1.894-3.937-2.957-6.4-2.88c-2.351,0.02-4.575,1.073-6.08,2.88l-20.08,24l-31.2-47.28
			c-2.248-3.803-7.154-5.064-10.958-2.815s-5.064,7.154-2.815,10.958c0.151,0.255,0.315,0.501,0.493,0.738l34,50.96l-43.36,51.44
			c-2.828,3.395-2.368,8.439,1.026,11.267c1.42,1.183,3.206,1.838,5.054,1.853h16.64l-62.72,74.88
			c-2.833,3.391-2.38,8.436,1.01,11.268c1.339,1.119,3.007,1.769,4.75,1.852h30.24l-90.08,106.88
			c-2.828,3.395-2.368,8.439,1.026,11.267c1.42,1.183,3.206,1.838,5.054,1.853h120v32h-40c-22.091,0-40,17.909-40,40v32
			c0,13.255,10.745,24,24,24h208c13.255,0,24-10.745,24-24v-32c0-22.091-17.909-40-40-40h-40v-32h120
			c4.418,0.007,8.006-3.569,8.013-7.987C408.141,326.468,407.485,324.651,406.285,323.21z M272.125,320.33c-4.418,0-8,3.582-8,8v48
			c0,4.418,3.582,8,8,8h48c13.255,0,24,10.745,24,24v32c0,4.418-3.582,8-8,8h-208c-4.418,0-8-3.582-8-8v-32
			c0-13.255,10.745-24,24-24h48c4.418,0,8-3.582,8-8v-48c0-4.418-3.582-8-8-8h-110.8l90.16-106.88
			c2.828-3.395,2.368-8.439-1.027-11.267c-1.441-1.2-3.258-1.856-5.133-1.853h-30.24l63.12-74.88
			c2.828-3.395,2.368-8.439-1.026-11.267c-1.42-1.183-3.206-1.838-5.054-1.853h-16.72l56.72-67.6l16.88,19.6l-11.04,16.8
			c-1.906-0.506-3.868-0.774-5.84-0.8c-13.255,0-24,10.745-24,24s10.745,24,24,24s24-10.745,24-24
			c-0.04-5.175-1.752-10.198-4.88-14.32l8.4-12.64l29.28,34.96h-16c-4.418-0.007-8.006,3.569-8.013,7.987
			c-0.003,1.875,0.653,3.692,1.853,5.133l62.48,74.88h-29.52c-4.418-0.007-8.006,3.569-8.013,7.987
			c-0.003,1.875,0.653,3.692,1.853,5.133l89.44,106.88H272.125z M242.445,104.33c0,5.7-4.62,10.32-10.32,10.32
			s-10.32-4.62-10.32-10.32s4.62-10.32,10.32-10.32S242.445,98.63,242.445,104.33z"/>
	</g>
</g>
<g>
	<g>
		<path d="M320.125,288.33h-32c-4.418,0-8,3.582-8,8s3.582,8,8,8h32c4.418,0,8-3.582,8-8S324.544,288.33,320.125,288.33z"/>
	</g>
</g>
<g>
	<g>
		<path d="M256.125,288.33h-112c-4.418,0-8,3.582-8,8s3.582,8,8,8h112c4.418,0,8-3.582,8-8S260.544,288.33,256.125,288.33z"/>
	</g>
</g>
<g>
</g>
<g>
</g>
<g>
</g>
<g>
</g>
<g>
</g>
<g>
</g>
<g>
</g>
<g>
</g>
<g>
</g>
<g>
</g>
<g>
</g>
<g>
</g>
<g>
</g>
<g>
</g>
<g>
</g>
</svg>
