<?xml version="1.0" encoding="iso-8859-1"?>
<!-- Generator: Adobe Illustrator 19.0.0, SVG Export Plug-In . SVG Version: 6.00 Build 0)  -->
<svg version="1.1" id="Capa_1" xmlns="http://www.w3.org/2000/svg" xmlns:xlink="http://www.w3.org/1999/xlink" x="0px" y="0px"
	 viewBox="0 0 432.001 432.001" style="enable-background:new 0 0 432.001 432.001;" xml:space="preserve">
<g>
	<g>
		<path d="M66.347,360.001c-4.418,0-8,3.582-8,8v16c0,4.418,3.582,8,8,8s8-3.582,8-8v-16
			C74.347,363.583,70.765,360.001,66.347,360.001z"/>
	</g>
</g>
<g>
	<g>
		<path d="M106.347,360.001c-4.418,0-8,3.582-8,8v16c0,4.418,3.582,8,8,8s8-3.582,8-8v-16
			C114.347,363.583,110.765,360.001,106.347,360.001z"/>
	</g>
</g>
<g>
	<g>
		<path d="M146.347,360.001c-4.418,0-8,3.582-8,8v16c0,4.418,3.582,8,8,8s8-3.582,8-8v-16
			C154.347,363.583,150.765,360.001,146.347,360.001z"/>
	</g>
</g>
<g>
	<g>
		<path d="M186.347,360.001c-4.418,0-8,3.582-8,8v16c0,4.418,3.582,8,8,8s8-3.582,8-8v-16
			C194.347,363.583,190.765,360.001,186.347,360.001z"/>
	</g>
</g>
<g>
	<g>
		<path d="M226.347,360.001c-4.418,0-8,3.582-8,8v16c0,4.418,3.582,8,8,8s8-3.582,8-8v-16
			C234.347,363.583,230.765,360.001,226.347,360.001z"/>
	</g>
</g>
<g>
	<g>
		<path d="M266.347,360.001c-4.418,0-8,3.582-8,8v16c0,4.418,3.582,8,8,8s8-3.582,8-8v-16
			C274.347,363.583,270.765,360.001,266.347,360.001z"/>
	</g>
</g>
<g>
	<g>
		<path d="M306.347,360.001c-4.418,0-8,3.582-8,8v16c0,4.418,3.582,8,8,8s8-3.582,8-8v-16
			C314.347,363.583,310.765,360.001,306.347,360.001z"/>
	</g>
</g>
<g>
	<g>
		<path d="M346.347,360.001c-4.418,0-8,3.582-8,8v16c0,4.418,3.582,8,8,8s8-3.582,8-8v-16
			C354.347,363.583,350.765,360.001,346.347,360.001z"/>
	</g>
</g>
<g>
	<g>
		<path d="M386.347,360.001c-4.418,0-8,3.582-8,8v16c0,4.418,3.582,8,8,8s8-3.582,8-8v-16
			C394.347,363.583,390.765,360.001,386.347,360.001z"/>
	</g>
</g>
<g>
	<g>
		<path d="M346.347,32.001h-120c-13.255,0-24,10.745-24,24s10.745,24,24,24h120c13.255,0,24-10.745,24-24
			S359.602,32.001,346.347,32.001z M346.347,64.001h-120c-4.418,0-8-3.582-8-8s3.582-8,8-8h120c4.418,0,8,3.582,8,8
			S350.765,64.001,346.347,64.001z"/>
	</g>
</g>
<g>
	<g>
		<path d="M378.347,0.001h-164.08c-14.991-0.108-29.399,5.8-40,16.4l-43.36,43.36l-10.72-10.96
			c6.252-6.245,6.257-16.376,0.013-22.627c-0.004-0.004-0.008-0.008-0.013-0.013l-11.36-11.28
			C102.582,8.63,92.451,8.624,86.2,14.869c-0.004,0.004-0.008,0.008-0.013,0.013l-67.84,67.84
			c-6.252,6.245-6.258,16.376-0.013,22.627c0.004,0.004,0.008,0.008,0.013,0.013l11.28,11.28c6.245,6.252,16.376,6.257,22.627,0.013
			c0.004-0.004,0.008-0.008,0.013-0.013l11.04,11.36l-12.56,12.56c-10.6,10.601-16.508,25.009-16.4,40v227.44
			c0,13.255,10.745,24,24,24h336c13.255,0,24-10.745,24-24v-368C418.347,17.91,400.438,0.001,378.347,0.001z M40.987,105.361
			l-11.36-11.28l67.92-67.92l11.36,11.28l-5.92,5.92L40.987,105.361z M402.347,408.001c0,4.418-3.582,8-8,8h-336
			c-4.418,0-8-3.582-8-8v-228.08c-0.019-10.616,4.183-20.804,11.68-28.32l37.44-37.44c2.874-3.356,2.483-8.406-0.873-11.28
			c-2.995-2.565-7.412-2.565-10.407,0l-13.84,13.52l-11.04-11.04l45.28-45.28l22.4,22.32l54.72-54.72
			c7.575-7.556,17.861-11.763,28.56-11.68h164.08c13.255,0,24,10.745,24,24V408.001z"/>
	</g>
</g>
<g>
	<g>
		<path d="M303.947,290.321c1.559-3.218,2.379-6.744,2.4-10.32v-112c-0.021-3.576-0.841-7.102-2.4-10.32l24.08-24
			c2.874-3.356,2.483-8.406-0.873-11.28c-2.995-2.565-7.412-2.565-10.407,0l-24,24c-3.243-1.57-6.797-2.391-10.4-2.4h-112
			c-3.576,0.021-7.102,0.841-10.32,2.4l-24-24c-3.356-2.874-8.406-2.483-11.28,0.873c-2.565,2.995-2.565,7.412,0,10.407l24,24
			c-1.559,3.218-2.379,6.744-2.4,10.32v112c0.021,3.576,0.841,7.102,2.4,10.32l-24,24c-3.356,2.874-3.747,7.924-0.873,11.28
			c2.874,3.356,7.924,3.747,11.28,0.873c0.313-0.268,0.605-0.56,0.873-0.873l24-24c3.218,1.559,6.744,2.379,10.32,2.4h112
			c3.576-0.021,7.102-0.841,10.32-2.4l24,24c3.356,2.874,8.406,2.483,11.28-0.873c2.565-2.995,2.565-7.412,0-10.407L303.947,290.321
			z M290.347,280.001c0,4.418-3.582,8-8,8h-112c-4.418,0-8-3.582-8-8v-112c0-4.418,3.582-8,8-8h112c4.418,0,8,3.582,8,8V280.001z"/>
	</g>
</g>
<g>
</g>
<g>
</g>
<g>
</g>
<g>
</g>
<g>
</g>
<g>
</g>
<g>
</g>
<g>
</g>
<g>
</g>
<g>
</g>
<g>
</g>
<g>
</g>
<g>
</g>
<g>
</g>
<g>
</g>
</svg>
