<?xml version="1.0" encoding="iso-8859-1"?>
<!-- Generator: Adobe Illustrator 19.0.0, SVG Export Plug-In . SVG Version: 6.00 Build 0)  -->
<svg version="1.1" id="Capa_1" xmlns="http://www.w3.org/2000/svg" xmlns:xlink="http://www.w3.org/1999/xlink" x="0px" y="0px"
	 viewBox="0 0 448.883 448.883" style="enable-background:new 0 0 448.883 448.883;" xml:space="preserve">
<g>
	<g>
		<path d="M448.753,38.761c-0.795-4.418-5.022-7.355-9.44-6.56l-318.56,59.12v-34.64c0-4.418-3.582-8-8-8s-8,3.582-8,8v37.6
			l-16,2.96v-72.56c0-4.418-3.582-8-8-8s-8,3.582-8,8v75.52l-65.44,12c-4.418,0.398-7.678,4.302-7.28,8.72s4.302,7.678,8.72,7.28
			h1.44l30.56-5.76v293.76h-24c-4.418,0-8,3.582-8,8s3.582,8,8,8h416c4.418,0,8-3.582,8-8s-3.582-8-8-8h-24V54.281l33.44-6.08
			C446.611,47.406,449.548,43.18,448.753,38.761z M392.753,416.201h-336v-64h336V416.201z M392.753,72.921l-249.52,46.24
			c-4.418,0.398-7.678,4.302-7.28,8.72c0.398,4.418,4.302,7.678,8.72,7.28h1.44l246.64-45.92v246.96h-336v-216
			c0.012-0.24,0.012-0.48,0-0.72l336-62.24V72.921z"/>
	</g>
</g>
<g>
	<g>
		<path d="M128.753,129.961c-0.795-4.418-5.022-7.355-9.44-6.56l-32,6c-4.418,0.398-7.678,4.302-7.28,8.72s4.302,7.678,8.72,7.28
			h1.44l32-6C126.611,138.606,129.548,134.38,128.753,129.961z"/>
	</g>
</g>
<g>
	<g>
		<path d="M104.753,368.201c-4.418,0-8,3.582-8,8v16c0,4.418,3.582,8,8,8s8-3.582,8-8v-16
			C112.753,371.783,109.171,368.201,104.753,368.201z"/>
	</g>
</g>
<g>
	<g>
		<path d="M144.753,368.201c-4.418,0-8,3.582-8,8v16c0,4.418,3.582,8,8,8s8-3.582,8-8v-16
			C152.753,371.783,149.171,368.201,144.753,368.201z"/>
	</g>
</g>
<g>
	<g>
		<path d="M184.753,368.201c-4.418,0-8,3.582-8,8v16c0,4.418,3.582,8,8,8s8-3.582,8-8v-16
			C192.753,371.783,189.171,368.201,184.753,368.201z"/>
	</g>
</g>
<g>
	<g>
		<path d="M224.753,368.201c-4.418,0-8,3.582-8,8v16c0,4.418,3.582,8,8,8s8-3.582,8-8v-16
			C232.753,371.783,229.171,368.201,224.753,368.201z"/>
	</g>
</g>
<g>
	<g>
		<path d="M240.753,160.201h-56v136c0,4.418,3.582,8,8,8s8-3.582,8-8v-40h40c22.091,0,40-17.909,40-40v-16
			C280.753,178.11,262.844,160.201,240.753,160.201z M264.753,216.201c0,13.255-10.745,24-24,24h-40v-64h40
			c13.255,0,24,10.745,24,24V216.201z"/>
	</g>
</g>
<g>
	<g>
		<path d="M264.753,368.201c-4.418,0-8,3.582-8,8v16c0,4.418,3.582,8,8,8s8-3.582,8-8v-16
			C272.753,371.783,269.171,368.201,264.753,368.201z"/>
	</g>
</g>
<g>
	<g>
		<path d="M304.753,368.201c-4.418,0-8,3.582-8,8v16c0,4.418,3.582,8,8,8s8-3.582,8-8v-16
			C312.753,371.783,309.171,368.201,304.753,368.201z"/>
	</g>
</g>
<g>
	<g>
		<path d="M344.753,368.201c-4.418,0-8,3.582-8,8v16c0,4.418,3.582,8,8,8s8-3.582,8-8v-16
			C352.753,371.783,349.171,368.201,344.753,368.201z"/>
	</g>
</g>
<g>
</g>
<g>
</g>
<g>
</g>
<g>
</g>
<g>
</g>
<g>
</g>
<g>
</g>
<g>
</g>
<g>
</g>
<g>
</g>
<g>
</g>
<g>
</g>
<g>
</g>
<g>
</g>
<g>
</g>
</svg>
