<?xml version="1.0" encoding="iso-8859-1"?>
<!-- Generator: Adobe Illustrator 19.0.0, SVG Export Plug-In . SVG Version: 6.00 Build 0)  -->
<svg version="1.1" id="Capa_1" xmlns="http://www.w3.org/2000/svg" xmlns:xlink="http://www.w3.org/1999/xlink" x="0px" y="0px"
	 viewBox="0 0 512.112 512.112" style="enable-background:new 0 0 512.112 512.112;" xml:space="preserve">
<g>
	<g>
		<path d="M509.176,161.059c-60.459-51.534-135.256-83.306-214.32-91.04c0.781-3.71,1.183-7.489,1.2-11.28v-6.72
			c0-8.837-7.163-16-16-16h-48c-8.837,0-16,7.163-16,16v6.96c0.007,3.708,0.382,7.406,1.12,11.04
			c-79.035,7.755-153.8,39.526-214.24,91.04c-3.307,2.704-3.906,7.53-1.36,10.96l190.48,264c2.608,3.566,7.614,4.343,11.18,1.734
			c1.021-0.747,1.85-1.725,2.42-2.854c8.281-16.469,24.138-27.808,42.4-30.32v24.88c-12.497,4.418-19.046,18.131-14.627,30.627
			c4.418,12.497,18.131,19.046,30.627,14.627c12.497-4.418,19.046-18.131,14.627-30.627c-2.416-6.835-7.793-12.211-14.627-14.627
			v-24.88c18.13,2.652,33.817,14.006,42,30.4c1.245,2.496,3.701,4.163,6.48,4.4h0.64c2.715,0.121,5.306-1.144,6.88-3.36l190.48-264
			C513.081,168.588,512.483,163.763,509.176,161.059z M232.056,52.019h48v6.72c-0.003,5.098-0.98,10.149-2.88,14.88l-21.12,52.88
			l-21.12-52.64c-1.899-4.731-2.877-9.782-2.88-14.88V52.019z M267.096,452.019c0,6.097-4.943,11.04-11.04,11.04c0,0,0,0,0,0
			c-6.097,0-11.04-4.943-11.04-11.04s4.943-11.04,11.04-11.04C262.153,440.979,267.096,445.922,267.096,452.019z M313.736,417.059
			c-23.829-31.834-68.953-38.323-100.787-14.493c-5.498,4.115-10.378,8.996-14.493,14.493l-179.52-248.56
			c57.932-47.475,128.829-76.385,203.44-82.96l26.24,65.44c1.624,4.109,6.271,6.124,10.381,4.5c2.057-0.813,3.686-2.442,4.5-4.5
			l26.24-65.44c74.61,6.58,145.505,35.49,203.44,82.96L313.736,417.059z"/>
	</g>
</g>
<g>
	<g>
		<path d="M224.936,141.539l-1.92-16c-0.53-4.418-4.542-7.57-8.96-7.04c-4.418,0.53-7.57,4.542-7.04,8.96l1.92,16
			c0.529,4.039,4.008,7.035,8.08,6.96h0.96C222.343,149.877,225.453,145.909,224.936,141.539z"/>
	</g>
</g>
<g>
	<g>
		<path d="M180.936,148.819l-4.16-15.44c-1.003-4.303-5.304-6.979-9.607-5.976c-4.303,1.003-6.979,5.304-5.976,9.607
			c0.042,0.178,0.089,0.355,0.143,0.529l4.16,15.44c1.295,4.224,5.769,6.599,9.993,5.304
			C179.51,157.05,181.89,152.915,180.936,148.819z"/>
	</g>
</g>
<g>
	<g>
		<path d="M143.576,160.339l-6-14.8c-1.908-3.985-6.685-5.67-10.67-3.762c-3.644,1.744-5.416,5.932-4.13,9.762l6,14.8
			c1.908,3.985,6.685,5.67,10.67,3.762C143.09,168.357,144.862,164.169,143.576,160.339z"/>
	</g>
</g>
<g>
	<g>
		<path d="M103.016,178.899l-8-13.84c-2.37-3.729-7.314-4.83-11.043-2.46c-3.508,2.23-4.724,6.776-2.797,10.46l8,13.84
			c2.37,3.729,7.315,4.83,11.043,2.459C103.727,187.128,104.943,182.582,103.016,178.899z"/>
	</g>
</g>
<g>
	<g>
		<path d="M297.976,118.419c-4.418-0.53-8.43,2.622-8.96,7.04l0.08,0.08l-1.92,16c-0.518,4.371,2.592,8.338,6.96,8.88h0.96
			c4.069,0.029,7.512-3,8-7.04l1.92-16C305.546,122.961,302.394,118.949,297.976,118.419z"/>
	</g>
</g>
<g>
	<g>
		<path d="M344.72,127.932c-4.096-0.954-8.231,1.426-9.464,5.447l-4.16,15.44c-1.162,4.263,1.352,8.66,5.614,9.822
			c0.022,0.006,0.044,0.012,0.066,0.018c4.262,1.118,8.626-1.422,9.76-5.68l4.16-15.44
			C351.698,133.236,349.023,128.935,344.72,127.932z"/>
	</g>
</g>
<g>
	<g>
		<path d="M384.298,141.409c-3.83-1.286-8.017,0.486-9.762,4.13l-6,14.8c-1.648,4.087,0.319,8.737,4.4,10.4
			c4.087,1.648,8.737-0.319,10.4-4.4l6-14.8C390.742,147.35,388.486,142.815,384.298,141.409z"/>
	</g>
</g>
<g>
	<g>
		<path d="M427.635,162.262c-3.684-1.927-8.229-0.711-10.459,2.797l-8,13.84c-2.234,3.812-0.954,8.713,2.858,10.947
			c0.008,0.004,0.015,0.009,0.022,0.013c3.823,2.215,8.718,0.911,10.932-2.912c0.009-0.016,0.018-0.032,0.028-0.048l8-13.84
			C433.064,169.144,431.55,164.31,427.635,162.262z"/>
	</g>
</g>
<g>
	<g>
		<path d="M405.656,224.819c-20.598-13.647-42.965-24.413-66.48-32c-4.107-1.629-8.757,0.38-10.386,4.487
			c-1.629,4.107,0.38,8.757,4.487,10.386c0.332,0.132,0.672,0.241,1.019,0.327v0.16c22.123,7.104,43.171,17.197,62.56,30
			c3.73,2.369,8.673,1.266,11.042-2.464C410.211,232.073,409.219,227.252,405.656,224.819z"/>
	</g>
</g>
<g>
	<g>
		<path d="M305.656,184.259c-7.36-1.36-14.8-2.4-22.08-3.12c-4.395-0.451-8.324,2.746-8.775,7.141
			c-0.01,0.099-0.018,0.199-0.025,0.299c-0.418,4.396,2.805,8.298,7.2,8.72c6.88,0.72,13.92,1.68,20.8,2.96h1.44
			c4.418,0.398,8.322-2.862,8.72-7.28S310.074,184.657,305.656,184.259z"/>
	</g>
</g>
<g>
	<g>
		<path d="M256.056,180.019c-52.497-0.077-103.886,15.098-147.92,43.68c-3.711,2.408-4.768,7.369-2.36,11.08
			c2.408,3.711,7.369,4.768,11.08,2.36c41.436-26.904,89.796-41.189,139.2-41.12c4.418,0,8-3.582,8-8
			S260.474,180.019,256.056,180.019z"/>
	</g>
</g>
<g>
	<g>
		<path d="M264.056,228.019h-48c-4.418,0-8,3.582-8,8s3.582,8,8,8h8v96h-8c-4.418,0-8,3.582-8,8s3.582,8,8,8h48
			c22.091,0,40-17.909,40-40v-48C304.056,245.927,286.147,228.019,264.056,228.019z M288.056,316.019c0,13.255-10.745,24-24,24h-24
			v-96h24c13.255,0,24,10.745,24,24V316.019z"/>
	</g>
</g>
<g>
</g>
<g>
</g>
<g>
</g>
<g>
</g>
<g>
</g>
<g>
</g>
<g>
</g>
<g>
</g>
<g>
</g>
<g>
</g>
<g>
</g>
<g>
</g>
<g>
</g>
<g>
</g>
<g>
</g>
</svg>
