<?xml version="1.0" encoding="iso-8859-1"?>
<!-- Generator: Adobe Illustrator 19.0.0, SVG Export Plug-In . SVG Version: 6.00 Build 0)  -->
<svg version="1.1" id="Capa_1" xmlns="http://www.w3.org/2000/svg" xmlns:xlink="http://www.w3.org/1999/xlink" x="0px" y="0px"
	 viewBox="0 0 464 464" style="enable-background:new 0 0 464 464;" xml:space="preserve">
<g>
	<g>
		<path d="M88,376c-4.418,0-8,3.582-8,8v16c0,4.418,3.582,8,8,8s8-3.582,8-8v-16C96,379.582,92.418,376,88,376z"/>
	</g>
</g>
<g>
	<g>
		<path d="M48,376c-4.418,0-8,3.582-8,8v16c0,4.418,3.582,8,8,8s8-3.582,8-8v-16C56,379.582,52.418,376,48,376z"/>
	</g>
</g>
<g>
	<g>
		<path d="M128,376c-4.418,0-8,3.582-8,8v16c0,4.418,3.582,8,8,8s8-3.582,8-8v-16C136,379.582,132.418,376,128,376z"/>
	</g>
</g>
<g>
	<g>
		<path d="M168,376c-4.418,0-8,3.582-8,8v16c0,4.418,3.582,8,8,8s8-3.582,8-8v-16C176,379.582,172.418,376,168,376z"/>
	</g>
</g>
<g>
	<g>
		<path d="M208,376c-4.418,0-8,3.582-8,8v16c0,4.418,3.582,8,8,8s8-3.582,8-8v-16C216,379.582,212.418,376,208,376z"/>
	</g>
</g>
<g>
	<g>
		<path d="M248,376c-4.418,0-8,3.582-8,8v16c0,4.418,3.582,8,8,8s8-3.582,8-8v-16C256,379.582,252.418,376,248,376z"/>
	</g>
</g>
<g>
	<g>
		<path d="M288,376c-4.418,0-8,3.582-8,8v16c0,4.418,3.582,8,8,8s8-3.582,8-8v-16C296,379.582,292.418,376,288,376z"/>
	</g>
</g>
<g>
	<g>
		<path d="M328,376c-4.418,0-8,3.582-8,8v16c0,4.418,3.582,8,8,8s8-3.582,8-8v-16C336,379.582,332.418,376,328,376z"/>
	</g>
</g>
<g>
	<g>
		<path d="M368,376c-4.418,0-8,3.582-8,8v16c0,4.418,3.582,8,8,8s8-3.582,8-8v-16C376,379.582,372.418,376,368,376z"/>
	</g>
</g>
<g>
	<g>
		<path d="M408,376c-4.418,0-8,3.582-8,8v16c0,4.418,3.582,8,8,8s8-3.582,8-8v-16C416,379.582,412.418,376,408,376z"/>
	</g>
</g>
<g>
	<g>
		<path d="M448,209.44V40c0-13.255-10.745-24-24-24H205.28c-10.616-0.019-20.804,4.183-28.32,11.68L27.68,176.96
			c-7.497,7.516-11.699,17.704-11.68,28.32v4.24C6.462,212.892,0.062,221.883,0,232v192c0,13.255,10.745,24,24,24h416
			c13.255,0,24-10.745,24-24V232C463.971,221.854,457.566,212.822,448,209.44z M32,205.28c0.006-6.363,2.538-12.463,7.04-16.96
			L188.32,39.04c4.497-4.502,10.597-7.034,16.96-7.04H424c4.418,0,8,3.582,8,8v168h-48v-16c0-4.418-3.582-8-8-8s-8,3.582-8,8v16H32
			V205.28z M448,424c0,4.418-3.582,8-8,8H24c-4.418,0-8-3.582-8-8V232c0-4.418,3.582-8,8-8h416c4.418,0,8,3.582,8,8V424z"/>
	</g>
</g>
<g>
	<g>
		<path d="M392,48h-32c-4.418,0-8,3.582-8,8s3.582,8,8,8h32c4.418,0,8-3.582,8-8S396.418,48,392,48z"/>
	</g>
</g>
<g>
	<g>
		<path d="M328,48H216c-4.418,0-8,3.582-8,8s3.582,8,8,8h112c4.418,0,8-3.582,8-8S332.418,48,328,48z"/>
	</g>
</g>
<g>
	<g>
		<path d="M392,256h-64c-13.255,0-24,10.745-24,24s10.745,24,24,24h64c13.255,0,24-10.745,24-24S405.255,256,392,256z M392,288h-64
			c-4.418,0-8-3.582-8-8s3.582-8,8-8h64c4.418,0,8,3.582,8,8S396.418,288,392,288z"/>
	</g>
</g>
<g>
</g>
<g>
</g>
<g>
</g>
<g>
</g>
<g>
</g>
<g>
</g>
<g>
</g>
<g>
</g>
<g>
</g>
<g>
</g>
<g>
</g>
<g>
</g>
<g>
</g>
<g>
</g>
<g>
</g>
</svg>
