<?xml version="1.0" encoding="iso-8859-1"?>
<!-- Generator: Adobe Illustrator 19.0.0, SVG Export Plug-In . SVG Version: 6.00 Build 0)  -->
<svg version="1.1" id="Capa_1" xmlns="http://www.w3.org/2000/svg" xmlns:xlink="http://www.w3.org/1999/xlink" x="0px" y="0px"
	 viewBox="0 0 464 464" style="enable-background:new 0 0 464 464;" xml:space="preserve">
<g>
	<g>
		<path d="M400.002,286.081c-0.001,0-0.001,0-0.002-0.001c-4.136-1.554-8.749,0.538-10.303,4.674
			c-0.006,0.015-0.011,0.031-0.017,0.046c-2.148,5.729-4.605,11.337-7.36,16.8c-1.988,3.954-0.394,8.772,3.56,10.76
			s8.772,0.394,10.76-3.56c3.002-5.982,5.673-12.125,8-18.4C406.209,292.27,404.132,287.649,400.002,286.081z"/>
	</g>
</g>
<g>
	<g>
		<path d="M232,112c-4.418,0-8,3.582-8,8v16c0,4.418,3.582,8,8,8s8-3.582,8-8v-16C240,115.582,236.418,112,232,112z"/>
	</g>
</g>
<g>
	<g>
		<path d="M169.76,158.4l-11.28-11.28c-3.356-2.874-8.406-2.483-11.28,0.873c-2.565,2.995-2.565,7.412,0,10.407l11.28,11.28
			c3.356,2.874,8.406,2.483,11.28-0.873C172.325,165.812,172.325,161.395,169.76,158.4z"/>
	</g>
</g>
<g>
	<g>
		<path d="M315.927,147.12c-2.995-2.565-7.412-2.565-10.407,0l-11.28,11.28c-3.356,2.874-3.747,7.924-0.873,11.28
			s7.924,3.747,11.28,0.873c0.313-0.268,0.605-0.56,0.873-0.873l11.28-11.28C319.674,155.044,319.283,149.994,315.927,147.12z"/>
	</g>
</g>
<g>
	<g>
		<path d="M278.88,121.52c-4.065-1.72-8.754,0.178-10.48,4.24l-6.24,14.72c-1.881,3.998-0.164,8.764,3.834,10.644
			s8.764,0.164,10.644-3.834c0.088-0.187,0.169-0.377,0.242-0.57l6.24-14.72C284.84,127.935,282.942,123.246,278.88,121.52z"/>
	</g>
</g>
<g>
	<g>
		<path d="M202.082,141.05c-0.073-0.193-0.154-0.383-0.242-0.57l-6.24-14.72c-1.566-4.132-6.184-6.212-10.316-4.646
			s-6.212,6.184-4.646,10.316c0.073,0.193,0.154,0.383,0.242,0.57l6.24,14.72c1.566,4.132,6.184,6.212,10.316,4.646
			S203.647,145.182,202.082,141.05z"/>
	</g>
</g>
<g>
	<g>
		<path d="M232,0C103.87,0,0,103.87,0,232s103.87,232,232,232s232-103.87,232-232S360.13,0,232,0z M224,16
			c0.026-0.373,0.026-0.747,0-1.12h8h8c-0.026,0.373-0.026,0.747,0,1.12v32h-8h-8V16z M281.92,206.72L393.04,192
			c0.61-0.144,1.2-0.359,1.76-0.64c1.402,5.486,2.524,11.04,3.36,16.64h-0.56l-110.72,34.96
			C289.374,230.667,287.626,217.891,281.92,206.72z M271.2,192c-21.765-21.292-56.555-21.292-78.32,0L73.76,176
			C104.924,88.606,201.034,43.024,288.428,74.188C335.925,91.125,373.303,128.503,390.24,176L271.2,192z M209.44,283.2
			c14.341,6.353,30.699,6.353,45.04,0L240,399.04c-0.014,0.266-0.014,0.534,0,0.8h-8c-2.72,0-5.44,0-8-0.4c0,0,0,0,0-0.56
			L209.44,283.2z M232,274c-23.196,0-42-18.804-42-42c0-23.196,18.804-42,42-42c23.178,0.044,41.956,18.822,42,42
			C274,255.196,255.196,274,232,274z M177.12,243.04L66.4,208h-0.48c0.81-5.599,1.905-11.153,3.28-16.64
			c0.56,0.281,1.15,0.496,1.76,0.64l111.12,14.8C176.375,217.971,174.626,230.747,177.12,243.04z M184.48,262.16
			c2.173,3.325,4.694,6.409,7.52,9.2c-0.059,0.558-0.059,1.122,0,1.68l16,125.04C125.418,386.16,64.098,315.438,64,232
			c0-2.56,0-4.96,0-7.52L184.48,262.16z M232,449.28v0.08c-119.998,0.679-217.827-96.049-218.505-216.048
			C12.863,121.659,96.96,27.702,208,16v32c-0.053,0.532-0.053,1.068,0,1.6C107.25,62.873,36.336,155.306,49.608,256.056
			c13.273,100.75,105.706,171.664,206.456,158.392c46.644-6.145,89.162-29.923,118.816-66.448c2.954-3.285,2.686-8.344-0.6-11.298
			c-3.285-2.954-8.344-2.686-11.298,0.6c-0.178,0.198-0.345,0.404-0.502,0.618c-26.619,32.798-64.656,54.317-106.48,60.24l16-125.2
			c0.059-0.558,0.059-1.122,0-1.68c2.742-2.803,5.182-5.887,7.28-9.2L400,224.48c0,2.48,0,4.96,0,7.52
			c0.008,8.407-0.607,16.804-1.84,25.12c-0.668,4.368,2.332,8.449,6.699,9.117c0.007,0.001,0.014,0.002,0.021,0.003
			c4.368,0.668,8.449-2.332,9.117-6.699c0.001-0.007,0.002-0.014,0.003-0.021c15.179-100.48-53.972-194.241-154.452-209.419
			c-1.181-0.178-2.364-0.345-3.548-0.501c0.053-0.532,0.053-1.068,0-1.6V16c119.294,13.004,205.459,120.252,192.455,239.546
			C436.42,365.953,343.061,449.512,232,449.28z"/>
	</g>
</g>
<g>
</g>
<g>
</g>
<g>
</g>
<g>
</g>
<g>
</g>
<g>
</g>
<g>
</g>
<g>
</g>
<g>
</g>
<g>
</g>
<g>
</g>
<g>
</g>
<g>
</g>
<g>
</g>
<g>
</g>
</svg>
