<?xml version="1.0" encoding="iso-8859-1"?>
<!-- Generator: Adobe Illustrator 19.0.0, SVG Export Plug-In . SVG Version: 6.00 Build 0)  -->
<svg version="1.1" id="Capa_1" xmlns="http://www.w3.org/2000/svg" xmlns:xlink="http://www.w3.org/1999/xlink" x="0px" y="0px"
	 viewBox="0 0 512 512" style="enable-background:new 0 0 512 512;" xml:space="preserve">
<g>
	<g>
		<path d="M56,160c-4.418,0-8,3.582-8,8v16c0,4.418,3.582,8,8,8s8-3.582,8-8v-16C64,163.582,60.418,160,56,160z"/>
	</g>
</g>
<g>
	<g>
		<path d="M96,160c-4.418,0-8,3.582-8,8v16c0,4.418,3.582,8,8,8s8-3.582,8-8v-16C104,163.582,100.418,160,96,160z"/>
	</g>
</g>
<g>
	<g>
		<path d="M136,160c-4.418,0-8,3.582-8,8v16c0,4.418,3.582,8,8,8s8-3.582,8-8v-16C144,163.582,140.418,160,136,160z"/>
	</g>
</g>
<g>
	<g>
		<path d="M176,160c-4.418,0-8,3.582-8,8v16c0,4.418,3.582,8,8,8s8-3.582,8-8v-16C184,163.582,180.418,160,176,160z"/>
	</g>
</g>
<g>
	<g>
		<path d="M216,160c-4.418,0-8,3.582-8,8v16c0,4.418,3.582,8,8,8s8-3.582,8-8v-16C224,163.582,220.418,160,216,160z"/>
	</g>
</g>
<g>
	<g>
		<path d="M256,160c-4.418,0-8,3.582-8,8v16c0,4.418,3.582,8,8,8s8-3.582,8-8v-16C264,163.582,260.418,160,256,160z"/>
	</g>
</g>
<g>
	<g>
		<path d="M296,160c-4.418,0-8,3.582-8,8v16c0,4.418,3.582,8,8,8s8-3.582,8-8v-16C304,163.582,300.418,160,296,160z"/>
	</g>
</g>
<g>
	<g>
		<path d="M336,160c-4.418,0-8,3.582-8,8v16c0,4.418,3.582,8,8,8s8-3.582,8-8v-16C344,163.582,340.418,160,336,160z"/>
	</g>
</g>
<g>
	<g>
		<path d="M376,160c-4.418,0-8,3.582-8,8v16c0,4.418,3.582,8,8,8s8-3.582,8-8v-16C384,163.582,380.418,160,376,160z"/>
	</g>
</g>
<g>
	<g>
		<path d="M416,160c-4.418,0-8,3.582-8,8v16c0,4.418,3.582,8,8,8s8-3.582,8-8v-16C424,163.582,420.418,160,416,160z"/>
	</g>
</g>
<g>
	<g>
		<path d="M456,160c-4.418,0-8,3.582-8,8v16c0,4.418,3.582,8,8,8s8-3.582,8-8v-16C464,163.582,460.418,160,456,160z"/>
	</g>
</g>
<g>
	<g>
		<path d="M152,272h-24v-24c0-4.418-3.582-8-8-8s-8,3.582-8,8v24H88c-4.418,0-8,3.582-8,8s3.582,8,8,8h24v24c0,4.418,3.582,8,8,8
			s8-3.582,8-8v-24h24c4.418,0,8-3.582,8-8S156.418,272,152,272z"/>
	</g>
</g>
<g>
	<g>
		<path d="M424,272h-64c-4.418,0-8,3.582-8,8s3.582,8,8,8h64c4.418,0,8-3.582,8-8S428.418,272,424,272z"/>
	</g>
</g>
<g>
	<g>
		<path d="M488,128h-8v-8c0-13.255-10.745-24-24-24h-40V64c0-8.837-7.163-16-16-16h-32c-8.837,0-16,7.163-16,16v32H160V64
			c0-8.837-7.163-16-16-16h-32c-8.837,0-16,7.163-16,16v32H56c-13.255,0-24,10.745-24,24v8h-8c-13.255,0-24,10.745-24,24v48
			c0,13.255,10.745,24,24,24h8v193.44c-12.46,4.521-18.896,18.287-14.375,30.747C21.047,457.615,29.97,463.922,40,464h432
			c13.254-0.103,23.916-10.931,23.813-24.185c-0.078-10.03-6.385-18.953-15.813-22.375V224h8c13.255,0,24-10.745,24-24v-48
			C512,138.745,501.255,128,488,128z M368,64h32v32h-32V64z M112,64h32v32h-32V64z M48,120c0-4.418,3.582-8,8-8h400
			c4.418,0,8,3.582,8,8v8H48V120z M472,448H40c-4.418,0-8-3.582-8-8s3.582-8,8-8h432c4.418,0,8,3.582,8,8S476.418,448,472,448z
			 M48,416V224h416v192H48z M496,200c0,4.418-3.582,8-8,8H24c-4.418,0-8-3.582-8-8v-48c0-4.418,3.582-8,8-8h464c4.418,0,8,3.582,8,8
			V200z"/>
	</g>
</g>
<g>
	<g>
		<path d="M296,352h-16c-4.418,0-8,3.582-8,8s3.582,8,8,8h16c4.418,0,8-3.582,8-8S300.418,352,296,352z"/>
	</g>
</g>
<g>
	<g>
		<path d="M248,352h-64c-4.418,0-8,3.582-8,8s3.582,8,8,8h64c4.418,0,8-3.582,8-8S252.418,352,248,352z"/>
	</g>
</g>
<g>
	<g>
		<path d="M328,320H184c-4.418,0-8,3.582-8,8s3.582,8,8,8h144c4.418,0,8-3.582,8-8S332.418,320,328,320z"/>
	</g>
</g>
<g>
</g>
<g>
</g>
<g>
</g>
<g>
</g>
<g>
</g>
<g>
</g>
<g>
</g>
<g>
</g>
<g>
</g>
<g>
</g>
<g>
</g>
<g>
</g>
<g>
</g>
<g>
</g>
<g>
</g>
</svg>
