<?xml version="1.0" encoding="iso-8859-1"?>
<!-- Generator: Adobe Illustrator 19.0.0, SVG Export Plug-In . SVG Version: 6.00 Build 0)  -->
<svg version="1.1" id="Capa_1" xmlns="http://www.w3.org/2000/svg" xmlns:xlink="http://www.w3.org/1999/xlink" x="0px" y="0px"
	 viewBox="0 0 512 512" style="enable-background:new 0 0 512 512;" xml:space="preserve">
<g>
	<g>
		<path d="M56,192.217c-4.418,0-8,3.582-8,8v16c0,4.418,3.582,8,8,8s8-3.582,8-8v-16C64,195.799,60.418,192.217,56,192.217z"/>
	</g>
</g>
<g>
	<g>
		<path d="M96,192.217c-4.418,0-8,3.582-8,8v16c0,4.418,3.582,8,8,8s8-3.582,8-8v-16C104,195.799,100.418,192.217,96,192.217z"/>
	</g>
</g>
<g>
	<g>
		<path d="M136,192.217c-4.418,0-8,3.582-8,8v16c0,4.418,3.582,8,8,8s8-3.582,8-8v-16C144,195.799,140.418,192.217,136,192.217z"/>
	</g>
</g>
<g>
	<g>
		<path d="M176,192.217c-4.418,0-8,3.582-8,8v16c0,4.418,3.582,8,8,8s8-3.582,8-8v-16C184,195.799,180.418,192.217,176,192.217z"/>
	</g>
</g>
<g>
	<g>
		<path d="M216,192.217c-4.418,0-8,3.582-8,8v16c0,4.418,3.582,8,8,8s8-3.582,8-8v-16C224,195.799,220.418,192.217,216,192.217z"/>
	</g>
</g>
<g>
	<g>
		<path d="M256,192.217c-4.418,0-8,3.582-8,8v16c0,4.418,3.582,8,8,8s8-3.582,8-8v-16C264,195.799,260.418,192.217,256,192.217z"/>
	</g>
</g>
<g>
	<g>
		<path d="M296,192.217c-4.418,0-8,3.582-8,8v16c0,4.418,3.582,8,8,8s8-3.582,8-8v-16C304,195.799,300.418,192.217,296,192.217z"/>
	</g>
</g>
<g>
	<g>
		<path d="M376,288.217h-16c-4.418,0-8,3.582-8,8s3.582,8,8,8h16c4.418,0,8-3.582,8-8S380.418,288.217,376,288.217z"/>
	</g>
</g>
<g>
	<g>
		<path d="M496,321.577c0.039-0.453,0.039-0.907,0-1.36v-30.64c0.004-7.656-2.19-15.153-6.32-21.6L432,178.617
			c-7.313-11.399-19.897-18.323-33.44-18.4H384v-16c0-4.418-3.582-8-8-8s-8,3.582-8,8v16h-32v-65.44
			c12.46-4.521,18.896-18.287,14.375-30.747C346.953,54.602,338.03,48.295,328,48.217H24C10.746,48.32,0.084,59.148,0.187,72.403
			C0.265,82.432,6.571,91.356,16,94.777v226.88c-9.566,3.382-15.971,12.414-16,22.56v48c0,13.255,10.745,24,24,24h40.64
			c4.662,30.574,33.228,51.58,63.802,46.918c24.218-3.693,43.225-22.7,46.918-46.918h177.28
			c4.662,30.574,33.228,51.58,63.802,46.918c24.218-3.693,43.225-22.7,46.918-46.918H488c13.255,0,24-10.745,24-24v-48
			C512.005,334.042,505.594,324.969,496,321.577z M398.56,176.217c8.16,0.014,15.754,4.172,20.16,11.04l57.44,89.36
			c2.495,3.863,3.828,8.361,3.84,12.96v30.64H336v-144H398.56z M24,64.217h304c4.418,0,8,3.582,8,8s-3.582,8-8,8H24
			c-4.418,0-8-3.582-8-8S19.582,64.217,24,64.217z M32,240.217v-64h200c4.418,0,8-3.582,8-8s-3.582-8-8-8H32v-64h288v144H32z
			 M320,256.217v64H32v-64H320z M120,448.217c-22.091,0-40-17.909-40-40c0-22.091,17.909-40,40-40s40,17.909,40,40
			C160,430.309,142.091,448.217,120,448.217z M408,448.217c-22.091,0-40-17.909-40-40c0-22.091,17.909-40,40-40
			c22.091,0,40,17.909,40,40C448,430.309,430.091,448.217,408,448.217z M496,392.217c0,4.418-3.582,8-8,8h-24.64
			c-4.662-30.575-33.228-51.58-63.802-46.918c-24.218,3.693-43.225,22.7-46.918,46.918H175.36
			c-4.662-30.575-33.228-51.58-63.802-46.918c-24.218,3.693-43.225,22.7-46.918,46.918H24c-4.418,0-8-3.582-8-8v-48
			c0-4.418,3.582-8,8-8h464c4.418,0,8,3.582,8,8V392.217z"/>
	</g>
</g>
<g>
	<g>
		<circle cx="408" cy="408.217" r="16"/>
	</g>
</g>
<g>
	<g>
		<circle cx="120" cy="408.217" r="16"/>
	</g>
</g>
<g>
	<g>
		<path d="M439.2,247.737l-30-48c-2.93-4.688-8.072-7.531-13.6-7.52H368c-8.837,0-16,7.163-16,16v48c0,8.837,7.163,16,16,16h57.6
			c8.837,0.018,16.014-7.131,16.032-15.968C441.638,253.24,440.795,250.289,439.2,247.737z M368,256.217v-48h27.6l30.08,48H368z"/>
	</g>
</g>
<g>
	<g>
		<path d="M296,160.217h-32c-4.418,0-8,3.582-8,8s3.582,8,8,8h32c4.418,0,8-3.582,8-8S300.418,160.217,296,160.217z"/>
	</g>
</g>
<g>
</g>
<g>
</g>
<g>
</g>
<g>
</g>
<g>
</g>
<g>
</g>
<g>
</g>
<g>
</g>
<g>
</g>
<g>
</g>
<g>
</g>
<g>
</g>
<g>
</g>
<g>
</g>
<g>
</g>
</svg>
