<?xml version="1.0" encoding="iso-8859-1"?>
<!-- Generator: Adobe Illustrator 19.0.0, SVG Export Plug-In . SVG Version: 6.00 Build 0)  -->
<svg version="1.1" id="Layer_1" xmlns="http://www.w3.org/2000/svg" xmlns:xlink="http://www.w3.org/1999/xlink" x="0px" y="0px"
	 viewBox="0 0 512 512" style="enable-background:new 0 0 512 512;" xml:space="preserve">
<g>
	<g>
		<path d="M123.496,285.909c-25.649,0-46.517,20.867-46.517,46.516s20.867,46.517,46.517,46.517
			c25.648,0,46.516-20.867,46.516-46.517C170.012,306.776,149.145,285.909,123.496,285.909z M123.496,363.941
			c-17.378,0-31.517-14.139-31.517-31.517s14.139-31.516,31.517-31.516c17.378,0,31.516,14.138,31.516,31.516
			S140.874,363.941,123.496,363.941z"/>
	</g>
</g>
<g>
	<g>
		<path d="M451.762,380.441c-3.261-2.553-7.975-1.979-10.529,1.281c-2.638,3.369-5.566,6.551-8.704,9.456
			c-3.039,2.813-3.09,7.442-0.407,10.599c3.882,4.568,9.155,1.743,10.599,0.407c3.722-3.445,7.194-7.219,10.323-11.214
			C455.597,387.708,455.023,382.995,451.762,380.441z"/>
	</g>
</g>
<g>
	<g>
		<path d="M378.157,285.908c-25.65,0-46.517,20.868-46.517,46.516c0,25.649,20.867,46.517,46.517,46.517
			c25.65,0,46.517-20.867,46.517-46.517C424.674,306.776,403.807,285.908,378.157,285.908z M378.156,363.941
			c-17.378,0-31.517-14.139-31.517-31.517s14.139-31.516,31.517-31.516s31.517,14.138,31.517,31.516
			C409.673,349.802,395.534,363.941,378.156,363.941z"/>
	</g>
</g>
<g>
	<g>
		<path d="M505.709,276.334v-63.429c0-24.082-19.592-43.674-43.674-43.674h-58.89l-10.863-33.143
			c-2.688-8.194-10.286-13.7-18.91-13.7h-15.513c-3.71-7.574-10.41-13.426-18.553-16.01c0,0-0.805-21.854-20.238-21.854
			c-11.159,0-20.237,9.078-20.237,20.237v0.166h-76.91c-16.395,0-32.216,6.87-43.406,18.85l-29.048,31.092
			c-11.329,12.126-27.345,19.081-43.938,19.081H51.146c-22.082,0-40.263,17.963-40.525,40.043l-0.703,58.771
			C3.871,277.686,0,285.184,0,293.571c0,14.793,12.034,26.827,26.827,26.827h2.372c-0.5,3.94-0.758,7.953-0.758,12.026
			c0,52.412,42.64,95.052,95.052,95.052c52.412,0,95.052-42.64,95.052-95.052c0-4.073-0.258-8.087-0.758-12.026h66.072
			c-0.5,3.94-0.758,7.953-0.758,12.026c0,52.412,42.64,95.052,95.052,95.052c16.623,0,32.986-4.356,47.319-12.599
			c3.591-2.065,4.828-6.649,2.764-10.24c-2.066-3.592-6.652-4.829-10.24-2.764c-12.063,6.937-25.84,10.603-39.843,10.603
			c-44.141,0-80.052-35.911-80.052-80.052s35.911-80.052,80.052-80.052s80.052,35.911,80.052,80.052
			c0,11.673-2.454,22.923-7.295,33.438c-1.732,3.763-0.087,8.217,3.676,9.949c3.765,1.731,8.217,0.086,9.949-3.676
			c5.753-12.496,8.67-25.856,8.67-39.711c0-4.073-0.258-8.087-0.758-12.026h12.726c14.793,0,26.827-12.034,26.827-26.827
			C512,287.013,509.631,281,505.709,276.334z M361.013,136.948h12.359c2.314,0,4.353,1.477,5.073,3.675l9.377,28.608h-26.809
			V136.948z M313.828,104.761h0.001c0-2.888,2.35-5.237,5.237-5.237c2.889,0,5.238,2.35,5.238,5.237v0.166h-10.476V104.761z
			 M152.619,172.324c2.754-2.211,5.373-4.61,7.807-7.215l29.048-31.092c8.365-8.954,20.19-14.09,32.445-14.09h61.183v146.816
			h-90.964c-10.792-11.274-24.327-19.899-39.519-24.801V172.324z M25.355,236.133h17.956c1.483,0,2.365,0.839,2.759,1.339
			c0.394,0.501,1.001,1.555,0.652,2.996l-2.532,10.461c-0.975,4.026,1.499,8.08,5.524,9.054c0.593,0.144,7.285,1.13,9.054-5.524
			l2.532-10.461c1.345-5.552,0.09-11.311-3.442-15.8c-3.532-4.489-8.834-7.064-14.547-7.064H25.535l0.083-6.961
			c0.166-13.908,11.618-25.223,25.527-25.223h54.381c11.179,0,22.138-2.547,32.093-7.25v56.724c-4.61-0.69-9.327-1.051-14.126-1.051
			c-26.958,0-51.33,11.282-68.645,29.371L25.25,266.47L25.355,236.133z M32.361,305.398h-5.534c-6.521,0-11.827-5.306-11.827-11.827
			s5.306-11.827,11.827-11.827h16.288C38.509,289.023,34.866,296.968,32.361,305.398z M123.493,412.476
			c-44.141,0-80.052-35.911-80.052-80.052s35.911-80.052,80.052-80.052c44.141,0,80.052,35.911,80.052,80.052
			S167.634,412.476,123.493,412.476z M287.022,305.398h-72.397c-2.505-8.431-6.147-16.375-10.754-23.654h93.904
			C293.169,289.023,289.526,296.968,287.022,305.398z M446.797,266.744c-17.314-18.089-41.685-29.371-68.644-29.371
			c-26.958,0-51.33,11.282-68.645,29.371h-11.407V188.95h20.955c5.79,0,10.5-4.71,10.5-10.5v-36.466c0-5.79-4.71-10.5-10.5-10.5
			h-20.955v-11.557h31.819c8.873,0,16.092,7.219,16.092,16.092v40.712v47.708c0,4.143,3.357,7.5,7.5,7.5s7.5-3.357,7.5-7.5v-40.208
			h101.022c15.811,0,28.674,12.863,28.674,28.674v54.416c-1.787-0.376-3.638-0.577-5.536-0.577H446.797z M298.102,173.95v-27.466
			h16.455v27.466H298.102z M485.173,305.398h-15.888c-2.505-8.431-6.147-16.375-10.753-23.654h26.642
			c6.521,0,11.827,5.306,11.827,11.827S491.694,305.398,485.173,305.398z"/>
	</g>
</g>
<g>
	<g>
		<path d="M256.789,131.484h-35.303c-6.722,0-13.107,2.908-17.521,7.979l-23.188,26.642c-3.594,4.128-4.417,9.788-2.149,14.77
			c2.217,4.867,6.863,7.925,12.182,8.062c0,0-1.182,21.897,20.238,21.897c21.455,0,20.237-21.884,20.237-21.884h25.504
			c6.737,0,12.219-5.481,12.219-12.219v-33.028C269.008,136.966,263.527,131.484,256.789,131.484z M216.285,190.595
			c0,2.889-2.35,5.238-5.237,5.238c-2.84,0-5.238-2.398-5.238-5.238v-14.037c0-2.888,2.35-5.237,5.238-5.237s5.237,2.35,5.237,5.237
			V190.595z M254.008,173.95h-22.91c-3.97-17.479-21.361-17.592-22.006-17.53l6.188-7.109c1.563-1.797,3.826-2.827,6.207-2.827
			h32.521V173.95z"/>
	</g>
</g>
<g>
	<g>
		<path d="M465.705,236.04h-13.623c-4.021,0-7.28,3.259-7.28,7.28s3.259,7.28,7.28,7.28h13.623c4.021,0,7.28-3.259,7.28-7.28
			S469.726,236.04,465.705,236.04z"/>
	</g>
</g>
<g>
</g>
<g>
</g>
<g>
</g>
<g>
</g>
<g>
</g>
<g>
</g>
<g>
</g>
<g>
</g>
<g>
</g>
<g>
</g>
<g>
</g>
<g>
</g>
<g>
</g>
<g>
</g>
<g>
</g>
</svg>
