<?xml version="1.0" encoding="iso-8859-1"?>
<!-- Generator: Adobe Illustrator 19.0.0, SVG Export Plug-In . SVG Version: 6.00 Build 0)  -->
<svg version="1.1" id="Layer_1" xmlns="http://www.w3.org/2000/svg" xmlns:xlink="http://www.w3.org/1999/xlink" x="0px" y="0px"
	 viewBox="0 0 512.001 512.001" style="enable-background:new 0 0 512.001 512.001;" xml:space="preserve">
<g>
	<g>
		<path d="M416.969,223.638c-3.545-8.66-10.224-15.409-18.806-19.005c-8.583-3.597-18.077-3.625-26.738-0.08
			c-8.66,3.545-15.409,10.224-19.005,18.806l-6.15,14.675c-0.32-2.872-1.335-5.541-2.89-7.817c1.897-2.759,3.009-6.094,3.009-9.674
			c0-6.711-3.916-12.542-9.575-15.354V78.091c0-19.272-15.679-34.951-34.951-34.951c-7.411,0-14.29,2.318-19.951,6.268V34.951
			C281.912,15.679,266.233,0,246.961,0c-19.272,0-34.951,15.679-34.951,34.951v13.913c-5.661-3.95-12.541-6.268-19.951-6.268
			c-19.272,0-34.951,15.679-34.951,34.951v12.386c-5.661-3.95-12.541-6.268-19.951-6.268c-19.272,0-34.951,15.679-34.951,34.951
			v86.446c-5.791,2.758-9.813,8.651-9.813,15.48c0,3.6,1.115,6.944,3.017,9.706c-1.902,2.762-3.017,6.106-3.017,9.706
			c0,6.833,4.017,12.743,9.813,15.5v66.171c0,28.562,10.265,54.767,27.292,75.134v90.532c0,13.625,11.085,24.71,24.71,24.71H304.26
			c13.625,0,24.71-11.085,24.71-24.71v-83.203c18.026-13.806,35.571-33.28,48.967-60.789c0.062-0.127,0.12-0.255,0.174-0.385
			l38.778-92.538C420.486,241.794,420.514,232.298,416.969,223.638z M336.814,255.321c1.077-0.535,2.083-1.185,3.018-1.924
			l-3.018,7.202V255.321z M329.071,218.388c0.061,0.002,0.122,0.003,0.182,0.003c1.178,0.01,2.136,0.974,2.136,2.15
			c0,1.176-0.958,2.141-2.136,2.15c-4.118,0.034-7.439,3.382-7.439,7.5s3.321,7.466,7.439,7.5c1.158,0.01,2.136,1.045,2.136,2.262
			c0,1.176-0.958,2.141-2.136,2.15c-0.237,0.002-0.472,0.015-0.703,0.038h-46.63v-4.376h24.73c4.142,0,7.5-3.358,7.5-7.5
			c0-4.142-3.358-7.5-7.5-7.5h-24.73v-4.377H329.071z M227.01,34.951C227.01,23.95,235.96,15,246.961,15
			c11.001,0,19.951,8.95,19.951,19.951v150.834c0,4.142,3.358,7.5,7.5,7.5c4.142,0,7.5-3.358,7.5-7.5V78.091
			c0-11.001,8.95-19.951,19.951-19.951s19.951,8.95,19.951,19.951v125.297H227.01V34.951z M226.89,218.388h40.03v4.377h-40.03
			V218.388z M226.89,237.765h40.03v4.377h-40.03V237.765z M117.204,118.616c0.001-11.001,8.951-19.951,19.952-19.951
			c10.187,0,18.602,7.68,19.792,17.552v69.569c0,4.142,3.358,7.5,7.5,7.5c4.142,0,7.5-3.358,7.5-7.5l0.159-108.239
			c0-11.001,8.95-19.951,19.951-19.951c11.001,0,19.951,8.95,19.951,19.951v125.841h-94.805V118.616z M171.948,222.765v-4.377
			h39.942v4.377H171.948z M211.89,237.765v4.377h-39.942v-4.377H211.89z M109.546,218.388h47.402v4.377H110.51
			c-0.316-0.041-0.637-0.069-0.964-0.069c-1.188,0-2.154-0.966-2.154-2.154S108.358,218.388,109.546,218.388z M110.272,242.143
			c-0.239-0.023-0.481-0.035-0.726-0.035c-1.188,0-2.154-0.966-2.154-2.154s0.966-2.154,2.154-2.154
			c0.225,0,0.447-0.015,0.667-0.035h46.735v4.377h-46.676V242.143z M117.204,321.624v-64.481h0.001h204.609v37.754
			c-2.143,2.337-5.559,6.311-9.266,11.559c0.986-3.311,1.523-6.814,1.523-10.441c0-20.22-16.45-36.669-36.669-36.669H166.325
			c-20.22,0-36.669,16.45-36.669,36.669s16.45,36.669,36.669,36.669h111.076c10.101,0,19.261-4.106,25.9-10.736
			c-4.929,10.025-8.802,21.989-8.852,34.912c-0.059,15.344,5.241,29.53,15.737,42.287c-10.558,6.765-22.138,12.25-34.717,16.429
			c-30.196,10.03-55.168,8.39-55.404,8.374c-0.185-0.014-0.37-0.021-0.556-0.021C163.098,423.929,117.204,378.035,117.204,321.624z
			 M299.071,296.015c0,11.949-9.721,21.669-21.669,21.669H166.325c-11.949,0-21.669-9.721-21.669-21.669s9.721-21.669,21.669-21.669
			h111.076C289.35,274.345,299.071,284.066,299.071,296.015z M304.26,497H154.207c-4.769,0-8.737-3.459-9.549-7.998H313.81
			C312.998,493.541,309.029,497,304.26,497z M313.971,418.635h-0.001c-4.428,3.532-14.786,11.171-30.604,19.139
			c-3.699,1.864-5.187,6.373-3.324,10.072c1.318,2.617,6.285,5.32,10.073,3.324c9.888-5.211,17.943-9.929,23.855-13.947v36.778
			h-91.75c5.308-1.02,10.567-2.182,15.766-3.501c4.015-1.019,6.444-5.1,5.425-9.114c-1.019-4.015-5.097-6.446-9.114-5.425
			c-28.354,7.195-58.531,9.681-89.799,7.415v-51.635c31.163,26.258,77.417,27.332,80.324,27.332c9.746,0,30.549-1.113,54.773-9.063
			c10.485-3.441,22.311-8.441,34.376-15.701V418.635z M322.402,390.382c-8.623-10.21-12.982-21.414-12.954-33.387
			c0.034-14.396,6.268-27.787,12.515-37.6c1.674,31.995,9.683,49.482,14.91,57.658C332.336,381.843,327.514,386.291,322.402,390.382
			z M376.791,307.254l-6.86-9.226c-0.097-0.13-0.141-0.19-0.02-0.393c0.122-0.203,0.192-0.192,0.355-0.167l9.998,1.499
			L376.791,307.254z M386.244,284.695l-13.752-2.063c-6.172-0.924-12.235,1.935-15.445,7.287c-3.21,5.353-2.878,12.048,0.847,17.058
			l12.16,16.353l-5.694,13.588c-4.961,10.16-10.672,19.461-17.104,27.909c-4.829-9.641-11.543-29.685-10.48-65.328l19.802-47.254
			l36.841,15.328L386.244,284.695z M403.056,244.579l-3.839,9.161l-36.841-15.328l3.878-9.255
			c2.047-4.887,5.902-8.695,10.854-10.722c4.951-2.028,10.369-2.017,15.258,0.033c4.887,2.047,8.694,5.902,10.722,10.854
			C405.115,234.274,405.104,239.692,403.056,244.579z"/>
	</g>
</g>
<g>
	<g>
		<path d="M274.935,450.135c-1.536-3.847-5.899-5.722-9.746-4.185c-3.875,1.547-7.86,3.018-11.844,4.373
			c-3.922,1.333-6.021,5.593-4.688,9.515c1.062,3.122,4.502,6.163,9.515,4.688c4.286-1.261,8.462-3,12.579-4.644
			C274.598,458.346,276.471,453.983,274.935,450.135z"/>
	</g>
</g>
<g>
</g>
<g>
</g>
<g>
</g>
<g>
</g>
<g>
</g>
<g>
</g>
<g>
</g>
<g>
</g>
<g>
</g>
<g>
</g>
<g>
</g>
<g>
</g>
<g>
</g>
<g>
</g>
<g>
</g>
</svg>
