<?xml version="1.0" encoding="iso-8859-1"?>
<!-- Generator: Adobe Illustrator 19.0.0, SVG Export Plug-In . SVG Version: 6.00 Build 0)  -->
<svg version="1.1" id="Layer_1" xmlns="http://www.w3.org/2000/svg" xmlns:xlink="http://www.w3.org/1999/xlink" x="0px" y="0px"
	 viewBox="0 0 512.002 512.002" style="enable-background:new 0 0 512.002 512.002;" xml:space="preserve">
<g>
	<g>
		<path d="M355.523,370.008c-17.465,0-31.674,14.209-31.674,31.674c0,17.465,14.209,31.674,31.674,31.674
			s31.674-14.209,31.674-31.674C387.197,384.216,372.988,370.008,355.523,370.008z M355.523,418.356
			c-9.194,0-16.674-7.48-16.674-16.674c0-9.194,7.479-16.674,16.674-16.674s16.674,7.48,16.674,16.674
			C372.197,410.876,364.717,418.356,355.523,418.356z"/>
	</g>
</g>
<g>
	<g>
		<path d="M264.957,196.065c-15.476,0-28.068,12.591-28.068,28.068s12.592,28.067,28.068,28.067
			c15.477,0,28.067-12.591,28.067-28.067S280.433,196.065,264.957,196.065z M264.957,237.2c-7.206,0-13.068-5.862-13.068-13.067
			s5.862-13.068,13.068-13.068c7.205,0,13.067,5.862,13.067,13.068S272.162,237.2,264.957,237.2z"/>
	</g>
</g>
<g>
	<g>
		<path d="M442.084,73.481c-44.9-44.75-104.258-69.366-167.221-69.366c-0.247,0-0.499,0-0.746,0.001
			c-49.182,0.152-96.313,15.226-136.298,43.593c-37.93,26.91-66.799,63.767-83.704,106.793l-8.332-1.181
			c-1.536-0.218-32.531-4.57-37.457,28.158L0.33,237.903c-1.853,13.074,4.234,25.472,14.579,32.312
			c-2.589,17.581-3.308,36.638-2.094,56.763c-4.63,35.434-1.092,71.924,10.331,105.786l5.647,16.741
			c6.535,19.373,24.492,32.234,44.86,32.234c0.29,0,220.983-4.094,227.216-4.774c0.014-0.001,0.028-0.003,0.044-0.005
			c36.12-3.949,70.508-16.127,100.761-35.299l-11.991,19.311c-5.05,8.132-13.319,13.924-22.687,15.892l-55.353,11.624
			c-13.9,2.919-28.153,4.4-42.362,4.4H100.074c-7.236,0-14.199-2.187-20.138-6.324c-3.399-2.368-8.074-1.531-10.441,1.867
			c-2.368,3.399-1.532,8.074,1.867,10.441c8.467,5.898,18.396,9.016,28.712,9.016h169.208c15.242,0,30.533-1.588,45.445-4.72
			l55.352-11.624c13.357-2.805,25.147-11.063,32.347-22.658l32.98-53.113c5.409-4.979,10.61-10.224,15.578-15.73
			c39.362-43.625,61.032-100.04,61.018-158.85C511.987,177.963,487.156,118.403,442.084,73.481z M97.087,108.171
			c24.123-12.768,51.811-24.13,82.349-33.775c3.95-1.248,6.141-5.461,4.893-9.411c-1.247-3.949-5.458-6.139-9.411-4.893
			c-18.23,5.758-35.49,12.123-51.645,19.029c40.238-37.47,93.908-59.83,150.891-60.006c0.234-0.001,0.463-0.001,0.697-0.001
			c21.744,0,43.027,3.147,63.347,9.209c-38.78,3.656-75.819,9.497-110.466,17.451c-4.037,0.927-6.588,4.958-5.632,8.988
			c1.558,6.571,8.424,5.761,8.988,5.632c43.098-9.895,90.006-16.469,139.441-19.559c22.28,10.718,42.871,25.245,60.955,43.269
			c19.594,19.528,35.097,42.01,46.097,66.412c-25.427,0.536-90.39,5.333-175.587,36.858c-15.492-15.81-40.055-19.042-59.152-7.534
			c0,0-29.584,17.7-31.23,18.507c-2.978-12.995-13.684-23.465-27.65-25.444L69.42,156.671
			C76.631,139.184,85.975,122.927,97.087,108.171z M186.313,310.039c7.786-8.686,12.6-19.76,13.676-31.346
			c2.09-3.588,3.535-7.606,4.145-11.908l7.373-52.024c4.405-1.672,39.087-22.072,39.087-22.072
			c13.51-8.142,31.006-5.566,41.598,6.129c0.078,0.087,0.191,0.204,0.274,0.287c0.05,0.051,5.073,5.16,7.587,13.015
			c3.183,9.941,0.973,19.899-6.512,29.527l-63.812,80.067c-8.021,10.063-20.457,15.367-33.273,14.183l-30.777-2.841L186.313,310.039
			z M147.073,331.339L27.49,320.311c-0.659-15.802-0.041-30.823,1.816-44.836l137.371,19.468c1.536,0.218,7.825,1.308,12.779-0.706
			c-1.248,2.033-2.683,3.971-4.313,5.789L147.073,331.339z M15.182,240.007l7.996-56.423c2.324-17.414,19.66-15.53,20.501-15.411
			l138.189,19.584c9.9,1.403,16.814,10.6,15.411,20.501l-7.997,56.423c-1.26,8.888-8.982,15.591-17.963,15.591
			c-0.843,0-140.727-19.764-140.727-19.764C20.692,259.105,13.779,249.908,15.182,240.007z M299.36,462.041
			c-0.031,0.003-0.063,0.006-0.095,0.01c-3.915,0.372-54.532,1.493-139.419,3.103L493.01,283.438
			C474.992,377.539,397.754,451.251,299.36,462.041z M127.404,465.762c-16.687,0.31-34.423,0.634-53.147,0.971
			c-14.159,0.214-26.72-8.595-31.25-22.023l-5.647-16.741c-10.008-29.668-13.549-61.492-10.413-92.643l122.497,11.307
			c0.069,0.006,0.138,0.005,0.207,0.01l45.427,4.193c1.65,0.152,3.294,0.228,4.93,0.228c16.082,0,31.305-7.265,41.453-19.998
			l63.868-80.138c15.173-19.516,12.417-38.329,5.955-50.969c88.186-31.945,154.546-34.437,172.403-34.466
			c8.741,23.972,13.309,49.502,13.316,75.706c0.002,7.988-0.431,15.88-1.25,23.661L127.404,465.762z"/>
	</g>
</g>
<g>
	<g>
		<path d="M217.629,55.854c-1.038-4.011-5.129-6.421-9.14-5.382c-5.039,1.304-10.098,2.674-15.037,4.073
			c-3.985,1.129-6.301,5.275-5.172,9.26c0.936,3.303,5.056,6.03,9.26,5.173c4.918-1.002,9.777-2.708,14.707-3.984
			C216.257,63.956,218.666,59.865,217.629,55.854z"/>
	</g>
</g>
<g>
	<g>
		<path d="M387.125,299.744c-1.909-3.5-6.295-4.79-9.797-2.882l-18.721,10.211c-3.502,1.91-4.792,6.297-2.882,9.798
			c1.311,2.403,5.07,4.846,9.797,2.882l18.721-10.211C387.745,307.632,389.035,303.245,387.125,299.744z"/>
	</g>
</g>
<g>
	<g>
		<path d="M459.209,260.428c-1.91-3.5-6.295-4.791-9.797-2.882l-52.587,28.682c-3.502,1.91-4.792,6.296-2.882,9.798
			c1.311,2.403,5.126,4.989,9.797,2.882l52.587-28.682C459.829,268.316,461.119,263.929,459.209,260.428z"/>
	</g>
</g>
<g>
</g>
<g>
</g>
<g>
</g>
<g>
</g>
<g>
</g>
<g>
</g>
<g>
</g>
<g>
</g>
<g>
</g>
<g>
</g>
<g>
</g>
<g>
</g>
<g>
</g>
<g>
</g>
<g>
</g>
</svg>
