<?xml version="1.0" encoding="iso-8859-1"?>
<!-- Generator: Adobe Illustrator 19.0.0, SVG Export Plug-In . SVG Version: 6.00 Build 0)  -->
<svg version="1.1" id="Layer_1" xmlns="http://www.w3.org/2000/svg" xmlns:xlink="http://www.w3.org/1999/xlink" x="0px" y="0px"
	 viewBox="0 0 512.001 512.001" style="enable-background:new 0 0 512.001 512.001;" xml:space="preserve">
<g>
	<g>
		<path d="M106.726,289.808c-42.792,0-77.605,34.813-77.605,77.605c0,42.791,34.813,77.604,77.605,77.604
			s77.605-34.813,77.605-77.604S149.518,289.808,106.726,289.808z M106.726,430.017c-34.521,0-62.605-28.084-62.605-62.604
			c0-34.521,28.084-62.605,62.605-62.605s62.605,28.084,62.605,62.605C169.331,401.933,141.247,430.017,106.726,430.017z"/>
	</g>
</g>
<g>
	<g>
		<path d="M106.726,328.636c-21.382,0-38.777,17.395-38.777,38.777c0,11.223,4.873,21.893,13.37,29.275
			c3.127,2.718,7.865,2.384,10.581-0.743c2.717-3.127,2.384-7.864-0.743-10.581c-5.216-4.532-8.208-11.075-8.208-17.952
			c0-13.111,10.666-23.777,23.777-23.777s23.777,10.666,23.777,23.777c0,13.11-10.666,23.776-23.777,23.776
			c-4.142,0-7.5,3.358-7.5,7.5c0,4.142,3.358,7.5,7.5,7.5c21.382,0,38.777-17.395,38.777-38.776
			C145.503,346.03,128.108,328.636,106.726,328.636z"/>
	</g>
</g>
<g>
	<g>
		<path d="M366.86,308.318c-2.617-3.21-7.341-3.691-10.552-1.074c-4.011,3.27-7.711,6.955-10.998,10.953
			c-2.63,3.2-2.168,7.926,1.031,10.556c1.396,1.147,6.659,3.248,10.557-1.031c2.816-3.092,5.646-6.209,8.888-8.852
			C368.996,316.253,369.477,311.527,366.86,308.318z"/>
	</g>
</g>
<g>
	<g>
		<path d="M405.274,289.808c-10.114,0-19.959,1.927-29.263,5.728c-3.834,1.566-5.673,5.944-4.107,9.779
			c1.566,3.834,5.943,5.675,9.779,4.107c7.495-3.061,15.432-4.613,23.591-4.613c34.521,0,62.605,28.084,62.605,62.605
			c0,34.52-28.084,62.604-62.605,62.604s-62.605-28.084-62.605-62.604c0-8.289,1.601-16.343,4.758-23.941
			c1.589-3.825-0.223-8.214-4.048-9.804c-3.822-1.589-8.214,0.223-9.804,4.048c-3.919,9.431-5.906,19.422-5.906,29.697
			c0,42.791,34.813,77.604,77.605,77.604c42.792,0,77.605-34.813,77.605-77.604C482.879,324.621,448.065,289.808,405.274,289.808z"
			/>
	</g>
</g>
<g>
	<g>
		<path d="M405.274,328.635c-21.382,0-38.777,17.395-38.777,38.777c0,21.381,17.395,38.776,38.777,38.776
			c21.382,0,38.777-17.395,38.777-38.776C444.051,346.03,426.656,328.635,405.274,328.635z M405.274,391.189
			c-13.111,0-23.777-10.666-23.777-23.776c0-13.111,10.666-23.777,23.777-23.777c13.111,0,23.777,10.666,23.777,23.777
			C429.051,380.522,418.385,391.189,405.274,391.189z"/>
	</g>
</g>
<g>
	<g>
		<path d="M489.332,301.721C501.985,300.795,512,290.21,512,277.322V263.4c0-13.494-10.979-24.473-24.473-24.473h-52.123
			c0,0,0.595-8.092-1.045-12.853h30.102c3.88,0,7.631,1.427,10.563,4.019c1.427,1.261,7.855,2.742,10.587-0.651
			c2.598-3.226,2.452-7.843-0.651-10.587c-5.676-5.018-12.956-7.781-20.498-7.781h-38.52c-0.154-0.159-0.302-0.323-0.459-0.479
			c-6.399-6.358-14.91-9.83-23.913-9.768c-58.418,0.384-72.395-0.198-72.891-0.198c-58.884,0-91.872-18.345-109.791-35.307
			c0,0,6.612,0.845,12.625-1.231c2.504,0.822,5.174,1.272,7.949,1.272c14.094,0,25.561-11.467,25.561-25.561
			c0-10.206-6.014-19.03-14.683-23.124l0.271-0.114c-3.058-7.276-9.697-12.242-17.364-13.228
			c11.228-0.125,20.327-9.288,20.327-20.544V58.418c0-11.334-9.222-20.556-20.556-20.556c-11.334,0-20.556,9.222-20.556,20.556
			V82.79c0,3.623,0.95,7.025,2.603,9.984l-5.944,10.369h-3.235c-12.473,0-24.629,5.112-33.353,14.026l-33.544,34.275
			c-49.786,19.584-82.724,61.258-99.417,87.482H24.473C10.979,238.926,0,249.905,0,263.399v13.923
			c0,12.887,10.015,23.472,22.669,24.399C8.473,319.847,0,342.658,0,367.413c0,58.849,47.877,106.726,106.726,106.726
			c34.453,0,65.139-16.415,84.666-41.829v0.05h129.217v-0.05c19.526,25.414,50.213,41.829,84.666,41.829
			c58.849,0,106.726-47.877,106.726-106.726C512.001,342.658,503.528,319.846,489.332,301.721z M487.528,253.926
			c5.223,0,9.473,4.25,9.473,9.473v13.923H497c0,5.223-4.25,9.473-9.473,9.473h-12.389c-18.735-16.257-43.17-26.109-69.864-26.109
			c-58.849,0-106.726,47.877-106.726,106.726c0,1.64,0.043,3.269,0.117,4.891c-3.399-1.263-7.039-1.946-10.79-1.946h-4.321
			l27.303-77.787c8.113-23.114,30.023-38.644,54.52-38.644H487.528z M267.657,370.356h-23.314l-17.037-48.54h57.388L267.657,370.356
			z M328.528,215.629c3.717,0.384,28.821,0.382,30.331,0.378l-63.313,20.929c-23.862,7.888-49.745-4.261-58.923-27.658
			l-6.663-16.986C251.561,205.163,283.083,215.605,328.528,215.629z M225.631,221.223c10.927,20.629,32.362,33.116,55.064,33.116
			c6.487,0,13.082-1.021,19.559-3.162l105.593-34.905c15.683,3.895,14.558,22.654,14.558,22.654h-55.029
			c-30.856,0-58.454,19.562-68.673,48.676l-6.744,19.215h-67.918l-6.744-19.215c-4.93-14.046-13.912-25.858-25.347-34.333
			l-8.687-22.039c-1.901-4.823-0.967-10.004,2.498-13.86c3.465-3.856,8.519-5.336,13.515-3.959L225.631,221.223z M239.462,129.241
			c5.823,0,10.561,4.738,10.561,10.561s-4.737,10.561-10.561,10.561c-5.823,0-10.561-4.738-10.561-10.561
			S233.639,129.241,239.462,129.241z M227.462,58.418c0-3.063,2.493-5.556,5.556-5.556s5.556,2.493,5.556,5.556V82.79
			c0,3.063-2.493,5.556-5.556,5.556s-5.556-2.493-5.556-5.556V58.418z M226.422,102.241c1.24,0.422,2.532,0.724,3.865,0.903h-4.383
			L226.422,102.241z M183.253,127.662c4.584-4.684,10.568-7.812,16.965-8.989l-3.276,5.714c-2,3.488-0.692,7.77,2.695,9.937
			c3.944,2.523,8.591-0.349,9.937-2.695l7.73-13.484h8.606c-7.206,4.525-12.01,12.539-12.01,21.658c0,3.749,0.818,7.309,2.275,10.52
			h-15.488c-9.998-5.478-21.497-7.901-32.96-6.796L183.253,127.662z M163.525,159.392c26.975-6.391,42.352,14.193,43.384,15.212
			l11.392,29.042l-17.04-4.695c-10.438-2.877-21.419,0.34-28.656,8.394c-7.237,8.053-9.267,19.313-5.296,29.387l2.347,5.956
			c-7.298-2.442-15.054-3.76-23.032-3.76H57.569C76.861,210.983,112.122,171.571,163.525,159.392z M15,277.322V263.4
			c0-5.223,4.25-9.473,9.473-9.473h122.151c24.497,0,46.407,15.53,54.52,38.644l27.303,77.787c0,0-9.113-0.856-15.13,2.438
			c0.089-1.783,0.135-3.578,0.135-5.383c0-58.849-47.877-106.726-106.726-106.726c-26.694,0-51.13,9.852-69.864,26.109H24.473
			C19.25,286.795,15,282.546,15,277.322z M106.726,459.139C56.148,459.139,15,417.991,15,367.413s41.148-91.726,91.726-91.726
			s91.726,41.148,91.726,91.726S157.304,459.139,106.726,459.139z M304.086,401.357c-1.028,10.976-8.66,16.001-16.209,16.001
			h-62.578v0.001c-7.6,0-14.2-5.417-15.693-12.882c-0.204-1.019,0.193-8.306,0.193-9.357l-0.002,0.001c0-0.001,0-0.002,0.001-0.002
			l0.002,0.001c2.873-4.981,9.812-9.763,15.5-9.763h62.576c5.487,0,11.792,1.644,14.322,9.763l0.006-0.005
			c0.567,2.107,1.192,4.19,1.883,6.243L304.086,401.357z M405.274,459.139c-50.578,0-91.726-41.148-91.726-91.726
			s41.148-91.726,91.726-91.726S497,316.835,497,367.413S455.852,459.139,405.274,459.139z"/>
	</g>
</g>
<g>
	<g>
		<path d="M134.904,193.733c-2.178-3.38-6.684-4.355-10.063-2.178c-12.295,7.921-24.13,18.031-35.176,30.052
			c-2.72,2.961-2.525,7.566,0.435,10.287c1.399,1.285,6.462,3.479,10.286-0.435c10.544-10.788,21.088-20.414,32.34-27.663
			C136.106,201.619,137.081,197.113,134.904,193.733z"/>
	</g>
</g>
<g>
	<g>
		<path d="M175.613,178.741c-0.931-3.912-4.859-6.328-8.768-5.398c-7.5,1.784-14.975,4.311-22.218,7.511
			c-3.678,1.624-5.343,5.923-3.718,9.601c1.202,2.722,3.703,5.605,9.601,3.719c6.701-2.144,13.065-5.085,19.705-6.665
			C174.127,186.577,176.543,182.652,175.613,178.741z"/>
	</g>
</g>
<g>
</g>
<g>
</g>
<g>
</g>
<g>
</g>
<g>
</g>
<g>
</g>
<g>
</g>
<g>
</g>
<g>
</g>
<g>
</g>
<g>
</g>
<g>
</g>
<g>
</g>
<g>
</g>
<g>
</g>
</svg>
