<?xml version="1.0" encoding="iso-8859-1"?>
<!-- Generator: Adobe Illustrator 19.0.0, SVG Export Plug-In . SVG Version: 6.00 Build 0)  -->
<svg version="1.1" id="Layer_1" xmlns="http://www.w3.org/2000/svg" xmlns:xlink="http://www.w3.org/1999/xlink" x="0px" y="0px"
	 viewBox="0 0 512 512" style="enable-background:new 0 0 512 512;" xml:space="preserve">
<g>
	<g>
		<path d="M341.842,182.542c-14.912,0-27.044,12.132-27.044,27.044c0,14.912,12.132,27.044,27.044,27.044
			c14.912,0,27.044-12.132,27.044-27.044C368.885,194.673,356.753,182.542,341.842,182.542z M341.842,221.629
			c-6.641,0-12.044-5.403-12.044-12.044c0-6.641,5.403-12.044,12.044-12.044c6.641,0,12.044,5.403,12.044,12.044
			C353.885,216.226,348.482,221.629,341.842,221.629z"/>
	</g>
</g>
<g>
	<g>
		<path d="M354.87,314.137c-11.32,0-20.529,9.209-20.529,20.529c0,11.32,9.209,20.529,20.529,20.529s20.529-9.209,20.529-20.529
			C375.399,323.345,366.19,314.137,354.87,314.137z M354.87,340.193c-3.049,0-5.529-2.48-5.529-5.529
			c0-3.049,2.48-5.529,5.529-5.529c3.049,0,5.529,2.48,5.529,5.529C360.399,337.713,357.919,340.193,354.87,340.193z"/>
	</g>
</g>
<g>
	<g>
		<path d="M169.206,70.491c-11.32,0-20.529,9.209-20.529,20.529s9.209,20.53,20.529,20.53s20.529-9.209,20.529-20.53
			C189.735,79.7,180.525,70.491,169.206,70.491z M169.206,96.55c-3.049,0-5.529-2.48-5.529-5.53c0-3.049,2.48-5.529,5.529-5.529
			s5.529,2.48,5.529,5.529S172.254,96.55,169.206,96.55z"/>
	</g>
</g>
<g>
	<g>
		<path d="M268.875,34.661c-11.32,0-20.529,9.209-20.529,20.529s9.209,20.529,20.529,20.529c11.32,0,20.529-9.209,20.529-20.529
			S280.195,34.661,268.875,34.661z M268.875,60.72c-3.049,0-5.529-2.48-5.529-5.529s2.48-5.529,5.529-5.529
			c3.049,0,5.529,2.48,5.529,5.529S271.924,60.72,268.875,60.72z"/>
	</g>
</g>
<g>
	<g>
		<path d="M374.414,83.52c-11.32,0-20.529,9.209-20.529,20.53c0,11.32,9.209,20.529,20.529,20.529
			c11.32,0,20.529-9.209,20.529-20.529C394.943,92.729,385.734,83.52,374.414,83.52z M374.414,109.579
			c-3.049,0-5.529-2.48-5.529-5.529s2.48-5.53,5.529-5.53c3.049,0,5.529,2.48,5.529,5.53
			C379.943,107.098,377.463,109.579,374.414,109.579z"/>
	</g>
</g>
<g>
	<g>
		<path d="M442.64,74.736C397.913,30.009,338.443,5.375,275.189,5.375c-101.263,0-176.715,45.082-224.286,133.989
			c-6.504,6.711-42.525,48.125-47.301,146.03c-0.756,4.222-1.5,8.573-2.211,12.955c-5.749,35.444,6.539,71.278,32.869,95.854
			c22.998,21.465,51.366,47.462,71.115,65.491c3.255,2.971,6.785,5.564,10.513,7.785v8.316c0,8.667,3.667,16.991,10.063,22.84
			c5.718,5.23,14.556,7.991,23.645,7.99l31.127-2.781c4.125-0.369,7.171-4.012,6.803-8.138c-0.368-4.125-4.004-7.174-8.138-6.803
			l-31.127,2.781c-18.753,1.249-17.372-17.664-17.372-17.664c5.878,1.719,15.619,2.913,24.927,2.266l205.858-21.514
			c17.438-1.823,34.294-8.108,48.744-18.177c7.738-5.392,15.09-11.21,22.047-17.399l-2.322,15.094
			c-1.57,10.21-8.529,18.875-18.159,22.612l-23.596,9.156c-9.263,3.595-18.978,5.866-28.874,6.75l-123.268,11.015
			c-4.125,0.369-7.203,4.015-6.803,8.138c0.811,8.348,7.911,6.823,8.138,6.803l123.266-11.014
			c11.299-1.009,22.391-3.602,32.966-7.706l23.595-9.156c14.615-5.671,25.176-18.82,27.56-34.314l5.403-35.118
			C489.579,358.288,512,301.643,512,242.188C512,178.933,487.367,119.464,442.64,74.736z M60.059,151.612l195.316,13.095
			c8.247,0.553,15.604,4.815,20.188,11.694c4.582,6.878,5.681,15.311,3.014,23.134l-26.846,78.747
			c-6.06,20.116-26.598,17.828-27.418,17.751c-52.794-4.934-173.143-15.996-205.296-17.374
			C24.461,198.473,52.227,160.755,60.059,151.612z M177.183,458.971l64.676-47.941c3.328-2.467,4.025-7.164,1.559-10.492
			c-2.466-3.327-7.163-4.025-10.492-1.559l-84.508,62.642c-12.128-0.162-23.882-4.744-32.93-13.005
			c-1.597-1.457-3.268-2.983-4.97-4.538l56.347-41.768c11.763-8.719,25.714-13.598,40.346-14.11l118.774-4.155
			c3.974-0.15,5.794,2.727,6.265,3.608c0.472,0.881,1.828,4.006-0.481,7.213l-37.354,51.854L177.183,458.971z M401.841,424.291
			c-12.375,8.623-26.805,14.005-41.727,15.564l-8.601,0.899l30.786-43.614c6.827-9.672,17.966-15.693,29.797-16.107l37.038-1.295
			C435.792,396.62,419.931,411.686,401.841,424.291z M411.569,366.042c-16.488,0.577-32.013,8.969-41.525,22.448l-38.353,54.336
			l-17.286,1.807l29.534-40.998c4.907-6.813,5.497-15.646,1.54-23.051c-3.957-7.405-11.653-11.813-20.018-11.529l-118.775,4.155
			c-17.682,0.619-34.542,6.515-48.754,17.05l-58.689,43.504c-17.349-15.888-36.954-35.15-54.748-50.525
			c-26.821-23.178-32.767-59.682-27.821-90.177c0.304-1.876,151.752,12.355,206.243,17.904c20.587,2.096,37.295-11.083,43.01-27.846
			l26.846-78.747c7.23-23.31-4.874-36.492-4.945-36.596l84.967,8.031c5.164,0.524,9.741,3.087,12.887,7.215
			s4.403,9.221,3.539,14.339l-6.747,39.956c-1.617,9.583-10.466,16.338-20.131,15.378l-27.147-2.693
			c-15.372-1.521-29.139,8.76-32.046,23.919l-2.562,13.36c-1.69,8.81-9.995,14.917-18.908,13.893
			c-0.062-0.007-0.122-0.013-0.184-0.019l-14.658-1.313c-4.12-0.37-7.77,2.675-8.139,6.801c-0.37,4.125,2.675,7.77,6.801,8.14
			c0,0,16.94,1.502,18.112,1.502c15.229,0,28.778-10.916,31.706-26.178l2.562-13.36c1.437-7.491,8.242-12.571,15.834-11.818
			l27.147,2.693c17.482,1.728,33.477-10.479,36.401-27.808l6.747-39.956c1.54-9.121-0.793-18.571-6.399-25.928
			c-5.606-7.357-14.1-12.112-23.354-13.052l-117.676-11.123c-0.018-0.002-0.036-0.001-0.054-0.002
			c-0.05-0.004-0.099-0.011-0.149-0.014L69.282,137.196C114.258,59.67,183.471,20.375,275.189,20.375
			C397.497,20.375,497,119.88,497,242.188c0,44.002-13.121,86.359-36.738,122.151L411.569,366.042z"/>
	</g>
</g>
<g>
	<g>
		<path d="M151.373,318.046l-71.878-6.446c-0.818-0.073-1.649-0.11-2.468-0.11c-14.15,0-26.225,11.041-27.49,25.137
			c-0.657,7.321,1.59,14.476,6.328,20.146c4.737,5.67,11.377,9.154,18.699,9.811c0.001,0,73.527,6.556,74.346,6.556
			c14.151,0,26.225-11.041,27.489-25.136C177.757,332.845,166.531,319.406,151.373,318.046z M161.458,346.664
			c-0.953,11.897-13.302,11.459-13.677,11.425l-71.878-6.446c-3.33-0.298-6.359-1.892-8.527-4.487s-3.363-5.878-2.898-9.189
			c1.695-12.072,13.302-11.459,13.677-11.426l71.878,6.446C156.954,333.608,162.013,339.738,161.458,346.664z"/>
	</g>
</g>
<g>
	<g>
		<path d="M224.017,492.446c-0.368-4.126-4.008-7.17-8.138-6.803l-15.873,1.418c-4.125,0.369-7.216,4.016-6.803,8.138
			c0.8,7.985,7.911,6.823,8.138,6.803l15.873-1.418C221.339,500.215,224.385,496.572,224.017,492.446z"/>
	</g>
</g>
<g>
	<g>
		<path d="M475.48,188c-5.556-20.518-14.24-40.018-25.811-57.96c-2.177-3.38-6.684-4.351-10.063-2.173
			c-3.38,2.179-4.352,6.685-2.173,10.064c10.757,16.68,18.83,34.805,23.993,53.874c0.879,3.244,3.76,6.341,8.929,5.125
			C474.27,196.008,476.531,191.88,475.48,188z"/>
	</g>
</g>
<g>
	<g>
		<path d="M482.308,230.082c-0.35-6.05-0.972-12.149-1.848-18.129c-0.582-3.979-4.279-6.728-8.259-6.148
			c-3.977,0.583-6.73,4.281-6.147,8.259c0.816,5.56,1.585,11.225,1.719,16.859c0.164,6.847,7.546,6.856,7.687,6.847
			C479.475,237.539,482.54,234.096,482.308,230.082z"/>
	</g>
</g>
<g>
</g>
<g>
</g>
<g>
</g>
<g>
</g>
<g>
</g>
<g>
</g>
<g>
</g>
<g>
</g>
<g>
</g>
<g>
</g>
<g>
</g>
<g>
</g>
<g>
</g>
<g>
</g>
<g>
</g>
</svg>
