<?xml version="1.0" encoding="iso-8859-1"?>
<!-- Generator: Adobe Illustrator 19.0.0, SVG Export Plug-In . SVG Version: 6.00 Build 0)  -->
<svg version="1.1" id="Layer_1" xmlns="http://www.w3.org/2000/svg" xmlns:xlink="http://www.w3.org/1999/xlink" x="0px" y="0px"
	 viewBox="0 0 512.001 512.001" style="enable-background:new 0 0 512.001 512.001;" xml:space="preserve">
<g>
	<g>
		<path d="M509.826,104.938c-2.878-6.076-8.264-10.517-14.777-12.183l-69.655-17.819c-38.582-33.357-87.5-51.708-138.053-51.708
			c-67.928,0-130.33,12.696-185.47,37.735C55.765,81.9,24.551,107.08,6.485,124.518c-5.766,5.566-7.892,13.78-5.547,21.438
			c2.343,7.652,8.697,13.264,16.584,14.646l55.887,9.794l8.746,2.345c-3.221,12.856-5.461,26.108-6.663,39.482
			c-0.887,9.876,2.927,19.025,9.65,25.245v9.365c0,14.819,11.093,27.349,25.803,29.145l5.983,0.73l-3.217,28.511l-40.105,3.022
			c-3.064,0.235-6.116-0.634-8.602-2.436l-12.898-9.347c-4.807-3.484-10.959-4.226-16.455-1.983
			c-5.497,2.241-9.376,7.072-10.377,12.924L7.955,412.697c-1.832,11.796,1.76,23.593,9.854,32.367
			c5.879,6.372,13.541,10.495,21.855,11.943l8.074,12.877c7.41,11.819,20.299,18.889,34.115,18.889
			c0.906,0,163.605-10.925,163.605-10.925c4.133-0.278,7.257-3.854,6.979-7.987c-0.278-4.132-3.85-7.26-7.987-6.979L83.574,473.717
			c-9.302,0.629-18.17-3.894-23.127-11.799l-3.146-5.018l389.584-28.694l-2.172,6.025c-3.404,9.443-12.076,15.981-22.092,16.656
			l-117.62,7.92c-4.133,0.278-7.393,3.865-6.979,7.987c0.812,8.089,7.815,6.991,7.987,6.979l117.62-7.92
			c15.957-1.074,29.771-11.49,35.195-26.534l5.258-14.581c20.5-7.747,35.022-27.646,35.022-50.504V234.99
			c0-22.284-3.515-44.246-10.43-65.322l21.216-45.578C512.727,117.994,512.703,111.013,509.826,104.938z M287.341,38.227
			c47.736,0.001,93.924,17.624,130.053,49.622l0.158-0.179l14.58,18.521c3.052,3.876,2.899,9.304-0.245,12.992
			c-37.513-24.517-80.007-42.403-126.402-53.146c-46.788-10.833-96.644-14.083-148.834-9.747
			C193.229,45.401,236.586,38.227,287.341,38.227z M40.058,309.929c0.16-0.934,0.772-1.366,1.256-1.564
			c0.485-0.196,1.223-0.316,1.99,0.24l12.899,9.347c5.355,3.881,11.941,5.739,18.53,5.247l142.65-10.75
			c3.886-0.293,7.405-2.1,9.909-5.087c2.503-2.988,3.666-6.769,3.273-10.646l-1.023-10.115c-0.678-6.711-5.827-11.968-12.522-12.785
			l-104.257-12.728c-12.597-1.873-12.62-16.044-12.62-16.044c0.771,0.15,126.201,15.055,126.201,15.055
			c10.564,1.252,18.7,9.517,19.785,20.1l2.477,24.147c0.661,6.438-1.251,12.729-5.382,17.711c-4.131,4.983-9.958,8.026-16.408,8.57
			L66.324,344.157c-2.742,0.233-5.44-0.397-7.799-1.818l-10.995-6.627c-3.486-2.102-7.463-3.042-11.403-2.805L40.058,309.929z
			 M128.936,304.071l2.883-25.546l82.853,10.115l0.9,8.902L128.936,304.071z M48.176,442.531
			c-7.323,0.536-14.368-2.245-19.342-7.638c-4.975-5.393-7.183-12.644-6.057-19.894l7.3-47.005
			c19.051,8.569,51.012,28.359,73.555,70.452L48.176,442.531z M119.884,437.249c-26.096-52.886-66.268-75.754-87.427-84.571
			c0,0,1.376-7.296,7.331-4.119l10.996,6.627c5.082,3.063,10.895,4.418,16.802,3.918l160.492-13.529
			c10.493-0.885,19.974-5.837,26.695-13.943c6.721-8.106,9.831-18.34,8.756-28.815l-2.477-24.147
			c-1.807-17.62-15.354-31.381-32.942-33.465l-123.856-14.679c-8.514-1.009-14.584-8.458-13.821-16.958
			c1.125-12.516,3.216-24.912,6.216-36.938l174.34,46.747c11.92,3.196,22.054,11.293,27.802,22.213l17.505,33.254
			c3.435,6.525,10.152,10.578,17.532,10.579c0,0,0,0,0.001,0c3.638,0,7.208-1.009,10.324-2.917l32.446-19.871
			c3.768-2.308,6.802-5.397,9.024-8.938l44.653,47.732l-185.746,122.64L119.884,437.249z M106.65,163.779
			c45.846-9.358,86.614-14.09,121.52-14.09c55.728,0,86.368,12.167,102.257,22.374c16.188,10.399,20.558,20.854,20.866,21.633
			c0.126,0.406,22.227,43.09,22.227,43.09c3.118,6.021,1.031,13.514-4.754,17.055c0,0-34.051,20.58-34.936,20.58
			c-1.406,0-3.263-0.674-4.259-2.565l-17.505-33.254c-7.689-14.608-21.245-25.439-37.19-29.715L106.65,163.779z M484.104,374.233
			L484.104,374.233c-0.001,20.294-15.855,37.358-36.093,38.849l-172.838,12.73l208.931-137.948V374.233z M484.104,269.89
			l-41.129,27.156l-53.133-56.797c-0.308-3.531-1.288-7.049-3.004-10.361l-21.587-41.679c-2.59-6.565-25.054-53.519-137.082-53.519
			c-43.102,0-94.692,6.98-153.337,20.728l-54.719-9.59c-3.362-0.59-4.498-3.177-4.831-4.262c-0.333-1.088-0.842-3.875,1.622-6.253
			c16.784-16.2,43.064-37.301,80.174-55.693c155.068-29.579,260.944,10.017,323.885,50.332l-7.022,6.881
			c-1.778,1.743-2.576,4.253-2.129,6.703c0.447,2.45,2.08,4.517,4.358,5.52l58.381,25.682c6.334,19.444,9.553,39.7,9.553,60.253
			V269.89z M496.291,117.758l-19.378,41.629l-37.688-16.579l27.68-10.183l-5.179-14.077l-15.243,5.608
			c12.351-15.275-4.296-29.441-4.296-29.441l49.142,12.572c2.98,0.762,4.374,2.878,4.938,4.071
			C496.835,112.551,497.589,114.969,496.291,117.758z"/>
	</g>
</g>
<g>
	<g>
		<path d="M291.943,467.203c-0.279-4.132-3.843-7.266-7.987-6.979l-18.769,1.264c-4.133,0.278-7.392,3.865-6.979,7.987
			c0.793,7.908,7.815,6.991,7.987,6.979l18.769-1.264C289.097,474.912,292.221,471.336,291.943,467.203z"/>
	</g>
</g>
<g>
	<g>
		<path d="M343.017,217.926c-11.481,0-20.821,9.34-20.821,20.821c0,11.481,9.34,20.821,20.821,20.821
			c11.481,0,20.821-9.34,20.821-20.821C363.838,227.266,354.498,217.926,343.017,217.926z M343.018,244.568
			c-3.21,0-5.821-2.611-5.821-5.821s2.611-5.821,5.821-5.821c3.21,0,5.821,2.611,5.821,5.821S346.228,244.568,343.018,244.568z"/>
	</g>
</g>
<g>
	<g>
		<path d="M332.76,342.853c-2.282-3.458-6.935-4.409-10.391-2.126l-52.167,34.443c-3.456,2.282-4.408,6.934-2.126,10.391
			c1.442,2.184,6.175,4.988,10.391,2.126l52.167-34.443C334.09,350.962,335.042,346.31,332.76,342.853z"/>
	</g>
</g>
<g>
	<g>
		<path d="M363.898,322.292c-2.284-3.458-6.935-4.409-10.391-2.126l-12.189,8.048c-3.457,2.282-4.408,6.934-2.126,10.391
			c1.442,2.185,6.059,4.943,10.391,2.126l12.189-8.048C365.229,330.401,366.18,325.749,363.898,322.292z"/>
	</g>
</g>
<g>
</g>
<g>
</g>
<g>
</g>
<g>
</g>
<g>
</g>
<g>
</g>
<g>
</g>
<g>
</g>
<g>
</g>
<g>
</g>
<g>
</g>
<g>
</g>
<g>
</g>
<g>
</g>
<g>
</g>
</svg>
