<?xml version="1.0" encoding="iso-8859-1"?>
<!-- Generator: Adobe Illustrator 19.0.0, SVG Export Plug-In . SVG Version: 6.00 Build 0)  -->
<svg version="1.1" id="Layer_1" xmlns="http://www.w3.org/2000/svg" xmlns:xlink="http://www.w3.org/1999/xlink" x="0px" y="0px"
	 viewBox="0 0 512 512" style="enable-background:new 0 0 512 512;" xml:space="preserve">
<g>
	<g>
		<path d="M164.571,91.429c0-5.049-4.094-9.143-9.143-9.143h-23.642l30.106-30.106c3.571-3.571,3.571-9.359,0-12.931
			c-3.567-3.569-9.362-3.569-12.928,0l-30.107,30.107V54.902c0-20.19-16.406-36.616-36.571-36.616
			c-20.165,0-36.571,16.426-36.571,36.616v14.454L15.607,39.249c-3.567-3.569-9.362-3.569-12.928,0
			c-3.571,3.571-3.571,9.359,0,12.931l30.106,30.106H9.143C4.094,82.286,0,86.379,0,91.429c0,5.049,4.094,9.143,9.143,9.143h23.642
			L2.679,130.677c-3.571,3.571-3.571,9.359,0,12.931c1.783,1.785,4.125,2.677,6.464,2.677c2.339,0,4.681-0.893,6.464-2.677
			l30.107-30.107v92.998l-30.107-30.107c-3.567-3.569-9.362-3.569-12.928,0c-3.571,3.571-3.571,9.359,0,12.931l30.106,30.106H9.143
			c-5.049,0-9.143,4.094-9.143,9.143s4.094,9.143,9.143,9.143h23.642L2.679,267.82c-3.571,3.571-3.571,9.359,0,12.931
			c1.783,1.785,4.125,2.677,6.464,2.677c2.339,0,4.681-0.893,6.464-2.677l30.107-30.107v92.999l-30.107-30.107
			c-3.567-3.571-9.362-3.571-12.928,0c-3.571,3.569-3.571,9.359,0,12.928l30.107,30.107H9.143c-5.049,0-9.143,4.094-9.143,9.143
			s4.094,9.143,9.143,9.143h23.643L2.679,404.964c-3.571,3.569-3.571,9.359,0,12.928c1.783,1.786,4.125,2.679,6.464,2.679
			c2.339,0,4.681-0.893,6.464-2.679l30.107-30.107v41.929H27.429c-5.049,0-9.143,4.094-9.143,9.143v45.714
			c0,5.049,4.094,9.143,9.143,9.143h109.714c5.049,0,9.143-4.094,9.143-9.143v-45.714c0-5.049-4.094-9.143-9.143-9.143h-18.286
			v-41.929l30.107,30.107c1.783,1.786,4.125,2.679,6.464,2.679c2.339,0,4.681-0.893,6.464-2.679c3.571-3.569,3.571-9.359,0-12.928
			l-30.107-30.107h23.643c5.049,0,9.143-4.094,9.143-9.143s-4.094-9.143-9.143-9.143h-23.643l30.107-30.107
			c3.571-3.569,3.571-9.359,0-12.928c-3.567-3.571-9.362-3.571-12.928,0l-30.107,30.107v-92.999l30.107,30.107
			c1.783,1.784,4.125,2.677,6.464,2.677c2.339,0,4.681-0.893,6.464-2.677c3.571-3.571,3.571-9.359,0-12.931l-30.106-30.106h23.642
			c5.049,0,9.143-4.094,9.143-9.143s-4.094-9.143-9.143-9.143h-23.642l30.106-30.106c3.571-3.571,3.571-9.359,0-12.931
			c-3.567-3.569-9.362-3.569-12.928,0l-30.107,30.107v-92.998l30.107,30.107c1.783,1.785,4.125,2.677,6.464,2.677
			c2.339,0,4.681-0.893,6.464-2.677c3.571-3.571,3.571-9.359,0-12.931l-30.106-30.106h23.642
			C160.478,100.571,164.571,96.478,164.571,91.429z M64,54.902c0-10.107,8.203-18.33,18.286-18.33s18.286,8.223,18.286,18.33
			v374.813H64V54.902z M128,448v27.429H36.571V448h18.286h54.857H128z"/>
	</g>
</g>
<g>
	<g>
		<path d="M512,91.429c0-5.049-4.094-9.143-9.143-9.143h-23.642l30.106-30.106c3.571-3.571,3.571-9.359,0-12.931
			c-3.567-3.569-9.362-3.569-12.928,0l-30.107,30.107V54.902c0-20.19-16.406-36.616-36.571-36.616
			c-20.165,0-36.571,16.426-36.571,36.616v14.454l-30.107-30.107c-3.567-3.569-9.362-3.569-12.928,0
			c-3.571,3.571-3.571,9.359,0,12.931l30.106,30.106h-23.642c-5.049,0-9.143,4.094-9.143,9.143c0,5.049,4.094,9.143,9.143,9.143
			h23.642l-30.106,30.106c-3.571,3.571-3.571,9.359,0,12.931c1.783,1.785,4.125,2.677,6.464,2.677c2.339,0,4.681-0.893,6.464-2.677
			l30.107-30.107v92.998l-30.107-30.107c-3.567-3.569-9.362-3.569-12.928,0c-3.571,3.571-3.571,9.359,0,12.931l30.106,30.106
			h-23.642c-5.049,0-9.143,4.094-9.143,9.143s4.094,9.143,9.143,9.143h23.642l-30.106,30.106c-3.571,3.571-3.571,9.359,0,12.931
			c1.783,1.785,4.125,2.677,6.464,2.677c2.339,0,4.681-0.893,6.464-2.677l30.107-30.107v92.999l-30.107-30.107
			c-3.567-3.571-9.362-3.571-12.928,0c-3.571,3.569-3.571,9.359,0,12.928l30.107,30.107h-23.643c-5.049,0-9.143,4.094-9.143,9.143
			s4.094,9.143,9.143,9.143h23.643l-30.107,30.107c-3.571,3.569-3.571,9.359,0,12.928c1.783,1.786,4.125,2.679,6.464,2.679
			c2.339,0,4.681-0.893,6.464-2.679l30.107-30.107v41.929h-18.286c-5.049,0-9.143,4.094-9.143,9.143v45.714
			c0,5.049,4.094,9.143,9.143,9.143h109.714c5.049,0,9.143-4.094,9.143-9.143v-45.714c0-5.049-4.094-9.143-9.143-9.143h-18.286
			v-41.929l30.107,30.107c1.783,1.786,4.125,2.679,6.464,2.679s4.681-0.893,6.464-2.679c3.571-3.569,3.571-9.359,0-12.928
			l-30.107-30.107h23.643c5.049,0,9.143-4.094,9.143-9.143s-4.094-9.143-9.143-9.143h-23.643l30.107-30.107
			c3.571-3.569,3.571-9.359,0-12.928c-3.567-3.571-9.362-3.571-12.928,0l-30.107,30.107v-92.999l30.107,30.107
			c1.783,1.784,4.125,2.677,6.464,2.677s4.681-0.893,6.464-2.677c3.571-3.571,3.571-9.359,0-12.931l-30.106-30.106h23.642
			c5.049,0,9.143-4.094,9.143-9.143s-4.094-9.143-9.143-9.143h-23.642l30.106-30.106c3.571-3.571,3.571-9.359,0-12.931
			c-3.567-3.569-9.362-3.569-12.928,0l-30.107,30.107v-92.998l30.107,30.107c1.783,1.785,4.125,2.677,6.464,2.677
			s4.681-0.893,6.464-2.677c3.571-3.571,3.571-9.359,0-12.931l-30.106-30.106h23.642C507.906,100.571,512,96.478,512,91.429z
			 M411.429,54.902c0-10.107,8.203-18.33,18.286-18.33S448,44.795,448,54.902v374.813h-36.571V54.902z M475.429,448v27.429H384V448
			h18.286h54.857H475.429z"/>
	</g>
</g>
<g>
</g>
<g>
</g>
<g>
</g>
<g>
</g>
<g>
</g>
<g>
</g>
<g>
</g>
<g>
</g>
<g>
</g>
<g>
</g>
<g>
</g>
<g>
</g>
<g>
</g>
<g>
</g>
<g>
</g>
</svg>
