<?xml version="1.0" encoding="iso-8859-1"?>
<!-- Generator: Adobe Illustrator 19.0.0, SVG Export Plug-In . SVG Version: 6.00 Build 0)  -->
<svg version="1.1" id="Layer_1" xmlns="http://www.w3.org/2000/svg" xmlns:xlink="http://www.w3.org/1999/xlink" x="0px" y="0px"
	 viewBox="0 0 512 512" style="enable-background:new 0 0 512 512;" xml:space="preserve">
<g>
	<g>
		<path d="M510.865,475.587l-246.857-448c-1.608-2.917-4.676-4.73-8.008-4.73c-3.331,0-6.4,1.813-8.008,4.73l-246.857,448
			c-1.56,2.833-1.509,6.279,0.136,9.062c1.645,2.786,4.638,4.493,7.872,4.493h493.714c3.233,0,6.227-1.708,7.872-4.493
			C512.374,481.866,512.425,478.42,510.865,475.587z M24.619,470.857L256,50.944l231.381,419.913H24.619z"/>
	</g>
</g>
<g>
	<g>
		<path d="M437.8,439.161L264.086,110.018c-1.583-2.998-4.695-4.875-8.086-4.875c-3.391,0-6.504,1.877-8.086,4.875L74.2,439.161
			c-1.496,2.835-1.398,6.245,0.257,8.989c1.654,2.743,4.625,4.422,7.829,4.422h347.429c3.204,0,6.175-1.679,7.829-4.422
			C439.199,445.406,439.296,441.996,437.8,439.161z M97.449,434.286L256,133.873l158.551,300.413H97.449z"/>
	</g>
</g>
<g>
	<g>
		<path d="M256,251.429c-35.29,0-64,28.732-64,64.049v63.951c0,5.049,4.094,9.143,9.143,9.143h109.714
			c5.049,0,9.143-4.094,9.143-9.143v-63.951C320,280.161,291.29,251.429,256,251.429z M301.714,370.286h-91.429v-54.808
			c0-25.234,20.508-45.763,45.714-45.763s45.714,20.529,45.714,45.763V370.286z"/>
	</g>
</g>
<g>
</g>
<g>
</g>
<g>
</g>
<g>
</g>
<g>
</g>
<g>
</g>
<g>
</g>
<g>
</g>
<g>
</g>
<g>
</g>
<g>
</g>
<g>
</g>
<g>
</g>
<g>
</g>
<g>
</g>
</svg>
