<?xml version="1.0" encoding="iso-8859-1"?>
<!-- Generator: Adobe Illustrator 19.0.0, SVG Export Plug-In . SVG Version: 6.00 Build 0)  -->
<svg version="1.1" id="Layer_1" xmlns="http://www.w3.org/2000/svg" xmlns:xlink="http://www.w3.org/1999/xlink" x="0px" y="0px"
	 viewBox="0 0 512 512" style="enable-background:new 0 0 512 512;" xml:space="preserve">
<g>
	<g>
		<path d="M497.588,437.904c-12.212-15.988-31.175-25.691-56.366-28.839c-60.104-7.513-71.702-34.721-72.841-37.85l32.519-32.519
			c8.468-8.468,13.137-19.702,13.148-31.638c0.009-11.932-4.634-23.151-13.076-31.594l-82.228-82.227l0.017-0.017
			c10.45-10.449,10.441-27.458-0.017-37.917c-10.456-10.457-27.468-10.464-37.916-0.02l-12.664,12.664l-56.902-56.902
			c-3.488-3.49-9.155-3.49-12.644,0l-6.324,6.324L160.68,85.755c-3.488-3.491-9.155-3.491-12.644,0l-6.323,6.323l-50.581-50.58
			c-3.493-3.49-9.155-3.49-12.644,0l-6.322,6.322L40.553,16.206c-3.488-3.49-9.155-3.49-12.644,0L2.62,41.496
			c-3.493,3.493-3.493,9.153,0,12.646l31.612,31.612l-6.324,6.324c-1.677,1.678-2.62,3.951-2.62,6.323s0.943,4.645,2.62,6.323
			l50.58,50.58l-6.323,6.323c-3.493,3.493-3.493,9.153,0,12.646l31.613,31.613l-6.321,6.321c-3.493,3.493-3.493,9.153,0,12.646
			l56.901,56.901l-12.665,12.665c-10.446,10.45-10.437,27.46,0.02,37.916c0,0,0,0,0.002,0.001
			c5.082,5.082,11.816,7.881,18.968,7.879c0.004,0,0.011,0,0.017,0c7.143-0.003,13.864-2.796,18.929-7.861l6.343-6.343
			l82.229,82.228c8.417,8.42,19.62,13.052,31.551,13.052c0.017,0,0.035,0,0.052,0c11.945-0.013,23.179-4.674,31.627-13.124
			l23.662-23.662c7.726,12.85,28.883,35.427,83.912,42.305c20.169,2.521,35.058,9.856,44.257,21.799
			c13.397,17.392,10.616,39.411,10.59,39.597c-0.699,4.888,2.698,9.417,7.588,10.116c0.428,0.061,0.854,0.092,1.275,0.092
			c4.377,0,8.204-3.22,8.841-7.68C511.725,489.545,515.506,461.36,497.588,437.904z M21.587,47.819l12.644-12.645l25.29,25.291
			l-2.108,2.108L46.876,73.109L21.587,47.819z M46.875,98.4l6.319-6.319c0.002-0.001,0.003-0.002,0.005-0.004l25.29-25.29
			c0,0,0,0,0,0l6.321-6.321l44.257,44.257l-37.935,37.936L46.875,98.4z M91.132,167.95l31.613-31.613l25.291-25.29
			c0.002-0.002,0.003-0.004,0.004-0.005l6.318-6.318l25.29,25.291l-63.226,63.226L91.132,167.95z M116.424,218.529l88.515-88.516
			l50.579,50.58l-88.516,88.515L116.424,218.529z M166.982,319.708c-1.692,1.693-4.023,2.62-6.3,2.624
			c-2.373-0.001-4.619-0.939-6.322-2.642c-0.002,0-0.002,0-0.002-0.001c-3.486-3.486-3.495-9.151-0.02-12.626l18.977-18.976
			c0.003-0.004,0.008-0.006,0.011-0.009l101.161-101.161c0.002-0.002,0.003-0.005,0.005-0.007l18.98-18.98
			c1.764-1.765,4.03-2.646,6.298-2.646c2.275,0,4.554,0.889,6.331,2.664c3.486,3.485,3.493,9.15,0.017,12.625L166.982,319.708z
			 M318.786,395.522c-5.078,5.078-11.827,7.878-19.003,7.885c-0.011,0-0.022,0-0.033,0c-7.154,0-13.866-2.775-18.907-7.813
			l-82.226-82.228L306.1,205.883l82.228,82.227c5.06,5.059,7.841,11.784,7.837,18.933c-0.006,7.163-2.816,13.914-7.909,19.007
			L318.786,395.522z"/>
	</g>
</g>
<g>
</g>
<g>
</g>
<g>
</g>
<g>
</g>
<g>
</g>
<g>
</g>
<g>
</g>
<g>
</g>
<g>
</g>
<g>
</g>
<g>
</g>
<g>
</g>
<g>
</g>
<g>
</g>
<g>
</g>
</svg>
