<?xml version="1.0" encoding="iso-8859-1"?>
<!-- Generator: Adobe Illustrator 19.0.0, SVG Export Plug-In . SVG Version: 6.00 Build 0)  -->
<svg version="1.1" id="Layer_1" xmlns="http://www.w3.org/2000/svg" xmlns:xlink="http://www.w3.org/1999/xlink" x="0px" y="0px"
	 viewBox="0 0 512 512" style="enable-background:new 0 0 512 512;" xml:space="preserve">
<g>
	<g>
		<path d="M256,0C114.841,0,0,114.841,0,256s114.841,256,256,256s256-114.841,256-256S397.159,0,256,0z M256,494.345
			c-131.425,0-238.345-106.92-238.345-238.345S124.575,17.655,256,17.655S494.345,124.575,494.345,256S387.425,494.345,256,494.345z
			"/>
	</g>
</g>
<g>
	<g>
		<path d="M256,52.966C144.047,52.966,52.966,144.047,52.966,256S144.047,459.034,256,459.034S459.034,367.953,459.034,256
			S367.953,52.966,256,52.966z M393.113,380.633l-18.514-18.516c-3.444-3.448-9.035-3.448-12.483,0
			c-3.448,3.446-3.448,9.035,0,12.483l18.514,18.516c-32.944,29.971-76.691,48.264-124.63,48.264s-91.686-18.293-124.63-48.264
			l18.514-18.516c3.448-3.448,3.448-9.037,0-12.483c-3.448-3.448-9.039-3.448-12.483,0l-18.514,18.516
			c-28.121-30.91-45.946-71.334-48.042-115.805h26.259c4.875,0,8.828-3.953,8.828-8.828s-3.953-8.828-8.828-8.828H70.845
			c2.096-44.47,19.92-84.894,48.041-115.804l18.515,18.517c1.722,1.724,3.983,2.586,6.241,2.586s4.517-0.862,6.241-2.586
			c3.448-3.446,3.448-9.035,0-12.483l-18.515-18.517C164.313,88.914,208.06,70.621,256,70.621s91.688,18.294,124.631,48.265
			l-18.515,18.517c-3.448,3.448-3.448,9.037,0,12.483c1.724,1.724,3.983,2.586,6.241,2.586s4.519-0.862,6.241-2.586l18.515-18.517
			c28.121,30.91,45.945,71.333,48.041,115.804h-26.259c-4.875,0-8.828,3.953-8.828,8.828c0,4.875,3.953,8.828,8.828,8.828h26.259
			C439.059,309.299,421.234,349.723,393.113,380.633z"/>
	</g>
</g>
<g>
	<g>
		<path d="M392.741,195.073c-1.918-3.321-5.767-5.022-9.509-4.216c-14.366,3.106-86.692,18.983-99.886,26.601
			c-8.168,4.715-14.011,12.33-16.453,21.44c-2.44,9.11-1.188,18.627,3.53,26.795c4.716,8.168,12.33,14.011,21.44,16.453
			c3.043,0.815,6.129,1.218,9.196,1.218c6.119,0,12.157-1.606,17.597-4.746c13.196-7.621,63.108-62.315,72.979-73.203
			C394.213,202.575,394.659,198.394,392.741,195.073z M309.83,263.33c-8.431,4.869-19.246,1.968-24.116-6.463
			c-2.358-4.084-2.985-8.843-1.765-13.399c1.222-4.554,4.142-8.362,8.226-10.72c6.246-3.606,38.129-11.696,67.287-18.459
			C339.024,236.155,316.075,259.722,309.83,263.33z"/>
	</g>
</g>
<g>
	<g>
		<path d="M240.278,215.759c-13.767-13.767-36.168-13.767-49.935,0c-10.776,10.774-44.83,76.524-51.547,89.595
			c-1.754,3.412-1.103,7.565,1.61,10.276c1.696,1.696,3.955,2.586,6.244,2.586c1.373,0,2.754-0.319,4.032-0.976
			c13.071-6.718,78.823-40.769,89.597-51.545C254.045,251.927,254.045,229.526,240.278,215.759z M227.795,253.211
			c-5.099,5.099-33.804,21.166-60.218,35.246c14.082-26.412,30.149-55.116,35.248-60.216c3.442-3.442,7.963-5.162,12.485-5.162
			s9.043,1.72,12.485,5.162C234.679,235.125,234.679,246.328,227.795,253.211z"/>
	</g>
</g>
<g>
</g>
<g>
</g>
<g>
</g>
<g>
</g>
<g>
</g>
<g>
</g>
<g>
</g>
<g>
</g>
<g>
</g>
<g>
</g>
<g>
</g>
<g>
</g>
<g>
</g>
<g>
</g>
<g>
</g>
</svg>
