<?xml version="1.0" encoding="iso-8859-1"?>
<!-- Generator: Adobe Illustrator 19.0.0, SVG Export Plug-In . SVG Version: 6.00 Build 0)  -->
<svg version="1.1" id="Layer_1" xmlns="http://www.w3.org/2000/svg" xmlns:xlink="http://www.w3.org/1999/xlink" x="0px" y="0px"
	 viewBox="0 0 512 512" style="enable-background:new 0 0 512 512;" xml:space="preserve">
<g>
	<g>
		<path d="M256,0C114.842,0,0,114.842,0,256s114.842,256,256,256s256-114.842,256-256S397.158,0,256,0z M256,494.345
			C124.576,494.345,17.655,387.424,17.655,256S124.576,17.655,256,17.655S494.345,124.576,494.345,256S387.424,494.345,256,494.345z
			"/>
	</g>
</g>
<g>
	<g>
		<path d="M256,52.966C144.046,52.966,52.966,144.046,52.966,256S144.046,459.034,256,459.034S459.034,367.954,459.034,256
			S367.954,52.966,256,52.966z M393.116,380.63l-24.76-24.758c-3.445-3.444-9.035-3.446-12.484,0
			c-3.447,3.448-3.447,9.038,0.001,12.485l24.758,24.758c-30.909,28.12-71.333,45.944-115.803,48.04v-35.086
			c0-4.875-3.953-8.828-8.828-8.828s-8.828,3.953-8.828,8.828v35.086c-44.47-2.096-84.894-19.92-115.803-48.04l24.758-24.758
			c3.447-3.448,3.447-9.037,0-12.485c-3.448-3.446-9.037-3.446-12.485,0l-24.758,24.758c-28.12-30.909-45.944-71.332-48.039-115.803
			h35.086c4.875,0,8.828-3.953,8.828-8.828s-3.953-8.828-8.828-8.828H70.845c2.096-44.47,19.919-84.893,48.039-115.803
			l24.758,24.759c1.724,1.723,3.983,2.585,6.242,2.585c2.26,0,4.518-0.862,6.242-2.585c3.447-3.448,3.447-9.037,0-12.485
			l-24.758-24.759c30.909-28.12,71.333-45.944,115.804-48.04v35.086c0,4.875,3.953,8.828,8.828,8.828s8.828-3.953,8.828-8.828
			V70.845c44.471,2.096,84.894,19.92,115.804,48.04l-24.758,24.759c-3.448,3.447-3.448,9.037-0.001,12.484
			c1.724,1.724,3.983,2.586,6.242,2.586c2.259,0,4.518-0.862,6.241-2.585l24.76-24.759c28.12,30.91,45.943,71.333,48.039,115.803
			h-35.086c-4.875,0-8.828,3.953-8.828,8.828s3.953,8.828,8.828,8.828h35.086C439.059,309.298,421.235,349.721,393.116,380.63z"/>
	</g>
</g>
<g>
	<g>
		<path d="M300.113,300.138h-79.4c-14.615,0-26.507,11.9-26.507,26.526v8.741c0,14.626,11.891,26.526,26.506,26.526h79.4
			c14.616,0,26.507-11.9,26.507-26.526v-8.741C326.621,312.038,314.729,300.138,300.113,300.138z M300.113,344.276h-79.4
			c-4.881,0-8.851-3.979-8.851-8.871v-8.741c0-4.891,3.971-8.871,8.851-8.871h79.4c4.881,0,8.852,3.979,8.852,8.871v8.741h0
			C308.966,340.296,304.995,344.276,300.113,344.276z"/>
	</g>
</g>
<g>
	<g>
		<path d="M264.478,147.61c-1.095-3.772-4.551-6.368-8.478-6.368s-7.384,2.596-8.478,6.368
			c-4.481,15.448-26.832,93.276-26.832,108.39c0,19.47,15.84,35.31,35.31,35.31s35.31-15.84,35.31-35.31
			C291.31,240.886,268.959,163.058,264.478,147.61z M256,273.655c-9.735,0-17.655-7.92-17.655-17.655
			c0-7.267,8.927-41.909,17.655-73.499c8.729,31.589,17.655,66.232,17.655,73.499C273.655,265.735,265.735,273.655,256,273.655z"/>
	</g>
</g>
<g>
</g>
<g>
</g>
<g>
</g>
<g>
</g>
<g>
</g>
<g>
</g>
<g>
</g>
<g>
</g>
<g>
</g>
<g>
</g>
<g>
</g>
<g>
</g>
<g>
</g>
<g>
</g>
<g>
</g>
</svg>
