<?xml version="1.0" encoding="iso-8859-1"?>
<!-- Generator: Adobe Illustrator 19.0.0, SVG Export Plug-In . SVG Version: 6.00 Build 0)  -->
<svg version="1.1" id="Layer_1" xmlns="http://www.w3.org/2000/svg" xmlns:xlink="http://www.w3.org/1999/xlink" x="0px" y="0px"
	 viewBox="0 0 512 512" style="enable-background:new 0 0 512 512;" xml:space="preserve">
<g>
	<g>
		<path d="M256,52.966C144.046,52.966,52.966,144.047,52.966,256S144.046,459.034,256,459.034S459.034,367.953,459.034,256
			S367.954,52.966,256,52.966z M256,441.379c-102.219,0-185.379-83.162-185.379-185.379S153.781,70.621,256,70.621
			S441.379,153.782,441.379,256S358.219,441.379,256,441.379z"/>
	</g>
</g>
<g>
	<g>
		<path d="M256,0C114.842,0,0,114.841,0,256s114.842,256,256,256s256-114.841,256-256S397.158,0,256,0z M256,494.345
			c-131.424,0-238.345-106.92-238.345-238.345S124.576,17.655,256,17.655S494.345,124.575,494.345,256S387.424,494.345,256,494.345z
			"/>
	</g>
</g>
<g>
	<g>
		<path d="M238.55,198.612c-2.201-5.753-5.329-10.693-9.39-14.822c-4.06-4.128-8.933-7.343-14.618-9.644
			c-5.685-2.301-12.012-3.452-18.984-3.452c-7.038,0-13.502,1.184-19.39,3.553c-5.888,2.369-10.964,5.617-15.227,9.746
			c-4.264,4.128-7.581,8.967-9.949,14.517c-2.368,5.549-3.553,11.505-3.553,17.867c0,6.7,1.099,12.639,3.299,17.816
			c2.201,5.177,5.16,9.543,8.883,13.096c3.723,3.553,8.038,6.243,12.944,8.071c4.906,1.827,10.101,2.741,15.582,2.741
			c5.211,0,10.152-0.778,14.822-2.335s8.865-3.824,12.588-6.802c-1.15,1.76-2.368,3.519-3.655,5.279
			c-1.287,1.76-2.673,3.621-4.162,5.583l-44.262,57.967h16.649c2.099,0,3.959-0.389,5.583-1.167c1.625-0.778,2.876-1.81,3.756-3.096
			l35.43-51.165c2.639-3.79,4.992-7.461,7.055-11.015c2.064-3.553,3.84-7.123,5.33-10.71c1.49-3.587,2.622-7.258,3.401-11.015
			c0.779-3.756,1.167-7.732,1.167-11.928C241.849,210.726,240.75,204.365,238.55,198.612z M222.46,226.326
			c-1.353,3.452-3.317,6.497-5.888,9.137c-2.571,2.639-5.736,4.754-9.492,6.345s-8.071,2.386-12.943,2.386
			c-4.398,0-8.375-0.643-11.928-1.929s-6.566-3.181-9.035-5.685c-2.469-2.504-4.365-5.566-5.685-9.187
			c-1.32-3.621-1.98-7.732-1.98-12.334c0-4.264,0.711-8.189,2.131-11.776c1.421-3.587,3.434-6.666,6.04-9.238
			c2.606-2.572,5.753-4.585,9.441-6.04c3.688-1.455,7.766-2.183,12.233-2.183c4.264,0,8.172,0.694,11.725,2.081
			c3.553,1.388,6.616,3.367,9.188,5.939c2.571,2.572,4.586,5.702,6.04,9.39c1.455,3.688,2.183,7.8,2.183,12.334
			C224.49,219.288,223.812,222.874,222.46,226.326z"/>
	</g>
</g>
<g>
	<g>
		<path d="M357.731,212.012c-2.741-9.34-6.479-17.072-11.218-23.197c-4.738-6.125-10.337-10.676-16.801-13.654
			c-6.464-2.978-13.383-4.467-20.76-4.467c-7.443,0-14.364,1.489-20.76,4.467c-6.395,2.978-11.961,7.529-16.699,13.654
			c-4.738,6.125-8.459,13.857-11.167,23.197s-4.06,20.371-4.06,33.095c0,12.724,1.352,23.738,4.06,33.044
			c2.708,9.306,6.429,17.004,11.167,23.095c4.738,6.091,10.304,10.626,16.699,13.603c6.396,2.978,13.317,4.467,20.76,4.467
			c7.378,0,14.296-1.489,20.76-4.467c6.464-2.978,12.063-7.512,16.801-13.603c4.738-6.091,8.477-13.79,11.218-23.095
			c2.741-9.306,4.111-20.32,4.111-33.044C361.843,232.383,360.472,221.352,357.731,212.012z M340.271,273.024
			c-1.86,7.512-4.365,13.57-7.513,18.172c-3.147,4.602-6.784,7.901-10.913,9.898c-4.129,1.997-8.426,2.995-12.893,2.995
			c-4.467,0-8.763-0.998-12.892-2.995c-4.129-1.997-7.748-5.296-10.863-9.898c-3.114-4.602-5.601-10.659-7.461-18.172
			c-1.86-7.512-2.792-16.818-2.792-27.917s0.932-20.422,2.792-27.968c1.86-7.546,4.348-13.62,7.461-18.222
			c3.114-4.602,6.733-7.901,10.863-9.898c4.129-1.997,8.426-2.995,12.892-2.995c4.467,0,8.764,0.998,12.893,2.995
			c4.129,1.997,7.766,5.296,10.913,9.898c3.147,4.602,5.652,10.676,7.513,18.222c1.86,7.546,2.792,16.869,2.792,27.968
			S342.131,265.512,340.271,273.024z"/>
	</g>
</g>
<g>
</g>
<g>
</g>
<g>
</g>
<g>
</g>
<g>
</g>
<g>
</g>
<g>
</g>
<g>
</g>
<g>
</g>
<g>
</g>
<g>
</g>
<g>
</g>
<g>
</g>
<g>
</g>
<g>
</g>
</svg>
