<?xml version="1.0" encoding="iso-8859-1"?>
<!-- Generator: Adobe Illustrator 19.0.0, SVG Export Plug-In . SVG Version: 6.00 Build 0)  -->
<svg version="1.1" id="Layer_1" xmlns="http://www.w3.org/2000/svg" xmlns:xlink="http://www.w3.org/1999/xlink" x="0px" y="0px"
	 viewBox="0 0 512 512" style="enable-background:new 0 0 512 512;" xml:space="preserve">
<g>
	<g>
		<path d="M256,52.966C144.046,52.966,52.966,144.047,52.966,256S144.046,459.034,256,459.034S459.034,367.953,459.034,256
			S367.954,52.966,256,52.966z M256,441.379c-102.219,0-185.379-83.162-185.379-185.379S153.781,70.621,256,70.621
			S441.379,153.782,441.379,256S358.219,441.379,256,441.379z"/>
	</g>
</g>
<g>
	<g>
		<path d="M256,0C114.842,0,0,114.841,0,256s114.842,256,256,256s256-114.841,256-256S397.158,0,256,0z M256,494.345
			c-131.424,0-238.345-106.92-238.345-238.345S124.576,17.655,256,17.655S494.345,124.575,494.345,256S387.424,494.345,256,494.345z
			"/>
	</g>
</g>
<g>
	<g>
		<path d="M152.408,172.319v12.284h0c0,1.15,0.457,2.183,1.37,3.096c0.913,0.914,1.946,1.37,3.096,1.37h75.935
			c-1.15,1.286-2.182,2.639-3.096,4.061c-0.913,1.421-1.809,2.978-2.69,4.67L165.91,317.793h12.893c2.639,0,4.738-0.626,6.294-1.878
			c1.556-1.252,2.774-2.758,3.655-4.518l60.2-121.516c0.541-1.015,1.066-2.267,1.573-3.756c0.508-1.489,0.761-3.384,0.761-5.685
			v-8.121H152.408z"/>
	</g>
</g>
<g>
	<g>
		<path d="M366.559,212.012c-2.741-9.34-6.479-17.072-11.218-23.197c-4.738-6.125-10.337-10.676-16.801-13.654
			c-6.464-2.978-13.383-4.467-20.76-4.467c-7.444,0-14.365,1.489-20.76,4.467c-6.396,2.978-11.961,7.529-16.7,13.654
			c-4.738,6.125-8.459,13.857-11.167,23.197c-2.708,9.34-4.061,20.371-4.061,33.095c0,12.724,1.353,23.738,4.061,33.044
			c2.708,9.306,6.429,17.004,11.167,23.095c4.738,6.091,10.304,10.626,16.7,13.603c6.395,2.978,13.316,4.467,20.76,4.467
			c7.378,0,14.296-1.489,20.76-4.467c6.464-2.978,12.063-7.512,16.801-13.603c4.738-6.091,8.476-13.79,11.218-23.095
			c2.741-9.306,4.111-20.32,4.111-33.044C370.67,232.383,369.3,221.352,366.559,212.012z M349.098,273.024
			c-1.86,7.512-4.365,13.57-7.512,18.172c-3.147,4.602-6.784,7.901-10.913,9.898c-4.129,1.997-8.426,2.995-12.893,2.995
			c-4.467,0-8.764-0.998-12.893-2.995c-4.129-1.997-7.748-5.296-10.862-9.898c-3.114-4.602-5.601-10.659-7.461-18.172
			s-2.792-16.818-2.792-27.917s0.931-20.422,2.792-27.968s4.348-13.62,7.461-18.222s6.733-7.901,10.862-9.898
			c4.129-1.997,8.426-2.995,12.893-2.995c4.467,0,8.763,0.998,12.893,2.995c4.129,1.997,7.766,5.296,10.913,9.898
			c3.147,4.602,5.652,10.676,7.512,18.222c1.86,7.546,2.792,16.869,2.792,27.968S350.958,265.512,349.098,273.024z"/>
	</g>
</g>
<g>
</g>
<g>
</g>
<g>
</g>
<g>
</g>
<g>
</g>
<g>
</g>
<g>
</g>
<g>
</g>
<g>
</g>
<g>
</g>
<g>
</g>
<g>
</g>
<g>
</g>
<g>
</g>
<g>
</g>
</svg>
