<?xml version="1.0" encoding="iso-8859-1"?>
<!-- Generator: Adobe Illustrator 19.0.0, SVG Export Plug-In . SVG Version: 6.00 Build 0)  -->
<svg version="1.1" id="Layer_1" xmlns="http://www.w3.org/2000/svg" xmlns:xlink="http://www.w3.org/1999/xlink" x="0px" y="0px"
	 viewBox="0 0 512 512" style="enable-background:new 0 0 512 512;" xml:space="preserve">
<g>
	<g>
		<path d="M256,52.966C144.047,52.966,52.966,144.047,52.966,256S144.047,459.034,256,459.034S459.034,367.953,459.034,256
			S367.953,52.966,256,52.966z M256,441.379c-102.218,0-185.379-83.162-185.379-185.379S153.782,70.621,256,70.621
			S441.379,153.782,441.379,256S358.218,441.379,256,441.379z"/>
	</g>
</g>
<g>
	<g>
		<path d="M256,0C114.841,0,0,114.841,0,256s114.841,256,256,256s256-114.841,256-256S397.159,0,256,0z M256,494.345
			c-131.425,0-238.345-106.92-238.345-238.345S124.575,17.655,256,17.655S494.345,124.575,494.345,256S387.425,494.345,256,494.345z
			"/>
	</g>
</g>
<g>
	<g>
		<path d="M413.698,212.012c-2.741-9.34-6.479-17.072-11.218-23.197c-4.738-6.125-10.337-10.676-16.801-13.654
			c-6.464-2.978-13.383-4.467-20.76-4.467c-7.444,0-14.365,1.489-20.76,4.467s-11.961,7.529-16.7,13.654
			c-4.738,6.125-8.459,13.857-11.167,23.197c-2.708,9.34-4.061,20.371-4.061,33.095c0,12.724,1.353,23.738,4.061,33.044
			c2.708,9.306,6.428,17.004,11.167,23.095c4.739,6.091,10.304,10.626,16.7,13.603c6.395,2.978,13.316,4.467,20.76,4.467
			c7.378,0,14.296-1.489,20.76-4.467c6.464-2.978,12.063-7.512,16.801-13.603c4.738-6.091,8.477-13.79,11.218-23.095
			c2.741-9.306,4.112-20.32,4.112-33.044C417.81,232.383,416.439,221.352,413.698,212.012z M396.237,273.024
			c-1.86,7.512-4.365,13.57-7.512,18.172c-3.147,4.602-6.784,7.901-10.913,9.898c-4.129,1.997-8.426,2.995-12.893,2.995
			c-4.466,0-8.763-0.998-12.893-2.995c-4.129-1.997-7.748-5.296-10.862-9.898c-3.114-4.602-5.601-10.659-7.462-18.172
			s-2.791-16.818-2.791-27.917s0.931-20.422,2.791-27.968c1.86-7.546,4.348-13.62,7.462-18.222
			c3.114-4.602,6.733-7.901,10.862-9.898c4.129-1.997,8.426-2.995,12.893-2.995c4.467,0,8.763,0.998,12.893,2.995
			c4.129,1.997,7.766,5.296,10.913,9.898c3.147,4.602,5.651,10.676,7.512,18.222s2.792,16.869,2.792,27.968
			C399.029,256.206,398.097,265.512,396.237,273.024z"/>
	</g>
</g>
<g>
	<g>
		<path d="M149.094,303.987V172.014h-14.72l-43.246,37.46l5.685,7.817c0.406,0.609,1.015,1.134,1.828,1.574
			c0.812,0.44,1.726,0.66,2.741,0.66c0.609,0,1.251-0.119,1.929-0.355c0.677-0.237,1.353-0.626,2.03-1.167l25.989-22.232
			c-0.203,3.045-0.304,6.057-0.304,9.035v99.182H99.756v13.806h77.965v-13.806H149.094z"/>
	</g>
</g>
<g>
	<g>
		<path d="M289.847,253.939c-4.771-5.888-11.895-10.084-21.369-12.588c3.858-1.151,7.342-2.673,10.456-4.568
			c3.114-1.895,5.769-4.213,7.969-6.954c2.201-2.741,3.891-5.922,5.076-9.543c1.185-3.621,1.776-7.732,1.776-12.334
			c0-5.617-1.048-10.727-3.147-15.329c-2.099-4.602-5.025-8.527-8.781-11.776c-3.756-3.249-8.24-5.753-13.451-7.512
			c-5.21-1.76-10.895-2.639-17.055-2.639c-6.225,0-12.03,0.896-17.41,2.69c-5.38,1.794-10.151,4.416-14.314,7.868
			c-4.162,3.452-7.596,7.732-10.304,12.842c-2.708,5.11-4.535,10.981-5.482,17.613l9.441,1.624c0.475,0.068,0.896,0.119,1.269,0.152
			c0.373,0.034,0.728,0.051,1.066,0.051c1.693,0,3.079-0.44,4.162-1.32s1.896-2.301,2.436-4.264c0.812-3.113,2.03-6.007,3.655-8.68
			c1.625-2.673,3.637-4.974,6.041-6.903c2.403-1.929,5.159-3.435,8.274-4.518c3.114-1.083,6.497-1.624,10.152-1.624
			c3.655,0,7.055,0.508,10.202,1.523c3.147,1.015,5.87,2.538,8.172,4.568c2.302,2.03,4.111,4.602,5.431,7.715
			c1.319,3.113,1.98,6.768,1.98,10.964c0,3.79-0.627,7.242-1.878,10.355c-1.251,3.113-3.266,5.786-6.04,8.02
			c-2.774,2.233-6.345,3.993-10.71,5.279s-9.627,1.963-15.786,2.03v13.096c7.581,0,13.789,0.677,18.628,2.03
			c4.84,1.354,8.629,3.215,11.37,5.583s4.637,5.177,5.685,8.426c1.048,3.249,1.574,6.835,1.574,10.761
			c0,3.181-0.642,6.396-1.929,9.644s-3.198,6.193-5.736,8.832c-2.538,2.639-5.718,4.788-9.543,6.446
			c-3.824,1.658-8.274,2.487-13.35,2.487c-5.075,0-9.322-0.744-12.74-2.233c-3.418-1.489-6.276-3.316-8.578-5.482
			c-2.302-2.166-4.129-4.484-5.482-6.954c-1.353-2.47-2.505-4.687-3.452-6.649c-0.134-0.338-0.271-0.66-0.406-0.964
			c-0.135-0.305-0.271-0.592-0.406-0.863c-0.54-1.218-1.337-2.115-2.386-2.69c-1.048-0.575-2.251-0.863-3.603-0.863
			c-1.421,0-2.843,0.305-4.264,0.914l-7.716,3.249c1.693,5.414,3.756,10.439,6.193,15.075c2.437,4.636,5.55,8.646,9.339,12.03
			c3.789,3.384,8.426,6.04,13.908,7.969c5.482,1.929,12.081,2.893,19.796,2.893c6.7,0,12.977-0.998,18.831-2.995
			c5.855-1.997,10.982-4.873,15.38-8.629c4.399-3.756,7.868-8.307,10.406-13.654c2.538-5.347,3.807-11.37,3.807-18.07
			C297.004,267.204,294.618,259.827,289.847,253.939z"/>
	</g>
</g>
<g>
</g>
<g>
</g>
<g>
</g>
<g>
</g>
<g>
</g>
<g>
</g>
<g>
</g>
<g>
</g>
<g>
</g>
<g>
</g>
<g>
</g>
<g>
</g>
<g>
</g>
<g>
</g>
<g>
</g>
</svg>
