<?xml version="1.0" encoding="iso-8859-1"?>
<!-- Generator: Adobe Illustrator 19.0.0, SVG Export Plug-In . SVG Version: 6.00 Build 0)  -->
<svg version="1.1" id="Layer_1" xmlns="http://www.w3.org/2000/svg" xmlns:xlink="http://www.w3.org/1999/xlink" x="0px" y="0px"
	 viewBox="0 0 512 512" style="enable-background:new 0 0 512 512;" xml:space="preserve">
<g>
	<g>
		<path d="M256,52.966C144.047,52.966,52.966,144.047,52.966,256S144.047,459.034,256,459.034S459.034,367.953,459.034,256
			S367.953,52.966,256,52.966z M256,441.379c-102.218,0-185.379-83.162-185.379-185.379S153.782,70.621,256,70.621
			S441.379,153.782,441.379,256S358.218,441.379,256,441.379z"/>
	</g>
</g>
<g>
	<g>
		<path d="M256,0C114.841,0,0,114.841,0,256s114.841,256,256,256s256-114.841,256-256S397.159,0,256,0z M256,494.345
			c-131.425,0-238.345-106.92-238.345-238.345S124.575,17.655,256,17.655S494.345,124.575,494.345,256S387.425,494.345,256,494.345z
			"/>
	</g>
</g>
<g>
	<g>
		<path d="M413.698,212.012c-2.741-9.34-6.479-17.072-11.218-23.197c-4.738-6.125-10.337-10.676-16.801-13.654
			c-6.464-2.978-13.383-4.467-20.76-4.467c-7.444,0-14.365,1.489-20.76,4.467s-11.961,7.529-16.7,13.654
			c-4.738,6.125-8.459,13.857-11.167,23.197c-2.708,9.34-4.061,20.371-4.061,33.095c0,12.724,1.353,23.738,4.061,33.044
			c2.708,9.306,6.428,17.004,11.167,23.095c4.739,6.091,10.304,10.626,16.7,13.603c6.395,2.978,13.316,4.467,20.76,4.467
			c7.378,0,14.296-1.489,20.76-4.467c6.464-2.978,12.063-7.512,16.801-13.603c4.738-6.091,8.477-13.79,11.218-23.095
			c2.741-9.306,4.112-20.32,4.112-33.044C417.81,232.383,416.439,221.352,413.698,212.012z M396.237,273.024
			c-1.86,7.512-4.365,13.57-7.512,18.172c-3.147,4.602-6.784,7.901-10.913,9.898c-4.129,1.997-8.426,2.995-12.893,2.995
			c-4.466,0-8.763-0.998-12.893-2.995c-4.129-1.997-7.748-5.296-10.862-9.898c-3.114-4.602-5.601-10.659-7.462-18.172
			s-2.791-16.818-2.791-27.917s0.931-20.422,2.791-27.968c1.86-7.546,4.348-13.62,7.462-18.222
			c3.114-4.602,6.733-7.901,10.862-9.898c4.129-1.997,8.426-2.995,12.893-2.995c4.467,0,8.763,0.998,12.893,2.995
			c4.129,1.997,7.766,5.296,10.913,9.898c3.147,4.602,5.651,10.676,7.512,18.222s2.792,16.869,2.792,27.968
			C399.029,256.206,398.097,265.512,396.237,273.024z"/>
	</g>
</g>
<g>
	<g>
		<path d="M149.094,303.987V172.014h-14.72l-43.246,37.46l5.685,7.817c0.406,0.609,1.015,1.134,1.828,1.574
			c0.812,0.44,1.726,0.66,2.741,0.66c0.609,0,1.251-0.119,1.929-0.355c0.677-0.237,1.353-0.626,2.03-1.167l25.989-22.232
			c-0.203,3.045-0.304,6.057-0.304,9.035v99.182H99.756v13.806h77.965v-13.806H149.094z"/>
	</g>
</g>
<g>
	<g>
		<path d="M294.263,302.362c-1.15-1.15-2.707-1.726-4.67-1.726h-48.728c-2.571,0-5.246,0.22-8.02,0.66
			c-2.774,0.44-5.515,1.032-8.223,1.777l38.272-39.186c4.061-4.128,7.901-8.172,11.522-12.131c3.622-3.959,6.82-8.054,9.593-12.284
			c2.774-4.23,4.975-8.646,6.599-13.248c1.625-4.602,2.436-9.61,2.436-15.025c0-6.362-1.116-12.047-3.35-17.055
			s-5.297-9.255-9.188-12.74s-8.51-6.142-13.857-7.969c-5.347-1.827-11.098-2.741-17.258-2.741c-6.226,0-12.03,0.896-17.411,2.69
			c-5.38,1.794-10.151,4.416-14.313,7.868c-4.162,3.452-7.596,7.732-10.304,12.842c-2.707,5.11-4.535,10.981-5.482,17.613
			l9.441,1.624c0.474,0.068,0.896,0.119,1.269,0.152c0.373,0.034,0.728,0.051,1.066,0.051c1.759,0,3.18-0.44,4.264-1.32
			c1.084-0.88,1.896-2.301,2.436-4.264c0.677-3.181,1.845-6.091,3.502-8.731c1.657-2.639,3.688-4.924,6.091-6.852
			c2.403-1.929,5.16-3.435,8.274-4.518c3.114-1.083,6.497-1.624,10.151-1.624s7.073,0.525,10.253,1.574
			c3.181,1.049,5.957,2.622,8.325,4.721s4.231,4.754,5.583,7.969c1.353,3.215,2.031,6.954,2.031,11.218s-0.609,8.274-1.828,12.03
			c-1.218,3.756-2.962,7.461-5.228,11.116c-2.267,3.655-4.992,7.292-8.172,10.913c-3.18,3.621-6.7,7.394-10.558,11.319
			l-46.596,46.799c-1.15,1.15-1.98,2.403-2.487,3.756c-0.508,1.354-0.761,2.673-0.761,3.959v6.193h97.051v-10.964
			C295.989,305.002,295.413,303.513,294.263,302.362z"/>
	</g>
</g>
<g>
</g>
<g>
</g>
<g>
</g>
<g>
</g>
<g>
</g>
<g>
</g>
<g>
</g>
<g>
</g>
<g>
</g>
<g>
</g>
<g>
</g>
<g>
</g>
<g>
</g>
<g>
</g>
<g>
</g>
</svg>
