<?xml version="1.0" encoding="iso-8859-1"?>
<!-- Generator: Adobe Illustrator 19.0.0, SVG Export Plug-In . SVG Version: 6.00 Build 0)  -->
<svg version="1.1" id="Layer_1" xmlns="http://www.w3.org/2000/svg" xmlns:xlink="http://www.w3.org/1999/xlink" x="0px" y="0px"
	 viewBox="0 0 512 512" style="enable-background:new 0 0 512 512;" xml:space="preserve">
<g>
	<g>
		<path d="M439.467,227.019c39.995,0,72.533-32.502,72.533-72.453V91.774c0-5.335-4.325-9.66-9.66-9.66H375.469
			c-4.331-16.642-19.441-28.981-37.422-28.981H173.953c-17.981,0-33.091,12.339-37.422,28.981H9.66c-5.335,0-9.66,4.325-9.66,9.66
			v62.792c0,39.951,32.538,72.453,72.531,72.453h62.715V256H9.66C4.325,256,0,260.325,0,265.66v62.792
			c0,39.951,32.538,72.453,72.531,72.453h62.715v19.257c0,21.342,17.363,38.705,38.707,38.705h164.094
			c21.344,0,38.708-17.363,38.708-38.705v-19.257h62.712c39.995,0,72.533-32.502,72.533-72.453V265.66c0-5.335-4.325-9.66-9.66-9.66
			H376.755v-28.981H439.467z M376.755,101.434h115.925v53.132c0,29.297-23.87,53.132-53.212,53.132h-62.712V101.434z
			 M135.245,381.585H72.531c-29.34,0-53.21-23.835-53.21-53.132v-53.132h115.925V381.585z M135.245,207.698H72.531
			c-29.34,0-53.21-23.835-53.21-53.132v-53.132h115.925V207.698z M357.434,217.359v48.302v125.585v28.917
			c0,10.689-8.696,19.385-19.387,19.385H173.953c-10.691,0-19.387-8.696-19.387-19.385v-28.917V265.66v-48.302V91.837
			c0-10.689,8.696-19.385,19.387-19.385h164.094c10.691,0,19.387,8.696,19.387,19.385V217.359z M492.679,275.321v53.132
			c0,29.297-23.87,53.132-53.212,53.132h-62.712V275.321H492.679z"/>
	</g>
</g>
<g>
	<g>
		<path d="M256,265.66c-39.951,0-72.453,32.502-72.453,72.453c0,39.95,32.502,72.453,72.453,72.453s72.453-32.502,72.453-72.453
			C328.453,298.163,295.951,265.66,256,265.66z M256,391.245c-29.297,0-53.132-23.835-53.132-53.132s23.835-53.132,53.132-53.132
			s53.132,23.835,53.132,53.132S285.297,391.245,256,391.245z"/>
	</g>
</g>
<g>
	<g>
		<path d="M256,101.434c-39.951,0-72.453,32.502-72.453,72.453S216.049,246.34,256,246.34s72.453-32.502,72.453-72.453
			S295.951,101.434,256,101.434z M256,227.019c-29.297,0-53.132-23.835-53.132-53.132c0-29.297,23.835-53.132,53.132-53.132
			s53.132,23.835,53.132,53.132C309.132,203.184,285.297,227.019,256,227.019z"/>
	</g>
</g>
<g>
</g>
<g>
</g>
<g>
</g>
<g>
</g>
<g>
</g>
<g>
</g>
<g>
</g>
<g>
</g>
<g>
</g>
<g>
</g>
<g>
</g>
<g>
</g>
<g>
</g>
<g>
</g>
<g>
</g>
</svg>
