<?xml version="1.0" encoding="iso-8859-1"?>
<!-- Generator: Adobe Illustrator 19.0.0, SVG Export Plug-In . SVG Version: 6.00 Build 0)  -->
<svg version="1.1" id="Layer_1" xmlns="http://www.w3.org/2000/svg" xmlns:xlink="http://www.w3.org/1999/xlink" x="0px" y="0px"
	 viewBox="0 0 512 512" style="enable-background:new 0 0 512 512;" xml:space="preserve">
<g>
	<g>
		<path d="M495.187,49.327l-32.54-32.539c-21.217-21.221-56.977-22.459-79.712-2.751l-57.188,49.573
			c-0.733,0.635-1.359,1.381-1.859,2.212l-55.672,92.732l-35.745,11.915c-3.02,1.007-5.303,3.506-6.034,6.604
			c-0.733,3.098,0.193,6.354,2.444,8.605l25.977,25.977L88.491,378.022L30.68,410.344c-1.608,0.899-2.908,2.261-3.734,3.909
			L0.969,466.208c-1.767,3.536-1.074,7.807,1.722,10.602l32.471,32.473c1.763,1.764,4.112,2.69,6.496,2.69
			c1.395,0,2.801-0.317,4.106-0.97l51.957-25.977c1.648-0.824,3.009-2.125,3.908-3.732l32.323-57.811l166.368-166.368l25.978,25.978
			c1.742,1.742,4.086,2.69,6.494,2.69c0.702,0,1.411-0.081,2.11-0.245c3.099-0.731,5.597-3.015,6.604-6.034l11.92-35.758
			l94.092-56.818c0.83-0.501,1.574-1.129,2.206-1.862l48.4-56.087C517.717,106.269,516.401,70.538,495.187,49.327z M120.063,411.394
			c-0.599,0.598-1.11,1.275-1.523,2.013l-31.565,56.455L43.47,491.612l-23.109-23.109l21.753-43.507l56.455-31.563
			c0.738-0.411,1.415-0.924,2.011-1.521l167.267-167.27l19.484,19.484L120.063,411.394z M484.217,116.976l-47.445,54.98
			l-95.738,57.811c-1.87,1.129-3.276,2.887-3.967,4.958l-8.29,24.87l-21.953-21.953c-0.003-0.003-0.007-0.008-0.01-0.012
			l-32.473-32.472c-0.002-0.002-0.005-0.003-0.007-0.005l-21.957-21.957l24.867-8.289c2.079-0.694,3.843-2.107,4.971-3.986
			l56.668-94.39l56.083-48.615c15.602-13.528,40.14-12.695,54.692,1.86l32.541,32.541
			C496.759,76.874,497.662,101.393,484.217,116.976z"/>
	</g>
</g>
<g>
</g>
<g>
</g>
<g>
</g>
<g>
</g>
<g>
</g>
<g>
</g>
<g>
</g>
<g>
</g>
<g>
</g>
<g>
</g>
<g>
</g>
<g>
</g>
<g>
</g>
<g>
</g>
<g>
</g>
</svg>
