<?xml version="1.0" encoding="iso-8859-1"?>
<!-- Generator: Adobe Illustrator 19.0.0, SVG Export Plug-In . SVG Version: 6.00 Build 0)  -->
<svg version="1.1" id="Layer_1" xmlns="http://www.w3.org/2000/svg" xmlns:xlink="http://www.w3.org/1999/xlink" x="0px" y="0px"
	 viewBox="0 0 512 512" style="enable-background:new 0 0 512 512;" xml:space="preserve">
<g>
	<g>
		<path d="M495.837,49.432l-31.282-31.281c-20.401-20.402-54.776-21.589-76.629-2.645l-54.977,47.656
			c-0.704,0.61-1.307,1.328-1.787,2.127l-53.518,89.146l-34.362,11.454c-2.904,0.968-5.099,3.37-5.802,6.348
			c-0.703,2.978,0.187,6.108,2.35,8.272l24.973,24.973l-30.901,30.901l-69.487-69.486l-18.06-42.141
			c-1.154-2.693-3.57-4.638-6.446-5.192c-2.874-0.551-5.841,0.356-7.913,2.426l-49.946,49.946c-2.072,2.073-2.98,5.036-2.426,7.913
			c0.554,2.877,2.498,5.292,5.192,6.446l42.14,18.059l69.487,69.487l-42.004,42.005l-69.487-69.486L66.891,204.22
			c-1.154-2.693-3.57-4.638-6.446-5.192c-2.875-0.55-5.843,0.356-7.913,2.426L2.586,251.4c-2.072,2.073-2.98,5.036-2.426,7.913
			c0.554,2.877,2.498,5.292,5.192,6.446l42.14,18.059l69.487,69.487l-12.109,12.109l-55.574,31.072
			c-1.546,0.864-2.796,2.174-3.588,3.757L20.733,450.19c-1.7,3.399-1.034,7.505,1.653,10.193l31.217,31.216
			c1.697,1.695,3.956,2.586,6.246,2.586c1.341,0,2.692-0.305,3.947-0.932l49.945-24.973c1.583-0.792,2.893-2.042,3.757-3.588
			l31.073-55.575l12.338-12.338c0.376,0.646,0.807,1.267,1.36,1.821l83.802,83.803c0.672,0.67,1.446,1.229,2.295,1.653
			l49.947,24.973c1.255,0.627,2.605,0.932,3.946,0.932c2.29,0,4.55-0.89,6.246-2.586c2.687-2.688,3.353-6.793,1.653-10.193
			l-24.974-49.946c-0.425-0.848-0.983-1.623-1.653-2.295l-85.393-85.393l42.235-42.233c0.376,0.646,0.807,1.267,1.36,1.82
			l83.802,83.803c0.671,0.67,1.446,1.229,2.295,1.653l49.947,24.973c1.255,0.627,2.605,0.932,3.946,0.932
			c2.29,0,4.55-0.89,6.246-2.586c2.687-2.688,3.353-6.793,1.653-10.193l-24.974-49.946c-0.425-0.848-0.983-1.623-1.653-2.295
			l-85.392-85.392l30.901-30.901l24.973,24.973c1.676,1.675,3.93,2.586,6.244,2.586c0.676,0,1.356-0.078,2.028-0.236
			c2.978-0.703,5.38-2.898,6.348-5.801l11.458-34.375l90.456-54.621c0.796-0.482,1.512-1.085,2.12-1.79l46.527-53.918
			C517.497,104.175,516.23,69.825,495.837,49.432z M138.239,190.667c-0.794-0.794-1.733-1.429-2.766-1.872l-31.716-13.592
			l31.504-31.503l13.592,31.716c0.443,1.033,1.078,1.971,1.872,2.766l70.688,70.688l-12.485,12.485L138.239,190.667z
			 M58.775,270.131c-0.794-0.794-1.733-1.429-2.766-1.872l-31.716-13.592l31.504-31.503l13.592,31.716
			c0.443,1.033,1.078,1.971,1.872,2.766l70.689,70.689l-12.485,12.485L58.775,270.131z M270.032,456.416l12.487,24.973
			l-24.973-12.486l-82.789-82.79c-0.553-0.553-1.175-0.984-1.821-1.36l12.716-12.716L270.032,456.416z M349.496,376.952
			l12.487,24.973l-24.973-12.486l-82.789-82.79c-0.553-0.553-1.175-0.984-1.821-1.36l12.716-12.715L349.496,376.952z
			 M135.219,397.496c-0.575,0.575-1.066,1.226-1.463,1.935l-30.343,54.271l-41.823,20.91l-22.217-22.217l20.911-41.822l54.27-30.343
			c0.709-0.397,1.36-0.888,1.935-1.463l160.799-160.8l18.729,18.729L135.219,397.496z M485.291,114.465l-45.609,52.854
			l-92.037,55.575c-1.797,1.085-3.148,2.775-3.812,4.766l-7.969,23.908l-21.103-21.103c-0.004-0.004-0.006-0.008-0.01-0.012
			l-31.215-31.217c-0.008-0.008-0.016-0.012-0.024-0.019l-21.094-21.094l23.907-7.968c1.999-0.667,3.694-2.025,4.778-3.831
			l54.476-90.74l53.915-46.734c15.002-13.002,38.586-12.203,52.575,1.788l31.283,31.282
			C497.347,75.915,498.217,99.487,485.291,114.465z"/>
	</g>
</g>
<g>
</g>
<g>
</g>
<g>
</g>
<g>
</g>
<g>
</g>
<g>
</g>
<g>
</g>
<g>
</g>
<g>
</g>
<g>
</g>
<g>
</g>
<g>
</g>
<g>
</g>
<g>
</g>
<g>
</g>
</svg>
