<?xml version="1.0" encoding="iso-8859-1"?>
<!-- Generator: Adobe Illustrator 19.0.0, SVG Export Plug-In . SVG Version: 6.00 Build 0)  -->
<svg version="1.1" id="Layer_1" xmlns="http://www.w3.org/2000/svg" xmlns:xlink="http://www.w3.org/1999/xlink" x="0px" y="0px"
	 viewBox="0 0 512 512" style="enable-background:new 0 0 512 512;" xml:space="preserve">
<g>
	<g>
		<path d="M491.698,46.327L461.12,15.75c-19.94-19.943-53.543-21.104-74.905-2.585l-53.739,46.584
			c-0.688,0.596-1.277,1.298-1.746,2.079l-52.316,87.14l-33.589,11.196c-2.838,0.946-4.984,3.295-5.671,6.205
			c-0.687,2.911,0.182,5.97,2.297,8.086l24.411,24.411l-14.209,14.209l-28.62-28.621c12.719-18.202,22.104-37.231,27.291-55.755
			c8.689-31.032,4.733-57.311-11.05-74.349c0.415-7.127-2.066-14.393-7.499-19.827c-10.095-10.095-26.522-10.095-36.617,0
			L12.073,217.608c-10.094,10.095-10.094,26.521,0,36.616c5.049,5.048,11.679,7.572,18.31,7.572c0.493,0,0.984-0.042,1.477-0.071
			c11.108,10.302,26.151,15.569,43.888,15.569c9.466,0,19.698-1.496,30.502-4.522c18.524-5.187,37.552-14.572,55.754-27.291
			l28.621,28.621L109.528,355.2l-54.325,30.373c-1.511,0.845-2.733,2.125-3.507,3.674l-24.411,48.821
			c-1.661,3.323-1.01,7.336,1.616,9.963l30.514,30.514c1.657,1.657,3.867,2.527,6.105,2.527c1.311,0,2.632-0.298,3.858-0.911
			l48.821-24.411c1.549-0.774,2.829-1.996,3.674-3.507l30.374-54.325l156.335-156.334l24.411,24.411
			c1.638,1.637,3.841,2.527,6.103,2.527c0.661,0,1.326-0.076,1.983-0.231c2.911-0.687,5.259-2.833,6.205-5.671l11.2-33.601
			l88.42-53.392c0.779-0.471,1.478-1.061,2.072-1.75l45.482-52.705C512.871,99.836,511.632,66.261,491.698,46.327z M24.279,242.018
			c-3.365-3.364-3.365-8.839,0-12.204L207.364,46.729c1.711-1.711,3.906-2.567,6.102-2.567c2.196,0,4.391,0.855,6.102,2.567
			c3.366,3.365,3.366,8.84,0.001,12.204L36.483,242.019C33.062,245.441,27.701,245.442,24.279,242.018z M101.595,256.151
			c-21.422,5.999-39.536,4.984-52.142-2.689L231.011,71.904c7.673,12.605,8.688,30.718,2.69,52.141
			c-7.676,27.412-25.699,56.306-50.75,81.356C157.901,230.452,129.008,248.475,101.595,256.151z M175.906,234.972
			c6.601-5.372,13.048-11.161,19.251-17.364c6.204-6.204,11.992-12.65,17.365-19.252l25.355,25.355l-36.616,36.617L175.906,234.972z
			 M139.195,386.56c-0.562,0.562-1.042,1.198-1.43,1.891l-29.661,53.05l-40.882,20.44l-21.717-21.717l20.44-40.881l53.05-29.661
			c0.693-0.387,1.33-0.868,1.891-1.43l157.18-157.182l18.309,18.309L139.195,386.56z M481.39,109.897l-44.584,51.665l-89.967,54.325
			c-1.756,1.061-3.077,2.713-3.727,4.66l-7.789,23.369l-20.623-20.622c-0.006-0.006-0.009-0.013-0.015-0.019l-30.514-30.514
			c-0.007-0.007-0.015-0.011-0.022-0.018l-20.621-20.62l23.369-7.789c1.954-0.652,3.61-1.98,4.67-3.745l53.252-88.698l52.701-45.683
			c14.664-12.709,37.718-11.928,51.392,1.748l30.579,30.578C493.174,72.214,494.025,95.256,481.39,109.897z"/>
	</g>
</g>
<g>
	<g>
		<path d="M481.955,467.788l-185.81-185.811c-1.619-1.618-3.814-2.527-6.103-2.527c-2.289,0-4.484,0.909-6.103,2.527l-24.412,24.412
			c-1.618,1.619-2.528,3.814-2.528,6.103c0,2.289,0.909,4.484,2.528,6.103l185.811,185.81c5.063,5.062,11.712,7.595,18.356,7.595
			c6.629,0,13.253-2.52,18.295-7.561C492.084,494.344,492.068,477.902,481.955,467.788z M469.782,492.232
			c-3.362,3.364-8.853,3.352-12.238-0.034L277.835,312.492l12.206-12.206l179.707,179.709
			C473.189,483.435,473.204,488.81,469.782,492.232z"/>
	</g>
</g>
<g>
</g>
<g>
</g>
<g>
</g>
<g>
</g>
<g>
</g>
<g>
</g>
<g>
</g>
<g>
</g>
<g>
</g>
<g>
</g>
<g>
</g>
<g>
</g>
<g>
</g>
<g>
</g>
<g>
</g>
</svg>
