<?xml version="1.0" encoding="iso-8859-1"?>
<!-- Generator: Adobe Illustrator 19.0.0, SVG Export Plug-In . SVG Version: 6.00 Build 0)  -->
<svg version="1.1" id="Layer_1" xmlns="http://www.w3.org/2000/svg" xmlns:xlink="http://www.w3.org/1999/xlink" x="0px" y="0px"
	 viewBox="0 0 512 512" style="enable-background:new 0 0 512 512;" xml:space="preserve">
<g>
	<g>
		<path d="M486.429,140.8H25.57C11.471,140.8,0,152.298,0,166.431v179.138C0,359.702,11.471,371.2,25.57,371.2h460.859
			c14.1,0,25.571-11.498,25.571-25.631V166.431C512,152.298,500.529,140.8,486.429,140.8z M494.933,345.569
			c0,4.723-3.815,8.565-8.504,8.565H25.57c-4.688,0-8.503-3.842-8.503-8.565V166.431c0-4.723,3.815-8.565,8.503-8.565h460.859
			c4.69,0,8.504,3.842,8.504,8.565V345.569z"/>
	</g>
</g>
<g>
	<g>
		<path d="M458.301,254.233l-76.8-76.8c-2.44-2.442-6.109-3.169-9.3-1.85c-3.188,1.321-5.268,4.431-5.268,7.883v42.667H51.2
			c-4.713,0-8.533,3.821-8.533,8.533v51.2c0,4.713,3.821,8.533,8.533,8.533h315.733v42.667c0,3.452,2.079,6.563,5.268,7.883
			c1.056,0.438,2.165,0.65,3.264,0.65c2.221,0,4.403-0.867,6.036-2.5l76.8-76.8C461.633,262.969,461.633,257.565,458.301,254.233z
			 M384,316.465v-30.598c0-4.713-3.821-8.533-8.533-8.533H59.733V243.2h315.733c4.713,0,8.533-3.821,8.533-8.533v-30.598
			l56.199,56.198L384,316.465z"/>
	</g>
</g>
<g>
</g>
<g>
</g>
<g>
</g>
<g>
</g>
<g>
</g>
<g>
</g>
<g>
</g>
<g>
</g>
<g>
</g>
<g>
</g>
<g>
</g>
<g>
</g>
<g>
</g>
<g>
</g>
<g>
</g>
</svg>
