<?xml version="1.0" encoding="iso-8859-1"?>
<!-- Generator: Adobe Illustrator 19.0.0, SVG Export Plug-In . SVG Version: 6.00 Build 0)  -->
<svg version="1.1" id="Layer_1" xmlns="http://www.w3.org/2000/svg" xmlns:xlink="http://www.w3.org/1999/xlink" x="0px" y="0px"
	 viewBox="0 0 512 512" style="enable-background:new 0 0 512 512;" xml:space="preserve">
<g>
	<g>
		<path d="M510.864,475.587l-246.857-448c-1.607-2.917-4.674-4.73-8.007-4.73s-6.4,1.813-8.007,4.73l-246.857,448
			c-1.563,2.833-1.509,6.279,0.134,9.062c1.645,2.786,4.638,4.493,7.873,4.493h493.714c3.234,0,6.228-1.708,7.873-4.493
			C512.373,481.866,512.426,478.42,510.864,475.587z M24.62,470.857L256,50.944l231.38,419.913H24.62z"/>
	</g>
</g>
<g>
	<g>
		<path d="M437.799,439.161L264.085,110.018c-1.583-2.998-4.694-4.875-8.085-4.875s-6.502,1.877-8.085,4.875L74.201,439.161
			c-1.498,2.835-1.4,6.245,0.254,8.989c1.656,2.743,4.625,4.422,7.83,4.422h347.429c3.205,0,6.174-1.679,7.83-4.422
			C439.199,445.406,439.297,441.996,437.799,439.161z M97.449,434.286L256,133.873l158.551,300.413H97.449z"/>
	</g>
</g>
<g>
	<g>
		<path d="M320,288h-27.429v-36.571c0-1.978-0.641-3.904-1.828-5.487l-27.429-36.571c-1.728-2.301-4.438-3.656-7.315-3.656
			s-5.587,1.355-7.315,3.656l-27.429,36.571c-1.188,1.583-1.828,3.509-1.828,5.487V288H192c-5.049,0-9.143,4.094-9.143,9.143v36.571
			c0,5.049,4.094,9.143,9.143,9.143h27.429v64c0,3.699,2.228,7.031,5.645,8.446c3.406,1.413,7.348,0.634,9.962-1.982L256,392.359
			l20.964,20.962c1.748,1.75,4.087,2.679,6.466,2.679c1.176,0,2.366-0.228,3.496-0.696c3.417-1.415,5.645-4.748,5.645-8.446v-64H320
			c5.049,0,9.143-4.094,9.143-9.143v-36.571C329.143,292.094,325.049,288,320,288z M219.429,324.571h-18.286v-18.286h18.286V324.571
			z M274.286,297.143v36.571v51.069l-11.821-11.819c-1.784-1.786-4.125-2.679-6.464-2.679c-2.339,0-4.681,0.893-6.464,2.679
			l-11.821,11.819v-51.069v-36.571v-42.667L256,230.096l18.286,24.379V297.143z M310.857,324.571h-18.286v-18.286h18.286V324.571z"
			/>
	</g>
</g>
<g>
</g>
<g>
</g>
<g>
</g>
<g>
</g>
<g>
</g>
<g>
</g>
<g>
</g>
<g>
</g>
<g>
</g>
<g>
</g>
<g>
</g>
<g>
</g>
<g>
</g>
<g>
</g>
<g>
</g>
</svg>
