<?xml version="1.0" encoding="iso-8859-1"?>
<!-- Generator: Adobe Illustrator 19.0.0, SVG Export Plug-In . SVG Version: 6.00 Build 0)  -->
<svg version="1.1" id="Layer_1" xmlns="http://www.w3.org/2000/svg" xmlns:xlink="http://www.w3.org/1999/xlink" x="0px" y="0px"
	 viewBox="0 0 512 512" style="enable-background:new 0 0 512 512;" xml:space="preserve">
<g>
	<g>
		<path d="M510.865,475.587l-246.857-448c-1.608-2.917-4.676-4.73-8.008-4.73c-3.331,0-6.4,1.813-8.008,4.73l-246.857,448
			c-1.56,2.833-1.509,6.279,0.136,9.062c1.645,2.786,4.638,4.493,7.872,4.493h493.714c3.233,0,6.227-1.708,7.872-4.493
			C512.374,481.866,512.425,478.42,510.865,475.587z M24.619,470.857L256,50.944l231.381,419.913H24.619z"/>
	</g>
</g>
<g>
	<g>
		<path d="M437.8,439.161L264.086,110.018c-1.583-2.998-4.695-4.875-8.086-4.875c-3.391,0-6.504,1.877-8.086,4.875L74.2,439.161
			c-1.496,2.835-1.398,6.245,0.257,8.989c1.654,2.743,4.625,4.422,7.829,4.422h347.429c3.204,0,6.175-1.679,7.829-4.422
			C439.199,445.406,439.296,441.996,437.8,439.161z M97.449,434.286L256,133.873l158.551,300.413H97.449z"/>
	</g>
</g>
<g>
	<g>
		<path d="M290.743,245.942l-27.429-36.571c-1.728-2.301-4.438-3.656-7.315-3.656c-2.877,0-5.587,1.355-7.315,3.656l-27.429,36.571
			c-1.187,1.583-1.828,3.509-1.828,5.487V288H192c-5.049,0-9.143,4.094-9.143,9.143v36.571c0,5.049,4.094,9.143,9.143,9.143h27.429
			v64c0,3.699,2.228,7.031,5.644,8.446c3.419,1.417,7.349,0.634,9.964-1.982L256,392.359l20.963,20.962
			c1.75,1.75,4.088,2.679,6.468,2.679c1.177,0,2.366-0.228,3.497-0.696c3.416-1.415,5.644-4.748,5.644-8.446V251.429
			C292.571,249.451,291.93,247.525,290.743,245.942z M219.429,324.571h-18.286v-18.286h18.286V324.571z M274.286,384.784
			l-11.82-11.819c-1.786-1.786-4.125-2.679-6.465-2.679c-2.34,0-4.68,0.893-6.465,2.679l-11.82,11.819v-51.069v-36.571v-42.667
			L256,230.096l18.286,24.379V384.784z"/>
	</g>
</g>
<g>
</g>
<g>
</g>
<g>
</g>
<g>
</g>
<g>
</g>
<g>
</g>
<g>
</g>
<g>
</g>
<g>
</g>
<g>
</g>
<g>
</g>
<g>
</g>
<g>
</g>
<g>
</g>
<g>
</g>
</svg>
