<?xml version="1.0" encoding="iso-8859-1"?>
<!-- Generator: Adobe Illustrator 19.0.0, SVG Export Plug-In . SVG Version: 6.00 Build 0)  -->
<svg version="1.1" id="Layer_1" xmlns="http://www.w3.org/2000/svg" xmlns:xlink="http://www.w3.org/1999/xlink" x="0px" y="0px"
	 viewBox="0 0 512 512" style="enable-background:new 0 0 512 512;" xml:space="preserve">
<g>
	<g>
		<path d="M265.666,201.247l-34.945-34.945c36.64-52.182,44.792-107.459,17.112-137.363c0.032-0.544,0.079-1.087,0.079-1.636
			c-0.005-7.29-2.851-14.149-8.014-19.311c-10.656-10.656-27.995-10.656-38.651,0L7.992,201.248
			c-10.655,10.656-10.655,27.994,0,38.65c5.329,5.328,12.327,7.993,19.327,7.993c0.521,0,1.04-0.045,1.56-0.074
			c12.047,11.175,28.214,16.536,46.655,16.536c27.32,0,59.605-11.739,90.774-33.626l34.94,34.94c1.779,1.778,4.11,2.668,6.442,2.668
			c2.332,0,4.663-0.89,6.442-2.668l51.535-51.535C269.224,210.573,269.224,204.806,265.666,201.247z M20.876,227.014
			c-3.552-3.551-3.552-9.33,0-12.882L214.131,20.877c1.806-1.806,4.123-2.709,6.441-2.709s4.636,0.903,6.442,2.709
			c1.725,1.725,2.676,4.011,2.677,6.439c0.001,2.428-0.949,4.716-2.677,6.443L33.758,227.015
			C30.146,230.627,24.488,230.628,20.876,227.014z M47.464,239.079L239.078,47.465c18.864,31.185-2.422,92.605-50.715,140.898
			C140.071,236.658,78.649,257.945,47.464,239.079z M207.689,246.341l-26.731-26.732c6.89-5.629,13.677-11.75,20.289-18.361
			c6.615-6.615,12.715-13.41,18.347-20.304l26.747,26.746L207.689,246.341z"/>
	</g>
</g>
<g>
	<g>
		<path d="M503.997,465.346L278.55,239.898c-3.557-3.555-9.326-3.556-12.883,0l-25.768,25.767c-1.709,1.709-2.669,4.026-2.669,6.442
			c0,2.417,0.96,4.733,2.668,6.442l225.449,225.449c5.336,5.335,12.342,8.003,19.348,8.003c6.997,0,13.994-2.662,19.319-7.988
			C514.668,493.356,514.661,476.01,503.997,465.346z M491.128,491.129c-3.55,3.553-9.337,3.546-12.898-0.016L259.223,272.107
			l12.884-12.883l219.006,219.008C494.734,481.851,494.74,487.517,491.128,491.129z"/>
	</g>
</g>
<g>
</g>
<g>
</g>
<g>
</g>
<g>
</g>
<g>
</g>
<g>
</g>
<g>
</g>
<g>
</g>
<g>
</g>
<g>
</g>
<g>
</g>
<g>
</g>
<g>
</g>
<g>
</g>
<g>
</g>
</svg>
