<?xml version="1.0" encoding="iso-8859-1"?>
<!-- Generator: Adobe Illustrator 18.0.0, SVG Export Plug-In . SVG Version: 6.00 Build 0)  -->
<!DOCTYPE svg PUBLIC "-//W3C//DTD SVG 1.1//EN" "http://www.w3.org/Graphics/SVG/1.1/DTD/svg11.dtd">
<svg version="1.1" id="Capa_1" xmlns="http://www.w3.org/2000/svg" xmlns:xlink="http://www.w3.org/1999/xlink" x="0px" y="0px"
	 viewBox="0 0 415.663 415.663" style="enable-background:new 0 0 415.663 415.663;" xml:space="preserve">
<g>
	<path style="fill:#211915;" d="M273.71,144.564h-20.807c-5.522,0-10,4.477-10,10v41.313c0,5.523,4.478,10,10,10h79.499
		c4.202,0,7.956-2.627,9.396-6.575c1.438-3.948,0.257-8.375-2.96-11.079l-41.81-35.158
		C290.51,147.583,282.229,144.564,273.71,144.564z M262.904,185.877v-21.313h10.807c3.816,0,7.525,1.353,10.446,3.809l20.816,17.505
		H262.904z"/>
	<path style="fill:#211915;" d="M405.663,209.046c-5.522,0-10,4.477-10,10v36.169l-4.214,2.196v-55.052
		c0-9.999-4.411-19.397-12.104-25.785l-53.502-44.43c-17.977-14.929-40.745-23.15-64.112-23.15H64.823L48.046,90.963
		c-2.8-3.009-7.155-3.999-10.981-2.495c-3.825,1.504-6.34,5.196-6.34,9.306v11.923c-12.041,2.784-21.047,13.587-21.047,26.463
		v143.844C4.304,280.175,0,284.584,0,289.999c0,5.523,4.477,10,10,10h40.277c4.549,16.074,19.343,27.889,36.853,27.889
		s32.304-11.815,36.853-27.889h153.112c4.549,16.074,19.342,27.889,36.853,27.889s32.304-11.815,36.854-27.889h30.646
		c5.522,0,10-4.477,10-10v-10.285c0.644-0.183,1.281-0.418,1.897-0.739l16.938-8.828c3.305-1.723,5.378-5.141,5.378-8.868v-42.234
		C415.663,213.523,411.185,209.046,405.663,209.046z M295.645,289.584c0-10.093,8.211-18.304,18.304-18.304
		s18.305,8.211,18.305,18.304s-8.212,18.304-18.305,18.304S295.645,299.677,295.645,289.584z M313.949,251.28
		c-17.813,0-32.823,12.221-37.089,28.719H124.22c-4.266-16.498-19.277-28.719-37.09-28.719s-32.823,12.221-37.09,28.719H29.677
		V136.16c0-3.951,3.215-7.166,7.166-7.166h19.27l0.927,0.996l49.387,102.459c1.667,3.459,5.168,5.658,9.008,5.658h256.014v41.892
		h-20.41C346.773,263.501,331.761,251.28,313.949,251.28z M87.13,307.888c-10.093,0-18.304-8.211-18.304-18.304
		s8.211-18.304,18.304-18.304s18.304,8.211,18.304,18.304S97.223,307.888,87.13,307.888z M371.449,202.359v15.749H121.715
		l-42.953-89.114h182.969c18.71,0,36.941,6.583,51.335,18.537l53.502,44.43C369.669,194.536,371.449,198.326,371.449,202.359z"/>
</g>
<g>
</g>
<g>
</g>
<g>
</g>
<g>
</g>
<g>
</g>
<g>
</g>
<g>
</g>
<g>
</g>
<g>
</g>
<g>
</g>
<g>
</g>
<g>
</g>
<g>
</g>
<g>
</g>
<g>
</g>
</svg>
