<?xml version="1.0" encoding="iso-8859-1"?>
<!-- Generator: Adobe Illustrator 19.0.0, SVG Export Plug-In . SVG Version: 6.00 Build 0)  -->
<svg version="1.1" id="Layer_1" xmlns="http://www.w3.org/2000/svg" xmlns:xlink="http://www.w3.org/1999/xlink" x="0px" y="0px"
	 viewBox="0 0 512 512" style="enable-background:new 0 0 512 512;" xml:space="preserve">
<g>
	<g>
		<path d="M425.805,184.665l0.296-3.154c0.282-3.011-0.971-5.801-3.105-7.63c-12.322-30.602-60.047-54.53-123.008-62.219
			C286.637,19.459,270.292,1.424,254.935,0.074c-16.329-1.399-30.347,16.935-45.237,59.583
			c-8.465,24.241-14.29,48.322-15.789,54.746c-53.893,9.731-93.795,31.885-104.904,59.477c-2.134,1.829-3.387,4.619-3.105,7.63
			l0.296,3.154c-0.202,1.643-0.335,3.294-0.335,4.965c0,4.288,0.68,8.487,1.98,12.577l23.254,248.038
			c1.213,12.955,10.949,26.931,22.697,32.636C138.187,485.268,188.96,512,256,512c66.776,0,117.413-26.522,122.157-29.09
			c11.764-5.542,21.517-19.516,22.75-32.664l23.254-248.04c1.3-4.091,1.98-8.289,1.98-12.577
			C426.14,187.959,426.007,186.307,425.805,184.665z M300.42,334.602c0.122,2.548,0.243,5.093,0.362,7.671
			c0.223,4.8,4.182,8.542,8.94,8.542c0.14,0,0.28-0.003,0.42-0.01c4.941-0.227,8.76-4.417,8.533-9.358
			c-0.11-2.399-0.225-4.735-0.337-7.101c10.598,3.6,18.255,13.625,18.255,25.424c0,14.813-12.05,26.864-26.864,26.864
			s-26.864-12.052-26.864-26.864C282.864,348.233,290.188,338.4,300.42,334.602z M307.151,171.651
			c13.101,5.415,20.487,12.349,20.487,17.978c0,5.404-6.627,11.756-17.351,16.711C309.273,194.088,308.228,182.516,307.151,171.651z
			 M292.744,212.308c-11.058,2.718-23.605,4.185-36.744,4.185c-43.731,0-71.638-15.911-71.638-26.864
			c0-5.562,7.007-12.131,18.288-17.144c14.101-6.268,33.049-9.72,53.35-9.72c12.13,0,23.037,1.227,32.474,3.231
			C289.977,180.442,291.4,195.88,292.744,212.308z M226.65,65.437c16.132-46.154,26.554-47.521,26.718-47.521
			c0.114,0.01,11.48,1.71,23.305,63.33c1.674,8.724,3.286,18.286,4.837,28.66c-8.306-0.569-16.82-0.87-25.51-0.87
			c-14.892,0-29.279,0.863-42.958,2.491C215.607,101.297,220.438,83.206,226.65,65.437z M104.236,185.237
			c5.547-28.931,65.096-58.291,151.764-58.291c9.709,0,19.055,0.389,28.047,1.084c0.811,6.182,1.602,12.621,2.376,19.29
			c-9.421-1.596-19.637-2.464-30.423-2.464c-51.05,0-89.547,19.248-89.547,44.774S204.95,234.403,256,234.403
			c13.816,0,26.7-1.42,38.163-3.983c0.483,6.44,0.955,13.016,1.416,19.732c-12.422,1.394-25.646,2.16-39.579,2.16
			c-82.248,0-140.096-26.442-150.525-53.866L104.236,185.237z M383.076,448.574c-0.636,6.781-6.679,15.451-12.676,18.193
			c-0.208,0.094-0.409,0.196-0.608,0.305c-0.49,0.271-49.682,27.019-113.793,27.019c-63.879,0-113.31-26.753-113.793-27.019
			c-0.162-0.089-0.326-0.173-0.492-0.251c-6.069-2.879-12.166-11.575-12.792-18.246L108.462,230.31
			c29.125,24.04,83.681,39.912,147.538,39.912c14.099,0,27.73-0.791,40.752-2.255c0.976,15.41,1.894,31.504,2.757,48.252
			c-19.773,4.641-34.554,22.383-34.554,43.551c0,24.688,20.085,44.774,44.774,44.774s44.774-20.086,44.774-44.774
			c0-22.06-16.052-40.401-37.081-44.064c-0.906-17.698-1.859-34.421-2.855-50.216c37.974-6.401,69.279-18.923,88.972-35.178
			L383.076,448.574z M406.526,198.446c-7.788,20.48-42.039,40.397-93.135,49.178c-0.527-7.724-1.066-15.212-1.615-22.47
			c20.818-8.051,33.771-20.729,33.771-35.525c0-16.329-15.77-30.079-40.487-37.874c-0.847-7.629-1.71-14.898-2.588-21.795
			c60.963,8.192,100.803,31.869,105.291,55.277L406.526,198.446z"/>
	</g>
</g>
<g>
</g>
<g>
</g>
<g>
</g>
<g>
</g>
<g>
</g>
<g>
</g>
<g>
</g>
<g>
</g>
<g>
</g>
<g>
</g>
<g>
</g>
<g>
</g>
<g>
</g>
<g>
</g>
<g>
</g>
</svg>
