<?xml version="1.0" encoding="iso-8859-1"?>
<!-- Generator: Adobe Illustrator 19.0.0, SVG Export Plug-In . SVG Version: 6.00 Build 0)  -->
<svg version="1.1" id="Layer_1" xmlns="http://www.w3.org/2000/svg" xmlns:xlink="http://www.w3.org/1999/xlink" x="0px" y="0px"
	 viewBox="0 0 512 512" style="enable-background:new 0 0 512 512;" xml:space="preserve">
<g>
	<g>
		<path d="M502.34,0H9.66C4.325,0,0,4.325,0,9.66V502.34c0,5.335,4.325,9.66,9.66,9.66H502.34c5.335,0,9.66-4.325,9.66-9.66V9.66
			C512,4.325,507.675,0,502.34,0z M492.679,492.679H19.321V19.321h473.359V492.679z"/>
	</g>
</g>
<g>
	<g>
		<path d="M355.502,177.75L268.559,61.825c-1.826-2.432-4.689-3.863-7.729-3.863s-5.903,1.432-7.729,3.863L166.158,177.75
			c-2.196,2.929-2.547,6.844-0.913,10.118c1.637,3.271,4.984,5.339,8.641,5.339h48.302v260.83c0,5.335,4.325,9.66,9.66,9.66h57.962
			c5.335,0,9.66-4.325,9.66-9.66v-260.83h48.302c3.658,0,7.005-2.068,8.641-5.339C358.05,184.594,357.698,180.68,355.502,177.75z
			 M289.811,173.887c-5.335,0-9.66,4.325-9.66,9.66v260.83h-38.641v-260.83c0-5.335-4.325-9.66-9.66-9.66h-38.641l67.623-90.163
			l67.623,90.163H289.811z"/>
	</g>
</g>
<g>
</g>
<g>
</g>
<g>
</g>
<g>
</g>
<g>
</g>
<g>
</g>
<g>
</g>
<g>
</g>
<g>
</g>
<g>
</g>
<g>
</g>
<g>
</g>
<g>
</g>
<g>
</g>
<g>
</g>
</svg>
