<?xml version="1.0" encoding="iso-8859-1"?>
<!-- Generator: Adobe Illustrator 19.0.0, SVG Export Plug-In . SVG Version: 6.00 Build 0)  -->
<svg version="1.1" id="Layer_1" xmlns="http://www.w3.org/2000/svg" xmlns:xlink="http://www.w3.org/1999/xlink" x="0px" y="0px"
	 viewBox="0 0 512 512" style="enable-background:new 0 0 512 512;" xml:space="preserve">
<g>
	<g>
		<path d="M509.44,249.819L262.182,2.562c-3.416-3.415-8.95-3.415-12.364,0L2.56,249.819c-3.414,3.413-3.414,8.949,0,12.361
			l247.257,247.257c1.707,1.707,3.944,2.561,6.182,2.561c2.237,0,4.475-0.854,6.182-2.561L509.44,262.181
			c1.639-1.639,2.56-3.863,2.56-6.181S511.079,251.458,509.44,249.819z M256,490.894L21.105,256L256,21.106L490.896,256L256,490.894
			z"/>
	</g>
</g>
<g>
	<g>
		<path d="M333.005,215.891L263.07,119.73c-1.644-2.262-4.273-3.601-7.07-3.601c-2.797,0-5.425,1.338-7.07,3.601l-69.935,96.161
			c-1.934,2.659-2.212,6.179-0.72,9.109s4.502,4.774,7.79,4.774h34.968v139.87c0,4.828,3.914,8.742,8.742,8.742h52.451
			c4.828,0,8.742-3.914,8.742-8.742v-139.87h34.968c3.288,0,6.298-1.844,7.79-4.774S334.938,218.55,333.005,215.891z
			 M282.225,212.291c-4.828,0-8.742,3.914-8.742,8.742v139.87h-34.968v-139.87c0-4.828-3.914-8.742-8.742-8.742h-26.543L256,139.734
			l52.768,72.556H282.225z"/>
	</g>
</g>
<g>
</g>
<g>
</g>
<g>
</g>
<g>
</g>
<g>
</g>
<g>
</g>
<g>
</g>
<g>
</g>
<g>
</g>
<g>
</g>
<g>
</g>
<g>
</g>
<g>
</g>
<g>
</g>
<g>
</g>
</svg>
