<?xml version="1.0" encoding="iso-8859-1"?>
<!-- Generator: Adobe Illustrator 19.0.0, SVG Export Plug-In . SVG Version: 6.00 Build 0)  -->
<svg version="1.1" id="Layer_1" xmlns="http://www.w3.org/2000/svg" xmlns:xlink="http://www.w3.org/1999/xlink" x="0px" y="0px"
	 viewBox="0 0 512 512" style="enable-background:new 0 0 512 512;" xml:space="preserve">
<g>
	<g>
		<path d="M256,52.966C144.047,52.966,52.966,144.047,52.966,256S144.047,459.034,256,459.034S459.034,367.953,459.034,256
			S367.953,52.966,256,52.966z M256,441.379c-102.218,0-185.379-83.162-185.379-185.379S153.782,70.621,256,70.621
			S441.379,153.782,441.379,256S358.218,441.379,256,441.379z"/>
	</g>
</g>
<g>
	<g>
		<path d="M256,0C114.841,0,0,114.841,0,256s114.841,256,256,256s256-114.841,256-256S397.159,0,256,0z M256,494.345
			c-131.425,0-238.345-106.92-238.345-238.345S124.575,17.655,256,17.655S494.345,124.575,494.345,256S387.425,494.345,256,494.345z
			"/>
	</g>
</g>
<g>
</g>
<g>
</g>
<g>
</g>
<g>
</g>
<g>
</g>
<g>
</g>
<g>
</g>
<g>
</g>
<g>
</g>
<g>
</g>
<g>
</g>
<g>
</g>
<g>
</g>
<g>
</g>
<g>
</g>
</svg>
