<?xml version="1.0" encoding="iso-8859-1"?>
<!-- Generator: Adobe Illustrator 19.0.0, SVG Export Plug-In . SVG Version: 6.00 Build 0)  -->
<svg version="1.1" id="Layer_1" xmlns="http://www.w3.org/2000/svg" xmlns:xlink="http://www.w3.org/1999/xlink" x="0px" y="0px"
	 viewBox="0 0 512 512" style="enable-background:new 0 0 512 512;" xml:space="preserve">
<g>
	<g>
		<path d="M374.376,94.83c-0.242-2.614-1.636-4.985-3.803-6.47C336.758,65.205,297.138,52.966,256,52.966
			C144.046,52.966,52.966,144.047,52.966,256c0,41.138,12.239,80.759,35.394,114.573c1.483,2.166,3.854,3.56,6.468,3.802
			c0.273,0.026,0.545,0.039,0.817,0.039c2.329,0,4.578-0.922,6.241-2.586l269.943-269.942
			C373.684,100.03,374.618,97.444,374.376,94.83z M97.14,351.606C79.757,322.804,70.621,289.972,70.621,256
			c0-102.218,83.161-185.379,185.379-185.379c33.972,0,66.805,9.138,95.606,26.522L97.14,351.606z"/>
	</g>
</g>
<g>
	<g>
		<path d="M420.346,136.757c-1.518-2.088-3.875-3.407-6.449-3.61c-2.566-0.216-5.107,0.733-6.934,2.558L135.705,406.963
			c-1.825,1.825-2.761,4.36-2.558,6.933s1.522,4.931,3.611,6.448c34.822,25.31,76.056,38.69,119.243,38.69
			c111.954,0,203.034-91.082,203.034-203.034C459.034,212.817,445.656,171.584,420.346,136.757z M256,441.379
			c-35.947,0-70.406-10.147-100.299-29.444l256.233-256.235c19.298,29.894,29.445,64.355,29.445,100.299
			C441.379,358.218,358.219,441.379,256,441.379z"/>
	</g>
</g>
<g>
	<g>
		<path d="M256,0C114.842,0,0,114.841,0,256s114.842,256,256,256s256-114.841,256-256S397.158,0,256,0z M256,494.345
			c-131.424,0-238.345-106.92-238.345-238.345S124.576,17.655,256,17.655S494.345,124.575,494.345,256S387.424,494.345,256,494.345z
			"/>
	</g>
</g>
<g>
</g>
<g>
</g>
<g>
</g>
<g>
</g>
<g>
</g>
<g>
</g>
<g>
</g>
<g>
</g>
<g>
</g>
<g>
</g>
<g>
</g>
<g>
</g>
<g>
</g>
<g>
</g>
<g>
</g>
</svg>
