<?xml version="1.0" encoding="iso-8859-1"?>
<!-- Generator: Adobe Illustrator 19.0.0, SVG Export Plug-In . SVG Version: 6.00 Build 0)  -->
<svg version="1.1" id="Layer_1" xmlns="http://www.w3.org/2000/svg" xmlns:xlink="http://www.w3.org/1999/xlink" x="0px" y="0px"
	 viewBox="0 0 512.001 512.001" style="enable-background:new 0 0 512.001 512.001;" xml:space="preserve">
<g>
	<g>
		<path d="M509.088,87.276L424.726,2.913c-2.166-2.164-5.211-3.215-8.246-2.838c-3.039,0.375-5.736,2.128-7.311,4.753L366.988,75.13
			c-2.346,3.911-1.731,8.919,1.495,12.145l-344.48,344.48c-1.091,1.092-1.914,2.422-2.402,3.887l-21.09,63.272
			c-1.191,3.572-0.261,7.511,2.402,10.174c1.896,1.894,4.436,2.912,7.032,2.912c1.052,0,2.113-0.166,3.143-0.51L76.359,490.4
			c1.464-0.489,2.794-1.311,3.886-2.402l344.479-344.482v0.001c3.228,3.226,8.235,3.841,12.146,1.495l70.302-42.18
			c2.625-1.575,4.378-4.272,4.753-7.311C512.299,92.483,511.251,89.441,509.088,87.276z M433.297,123.968l-1.541-1.543
			c-1.865-1.864-4.393-2.912-7.031-2.912c-2.637,0-5.165,1.047-7.031,2.912L67.845,472.277l-42.181,14.06l14.06-42.182
			L389.574,94.307c3.882-3.882,3.882-10.178,0-14.06l-1.541-1.541l31.636-52.727l66.354,66.354L433.297,123.968z"/>
	</g>
</g>
<g>
</g>
<g>
</g>
<g>
</g>
<g>
</g>
<g>
</g>
<g>
</g>
<g>
</g>
<g>
</g>
<g>
</g>
<g>
</g>
<g>
</g>
<g>
</g>
<g>
</g>
<g>
</g>
<g>
</g>
</svg>
