<?xml version="1.0" encoding="iso-8859-1"?>
<!-- Generator: Adobe Illustrator 19.0.0, SVG Export Plug-In . SVG Version: 6.00 Build 0)  -->
<svg version="1.1" id="Layer_1" xmlns="http://www.w3.org/2000/svg" xmlns:xlink="http://www.w3.org/1999/xlink" x="0px" y="0px"
	 viewBox="0 0 512 512" style="enable-background:new 0 0 512 512;" xml:space="preserve">
<g>
	<g>
		<path d="M498.878,435.407L192.689,129.219c11.391-35.144,2.231-73.934-24.123-100.287C140.803,1.168,99.234-7.513,62.674,6.816
			c-2.82,1.104-4.893,3.557-5.511,6.522c-0.62,2.964,0.296,6.041,2.439,8.183l57.097,57.099l-38.08,38.082L21.52,59.601
			c-2.141-2.143-5.218-3.055-8.183-2.439c-2.963,0.619-5.415,2.692-6.522,5.512c-14.328,36.564-5.647,78.129,22.118,105.894
			c26.354,26.354,65.146,35.514,100.286,24.121l306.189,306.189c8.748,8.749,20.238,13.123,31.732,13.123
			c11.492,0,22.986-4.375,31.736-13.125C516.374,481.377,516.374,452.905,498.878,435.407z M137.897,175.978
			c-1.716-1.715-4.01-2.629-6.349-2.629c-1.1,0-2.209,0.203-3.272,0.619c-29.922,11.725-63.932,4.622-86.651-18.097
			c-19.295-19.295-27.327-46.737-22.122-72.901l52.769,52.771c1.683,1.683,3.966,2.629,6.346,2.629s4.663-0.946,6.346-2.629
			l50.775-50.776c3.506-3.506,3.506-9.189,0-12.695L82.971,19.502c26.166-5.201,53.606,2.83,72.902,22.126
			c22.716,22.716,29.821,56.728,18.095,86.649c-1.302,3.322-0.513,7.099,2.012,9.622l124.466,124.466l-38.082,38.081
			L137.897,175.978z M275.057,313.139l38.082-38.081l14.234,14.234l-38.082,38.081L275.057,313.139z M486.183,486.181
			c-10.499,10.499-27.583,10.504-38.082,0.002L301.986,340.068l38.082-38.082l146.115,146.115
			C496.682,458.6,496.68,475.683,486.183,486.181z"/>
	</g>
</g>
<g>
	<g>
		<circle cx="463.769" cy="461.794" r="17.952"/>
	</g>
</g>
<g>
</g>
<g>
</g>
<g>
</g>
<g>
</g>
<g>
</g>
<g>
</g>
<g>
</g>
<g>
</g>
<g>
</g>
<g>
</g>
<g>
</g>
<g>
</g>
<g>
</g>
<g>
</g>
<g>
</g>
</svg>
