<?xml version="1.0" encoding="iso-8859-1"?>
<!-- Generator: Adobe Illustrator 19.0.0, SVG Export Plug-In . SVG Version: 6.00 Build 0)  -->
<svg version="1.1" id="Layer_1" xmlns="http://www.w3.org/2000/svg" xmlns:xlink="http://www.w3.org/1999/xlink" x="0px" y="0px"
	 viewBox="0 0 512 512" style="enable-background:new 0 0 512 512;" xml:space="preserve">
<g>
	<g>
		<path d="M431.686,125.49c-19.655,0-37.673,7.108-51.648,18.874l-266.12-98.563c-0.463-0.172-0.933-0.265-1.402-0.365
			c-10.394-18.129-29.928-30.377-52.281-30.377C27.022,15.059,0,42.08,0,75.294c0,22.355,12.25,41.889,30.38,52.283
			c0.099,0.463,0.189,0.926,0.357,1.384l70.275,190.745c0.2,0.542,0.447,1.051,0.726,1.536
			c-13.453,18.298-21.424,40.866-21.424,65.268c0,60.892,49.539,110.431,110.431,110.431c60.892,0,110.431-49.539,110.431-110.431
			c0-7.961-0.866-15.719-2.474-23.206l108.771-79.106c0.564-0.41,1.072-0.868,1.524-1.364c7.2,2.124,14.81,3.284,22.689,3.284
			c44.284,0,80.314-36.028,80.314-80.314C512,161.518,475.971,125.49,431.686,125.49z M120.189,69.536l245.305,90.853
			c-4.657,6.766-8.301,14.277-10.719,22.316L116.445,96.907c2.591-6.714,4.026-13.997,4.026-21.613
			C120.471,73.351,120.369,71.432,120.189,69.536z M351.447,202.847c-0.036,0.983-0.075,1.965-0.075,2.957
			c0,7.85,1.152,15.431,3.262,22.608l-98.661,69.063c-18.291-13.436-40.843-21.396-65.228-21.396c-4.369,0-8.671,0.284-12.909,0.779
			l-61.729-158.733L351.447,202.847z M20.078,75.294c0-22.142,18.015-40.157,40.157-40.157c22.142,0,40.157,18.015,40.157,40.157
			c0,22.142-18.015,40.157-40.157,40.157C38.093,115.451,20.078,97.436,20.078,75.294z M54.448,135.246
			c1.906,0.182,3.835,0.284,5.787,0.284c13.64,0,26.232-4.564,36.34-12.237l61.352,157.763
			c-15.419,4.809-29.393,12.919-41.104,23.492L54.448,135.246z M190.745,476.863c-49.821,0-90.353-40.532-90.353-90.353
			c0-49.821,40.532-90.353,90.353-90.353s90.353,40.532,90.353,90.353C281.098,436.331,240.566,476.863,190.745,476.863z
			 M292.292,343.14c-5.087-11.864-12.203-22.651-20.896-31.953l91.471-64.029c6.361,10.545,15.083,19.502,25.418,26.169
			L292.292,343.14z M431.686,266.039c-33.213,0-60.235-27.021-60.235-60.235c0-33.214,27.022-60.235,60.235-60.235
			c33.213,0,60.235,27.021,60.235,60.235C491.922,239.018,464.9,266.039,431.686,266.039z"/>
	</g>
</g>
<g>
</g>
<g>
</g>
<g>
</g>
<g>
</g>
<g>
</g>
<g>
</g>
<g>
</g>
<g>
</g>
<g>
</g>
<g>
</g>
<g>
</g>
<g>
</g>
<g>
</g>
<g>
</g>
<g>
</g>
</svg>
