<?xml version="1.0" encoding="iso-8859-1"?>
<!-- Generator: Adobe Illustrator 19.0.0, SVG Export Plug-In . SVG Version: 6.00 Build 0)  -->
<svg version="1.1" id="Layer_1" xmlns="http://www.w3.org/2000/svg" xmlns:xlink="http://www.w3.org/1999/xlink" x="0px" y="0px"
	 viewBox="0 0 512 512" style="enable-background:new 0 0 512 512;" xml:space="preserve">
<g>
	<g>
		<path d="M371.111,247.467V59.752C371.111,26.804,344.301,0,311.345,0H200.478c-32.956,0-59.767,26.804-59.767,59.752v392.496
			c0,32.948,26.81,59.752,59.767,59.752h110.867c32.956,0,59.767-26.804,59.767-59.752V264.533h0.177v-17.067H371.111z
			 M354.045,452.248c0,23.537-19.154,42.685-42.7,42.685H200.478c-23.546,0-42.7-19.148-42.7-42.685V264.533h196.267V452.248z
			 M354.045,247.467H157.778V59.752c0-23.536,19.154-42.685,42.7-42.685h110.867c23.546,0,42.7,19.149,42.7,42.685V247.467z"/>
	</g>
</g>
<g>
	<g>
		<path d="M294.349,119.467h-0.038V85.348c0-18.829-15.348-34.148-34.212-34.148h-8.375c-18.865,0-34.212,15.319-34.212,34.148
			v34.119h-0.038c-9.389,0-17.029,7.645-17.029,17.042v51.25c0,9.397,7.64,17.042,17.029,17.042h76.875
			c9.389,0,17.029-7.645,17.029-17.042v-51.25C311.378,127.111,303.738,119.467,294.349,119.467z M234.578,85.348
			c0-9.419,7.692-17.081,17.146-17.081h8.375c9.454,0,17.146,7.663,17.146,17.081v34.119h-42.667V85.348z M217.512,187.758v-51.225
			l8.506-0.003c0.009,0,0.018,0.003,0.028,0.003h59.733c0.076,0,0.146-0.02,0.221-0.022l8.313-0.003l0.038,51.225L217.512,187.758z"
			/>
	</g>
</g>
<g>
	<g>
		<path d="M294.349,366.933h-0.038v-34.119c0-18.829-15.348-34.148-34.212-34.148h-8.375c-18.865,0-34.212,15.276-34.212,34.053
			v8.614c0,4.713,3.821,8.533,8.533,8.533s8.533-3.821,8.533-8.533v-8.614c0-9.367,7.692-16.986,17.146-16.986h8.375
			c9.454,0,17.146,7.663,17.146,17.081v34.119h-51.2h-8.571c-9.389,0-17.029,7.646-17.029,17.042v51.25
			c0,9.396,7.64,17.042,17.029,17.042h76.875c9.389,0,17.029-7.646,17.029-17.042v-51.25
			C311.378,374.579,303.738,366.933,294.349,366.933z M217.512,435.225V384l8.506-0.003c0.009,0,0.018,0.003,0.028,0.003h59.733
			c0.076,0,0.146-0.02,0.221-0.022l8.313-0.003l0.038,51.225L217.512,435.225z"/>
	</g>
</g>
<g>
</g>
<g>
</g>
<g>
</g>
<g>
</g>
<g>
</g>
<g>
</g>
<g>
</g>
<g>
</g>
<g>
</g>
<g>
</g>
<g>
</g>
<g>
</g>
<g>
</g>
<g>
</g>
<g>
</g>
</svg>
