<?xml version="1.0" encoding="iso-8859-1"?>
<!-- Generator: Adobe Illustrator 19.0.0, SVG Export Plug-In . SVG Version: 6.00 Build 0)  -->
<svg version="1.1" id="Layer_1" xmlns="http://www.w3.org/2000/svg" xmlns:xlink="http://www.w3.org/1999/xlink" x="0px" y="0px"
	 viewBox="0 0 512 512" style="enable-background:new 0 0 512 512;" xml:space="preserve">
<g>
	<g>
		<path d="M510.865,475.587l-246.857-448c-1.608-2.917-4.676-4.73-8.008-4.73c-3.331,0-6.4,1.813-8.008,4.73l-246.857,448
			c-1.56,2.833-1.509,6.279,0.136,9.062c1.645,2.786,4.638,4.493,7.872,4.493h493.714c3.233,0,6.227-1.708,7.872-4.493
			C512.374,481.866,512.425,478.42,510.865,475.587z M24.619,470.857L256,50.944l231.381,419.913H24.619z"/>
	</g>
</g>
<g>
	<g>
		<path d="M437.8,439.161L264.086,110.018c-1.583-2.998-4.695-4.875-8.086-4.875c-3.391,0-6.504,1.877-8.086,4.875L74.2,439.161
			c-1.496,2.835-1.398,6.245,0.257,8.989c1.654,2.743,4.625,4.422,7.829,4.422h347.429c3.204,0,6.175-1.679,7.829-4.422
			C439.199,445.406,439.296,441.996,437.8,439.161z M97.449,434.286L256,133.873l158.551,300.413H97.449z"/>
	</g>
</g>
<g>
	<g>
		<path d="M338.286,315.429h-19.488l8.809-13.214c2.801-4.201,1.666-9.877-2.536-12.679c-4.206-2.808-9.881-1.665-12.679,2.536
			l-15.571,23.357h-5.454c-3.318-12.819-13.406-22.907-26.225-26.225v-5.453l23.357-15.571c4.202-2.801,5.337-8.478,2.536-12.679
			c-2.799-4.201-8.478-5.339-12.679-2.536l-13.214,8.809v-19.488c0-5.049-4.094-9.143-9.143-9.143c-5.049,0-9.143,4.094-9.143,9.143
			v19.488l-13.214-8.809c-4.206-2.806-9.881-1.667-12.679,2.536c-2.801,4.201-1.666,9.877,2.536,12.679l23.357,15.571v5.453
			c-12.819,3.318-22.907,13.406-26.225,26.225h-5.454l-15.571-23.357c-2.799-4.201-8.478-5.339-12.679-2.536
			c-4.202,2.801-5.337,8.478-2.536,12.679l8.809,13.215h-19.488c-5.049,0-9.143,4.094-9.143,9.143s4.094,9.143,9.143,9.143h19.488
			l-8.809,13.214c-2.801,4.201-1.666,9.877,2.536,12.679c1.559,1.04,3.32,1.536,5.062,1.536c2.955,0,5.855-1.429,7.616-4.071
			l15.571-23.357h5.454c3.318,12.819,13.406,22.907,26.225,26.225v5.453L223.5,380.964c-4.202,2.801-5.337,8.478-2.536,12.679
			c2.8,4.201,8.477,5.339,12.679,2.536l13.214-8.809v19.488c0,5.049,4.094,9.143,9.143,9.143c5.049,0,9.143-4.094,9.143-9.143
			v-19.488l13.214,8.809c1.559,1.04,3.32,1.536,5.062,1.536c2.955,0,5.855-1.429,7.616-4.071c2.801-4.201,1.666-9.877-2.536-12.679
			l-23.357-15.571v-5.453c12.819-3.318,22.907-13.406,26.225-26.225h5.454l15.571,23.357c1.761,2.643,4.661,4.071,7.616,4.071
			c1.742,0,3.504-0.495,5.062-1.536c4.202-2.801,5.337-8.478,2.536-12.679l-8.809-13.214h19.488c5.049,0,9.143-4.094,9.143-9.143
			S343.335,315.429,338.286,315.429z M256,342.857c-10.083,0-18.286-8.203-18.286-18.286s8.203-18.286,18.286-18.286
			c10.083,0,18.286,8.203,18.286,18.286S266.083,342.857,256,342.857z"/>
	</g>
</g>
<g>
</g>
<g>
</g>
<g>
</g>
<g>
</g>
<g>
</g>
<g>
</g>
<g>
</g>
<g>
</g>
<g>
</g>
<g>
</g>
<g>
</g>
<g>
</g>
<g>
</g>
<g>
</g>
<g>
</g>
</svg>
