<?xml version="1.0" encoding="iso-8859-1"?>
<!-- Generator: Adobe Illustrator 19.0.0, SVG Export Plug-In . SVG Version: 6.00 Build 0)  -->
<svg version="1.1" id="Layer_1" xmlns="http://www.w3.org/2000/svg" xmlns:xlink="http://www.w3.org/1999/xlink" x="0px" y="0px"
	 viewBox="0 0 512 512" style="enable-background:new 0 0 512 512;" xml:space="preserve">
<g>
	<g>
		<path d="M497.509,0H14.491C9.156,0,4.83,4.325,4.83,9.66V502.34c0,5.335,4.325,9.66,9.66,9.66h483.019
			c5.335,0,9.66-4.325,9.66-9.66V9.66C507.17,4.325,502.844,0,497.509,0z M487.849,492.679H24.151V19.321h463.698V492.679z"/>
	</g>
</g>
<g>
	<g>
		<path d="M381.585,106.264h-67.623c-5.335,0-9.66,4.325-9.66,9.66v86.943h-86.943v-86.943c0-5.335-4.325-9.66-9.66-9.66h-67.623
			c-5.335,0-9.66,4.325-9.66,9.66v251.17c0,5.335,4.325,9.66,9.66,9.66h67.623c5.335,0,9.66-4.325,9.66-9.66v-77.283h86.943v77.283
			c0,5.335,4.325,9.66,9.66,9.66h67.623c5.335,0,9.66-4.325,9.66-9.66v-251.17C391.245,110.59,386.92,106.264,381.585,106.264z
			 M371.925,357.434h-48.302v-77.283c0-5.335-4.325-9.66-9.66-9.66H207.698c-5.335,0-9.66,4.325-9.66,9.66v77.283h-48.302V125.585
			h48.302v86.943c0,5.335,4.325,9.66,9.66,9.66h106.264c5.335,0,9.66-4.325,9.66-9.66v-86.943h48.302V357.434z"/>
	</g>
</g>
<g>
</g>
<g>
</g>
<g>
</g>
<g>
</g>
<g>
</g>
<g>
</g>
<g>
</g>
<g>
</g>
<g>
</g>
<g>
</g>
<g>
</g>
<g>
</g>
<g>
</g>
<g>
</g>
<g>
</g>
</svg>
