<?xml version="1.0" encoding="iso-8859-1"?>
<!-- Generator: Adobe Illustrator 19.0.0, SVG Export Plug-In . SVG Version: 6.00 Build 0)  -->
<svg version="1.1" id="Layer_1" xmlns="http://www.w3.org/2000/svg" xmlns:xlink="http://www.w3.org/1999/xlink" x="0px" y="0px"
	 viewBox="0 0 512 512" style="enable-background:new 0 0 512 512;" xml:space="preserve">
<g>
	<g>
		<path d="M184.32,30.72c-5.655,0-10.24,4.585-10.24,10.24V307.2c0,5.655,4.585,10.24,10.24,10.24s10.24-4.585,10.24-10.24V40.96
			C194.56,35.305,189.975,30.72,184.32,30.72z"/>
	</g>
</g>
<g>
	<g>
		<path d="M235.52,30.72c-5.655,0-10.24,4.585-10.24,10.24V307.2c0,5.655,4.585,10.24,10.24,10.24s10.24-4.585,10.24-10.24V40.96
			C245.76,35.305,241.175,30.72,235.52,30.72z"/>
	</g>
</g>
<g>
	<g>
		<path d="M286.72,30.72c-5.655,0-10.24,4.585-10.24,10.24V307.2c0,5.655,4.585,10.24,10.24,10.24c5.655,0,10.24-4.585,10.24-10.24
			V40.96C296.96,35.305,292.375,30.72,286.72,30.72z"/>
	</g>
</g>
<g>
	<g>
		<path d="M337.92,30.72c-5.655,0-10.24,4.585-10.24,10.24V307.2c0,5.655,4.585,10.24,10.24,10.24s10.24-4.585,10.24-10.24V40.96
			C348.16,35.305,343.575,30.72,337.92,30.72z"/>
	</g>
</g>
<g>
	<g>
		<path d="M409,327.997L389.1,9.601C388.763,4.205,384.287,0,378.88,0H143.36c-5.407,0-9.883,4.205-10.22,9.601L113.26,327.68
			h-5.739c-19.762,0-35.841,16.078-35.841,35.84c0,19.762,16.079,35.84,35.841,35.84h15.359v102.4c0,5.655,4.585,10.24,10.24,10.24
			h256c5.655,0,10.24-4.585,10.24-10.24v-102.4h5.119c19.762,0,35.841-16.078,35.841-35.84
			C440.32,345.292,426.631,330.231,409,327.997z M152.98,20.48h216.28l19.2,307.2H133.78L152.98,20.48z M378.88,491.52H143.36
			v-92.16h235.52V491.52z M404.479,378.88H389.12h-256h-25.599c-8.47,0-15.361-6.89-15.361-15.36c0-8.47,6.891-15.36,15.361-15.36
			h15.359h276.48h5.119c8.47,0,15.361,6.89,15.361,15.36C419.84,371.99,412.949,378.88,404.479,378.88z"/>
	</g>
</g>
<g>
</g>
<g>
</g>
<g>
</g>
<g>
</g>
<g>
</g>
<g>
</g>
<g>
</g>
<g>
</g>
<g>
</g>
<g>
</g>
<g>
</g>
<g>
</g>
<g>
</g>
<g>
</g>
<g>
</g>
</svg>
