<?xml version="1.0" encoding="iso-8859-1"?>
<!-- Generator: Adobe Illustrator 19.0.0, SVG Export Plug-In . SVG Version: 6.00 Build 0)  -->
<svg version="1.1" id="Layer_1" xmlns="http://www.w3.org/2000/svg" xmlns:xlink="http://www.w3.org/1999/xlink" x="0px" y="0px"
	 viewBox="0 0 512 512" style="enable-background:new 0 0 512 512;" xml:space="preserve">
<g>
	<g>
		<path d="M332.351,0H256c-47.053,0-85.333,38.262-85.333,85.292v80.925c0,47.03,38.281,85.292,85.333,85.292h76.351
			c4.961,0,8.982-4.022,8.982-8.982V8.982C341.333,4.022,337.311,0,332.351,0z M323.368,233.544H256
			c-37.147,0-67.368-30.203-67.368-67.327V85.292c0-37.124,30.221-67.327,67.368-67.327h67.368V233.544z"/>
	</g>
</g>
<g>
	<g>
		<path d="M256,260.491h-76.351c-4.961,0-8.982,4.022-8.982,8.982v233.544c0,4.961,4.022,8.982,8.982,8.982H256
			c47.053,0,85.333-38.262,85.333-85.292v-80.925C341.333,298.753,303.053,260.491,256,260.491z M323.368,426.708
			c0,37.124-30.221,67.327-67.368,67.327h-67.368V278.456H256c37.147,0,67.368,30.203,67.368,67.327V426.708z"/>
	</g>
</g>
<g>
	<g>
		<path d="M467.061,98.807H386.27c-14.873,0-26.972,12.089-26.972,26.947c0,14.859,12.099,26.947,26.971,26.947h80.792
			c14.873,0,26.974-12.089,26.974-26.947C494.035,110.896,481.934,98.807,467.061,98.807z M467.061,134.737H386.27
			c-5.051,0-9.007-3.945-9.007-8.982c0-4.953,4.039-8.982,9.006-8.982h80.792c5.053,0,9.009,3.945,9.009,8.982
			C476.07,130.707,472.029,134.737,467.061,134.737z"/>
	</g>
</g>
<g>
	<g>
		<path d="M467.061,17.965H386.27c-14.873,0-26.972,12.089-26.972,26.947c0,14.859,12.099,26.947,26.971,26.947h80.792
			c14.873,0,26.974-12.089,26.974-26.947C494.035,30.054,481.934,17.965,467.061,17.965z M467.061,53.895H386.27
			c-5.05,0-9.006-3.945-9.006-8.982c0-4.953,4.039-8.982,9.006-8.982h80.792c5.053,0,9.009,3.945,9.009,8.982
			C476.07,49.865,472.028,53.895,467.061,53.895z"/>
	</g>
</g>
<g>
	<g>
		<path d="M467.061,179.649H386.27c-14.873,0-26.972,12.089-26.972,26.947c0,14.859,12.099,26.947,26.971,26.947h80.792
			c14.873,0,26.974-12.089,26.974-26.947C494.035,191.738,481.934,179.649,467.061,179.649z M467.061,215.579H386.27
			c-5.051,0-9.007-3.945-9.007-8.982c0-4.953,4.039-8.982,9.006-8.982h80.792c5.053,0,9.009,3.945,9.009,8.982
			C476.07,211.549,472.029,215.579,467.061,215.579z"/>
	</g>
</g>
<g>
	<g>
		<path d="M125.728,278.456H44.936c-14.873,0-26.971,12.089-26.971,26.947c0,14.859,12.099,26.947,26.971,26.947h80.792
			c14.873,0,26.974-12.089,26.974-26.947C152.702,290.545,140.601,278.456,125.728,278.456z M125.728,314.386H44.936
			c-5.05,0-9.006-3.945-9.006-8.982c0-4.953,4.039-8.982,9.006-8.982h80.792c5.053,0,9.009,3.945,9.009,8.982
			C134.737,310.356,130.695,314.386,125.728,314.386z"/>
	</g>
</g>
<g>
	<g>
		<path d="M125.728,359.298H44.936c-14.873,0-26.971,12.089-26.971,26.947c0,14.859,12.099,26.947,26.971,26.947h80.792
			c14.873,0,26.974-12.089,26.974-26.947C152.702,371.387,140.601,359.298,125.728,359.298z M125.728,395.228H44.936
			c-5.05,0-9.006-3.945-9.006-8.982c0-4.953,4.039-8.982,9.006-8.982h80.792c5.053,0,9.009,3.945,9.009,8.982
			C134.737,391.199,130.695,395.228,125.728,395.228z"/>
	</g>
</g>
<g>
	<g>
		<path d="M125.728,440.14H44.936c-14.873,0-26.971,12.089-26.971,26.947c0,14.859,12.099,26.947,26.971,26.947h80.792
			c14.873,0,26.974-12.089,26.974-26.947C152.702,452.229,140.601,440.14,125.728,440.14z M125.728,476.07H44.936
			c-5.05,0-9.006-3.945-9.006-8.982c0-4.953,4.039-8.982,9.006-8.982h80.792c5.053,0,9.009,3.945,9.009,8.982
			C134.737,472.041,130.695,476.07,125.728,476.07z"/>
	</g>
</g>
<g>
</g>
<g>
</g>
<g>
</g>
<g>
</g>
<g>
</g>
<g>
</g>
<g>
</g>
<g>
</g>
<g>
</g>
<g>
</g>
<g>
</g>
<g>
</g>
<g>
</g>
<g>
</g>
<g>
</g>
</svg>
