<?xml version="1.0" encoding="iso-8859-1"?>
<!-- Generator: Adobe Illustrator 19.0.0, SVG Export Plug-In . SVG Version: 6.00 Build 0)  -->
<svg version="1.1" id="Layer_1" xmlns="http://www.w3.org/2000/svg" xmlns:xlink="http://www.w3.org/1999/xlink" x="0px" y="0px"
	 viewBox="0 0 512 512" style="enable-background:new 0 0 512 512;" xml:space="preserve">
<g>
	<g>
		<path d="M509.459,220.304l-49.09-49.09c-2.036-2.036-4.95-2.926-7.778-2.384c-2.827,0.544-5.201,2.455-6.336,5.103l-17.75,41.417
			l-73.762,73.761c-0.516,0.516-0.927,1.093-1.286,1.692l-38.493-38.493l69.566-69.566l41.417-17.75
			c2.647-1.134,4.558-3.508,5.103-6.336c0.544-2.827-0.348-5.741-2.385-7.778l-49.09-49.09c-2.036-2.036-4.953-2.925-7.778-2.384
			c-2.827,0.545-5.201,2.455-6.336,5.103l-17.75,41.417l-69.566,69.565l-60.835-60.836l6.137-6.137
			c1.656-1.657,2.572-3.919,2.54-6.26c-0.004-0.353-0.348-35.466,11.248-57.145c12.071-22.568,47.773-58.403,48.132-58.762
			c2.457-2.456,3.211-6.143,1.916-9.368c-1.293-3.225-4.387-5.367-7.86-5.444c-1.101-0.029-27.551-0.456-53.722,12.629
			c-25.512,12.754-67.96,55.056-69.754,56.851l-79.771,79.771c-3.389,3.39-3.389,8.883,0,12.273l6.137,6.136l-30.682,30.681
			l-6.137-6.136c-3.388-3.388-8.882-3.388-12.272,0l-30.681,30.68C0.914,236.054,0,238.261,0,240.563s0.914,4.508,2.541,6.137
			l55.227,55.227c1.695,1.694,3.915,2.541,6.137,2.541c2.22,0,4.442-0.847,6.137-2.541l30.681-30.681
			c3.389-3.39,3.389-8.883,0-12.273l-6.137-6.136l30.681-30.681l6.137,6.136c3.388,3.388,8.882,3.388,12.272,0l24.544-24.544
			l61.123,61.123c-0.73,0.392-1.431,0.857-2.047,1.472L126.499,367.138c-0.659,0.66-1.208,1.422-1.625,2.255l-24.545,49.091
			c-1.671,3.34-1.016,7.375,1.625,10.017c1.667,1.666,3.888,2.541,6.139,2.541c1.318,0,2.646-0.3,3.879-0.916l49.09-24.546
			c0.834-0.417,1.595-0.966,2.255-1.625L264.115,303.16c0.616-0.616,1.08-1.317,1.472-2.046l38.577,38.577l-96.872,96.872
			c-0.659,0.66-1.208,1.422-1.625,2.255l-24.545,49.091c-1.67,3.34-1.016,7.375,1.625,10.017c1.667,1.666,3.888,2.541,6.139,2.541
			c1.318,0,2.646-0.3,3.879-0.916l49.089-24.546c0.834-0.417,1.595-0.966,2.255-1.625l96.873-96.873l91.136,91.136
			c6.535,6.536,15.231,10.133,24.492,10.133c0.008,0,0.017,0,0.025,0c9.268-0.006,17.982-3.619,24.535-10.171
			c13.534-13.535,13.552-35.539,0.039-49.052l-91.34-91.34c0.599-0.359,1.175-0.769,1.692-1.285l73.761-73.762l41.418-17.75
			c2.647-1.134,4.558-3.508,5.103-6.336C512.388,225.255,511.495,222.341,509.459,220.304z M361.167,157.017
			c0.781-0.781,1.405-1.703,1.84-2.718l13.359-31.173l30.964,30.964l-31.173,13.359c-1.015,0.435-1.938,1.059-2.718,1.84
			l-70.748,70.747l-12.272-12.272L361.167,157.017z M137.54,209.882l-6.137-6.136c-3.388-3.388-8.882-3.388-12.272,0L76.177,246.7
			c-3.389,3.39-3.389,8.883,0,12.273l6.137,6.136l-18.409,18.409L20.95,240.563l18.409-18.408l6.137,6.136
			c3.388,3.388,8.882,3.388,12.272,0l42.954-42.953c1.627-1.628,2.541-3.835,2.541-6.137c0-2.302-0.914-4.508-2.541-6.137
			l-6.137-6.136l73.636-73.635c0.42-0.42,42.224-42.092,65.243-53.601c7.917-3.959,15.958-6.468,23.036-8.058
			c-11.854,13.103-26.977,31.099-34.57,45.293c-11.4,21.316-13.053,51.335-13.271,61.835L137.54,209.882z M251.842,290.886
			l-99.801,99.801l-24.545,12.273l12.272-24.545l99.801-99.801c0.616-0.616,1.08-1.317,1.472-2.047l12.846,12.846
			C253.158,289.806,252.458,290.271,251.842,290.886z M232.832,460.111l-24.544,12.273l12.272-24.545l95.877-95.876l12.271,12.271
			L232.832,460.111z M468.936,430.828c6.746,6.745,6.729,17.738-0.038,24.506c-3.279,3.277-7.638,5.085-12.275,5.088
			c-0.004,0-0.007,0-0.012,0c-4.624,0-8.964-1.794-12.219-5.05L180.493,191.474l24.546-24.545L468.936,430.828z M456.949,236.873
			c-1.015,0.435-1.938,1.059-2.718,1.84l-74.943,74.943c-0.516,0.516-0.926,1.092-1.285,1.691l-12.678-12.678
			c0.599-0.359,1.176-0.77,1.692-1.285l74.943-74.943c0.781-0.781,1.405-1.703,1.84-2.718l13.359-31.173l30.963,30.964
			L456.949,236.873z"/>
	</g>
</g>
<g>
</g>
<g>
</g>
<g>
</g>
<g>
</g>
<g>
</g>
<g>
</g>
<g>
</g>
<g>
</g>
<g>
</g>
<g>
</g>
<g>
</g>
<g>
</g>
<g>
</g>
<g>
</g>
<g>
</g>
</svg>
