<?xml version="1.0" encoding="iso-8859-1"?>
<!-- Generator: Adobe Illustrator 19.0.0, SVG Export Plug-In . SVG Version: 6.00 Build 0)  -->
<svg version="1.1" id="Layer_1" xmlns="http://www.w3.org/2000/svg" xmlns:xlink="http://www.w3.org/1999/xlink" x="0px" y="0px"
	 viewBox="0 0 512 512" style="enable-background:new 0 0 512 512;" xml:space="preserve">
<g>
	<g>
		<path d="M501.452,437.22L226.451,162.219l6.394-6.394c1.729-1.73,2.685-4.084,2.649-6.53c-0.007-0.367-0.406-36.872,11.721-59.544
			c12.578-23.517,49.783-60.859,50.156-61.234c2.561-2.56,3.347-6.401,1.998-9.762s-4.57-5.592-8.191-5.673
			c-1.15-0.026-28.721-0.47-55.983,13.161c-26.584,13.291-70.817,57.372-72.687,59.243l-83.127,83.127
			c-3.532,3.531-3.532,9.257,0,12.788l6.394,6.395l-31.973,31.972l-6.394-6.394c-3.532-3.53-9.259-3.53-12.787,0L2.649,245.346
			C0.954,247.041,0,249.342,0,251.74c0,2.399,0.954,4.698,2.649,6.395l57.55,57.55c1.696,1.696,3.996,2.648,6.394,2.648
			c2.398,0,4.698-0.953,6.394-2.648l31.971-31.972c3.532-3.532,3.532-9.257,0-12.788l-6.394-6.395l31.973-31.972l6.394,6.394
			c3.528,3.53,9.259,3.53,12.787,0l25.578-25.578l275.002,275.002c7.034,7.033,16.273,10.549,25.52,10.549
			c9.266,0,18.536-3.531,25.597-10.59C515.513,474.231,515.531,451.301,501.452,437.22z M143.324,219.769l-6.394-6.394
			c-3.528-3.53-9.259-3.53-12.787,0l-44.76,44.76c-3.532,3.531-3.532,9.257,0,12.788l6.394,6.395l-19.183,19.183L21.833,251.74
			l19.183-19.182l6.394,6.394c3.528,3.53,9.259,3.53,12.787,0l44.76-44.76c3.532-3.531,3.532-9.257,0-12.788l-6.394-6.395
			l76.733-76.732c0.437-0.438,44.001-43.863,67.988-55.856c8.25-4.125,16.629-6.74,24.005-8.397
			c-12.353,13.654-28.112,32.407-36.024,47.198c-11.88,22.212-13.602,53.494-13.832,64.436L143.324,219.769z M488.625,475.546
			c-7.056,7.051-18.51,7.07-25.54,0.04L188.087,200.586l25.577-25.577l275,274.999C495.692,457.038,495.674,468.494,488.625,475.546
			z"/>
	</g>
</g>
<g>
</g>
<g>
</g>
<g>
</g>
<g>
</g>
<g>
</g>
<g>
</g>
<g>
</g>
<g>
</g>
<g>
</g>
<g>
</g>
<g>
</g>
<g>
</g>
<g>
</g>
<g>
</g>
<g>
</g>
</svg>
