<?xml version="1.0" encoding="iso-8859-1"?>
<!-- Generator: Adobe Illustrator 19.0.0, SVG Export Plug-In . SVG Version: 6.00 Build 0)  -->
<svg version="1.1" id="Layer_1" xmlns="http://www.w3.org/2000/svg" xmlns:xlink="http://www.w3.org/1999/xlink" x="0px" y="0px"
	 viewBox="0 0 512 512" style="enable-background:new 0 0 512 512;" xml:space="preserve">
<g>
	<g>
		<path d="M509.649,42.1l-13.937-24.143c-4.812-8.332-15.507-11.198-23.844-6.385l-50.927,29.403
			c-4.052,2.338-6.943,6.107-8.146,10.612c-1.198,4.493-0.576,9.191,1.755,13.228l3.453,5.982l-14.245,9.496l-26.18-45.347
			c-9.605-16.627-30.924-22.354-47.532-12.765L96.367,157.099c-8.056,4.652-13.814,12.16-16.211,21.143
			c-2.392,8.971-1.149,18.348,3.501,26.402l12.076,20.917c-30.523,8.897-76.764,35.714-69.54,86.283
			c2.97,20.788,8.834,39.475,14.005,55.962c10.84,34.548,15.677,53.19-1.91,66.38c-5.911,4.434-11.001,8.064-15.495,11.266
			C8.617,455.56,0.805,461.129,0.053,470.189c-0.669,8.029,5.165,14.591,11.199,20.625c8.377,8.377,18.395,11.951,28.71,11.95
			c15.76-0.002,32.209-8.349,44.512-20.652c2.329-2.327,5.116-4.761,8.069-7.339c18.055-15.759,45.341-39.576,28.954-96.93
			l-1.188-4.158c-9.27-32.389-15.968-55.792-9.302-64.634c3.571-4.737,13.07-7.139,28.23-7.139c0.187,0,0.361-0.044,0.545-0.055
			l13.482,23.351c6.444,11.165,18.174,17.415,30.216,17.414c5.891,0,11.857-1.497,17.315-4.647l233.68-134.916
			c8.056-4.652,13.814-12.16,16.211-21.143c2.392-8.972,1.149-18.349-3.501-26.403l-34.706-60.112l14.244-9.496l1.764,3.057
			c3.229,5.592,9.106,8.721,15.144,8.721c2.958,0,5.957-0.753,8.7-2.336l50.924-29.402c4.052-2.338,6.945-6.107,8.148-10.612
			C512.603,50.836,511.98,46.139,509.649,42.1z M97.11,298.571c-11.889,15.769-4.98,39.909,6.465,79.901l1.188,4.149
			c13.351,46.729-6.314,63.894-23.666,79.038c-3.18,2.777-6.187,5.4-8.93,8.144c-13.801,13.802-34.899,22.413-48.611,8.702
			c-3.962-3.964-5.409-5.942-5.934-6.883c1.812-2.402,8.649-7.275,15.276-12c4.572-3.259,9.754-6.954,15.835-11.513
			c28.255-21.192,18.45-52.436,8.073-85.515c-4.976-15.855-10.612-33.825-13.383-53.214c-3.07-21.481,6.117-39.391,27.299-53.234
			c14.125-9.23,29.246-13.701,34.03-14.966l25.195,43.639C113.653,285.957,103.333,290.318,97.11,298.571z M432.113,164.213
			c2.328,4.034,2.952,8.727,1.754,13.214c-1.196,4.484-4.071,8.233-8.095,10.557L192.093,322.9
			c-8.299,4.791-18.958,1.92-23.757-6.396L98.729,195.942c-2.329-4.035-2.953-8.728-1.755-13.214
			c1.196-4.484,4.071-8.233,8.095-10.557L338.75,37.256c2.724-1.573,5.7-2.32,8.643-2.32c6.019,0,11.887,3.13,15.114,8.715
			l29.21,50.594c0.174,1.261,0.597,2.506,1.35,3.636c0.541,0.812,1.203,1.489,1.935,2.053L432.113,164.213z M443.562,80.258
			l-13.939-24.144l0.021-0.065L480.64,26.66l13.916,24.209L443.562,80.258z"/>
	</g>
</g>
<g>
</g>
<g>
</g>
<g>
</g>
<g>
</g>
<g>
</g>
<g>
</g>
<g>
</g>
<g>
</g>
<g>
</g>
<g>
</g>
<g>
</g>
<g>
</g>
<g>
</g>
<g>
</g>
<g>
</g>
</svg>
