<?xml version="1.0" encoding="iso-8859-1"?>
<!-- Generator: Adobe Illustrator 19.0.0, SVG Export Plug-In . SVG Version: 6.00 Build 0)  -->
<svg version="1.1" id="Layer_1" xmlns="http://www.w3.org/2000/svg" xmlns:xlink="http://www.w3.org/1999/xlink" x="0px" y="0px"
	 viewBox="0 0 512 512" style="enable-background:new 0 0 512 512;" xml:space="preserve">
<g>
	<g>
		<path d="M425.119,296.486c-0.278-3.845-7.252-94.771-47.617-146.67c-40.8-52.458-116.654-66.797-119.863-67.382
			c-0.541-0.099-1.091-0.148-1.64-0.148h-41.143V9.143c0-5.049-4.094-9.143-9.143-9.143H141.69
			c-15.111,0-27.404,12.305-27.404,27.429c0,15.124,12.293,27.429,27.404,27.429h9.167v27.429h-27.353
			c-20.208,0-36.647,16.426-36.647,36.616v356.482c0,20.19,16.403,36.616,36.565,36.616h265.156
			c20.162,0,36.565-16.404,36.565-36.567v-178.29C425.143,296.924,425.135,296.704,425.119,296.486z M141.69,36.571
			c-5.113,0-9.118-4.016-9.118-9.143c0-5.041,4.091-9.143,9.118-9.143h54.882v64h-27.429V45.714c0-5.049-4.094-9.143-9.143-9.143
			H141.69z M406.857,475.433c0,10.08-8.2,18.281-18.279,18.281H123.422c-10.079,0-18.279-8.223-18.279-18.33V118.902
			c0-10.107,8.237-18.33,18.362-18.33H160h45.714h49.393c7.779,1.593,73.525,16.194,107.962,60.47
			c35.847,46.091,43.32,130.709,43.788,136.459V475.433z"/>
	</g>
</g>
<g>
	<g>
		<path d="M342.857,323.787l40.358-40.358l-12.93-12.93l-40.358,40.358H182.072l-40.358-40.358l-12.93,12.93l40.358,40.358v92.998
			l-40.358,40.358l12.93,12.93l40.358-40.358h147.855l40.358,40.358l12.93-12.93l-40.358-40.358V323.787z M324.571,411.429H187.429
			v-82.286h137.143V411.429z"/>
	</g>
</g>
<g>
</g>
<g>
</g>
<g>
</g>
<g>
</g>
<g>
</g>
<g>
</g>
<g>
</g>
<g>
</g>
<g>
</g>
<g>
</g>
<g>
</g>
<g>
</g>
<g>
</g>
<g>
</g>
<g>
</g>
</svg>
