<?xml version="1.0" encoding="iso-8859-1"?>
<!-- Generator: Adobe Illustrator 19.0.0, SVG Export Plug-In . SVG Version: 6.00 Build 0)  -->
<svg version="1.1" id="Layer_1" xmlns="http://www.w3.org/2000/svg" xmlns:xlink="http://www.w3.org/1999/xlink" x="0px" y="0px"
	 viewBox="0 0 512 512" style="enable-background:new 0 0 512 512;" xml:space="preserve">
<g>
	<g>
		<path d="M375.436,0H265.708C240.505,0,220,20.478,220,45.647v8.962c-8.804,0.467-21.763,2.928-33.971,12.029
			c-16.413,12.237-26.493,32.5-29.957,60.228c-3.571,28.563-10.857,28.563-22.929,28.563c-17.962,0-35.931,3.442-41.071,44.58
			c-6.438,51.496,13.864,64.373,33.5,76.826c11.096,7.038,22.571,14.317,31.732,29.583c7.458,12.433,7.397,16.324,7.203,17.221
			c-0.277,1.263-3.938,3.676-7.167,5.806c-11.132,7.339-27.955,18.431-37.558,52.045c-6.674,23.355-5.031,41.862,4.884,55.005
			c15.573,20.65,45.839,20.65,58.763,20.65H220v9.21c0,25.17,20.504,45.647,45.708,45.647h109.728
			c25.203,0,45.708-20.478,45.708-45.647V45.647C421.143,20.478,400.639,0,375.436,0z M220.001,438.857h-36.572
			c-10.196,0-34.078,0-44.165-13.375c-6.275-8.317-6.913-21.429-1.902-38.971c7.743-27.1,20.107-35.25,30.043-41.801
			c16.605-10.946,21.674-20.875,5.578-47.699c-11.388-18.982-25.931-28.205-37.618-35.618
			c-18.799-11.924-30.147-19.123-25.149-59.116c3.571-28.562,10.857-28.562,22.928-28.562c17.962,0,35.931-3.442,41.072-44.58
			c2.808-22.46,10.386-38.498,22.527-47.672c8.218-6.21,17.115-8.071,23.259-8.532V438.857z M402.857,466.353
			c0,15.087-12.301,27.362-27.422,27.362H265.708c-15.12,0-27.422-12.275-27.422-27.362V384h36.571c5.049,0,9.143-4.094,9.143-9.143
			s-4.094-9.143-9.143-9.143h-36.571v-27.429h36.571c5.049,0,9.143-4.094,9.143-9.143S279.907,320,274.857,320h-36.571v-27.429
			h36.571c5.049,0,9.143-4.094,9.143-9.143s-4.094-9.143-9.143-9.143h-36.571v-27.429h36.571c5.049,0,9.143-4.094,9.143-9.143
			s-4.094-9.143-9.143-9.143h-36.571v-27.429h164.571V466.353z M402.858,182.857H238.286V45.647
			c0-15.087,12.301-27.362,27.422-27.362h109.728c15.12,0,27.422,12.275,27.422,27.362V182.857z"/>
	</g>
</g>
<g>
	<g>
		<path d="M320.572,45.714c-30.248,0-54.857,24.609-54.857,54.857c0,30.248,24.609,54.857,54.857,54.857
			c30.248,0,54.857-24.609,54.857-54.857C375.429,70.324,350.819,45.714,320.572,45.714z M320.572,137.143
			c-20.165,0-36.571-16.406-36.571-36.571C284,80.406,300.407,64,320.572,64c20.165,0,36.571,16.406,36.571,36.571
			C357.143,120.737,340.737,137.143,320.572,137.143z"/>
	</g>
</g>
<g>
</g>
<g>
</g>
<g>
</g>
<g>
</g>
<g>
</g>
<g>
</g>
<g>
</g>
<g>
</g>
<g>
</g>
<g>
</g>
<g>
</g>
<g>
</g>
<g>
</g>
<g>
</g>
<g>
</g>
</svg>
