<?xml version="1.0" encoding="iso-8859-1"?>
<!-- Generator: Adobe Illustrator 19.0.0, SVG Export Plug-In . SVG Version: 6.00 Build 0)  -->
<svg version="1.1" id="Layer_1" xmlns="http://www.w3.org/2000/svg" xmlns:xlink="http://www.w3.org/1999/xlink" x="0px" y="0px"
	 viewBox="0 0 512 512" style="enable-background:new 0 0 512 512;" xml:space="preserve">
<g>
	<g>
		<path d="M349.791,359.876c0.044-0.497,0.076-0.997,0.076-1.505V153.629c0-0.508-0.032-1.008-0.076-1.505
			c9.969-3.512,17.143-12.985,17.143-24.124c0-14.117-11.502-25.6-25.642-25.6h-51.159c0-0.007,0.001-0.014,0.001-0.021V17.088
			C290.133,7.665,282.513,0,273.146,0h-34.292c-9.367,0-16.988,7.665-16.988,17.088v85.292c0,0.007,0.001,0.014,0.001,0.021h-51.159
			c-14.14,0-25.642,11.483-25.642,25.6c0,11.139,7.174,20.612,17.143,24.124c-0.044,0.497-0.076,0.997-0.076,1.505v204.742
			c0,0.508,0.032,1.008,0.076,1.505c-9.969,3.512-17.143,12.985-17.143,24.124c0,14.117,11.502,25.6,25.642,25.6h51.159
			c0,0.007-0.001,0.014-0.001,0.021v85.292c0,9.423,7.621,17.088,16.988,17.088h34.292c9.367,0,16.987-7.665,16.987-17.088v-85.292
			c0-0.007-0.001-0.014-0.001-0.021h51.159c14.14,0,25.642-11.483,25.642-25.6C366.933,372.861,359.759,363.388,349.791,359.876z
			 M273.067,17.088l0.079,85.312l-34.212-0.021V17.088l-0.079-0.021L273.067,17.088z M162.133,128c0-4.706,3.846-8.533,8.575-8.533
			h68.146h34.292h68.146c4.808,0,8.575,3.748,8.575,8.533c0,4.706-3.846,8.533-8.575,8.533h-8.413h-34.292h-85.175h-34.292h-8.413
			C165.9,136.533,162.133,132.786,162.133,128z M298.588,153.6l34.212,0.029l0.079,204.771l-34.212-0.029V153.629L298.588,153.6z
			 M281.602,358.4h-51.203c0-0.01,0.001-0.019,0.001-0.029V153.629c0-0.01-0.001-0.019-0.001-0.029h51.203
			c0,0.01-0.002,0.019-0.002,0.029v204.742C281.6,358.381,281.602,358.39,281.602,358.4z M179.121,153.6l34.212,0.029l0.079,204.771
			l-34.212-0.029V153.629L179.121,153.6z M238.933,494.912v-85.292l-0.079-0.021l34.212,0.021l0.079,85.312L238.933,494.912z
			 M341.292,392.533h-68.146h-34.292h-68.146c-4.808,0-8.575-3.748-8.575-8.533c0-4.706,3.846-8.533,8.575-8.533h8.413h34.292
			h85.175h34.292h8.413c4.808,0,8.575,3.748,8.575,8.533C349.867,388.706,346.021,392.533,341.292,392.533z"/>
	</g>
</g>
<g>
</g>
<g>
</g>
<g>
</g>
<g>
</g>
<g>
</g>
<g>
</g>
<g>
</g>
<g>
</g>
<g>
</g>
<g>
</g>
<g>
</g>
<g>
</g>
<g>
</g>
<g>
</g>
<g>
</g>
</svg>
