<?xml version="1.0" encoding="iso-8859-1"?>
<!-- Generator: Adobe Illustrator 19.0.0, SVG Export Plug-In . SVG Version: 6.00 Build 0)  -->
<svg version="1.1" id="Layer_1" xmlns="http://www.w3.org/2000/svg" xmlns:xlink="http://www.w3.org/1999/xlink" x="0px" y="0px"
	 viewBox="0 0 512 512" style="enable-background:new 0 0 512 512;" xml:space="preserve">
<g>
	<g>
		<path d="M386.51,291.137c-21.448,0-41.473,6.167-58.435,16.79l-113.469-132.38c13.387-18.271,21.316-40.781,21.316-65.116
			C235.922,49.539,186.382,0,125.49,0C64.598,0,15.059,49.539,15.059,110.431c0,60.892,49.539,110.431,110.431,110.431
			c7.997,0,15.79-0.876,23.31-2.498l129.526,159.417c0.089,0.109,0.202,0.183,0.294,0.288c-1.65,7.577-2.542,15.434-2.542,23.499
			C276.078,462.461,325.618,512,386.51,512c60.892,0,110.431-49.539,110.431-110.431
			C496.941,340.677,447.402,291.137,386.51,291.137z M125.49,200.784c-49.821,0-90.353-40.532-90.353-90.353
			s40.532-90.353,90.353-90.353s90.353,40.532,90.353,90.353S175.311,200.784,125.49,200.784z M169.314,211.772
			c11.84-5.14,22.599-12.3,31.863-21.037l110.877,129.356c-10.843,9.917-19.686,21.974-25.902,35.482L169.314,211.772z
			 M386.51,491.922c-49.821,0-90.353-40.532-90.353-90.353c0-49.821,40.532-90.353,90.353-90.353
			c49.821,0,90.353,40.532,90.353,90.353C476.863,451.39,436.331,491.922,386.51,491.922z"/>
	</g>
</g>
<g>
	<g>
		<path d="M92.059,67.946c-9.591-5.542-21.892-2.24-27.431,7.35c-5.529,9.588-2.233,21.89,7.353,27.424
			c3.154,1.821,6.601,2.686,10.005,2.686c6.944,0,13.708-3.601,17.422-10.034C104.944,85.784,101.647,73.48,92.059,67.946z"/>
	</g>
</g>
<g>
	<g>
		<path d="M186.348,75.292c-5.537-9.583-17.846-12.882-27.426-7.346c-9.588,5.534-12.885,17.838-7.348,27.427
			c3.713,6.434,10.475,10.034,17.422,10.034c3.402,0,6.851-0.865,10.005-2.686C188.586,97.186,191.882,84.885,186.348,75.292z"/>
	</g>
</g>
<g>
	<g>
		<path d="M179,118.142c-9.588-5.534-21.895-2.24-27.426,7.348c-5.537,9.588-2.24,21.892,7.348,27.426
			c3.152,1.821,6.601,2.686,10.003,2.686c6.946,0,13.711-3.601,17.429-10.037C191.882,135.978,188.586,123.676,179,118.142z"/>
	</g>
</g>
<g>
	<g>
		<circle cx="125.49" cy="160.627" r="20.078"/>
	</g>
</g>
<g>
	<g>
		<path d="M99.407,125.49c-5.532-9.583-17.831-12.887-27.426-7.348c-9.586,5.534-12.882,17.836-7.348,27.429
			c3.716,6.431,10.478,10.032,17.422,10.032c3.404,0,6.853-0.865,10.005-2.686C101.647,147.382,104.944,135.078,99.407,125.49z"/>
	</g>
</g>
<g>
	<g>
		<circle cx="125.49" cy="60.235" r="20.078"/>
	</g>
</g>
<g>
	<g>
		<path d="M450.684,366.431c-2.681-4.645-7.01-7.966-12.191-9.355c-5.186-1.387-10.593-0.676-15.235,2.007
			c-9.588,5.534-12.885,17.838-7.348,27.426c3.713,6.434,10.475,10.034,17.422,10.034c3.402,0,6.851-0.865,10.005-2.686
			C452.924,388.323,456.221,376.02,450.684,366.431z"/>
	</g>
</g>
<g>
	<g>
		<path d="M443.336,409.279c-9.588-5.537-21.892-2.24-27.426,7.348c-5.537,9.588-2.24,21.892,7.348,27.426
			c3.093,1.787,6.527,2.699,10.007,2.699c1.743,0,3.498-0.228,5.228-0.691c5.181-1.39,9.51-4.711,12.191-9.355
			C456.221,427.118,452.924,414.814,443.336,409.279z"/>
	</g>
</g>
<g>
	<g>
		<circle cx="389.823" cy="451.765" r="20.078"/>
	</g>
</g>
<g>
	<g>
		<circle cx="389.823" cy="351.373" r="20.078"/>
	</g>
</g>
<g>
	<g>
		<path d="M365.748,371.275c-1.387-5.181-4.711-9.512-9.353-12.191c-4.642-2.682-10.059-3.395-15.235-2.007
			c-5.181,1.387-9.512,4.711-12.194,9.355c-5.534,9.586-2.24,21.89,7.35,27.429c3.154,1.819,6.601,2.684,10.005,2.684
			c6.944,0,13.708-3.601,17.422-10.034C366.424,381.865,367.137,376.453,365.748,371.275z"/>
	</g>
</g>
<g>
	<g>
		<path d="M363.743,416.627c-5.534-9.588-17.833-12.882-27.431-7.348c-9.586,5.537-12.88,17.841-7.346,27.426
			c2.681,4.645,7.012,7.968,12.194,9.355c1.728,0.463,3.485,0.691,5.228,0.691c3.48,0,6.912-0.912,10.003-2.696
			c4.647-2.681,7.971-7.012,9.358-12.194C367.137,426.684,366.424,421.272,363.743,416.627z"/>
	</g>
</g>
<g>
</g>
<g>
</g>
<g>
</g>
<g>
</g>
<g>
</g>
<g>
</g>
<g>
</g>
<g>
</g>
<g>
</g>
<g>
</g>
<g>
</g>
<g>
</g>
<g>
</g>
<g>
</g>
<g>
</g>
</svg>
