<?xml version="1.0" encoding="iso-8859-1"?>
<!-- Generator: Adobe Illustrator 19.0.0, SVG Export Plug-In . SVG Version: 6.00 Build 0)  -->
<svg version="1.1" id="Layer_1" xmlns="http://www.w3.org/2000/svg" xmlns:xlink="http://www.w3.org/1999/xlink" x="0px" y="0px"
	 viewBox="0 0 512 512" style="enable-background:new 0 0 512 512;" xml:space="preserve">
<g>
	<g>
		<path d="M358.11,339.295l-18.724-131.082c-0.474-3.31-2.776-6.069-5.948-7.127c-3.17-1.054-6.67-0.231-9.032,2.134l-31.211,31.207
			L187.078,128.315c-3.448-3.448-9.039-3.448-12.483,0l-37.453,37.453c-1.655,1.655-2.586,3.901-2.586,6.241
			s0.931,4.586,2.586,6.241l106.114,106.114l-31.209,31.211c-2.364,2.364-3.19,5.86-2.134,9.032
			c1.058,3.172,3.817,5.474,7.127,5.948l131.082,18.726c0.416,0.058,0.834,0.088,1.248,0.088c2.323,0,4.575-0.918,6.241-2.586
			C357.577,344.821,358.502,342.045,358.11,339.295z M237.015,315.575l24.968-24.97c1.655-1.655,2.586-3.901,2.586-6.241
			c0-2.34-0.931-4.586-2.586-6.241L155.869,172.009l24.968-24.968l106.116,106.112c3.448,3.448,9.039,3.448,12.483,0l24.97-24.966
			l14.562,101.953L237.015,315.575z"/>
	</g>
</g>
<g>
	<g>
		<path d="M256,52.966C144.047,52.966,52.966,144.047,52.966,256S144.047,459.034,256,459.034S459.034,367.953,459.034,256
			S367.953,52.966,256,52.966z M256,441.379c-102.218,0-185.379-83.162-185.379-185.379S153.782,70.621,256,70.621
			S441.379,153.782,441.379,256S358.218,441.379,256,441.379z"/>
	</g>
</g>
<g>
	<g>
		<path d="M256,0C114.841,0,0,114.841,0,256s114.841,256,256,256s256-114.841,256-256S397.159,0,256,0z M256,494.345
			c-131.425,0-238.345-106.92-238.345-238.345S124.575,17.655,256,17.655S494.345,124.575,494.345,256S387.425,494.345,256,494.345z
			"/>
	</g>
</g>
<g>
</g>
<g>
</g>
<g>
</g>
<g>
</g>
<g>
</g>
<g>
</g>
<g>
</g>
<g>
</g>
<g>
</g>
<g>
</g>
<g>
</g>
<g>
</g>
<g>
</g>
<g>
</g>
<g>
</g>
</svg>
