<?xml version="1.0" encoding="iso-8859-1"?>
<!-- Generator: Adobe Illustrator 19.0.0, SVG Export Plug-In . SVG Version: 6.00 Build 0)  -->
<svg version="1.1" id="Layer_1" xmlns="http://www.w3.org/2000/svg" xmlns:xlink="http://www.w3.org/1999/xlink" x="0px" y="0px"
	 viewBox="0 0 512 512" style="enable-background:new 0 0 512 512;" xml:space="preserve">
<g>
	<g>
		<path d="M509.689,111.27c-0.738-0.773-18.395-19.015-45.042-27.897c-25.976-8.659-83.509-8.758-85.945-8.758H270.397
			c-4.601,0-8.331,3.73-8.331,8.331v8.331h-16.662v-8.331c0-4.601-3.73-8.331-8.331-8.331h-41.656c-4.601,0-8.331,3.73-8.331,8.331
			v74.98c0,4.601,3.73,8.331,8.331,8.331h41.656c4.601,0,8.331-3.73,8.331-8.331v-8.331h16.662v8.331
			c0,4.601,3.73,8.331,8.331,8.331h33.325v58.318h-88.417l-82.105-74.77c7.037-23.755,0.61-49.665-17.124-67.4
			C96.956,63.287,68.332,57.31,43.16,67.177c-2.618,1.025-4.542,3.301-5.116,6.053c-0.576,2.751,0.277,5.607,2.264,7.595
			l36.278,36.279l-21.967,21.967l-36.28-36.28c-1.987-1.987-4.845-2.835-7.595-2.264c-2.752,0.575-5.028,2.499-6.053,5.116
			c-9.865,25.179-3.885,53.799,15.232,72.918c17.797,17.798,43.836,24.207,67.666,17.045l28.972,28.971H45.456
			c-4.601,0-8.331,3.73-8.331,8.331v149.985c0,36.737,29.877,66.625,66.602,66.625h291.681c36.725,0,66.604-29.888,66.604-66.625
			V232.907c0-4.601-3.73-8.331-8.331-8.331H370.37v-58.318h8.331c2.25,0,4.406-0.913,5.974-2.525
			c0.236-0.242,23.84-24.312,46.429-31.157c23.515-7.125,72.076-7.216,72.564-7.216c3.336-0.001,6.35-1.99,7.662-5.058
			C512.64,117.234,511.995,113.681,509.689,111.27z M95.691,180.142c-2.341-2.34-5.844-3.072-8.929-1.865
			c-19.02,7.449-40.624,2.935-55.057-11.499c-11.152-11.153-16.384-26.592-14.748-41.805l31.773,31.772
			c3.254,3.252,8.53,3.252,11.781,0l33.75-33.749c1.562-1.563,2.441-3.682,2.441-5.891s-0.879-4.328-2.441-5.891l-31.77-31.772
			c15.198-1.632,30.652,3.595,41.806,14.748c14.433,14.434,18.946,36.045,11.496,55.055c-1.259,3.215-0.405,6.875,2.148,9.2
			l72.618,66.131h-50.431L95.691,180.142z M445.35,241.238v141.654h0c0,27.549-22.404,49.962-49.942,49.962H103.727
			c-27.538,0-49.94-22.413-49.94-49.962V241.238h81.699c0.436,0.07,0.875,0.126,1.315,0.126s0.879-0.056,1.315-0.126h173.935h49.987
			H445.35z M320.383,224.576v-58.318h33.325v58.318H320.383z M426.272,116.629c-22.209,6.73-43.71,25.987-50.985,32.966h-13.247
			h-49.987h-33.325v-8.331c0-4.601-3.73-8.331-8.331-8.331h-33.325c-4.601,0-8.331,3.73-8.331,8.331v8.331h-24.993V91.277h24.993
			v8.331c0,4.601,3.73,8.331,8.331,8.331h33.325c4.601,0,8.331-3.73,8.331-8.331v-8.331h99.974c0.569,0,57.238,0.091,80.677,7.904
			c8.061,2.687,15.222,6.442,21.109,10.168C463.546,110.197,441.061,112.147,426.272,116.629z"/>
	</g>
</g>
<g>
	<g>
		<polygon points="88.311,302.255 88.311,313.302 110.156,313.302 110.156,374.536 123.602,374.536 123.602,313.302 
			145.346,313.302 145.346,302.255 		"/>
	</g>
</g>
<g>
	<g>
		<path d="M403.453,344.245c-0.95-2.1-2.208-3.874-3.774-5.324c-1.566-1.449-3.349-2.649-5.349-3.599
			c-1.999-0.95-4.04-1.783-6.123-2.5c-2.083-0.716-4.124-1.391-6.123-2.024c-1.999-0.633-3.782-1.349-5.349-2.149
			c-1.566-0.8-2.824-1.766-3.774-2.899c-0.949-1.133-1.424-2.549-1.424-4.249c0-1.333,0.234-2.557,0.7-3.674
			c0.467-1.116,1.175-2.075,2.124-2.874c0.95-0.8,2.116-1.425,3.499-1.875c1.383-0.45,3.008-0.675,4.874-0.675
			c2.066,0,3.857,0.258,5.374,0.775c1.516,0.517,2.84,1.091,3.974,1.724c1.133,0.634,2.116,1.208,2.949,1.725
			c0.833,0.517,1.583,0.775,2.249,0.775c0.667,0,1.242-0.15,1.725-0.45c0.483-0.3,0.908-0.817,1.275-1.55l3.299-6.348
			c-2.533-2.4-5.599-4.266-9.198-5.599c-3.599-1.333-7.531-1.999-11.797-1.999c-3.766,0-7.115,0.583-10.047,1.749
			c-2.933,1.166-5.407,2.716-7.423,4.649c-2.016,1.933-3.549,4.149-4.599,6.648c-1.05,2.499-1.575,5.065-1.575,7.698
			c0,3.299,0.475,6.073,1.425,8.323c0.95,2.25,2.208,4.124,3.774,5.624c1.566,1.5,3.349,2.716,5.348,3.649
			c2,0.933,4.032,1.733,6.098,2.399c2.067,0.667,4.099,1.283,6.098,1.85c2,0.567,3.783,1.258,5.349,2.074
			c1.566,0.817,2.824,1.825,3.774,3.024c0.95,1.199,1.425,2.749,1.425,4.649c0,3.399-1.05,6.007-3.15,7.823
			c-2.099,1.816-5.065,2.724-8.898,2.724c-2.499,0-4.64-0.342-6.423-1.024c-1.783-0.683-3.332-1.442-4.649-2.274
			s-2.457-1.591-3.424-2.274c-0.966-0.683-1.866-1.024-2.699-1.024c-0.633,0-1.208,0.158-1.725,0.475
			c-0.517,0.316-0.958,0.708-1.325,1.175l-3.899,6.448c1.399,1.433,2.99,2.733,4.774,3.899c1.783,1.167,3.699,2.166,5.748,2.999
			c2.049,0.833,4.191,1.475,6.423,1.925c2.232,0.45,4.499,0.675,6.798,0.675c3.999,0,7.548-0.608,10.647-1.825
			c3.099-1.216,5.723-2.883,7.873-4.999c2.149-2.116,3.782-4.599,4.898-7.448c1.117-2.849,1.675-5.907,1.675-9.173
			C404.878,348.893,404.403,346.344,403.453,344.245z"/>
	</g>
</g>
<g>
	<g>
		<polygon points="323.299,363.439 323.299,302.255 309.853,302.255 309.853,374.536 352.241,374.536 352.241,363.439 		"/>
	</g>
</g>
<g>
	<g>
		<path d="M216.677,323.675c-1.766-4.516-4.249-8.415-7.448-11.697c-3.199-3.283-7.048-5.857-11.547-7.723
			c-4.499-1.866-9.481-2.799-14.946-2.799c-5.465,0-10.456,0.924-14.971,2.774c-4.516,1.85-8.382,4.424-11.597,7.723
			c-3.216,3.299-5.707,7.207-7.473,11.722c-1.766,4.515-2.65,9.422-2.65,14.721s0.883,10.206,2.65,14.721
			c1.766,4.515,4.257,8.423,7.473,11.722s7.081,5.874,11.597,7.723c4.516,1.849,9.506,2.774,14.971,2.774
			c5.465,0,10.447-0.925,14.946-2.774c4.499-1.849,8.348-4.424,11.547-7.723c3.199-3.299,5.682-7.206,7.448-11.722
			s2.649-9.423,2.649-14.721S218.443,328.19,216.677,323.675z M203.956,349.068c-1.05,3.149-2.558,5.815-4.524,7.998
			c-1.966,2.183-4.357,3.858-7.173,5.023c-2.815,1.167-5.99,1.75-9.522,1.75c-3.532,0-6.715-0.583-9.548-1.75
			c-2.832-1.166-5.24-2.841-7.223-5.023c-1.983-2.183-3.508-4.849-4.574-7.998c-1.066-3.149-1.6-6.707-1.6-10.672
			c0-3.966,0.533-7.523,1.6-10.672c1.066-3.149,2.591-5.823,4.574-8.022c1.983-2.2,4.39-3.882,7.223-5.049
			c2.833-1.167,6.016-1.75,9.548-1.75c3.532,0,6.707,0.583,9.522,1.75c2.816,1.167,5.207,2.849,7.173,5.049
			c1.966,2.199,3.474,4.873,4.524,8.022c1.049,3.149,1.574,6.707,1.574,10.672S205.005,345.919,203.956,349.068z"/>
	</g>
</g>
<g>
	<g>
		<path d="M296.606,323.675c-1.766-4.516-4.249-8.415-7.448-11.697c-3.199-3.283-7.048-5.857-11.547-7.723
			c-4.499-1.866-9.481-2.799-14.946-2.799s-10.456,0.924-14.971,2.774c-4.516,1.85-8.382,4.424-11.597,7.723
			c-3.216,3.299-5.707,7.207-7.473,11.722c-1.766,4.515-2.649,9.422-2.649,14.721s0.883,10.206,2.649,14.721
			c1.766,4.515,4.257,8.423,7.473,11.722s7.081,5.874,11.597,7.723c4.515,1.849,9.506,2.774,14.971,2.774s10.447-0.925,14.946-2.774
			c4.499-1.849,8.347-4.424,11.547-7.723c3.199-3.299,5.682-7.206,7.448-11.722s2.649-9.423,2.649-14.721
			S298.372,328.19,296.606,323.675z M283.885,349.068c-1.05,3.149-2.558,5.815-4.524,7.998c-1.966,2.183-4.357,3.858-7.173,5.023
			c-2.816,1.167-5.991,1.75-9.523,1.75c-3.532,0-6.715-0.583-9.547-1.75c-2.833-1.166-5.24-2.841-7.223-5.023
			c-1.983-2.183-3.508-4.849-4.574-7.998c-1.066-3.149-1.6-6.707-1.6-10.672c0-3.966,0.533-7.523,1.6-10.672
			c1.066-3.149,2.591-5.823,4.574-8.022c1.983-2.2,4.39-3.882,7.223-5.049c2.832-1.167,6.015-1.75,9.547-1.75
			c3.532,0,6.707,0.583,9.523,1.75c2.815,1.167,5.207,2.849,7.173,5.049c1.966,2.199,3.474,4.873,4.524,8.022
			c1.05,3.149,1.574,6.707,1.574,10.672S284.934,345.919,283.885,349.068z"/>
	</g>
</g>
<g>
</g>
<g>
</g>
<g>
</g>
<g>
</g>
<g>
</g>
<g>
</g>
<g>
</g>
<g>
</g>
<g>
</g>
<g>
</g>
<g>
</g>
<g>
</g>
<g>
</g>
<g>
</g>
<g>
</g>
</svg>
