<?xml version="1.0" encoding="iso-8859-1"?>
<!-- Generator: Adobe Illustrator 19.0.0, SVG Export Plug-In . SVG Version: 6.00 Build 0)  -->
<svg version="1.1" id="Layer_1" xmlns="http://www.w3.org/2000/svg" xmlns:xlink="http://www.w3.org/1999/xlink" x="0px" y="0px"
	 viewBox="0 0 512 512" style="enable-background:new 0 0 512 512;" xml:space="preserve">
<g>
	<g>
		<path d="M425.118,296.486c-0.277-3.845-7.252-94.771-47.616-146.67c-40.801-52.458-116.654-66.797-119.864-67.382
			c-0.54-0.099-1.09-0.148-1.639-0.148h-41.143V9.143c0-5.049-4.094-9.143-9.143-9.143H141.69
			c-15.112,0-27.404,12.305-27.404,27.429c0,15.124,12.292,27.429,27.404,27.429h9.167v27.429h-27.353
			c-20.208,0-36.647,16.426-36.647,36.616v356.482c0,20.19,16.402,36.616,36.565,36.616h265.156
			c20.163,0,36.565-16.404,36.565-36.567v-178.29C425.143,296.923,425.134,296.704,425.118,296.486z M141.69,36.571
			c-5.114,0-9.118-4.016-9.118-9.143c0-5.041,4.091-9.143,9.118-9.143h54.882v64h-27.429V45.714c0-5.049-4.094-9.143-9.143-9.143
			H141.69z M406.857,475.433c0,10.08-8.201,18.281-18.279,18.281H123.422c-10.078,0-18.279-8.223-18.279-18.33V118.902
			c0-10.107,8.237-18.33,18.362-18.33H160h45.714h49.4c7.775,1.58,73.42,16.07,107.955,60.47
			c35.846,46.091,43.319,130.709,43.788,136.459V475.433z"/>
	</g>
</g>
<g>
	<g>
		<path d="M233.143,274.286c-50.413,0-91.429,41.014-91.429,91.429s41.016,91.429,91.429,91.429s91.429-41.014,91.429-91.429
			S283.556,274.286,233.143,274.286z M233.143,438.857c-40.33,0-73.143-32.811-73.143-73.143s32.813-73.143,73.143-73.143
			c40.33,0,73.143,32.811,73.143,73.143S273.473,438.857,233.143,438.857z"/>
	</g>
</g>
<g>
	<g>
		<path d="M240.161,304.998c-1.737-2.08-4.308-3.283-7.018-3.283c-2.71,0-5.281,1.203-7.018,3.283
			c-6.462,7.739-38.696,47.48-38.696,69.859c0,25.206,20.507,45.714,45.714,45.714c25.208,0,45.714-20.508,45.714-45.714
			C278.857,352.478,246.623,312.737,240.161,304.998z M233.143,402.286c-15.125,0-27.429-12.305-27.429-27.429
			c0-9.811,14.35-32.268,27.429-49.343c13.078,17.075,27.429,39.531,27.429,49.343C260.571,389.981,248.268,402.286,233.143,402.286
			z"/>
	</g>
</g>
<g>
	<g>
		<path d="M366.458,221.132l-128-91.429c-2.79-1.993-6.462-2.257-9.498-0.69c-3.047,1.567-4.96,4.704-4.96,8.129V192
			c0,2.953,1.426,5.723,3.828,7.44l128,91.429c1.58,1.129,3.444,1.703,5.315,1.703c1.431,0,2.866-0.335,4.183-1.013
			c3.047-1.567,4.96-4.704,4.96-8.129v-54.857C370.286,225.618,368.859,222.848,366.458,221.132z M352,265.662l-109.714-78.367
			v-32.385L352,233.277V265.662z"/>
	</g>
</g>
<g>
</g>
<g>
</g>
<g>
</g>
<g>
</g>
<g>
</g>
<g>
</g>
<g>
</g>
<g>
</g>
<g>
</g>
<g>
</g>
<g>
</g>
<g>
</g>
<g>
</g>
<g>
</g>
<g>
</g>
</svg>
