<?xml version="1.0" encoding="iso-8859-1"?>
<!-- Generator: Adobe Illustrator 19.0.0, SVG Export Plug-In . SVG Version: 6.00 Build 0)  -->
<svg version="1.1" id="Layer_1" xmlns="http://www.w3.org/2000/svg" xmlns:xlink="http://www.w3.org/1999/xlink" x="0px" y="0px"
	 viewBox="0 0 512 512" style="enable-background:new 0 0 512 512;" xml:space="preserve">
<g>
	<g>
		<path d="M494.415,411.093L337.337,265.235c-3.807-3.537-9.73-3.426-13.405,0.248l-6.83,6.83l-47.818-47.818l74.764-74.764
			c7.797-7.799,11.06-17.342,8.949-26.183c-2.115-8.857-9.365-15.914-19.891-19.363L32.719,5.767
			C17.821,0.885,9.571,6.18,5.983,9.771C2.388,13.366-2.914,21.62,1.967,36.518v0.001l98.417,300.387
			c3.465,10.571,10.516,17.844,19.346,19.953c1.749,0.418,3.527,0.623,5.315,0.623c7.224,0,14.607-3.356,20.885-9.634l82.364-82.364
			l47.818,47.817l-6.832,6.832c-3.674,3.675-3.783,9.597-0.248,13.405l145.858,157.079c10.269,11.059,24.119,17.302,38.998,17.576
			c0.342,0.006,0.683,0.009,1.024,0.009c14.528,0,28.236-5.726,38.699-16.188l2.199-2.201
			c10.708-10.707,16.454-24.816,16.178-39.727C511.715,435.21,505.474,421.362,494.415,411.093z M132.268,334.184
			c-2.933,2.934-5.945,4.379-8.051,3.881c-2.119-0.507-4.164-3.189-5.471-7.176L20.329,30.502v0.001
			c-1.5-4.579-0.907-6.757-0.706-7.05c0.333-0.237,2.505-0.826,7.079,0.676l300.387,98.417c3.942,1.291,6.603,3.343,7.115,5.489
			c0.508,2.131-0.919,5.134-3.819,8.032L132.268,334.184z M248.788,258.651l13.663-13.663l40.988,40.988l-13.663,13.662
			L248.788,258.651z M482.151,476.151l-2.201,2.202c-6.964,6.963-16.108,10.653-25.702,10.523
			c-9.583-0.178-18.532-4.228-25.197-11.405L289.529,327.213l41.484-41.484l150.256,139.523c7.176,6.664,11.226,15.61,11.404,25.192
			C492.849,460.06,489.113,469.189,482.151,476.151z"/>
	</g>
</g>
<g>
</g>
<g>
</g>
<g>
</g>
<g>
</g>
<g>
</g>
<g>
</g>
<g>
</g>
<g>
</g>
<g>
</g>
<g>
</g>
<g>
</g>
<g>
</g>
<g>
</g>
<g>
</g>
<g>
</g>
</svg>
