<?xml version="1.0" encoding="iso-8859-1"?>
<!-- Generator: Adobe Illustrator 19.0.0, SVG Export Plug-In . SVG Version: 6.00 Build 0)  -->
<svg version="1.1" id="Layer_1" xmlns="http://www.w3.org/2000/svg" xmlns:xlink="http://www.w3.org/1999/xlink" x="0px" y="0px"
	 viewBox="0 0 512 512" style="enable-background:new 0 0 512 512;" xml:space="preserve">
<g>
	<g>
		<path d="M511.998,70.638c0-0.016-0.001-0.031-0.001-0.048c-0.062-29.2-23.777-52.935-52.922-52.935h-88.36
			c-29.143,0-52.858,23.736-52.92,52.935c0,0.016-0.001,0.032-0.001,0.048c0,0.022-0.002,0.044-0.002,0.067v70.537h-44.138
			c-4.875,0-8.828,3.953-8.828,8.828v70.621H35.31C15.84,220.69,0,236.537,0,256.015v17.625c0,19.479,15.84,35.326,35.31,35.326
			h229.517v70.621c0,4.875,3.953,8.828,8.828,8.828h44.138v52.881c0,29.252,23.741,53.05,52.922,53.05h88.36
			c29.183,0,52.924-23.797,52.924-53.05V70.705C512,70.682,511.998,70.661,511.998,70.638z M264.828,291.31H35.31
			c-9.735,0-17.655-7.927-17.655-17.67v-17.625c0-9.744,7.92-17.67,17.655-17.67h229.517V291.31z M317.793,370.759h-35.31v-70.621
			v-70.621v-70.621h35.31V370.759z M494.345,119.93l-42.638,42.638c-3.448,3.448-3.448,9.037,0,12.485
			c1.722,1.723,3.983,2.585,6.241,2.585s4.519-0.862,6.241-2.585l30.155-30.155v27.998l-42.638,42.638
			c-3.448,3.448-3.448,9.037,0,12.485c1.722,1.723,3.983,2.585,6.241,2.585s4.519-0.862,6.241-2.585l30.155-30.155v27.998
			l-42.638,42.638c-3.448,3.448-3.448,9.037,0,12.485c1.722,1.723,3.983,2.585,6.241,2.585s4.519-0.862,6.241-2.585l30.155-30.155
			v27.998l-42.638,42.638c-3.448,3.448-3.448,9.037,0,12.485c1.722,1.723,3.983,2.585,6.241,2.585s4.519-0.862,6.241-2.585
			l30.155-30.155v27.998l-42.638,42.639c-3.448,3.446-3.448,9.037,0,12.483c1.722,1.724,3.983,2.586,6.241,2.586
			s4.519-0.862,6.241-2.586l30.155-30.155v28l-42.638,42.638c-3.448,3.446-3.448,9.037,0,12.483
			c1.722,1.724,3.983,2.586,6.241,2.586s4.519-0.862,6.241-2.586l30.155-30.155v31.571c0,19.517-15.821,35.394-35.269,35.394h-88.36
			c-19.446,0-35.267-15.877-35.267-35.394v-31.571l30.155,30.155c1.722,1.724,3.983,2.586,6.241,2.586
			c2.258,0,4.519-0.862,6.241-2.586c3.448-3.446,3.448-9.037,0-12.483l-42.638-42.638v-5.173v-22.828l30.155,30.155
			c1.722,1.724,3.983,2.586,6.241,2.586c2.258,0,4.519-0.862,6.241-2.586c3.448-3.446,3.448-9.037,0-12.483l-42.638-42.639v-27.998
			l30.155,30.155c1.722,1.723,3.983,2.585,6.241,2.585c2.258,0,4.519-0.862,6.241-2.585c3.448-3.448,3.448-9.037,0-12.485
			l-42.638-42.638v-27.998l30.155,30.155c1.722,1.723,3.983,2.585,6.241,2.585c2.258,0,4.519-0.862,6.241-2.585
			c3.448-3.448,3.448-9.037,0-12.485l-42.638-42.638v-27.998l30.155,30.155c1.722,1.723,3.983,2.585,6.241,2.585
			c2.258,0,4.519-0.862,6.241-2.585c3.448-3.448,3.448-9.037,0-12.485l-42.638-42.638v-22.827v-5.171l30.155,30.155
			c1.722,1.723,3.983,2.585,6.241,2.585c2.258,0,4.519-0.862,6.241-2.585c3.448-3.448,3.448-9.037,0-12.485l-42.638-42.638V91.932
			l30.155,30.155c1.722,1.723,3.983,2.585,6.241,2.585c2.258,0,4.519-0.862,6.241-2.585c3.448-3.448,3.448-9.037,0-12.485
			l-42.458-42.458c1.785-17.85,16.838-31.834,35.087-31.834h88.36c18.251,0,33.305,13.983,35.089,31.834l-42.458,42.458
			c-3.448,3.448-3.448,9.037,0,12.485c1.722,1.723,3.983,2.585,6.241,2.585s4.519-0.862,6.241-2.585l30.155-30.155V119.93z"/>
	</g>
</g>
<g>
</g>
<g>
</g>
<g>
</g>
<g>
</g>
<g>
</g>
<g>
</g>
<g>
</g>
<g>
</g>
<g>
</g>
<g>
</g>
<g>
</g>
<g>
</g>
<g>
</g>
<g>
</g>
<g>
</g>
</svg>
