<?xml version="1.0" encoding="iso-8859-1"?>
<!-- Generator: Adobe Illustrator 19.0.0, SVG Export Plug-In . SVG Version: 6.00 Build 0)  -->
<svg version="1.1" id="Layer_1" xmlns="http://www.w3.org/2000/svg" xmlns:xlink="http://www.w3.org/1999/xlink" x="0px" y="0px"
	 viewBox="0 0 512 512" style="enable-background:new 0 0 512 512;" xml:space="preserve">
<g>
	<g>
		<path d="M479.479,416.237c3.214-5.441,5.093-11.76,5.093-18.523c0-20.165-16.406-36.571-36.571-36.571
			c-9.299,0-17.772,3.517-24.232,9.254L271.238,256l152.53-114.397c6.46,5.737,14.933,9.254,24.232,9.254
			c20.165,0,36.571-16.406,36.571-36.571c0-6.763-1.878-13.082-5.093-18.523C497.743,93.741,512,78.225,512,59.429
			c0-20.165-16.404-36.571-36.567-36.571H36.567C16.404,22.857,0,39.263,0,59.429c0,18.796,14.257,34.312,32.521,36.334
			c-3.214,5.441-5.093,11.76-5.093,18.523c0,20.165,16.406,36.571,36.571,36.571c9.299,0,17.772-3.517,24.232-9.254L240.762,256
			L88.232,370.397c-6.46-5.737-14.933-9.254-24.232-9.254c-20.165,0-36.571,16.406-36.571,36.571c0,6.763,1.878,13.082,5.093,18.523
			C14.257,418.259,0,433.775,0,452.571c0,20.165,16.404,36.571,36.567,36.571h438.866c20.163,0,36.567-16.406,36.567-36.571
			C512,433.775,497.743,418.259,479.479,416.237z M448,379.429c10.083,0,18.286,8.203,18.286,18.286S458.083,416,448,416
			s-18.286-8.203-18.286-18.286S437.917,379.429,448,379.429z M448,132.571c-10.083,0-18.286-8.203-18.286-18.286S437.917,96,448,96
			s18.286,8.203,18.286,18.286S458.083,132.571,448,132.571z M64,132.571c-10.083,0-18.286-8.203-18.286-18.286S53.917,96,64,96
			s18.286,8.203,18.286,18.286S74.083,132.571,64,132.571z M36.567,77.714c-10.08,0-18.281-8.203-18.281-18.286
			c0-10.083,8.201-18.286,18.281-18.286h438.866c10.08,0,18.281,8.203,18.281,18.286c0,10.082-8.201,18.286-18.281,18.286H36.567z
			 M98.46,126.416c1.343-3.803,2.112-7.874,2.112-12.13c0-6.665-1.821-12.899-4.949-18.286h320.754
			c-3.128,5.387-4.949,11.621-4.949,18.286c0,4.257,0.769,8.328,2.112,12.13L256,244.571L98.46,126.416z M98.46,385.584L256,267.429
			l157.54,118.155c-1.343,3.803-2.112,7.874-2.112,12.13c0,6.665,1.821,12.899,4.949,18.286H95.623
			c3.128-5.387,4.949-11.621,4.949-18.286C100.571,393.458,99.803,389.387,98.46,385.584z M64,379.429
			c10.083,0,18.286,8.203,18.286,18.286S74.083,416,64,416s-18.286-8.203-18.286-18.286S53.917,379.429,64,379.429z
			 M475.433,470.857H36.567c-10.08,0-18.281-8.203-18.281-18.286s8.201-18.286,18.281-18.286h438.866
			c10.08,0,18.281,8.203,18.281,18.286S485.513,470.857,475.433,470.857z"/>
	</g>
</g>
<g>
</g>
<g>
</g>
<g>
</g>
<g>
</g>
<g>
</g>
<g>
</g>
<g>
</g>
<g>
</g>
<g>
</g>
<g>
</g>
<g>
</g>
<g>
</g>
<g>
</g>
<g>
</g>
<g>
</g>
</svg>
