<?xml version="1.0" encoding="iso-8859-1"?>
<!-- Generator: Adobe Illustrator 19.0.0, SVG Export Plug-In . SVG Version: 6.00 Build 0)  -->
<svg version="1.1" id="Layer_1" xmlns="http://www.w3.org/2000/svg" xmlns:xlink="http://www.w3.org/1999/xlink" x="0px" y="0px"
	 viewBox="0 0 512 512" style="enable-background:new 0 0 512 512;" xml:space="preserve">
<g>
	<g>
		<path d="M244.364,69.818H128c-70.579,0-128,57.421-128,128v116.364c0,70.58,57.421,128,128,128h116.364
			c6.426,0,11.636-5.21,11.636-11.636V81.455C256,75.028,250.79,69.818,244.364,69.818z M232.727,418.909H128
			c-57.747,0-104.727-46.98-104.727-104.727V197.818c0-57.747,46.98-104.727,104.727-104.727h104.727V418.909z"/>
	</g>
</g>
<g>
	<g>
		<path d="M477.091,93.091H325.818c-19.25,0-34.909,15.661-34.909,34.909s15.659,34.909,34.909,34.909h151.273
			c19.25,0,34.909-15.66,34.909-34.909S496.341,93.091,477.091,93.091z M477.091,139.636H325.818
			c-6.526,0-11.636-5.111-11.636-11.636c0-6.416,5.219-11.636,11.636-11.636h151.273c6.526,0,11.636,5.111,11.636,11.636
			C488.727,134.416,483.509,139.636,477.091,139.636z"/>
	</g>
</g>
<g>
	<g>
		<path d="M477.091,349.091H325.818c-19.25,0-34.909,15.661-34.909,34.909s15.659,34.909,34.909,34.909h151.273
			c19.25,0,34.909-15.661,34.909-34.909S496.341,349.091,477.091,349.091z M477.091,395.636H325.818
			c-6.526,0-11.636-5.111-11.636-11.636c0-6.416,5.219-11.636,11.636-11.636h151.273c6.526,0,11.636,5.111,11.636,11.636
			C488.727,390.416,483.509,395.636,477.091,395.636z"/>
	</g>
</g>
<g>
	<g>
		<path d="M477.091,221.091H325.818c-19.25,0-34.909,15.661-34.909,34.909s15.659,34.909,34.909,34.909h151.273
			c19.25,0,34.909-15.661,34.909-34.909S496.341,221.091,477.091,221.091z M477.091,267.636H325.818
			c-6.526,0-11.636-5.111-11.636-11.636c0-6.416,5.219-11.636,11.636-11.636h151.273c6.526,0,11.636,5.111,11.636,11.636
			C488.727,262.416,483.509,267.636,477.091,267.636z"/>
	</g>
</g>
<g>
</g>
<g>
</g>
<g>
</g>
<g>
</g>
<g>
</g>
<g>
</g>
<g>
</g>
<g>
</g>
<g>
</g>
<g>
</g>
<g>
</g>
<g>
</g>
<g>
</g>
<g>
</g>
<g>
</g>
</svg>
