<?xml version="1.0" encoding="iso-8859-1"?>
<!-- Generator: Adobe Illustrator 19.0.0, SVG Export Plug-In . SVG Version: 6.00 Build 0)  -->
<svg version="1.1" id="Layer_1" xmlns="http://www.w3.org/2000/svg" xmlns:xlink="http://www.w3.org/1999/xlink" x="0px" y="0px"
	 viewBox="0 0 512 512" style="enable-background:new 0 0 512 512;" xml:space="preserve">
<g>
	<g>
		<path d="M507.509,35.886v-8.895C507.509,12.109,495.411,0,480.542,0H31.457C16.588,0,4.491,12.109,4.491,26.991v8.895
			c0,14.876,12.087,26.98,26.947,26.99v386.251c-14.866,0.042-26.947,12.129-26.947,26.987v8.895
			C4.491,499.893,16.614,512,31.515,512h71.706c14.901,0,27.024-12.107,27.024-26.991v-8.895c0-14.858-12.082-26.945-26.947-26.987
			V215.579h89.799c14.873,0,26.973-12.109,26.973-26.991v-8.895c0-14.883-12.1-26.991-26.973-26.991h-89.799V62.877h305.404v89.825
			h-89.801c-14.872,0-26.971,12.109-26.971,26.991v8.895c0,14.883,12.1,26.991,26.971,26.991h89.801v233.548
			c-14.866,0.042-26.947,12.129-26.947,26.987v8.895c0,14.884,12.123,26.991,27.024,26.991h71.706
			c14.901,0,27.024-12.107,27.024-26.991v-8.895c0-14.858-12.082-26.945-26.947-26.987V62.876
			C495.422,62.865,507.509,50.762,507.509,35.886z M112.281,476.114v8.895c0,4.978-4.064,9.026-9.059,9.026H31.515
			c-4.996,0-9.059-4.048-9.059-9.026v-8.895c0-4.978,4.064-9.026,9.059-9.026h8.906h53.895h8.906
			C108.217,467.088,112.281,471.136,112.281,476.114z M49.403,449.123V62.877h35.93v98.807v44.912v242.526H49.403z M193.098,170.667
			c4.967,0,9.008,4.049,9.008,9.026v8.895c0,4.977-4.041,9.026-9.008,9.026h-89.799v-26.947H193.098z M318.901,197.614
			c-4.966,0-9.006-4.049-9.006-9.026v-8.895c0-4.977,4.041-9.026,9.006-9.026h89.801v26.947H318.901z M489.544,476.114v8.895
			c0,4.978-4.064,9.026-9.059,9.026h-71.706c-4.996,0-9.059-4.048-9.059-9.026v-8.895c0-4.978,4.064-9.026,9.059-9.026h8.906h53.895
			h8.906C485.48,467.088,489.544,471.136,489.544,476.114z M426.667,449.123V206.596v-44.912V62.877h35.93v386.246H426.667z
			 M480.542,44.912h-8.963h-53.895H94.316H40.421h-8.964c-4.963,0-9.001-4.049-9.001-9.026v-8.895c0-4.977,4.038-9.026,9.001-9.026
			h449.084c4.964,0,9.002,4.049,9.002,9.026v8.895C489.544,40.863,485.506,44.912,480.542,44.912z"/>
	</g>
</g>
<g>
</g>
<g>
</g>
<g>
</g>
<g>
</g>
<g>
</g>
<g>
</g>
<g>
</g>
<g>
</g>
<g>
</g>
<g>
</g>
<g>
</g>
<g>
</g>
<g>
</g>
<g>
</g>
<g>
</g>
</svg>
