<?xml version="1.0" encoding="iso-8859-1"?>
<!-- Generator: Adobe Illustrator 19.0.0, SVG Export Plug-In . SVG Version: 6.00 Build 0)  -->
<svg version="1.1" id="Layer_1" xmlns="http://www.w3.org/2000/svg" xmlns:xlink="http://www.w3.org/1999/xlink" x="0px" y="0px"
	 viewBox="0 0 512 512" style="enable-background:new 0 0 512 512;" xml:space="preserve">
<g>
	<g>
		<path d="M487.233,52.839c-1.104-2.813-3.55-4.881-6.506-5.498c-2.958-0.613-6.027,0.296-8.163,2.433l-38.995,38.995
			l-23.611-23.612l38.993-38.995c2.138-2.137,3.052-5.207,2.433-8.163c-0.617-2.958-2.685-5.404-5.498-6.506
			c-27.059-10.604-57.826-4.176-78.374,16.37c-19.134,19.134-26.022,47.122-18.32,72.733l-23.99,23.99
			c-17.485-6.05-36.98-10.402-57.759-12.934C254.09,19.458,237.746,1.424,222.39,0.074c-16.342-1.399-30.347,16.935-45.237,59.583
			c-8.484,24.296-14.315,48.427-15.799,54.786c-6.519,1.173-12.867,2.537-19.028,4.077l-21.812-36.12
			c-0.488-0.808-1.1-1.534-1.814-2.15L101.551,65.45c-16.764-14.465-41.269-16.507-60.353-6.61c-2.199,0.066-4.381,0.939-6.06,2.618
			l-6.712,6.711c-1.684,1.682-2.556,3.868-2.619,6.072c-9.88,19.087-7.792,43.585,6.729,60.338l15.415,17.784
			c0.619,0.714,1.347,1.325,2.158,1.811l12.981,7.793c-2.853,3.88-5.099,7.895-6.714,11.996c-2.079,1.829-3.3,4.578-3.022,7.547
			l0.286,3.054c-0.21,1.683-0.326,3.372-0.326,5.064c0,4.288,0.68,8.487,1.98,12.577l23.254,248.038
			c1.213,12.955,10.949,26.931,22.697,32.636C105.642,485.268,156.415,512,223.455,512c66.776,0,117.413-26.522,122.157-29.09
			c11.764-5.542,21.517-19.516,22.75-32.664l23.254-248.04c1.3-4.09,1.98-8.289,1.98-12.577c0-1.671-0.136-3.328-0.333-4.979
			l0.294-3.139c0.276-2.949-0.929-5.679-2.983-7.509c-1.459-3.725-3.454-7.376-5.968-10.942l13.525-13.525
			c25.605,7.698,53.602,0.811,72.731-18.32C491.411,110.664,497.838,79.9,487.233,52.839z M267.875,334.602
			c0.122,2.549,0.243,5.093,0.362,7.671c0.223,4.8,4.182,8.542,8.94,8.542c0.14,0,0.28-0.003,0.42-0.01
			c4.941-0.227,8.76-4.417,8.533-9.358c-0.11-2.399-0.225-4.735-0.337-7.101c10.598,3.6,18.255,13.624,18.255,25.423
			c0,14.813-12.05,26.864-26.864,26.864s-26.864-12.052-26.864-26.864C250.319,348.233,257.643,338.399,267.875,334.602z
			 M194.105,65.437c16.132-46.154,26.554-47.521,26.718-47.521c0.114,0.01,11.48,1.71,23.305,63.33
			c1.674,8.725,3.287,18.288,4.838,28.664c-8.361-0.569-16.873-0.873-25.51-0.873c-14.582,0-29.021,0.871-42.969,2.537
			C183.047,101.351,187.883,83.233,194.105,65.437z M60.551,139.554L46.07,122.848c-10.983-12.671-11.292-31.99-1.386-45.139
			c13.157-9.914,32.483-9.644,45.167,1.3l16.071,13.869l30.64,50.739c1.1,1.822,2.814,3.193,4.834,3.866l7.127,2.376l-31.696,31.695
			l-2.376-7.129c-0.676-2.027-2.055-3.745-3.887-4.845L60.551,139.554z M71.688,185.202c0.888-4.687,3.182-9.353,6.862-13.953
			l19.956,11.981l5.911,17.734c0.982,2.944,3.417,5.17,6.438,5.883c0.682,0.161,1.373,0.239,2.057,0.239
			c2.348,0,4.633-0.924,6.331-2.622l7.797-7.797l44.687,44.688c3.498,3.496,9.169,3.496,12.662,0c3.498-3.497,3.498-9.167,0-12.665
			l-44.684-44.686l10.263-10.265l1-1l76.028,76.029c1.749,1.748,4.04,2.622,6.331,2.622s4.585-0.874,6.331-2.622
			c3.498-3.498,3.498-9.167,0-12.665l-76.027-76.027l7.797-7.797c2.195-2.195,3.098-5.369,2.383-8.39
			c-0.713-3.02-2.938-5.457-5.883-6.438l-11.442-3.814c20.811-4.369,43.659-6.691,66.965-6.691c9.456,0,18.843,0.391,28.053,1.135
			c4.404,33.571,8.254,74.346,11.525,122.072c-12.422,1.394-25.646,2.16-39.579,2.16c-82.248,0-140.096-26.442-150.525-53.866
			L71.688,185.202z M350.531,448.574c-0.636,6.781-6.679,15.451-12.676,18.193c-0.208,0.094-0.409,0.196-0.608,0.305
			c-0.49,0.271-49.682,27.019-113.793,27.019c-63.879,0-113.31-26.753-113.793-27.019c-0.162-0.089-0.326-0.173-0.492-0.251
			c-6.069-2.879-12.166-11.575-12.792-18.246L75.917,230.31c29.125,24.04,83.681,39.912,147.538,39.912
			c14.099,0,27.73-0.791,40.752-2.255c0.976,15.41,1.894,31.504,2.757,48.252c-19.773,4.641-34.554,22.383-34.554,43.551
			c0,24.688,20.085,44.774,44.774,44.774s44.774-20.086,44.774-44.774c0-22.06-16.052-40.401-37.081-44.064
			c-0.906-17.698-1.859-34.421-2.855-50.216c37.974-6.401,69.278-18.923,88.972-35.179L350.531,448.574z M458.198,118.551
			c-15.513,15.515-38.742,20.365-59.179,12.359c-3.314-1.302-7.083-0.512-9.597,2.005l-50.517,50.518
			c-3.498,3.498-3.498,9.168,0,12.665c1.749,1.748,4.04,2.622,6.331,2.622c2.291,0,4.585-0.874,6.331-2.622l20.113-20.113
			c1.771,3.012,2.958,6.045,3.555,9.078l-1.255,13.385c-7.788,20.48-42.039,40.397-93.135,49.178
			c-3.252-47.627-6.923-86.27-10.903-117.546c14.545,2.002,28.389,4.941,41.036,8.73l-19.92,19.92
			c-3.498,3.498-3.498,9.167,0,12.665c3.493,3.496,9.169,3.496,12.662,0l62.089-62.089c2.518-2.517,3.306-6.285,2.007-9.6
			c-8.008-20.433-3.157-43.662,12.356-59.177c11.991-11.99,28.602-17.614,44.936-15.852l-34.149,34.149
			c-3.498,3.498-3.498,9.167,0,12.665l36.276,36.276c3.493,3.496,9.169,3.496,12.662,0l34.151-34.151
			C475.808,89.965,470.187,106.561,458.198,118.551z"/>
	</g>
</g>
<g>
</g>
<g>
</g>
<g>
</g>
<g>
</g>
<g>
</g>
<g>
</g>
<g>
</g>
<g>
</g>
<g>
</g>
<g>
</g>
<g>
</g>
<g>
</g>
<g>
</g>
<g>
</g>
<g>
</g>
</svg>
