<?xml version="1.0" encoding="iso-8859-1"?>
<!-- Generator: Adobe Illustrator 19.0.0, SVG Export Plug-In . SVG Version: 6.00 Build 0)  -->
<svg version="1.1" id="Layer_1" xmlns="http://www.w3.org/2000/svg" xmlns:xlink="http://www.w3.org/1999/xlink" x="0px" y="0px"
	 viewBox="0 0 512 512" style="enable-background:new 0 0 512 512;" xml:space="preserve">
<g>
	<g>
		<path d="M510.864,475.587l-246.857-448c-1.607-2.917-4.674-4.73-8.007-4.73s-6.4,1.813-8.007,4.73l-246.857,448
			c-1.563,2.833-1.509,6.279,0.134,9.062c1.645,2.786,4.638,4.493,7.873,4.493h493.714c3.234,0,6.228-1.708,7.873-4.493
			C512.373,481.866,512.426,478.42,510.864,475.587z M24.62,470.857L256,50.944l231.38,419.913H24.62z"/>
	</g>
</g>
<g>
	<g>
		<path d="M437.799,439.161L264.085,110.018c-1.583-2.998-4.694-4.875-8.085-4.875s-6.502,1.877-8.085,4.875L74.201,439.161
			c-1.498,2.835-1.4,6.245,0.254,8.989c1.656,2.743,4.625,4.422,7.83,4.422h347.429c3.205,0,6.174-1.679,7.83-4.422
			C439.199,445.406,439.297,441.996,437.799,439.161z M97.449,434.286L256,133.873l158.551,300.413H97.449z"/>
	</g>
</g>
<g>
	<g>
		<path d="M256,269.714c-40.33,0-73.143,32.813-73.143,73.143S215.67,416,256,416s73.143-32.813,73.143-73.143
			S296.33,269.714,256,269.714z M256,397.714c-30.248,0-54.857-24.609-54.857-54.857C201.143,312.609,225.752,288,256,288
			s54.857,24.609,54.857,54.857C310.857,373.105,286.248,397.714,256,397.714z"/>
	</g>
</g>
<g>
</g>
<g>
</g>
<g>
</g>
<g>
</g>
<g>
</g>
<g>
</g>
<g>
</g>
<g>
</g>
<g>
</g>
<g>
</g>
<g>
</g>
<g>
</g>
<g>
</g>
<g>
</g>
<g>
</g>
</svg>
