<?xml version="1.0" encoding="iso-8859-1"?>
<!-- Generator: Adobe Illustrator 19.0.0, SVG Export Plug-In . SVG Version: 6.00 Build 0)  -->
<svg version="1.1" id="Layer_1" xmlns="http://www.w3.org/2000/svg" xmlns:xlink="http://www.w3.org/1999/xlink" x="0px" y="0px"
	 viewBox="0 0 512 512" style="enable-background:new 0 0 512 512;" xml:space="preserve">
<g>
	<g>
		<path d="M510.758,200.41c-1.451-2.612-36.119-64.558-85.364-113.805C376.15,37.36,314.202,2.693,311.589,1.242
			c-3.325-1.849-7.419-1.618-10.516,0.59c-3.099,2.209-4.651,6.001-3.99,9.749l10.649,60.34
			c5.088,28.837-8.098,70.684-28.794,91.379l-83.759,83.759c-0.24,0.24-0.421,0.515-0.631,0.772
			c-16.023-5.884-33.565-8.434-51.847-7.352c-36.016,2.118-70.645,18.082-97.512,44.948C18.321,312.295,2.359,346.926,0.241,382.94
			c-2.145,36.452,10.102,69.954,34.483,94.336C57.279,499.831,87.636,512,120.917,512c2.694,0,5.413-0.079,8.143-0.241
			c36.015-2.118,70.645-18.081,97.512-44.947c26.866-26.866,42.83-61.497,44.948-97.512c1.075-18.284-1.473-35.823-7.354-51.843
			c0.259-0.211,0.534-0.393,0.775-0.633l83.759-83.761c20.695-20.695,62.547-33.879,91.378-28.793l60.341,10.648
			c3.75,0.664,7.54-0.891,9.749-3.99C512.377,207.828,512.606,203.736,510.758,200.41z M251.821,368.141
			c-1.834,31.185-15.758,61.272-39.204,84.717c-23.445,23.446-53.532,37.369-84.717,39.204c-30.75,1.814-58.884-8.398-79.224-28.739
			c-20.341-20.34-30.548-48.476-28.739-79.224c1.834-31.185,15.758-61.272,39.204-84.718c23.445-23.446,53.532-37.368,84.717-39.204
			c2.329-0.136,4.64-0.205,6.937-0.205c28.026,0,53.487,10.143,72.287,28.944C243.423,309.257,253.63,337.392,251.821,368.141z
			 M443.508,184.839c-35.499-6.269-83.279,8.787-108.761,34.272l-79.495,79.495c-5.003-8.554-11.073-16.499-18.216-23.642
			c-7.142-7.142-15.086-13.211-23.64-18.215l79.494-79.494c25.483-25.484,40.537-73.256,34.272-108.761l-6.88-38.99
			c21.947,13.839,59.729,39.624,91.16,71.056c31.432,31.432,57.218,69.213,71.057,91.16L443.508,184.839z"/>
	</g>
</g>
<g>
</g>
<g>
</g>
<g>
</g>
<g>
</g>
<g>
</g>
<g>
</g>
<g>
</g>
<g>
</g>
<g>
</g>
<g>
</g>
<g>
</g>
<g>
</g>
<g>
</g>
<g>
</g>
<g>
</g>
</svg>
