<?xml version='1.0' encoding='iso-8859-1'?>
<svg version="1.1" xmlns="http://www.w3.org/2000/svg" viewBox="0 0 389.968 389.968" xmlns:xlink="http://www.w3.org/1999/xlink" enable-background="new 0 0 389.968 389.968">
  <g>
    <g>
      <path d="m92.02,202.327c-15.42,0-27.965,12.539-27.965,27.965s12.539,27.965 27.965,27.965c15.414,0 27.965-12.539 27.965-27.965s-12.551-27.965-27.965-27.965zm0,38.629c-5.891,0-10.676-4.785-10.676-10.67s4.785-10.67 10.676-10.67c5.885,0 10.676,4.785 10.676,10.67s-4.797,10.67-10.676,10.67z"/>
      <path d="m313.531,202.327c-15.414,0-27.959,12.539-27.959,27.965s12.539,27.965 27.959,27.965 27.97-12.539 27.97-27.965-12.544-27.965-27.97-27.965zm0,38.629c-5.879,0-10.67-4.785-10.67-10.67s4.791-10.67 10.67-10.67c5.891,0 10.676,4.785 10.676,10.67s-4.785,10.67-10.676,10.67z"/>
      <rect width="139.829" x="132.564" y="231.217" height="17.289"/>
      <polygon points="387.401,199.498 379.373,186.581 364.605,170.905 282.632,158.209 237.594,158.209 216.83,131.711     203.227,142.376 215.631,158.209 132.564,158.209 75.145,162.604 30.631,187.32 0,225.064 13.429,235.956 41.947,200.808     80.232,179.555 132.896,175.492 281.299,175.492 356.089,187.082 365.606,197.17 370.834,205.587 372.673,217.91 372.673,233.092     389.968,233.092 389.968,216.618   "/>
    </g>
  </g>
</svg>
