<?xml version='1.0' encoding='iso-8859-1'?>
<svg version="1.1" xmlns="http://www.w3.org/2000/svg" viewBox="0 0 512.048 512.048" xmlns:xlink="http://www.w3.org/1999/xlink" enable-background="new 0 0 512.048 512.048">
  <g>
    <g fill="#010202">
      <path d="m125.049,273.473c-15.17,0-27.516,12.341-27.516,27.516 0,15.176 12.347,27.516 27.516,27.516 15.176,0 27.522-12.341 27.522-27.516 0-15.175-12.352-27.516-27.522-27.516zm0,37.738c-5.641,0-10.228-4.587-10.228-10.228 0-5.641 4.587-10.228 10.228-10.228s10.228,4.587 10.228,10.228c-2.84217e-14,5.641-4.587,10.228-10.228,10.228z"/>
      <path d="m391.889,273.473c-15.164,0-27.516,12.341-27.516,27.516 0,15.176 12.347,27.516 27.516,27.516 15.176,0 27.522-12.341 27.522-27.516 0-15.175-12.347-27.516-27.522-27.516zm0,37.738c-5.641,0-10.228-4.587-10.228-10.228 0-5.641 4.587-10.228 10.228-10.228 5.641,0 10.234,4.587 10.234,10.228-0.001,5.641-4.594,10.228-10.234,10.228z"/>
      <rect width="141.855" x="187.544" y="297.403" height="17.295"/>
      <polygon points="500.126,249.333 472.04,236.369 403.717,227.439 322.978,225.239 285.426,194.894     216.924,194.894 180.181,197.606 156.093,202.508 103.913,230.28 84.034,232.271 42.162,183.542 0,183.542 27.965,237.877     3.254,240.356 3.254,276.249 10.024,293.957 28.343,302.101 84.365,305.605 85.442,288.346 32.523,285.034 23.61,281.075     20.543,273.059 20.543,255.998 29.723,255.078 54.742,252.121 28.343,200.837 34.216,200.837 76.792,250.369 109.024,247.156     162.001,218.946 182.55,214.761 217.244,212.182 279.308,212.182 316.657,242.359 402.361,244.699 467.185,253.169     488.275,262.907 491.482,267.925 488.554,272.413 467.208,279.952 429.487,288.544 433.329,305.396 472.016,296.588     499.841,286.762 512.048,268.024   "/>
    </g>
  </g>
</svg>
