<?xml version='1.0' encoding='iso-8859-1'?>
<svg version="1.1" xmlns="http://www.w3.org/2000/svg" viewBox="0 0 425.814 425.814" xmlns:xlink="http://www.w3.org/1999/xlink" enable-background="new 0 0 425.814 425.814">
  <g>
    <g>
      <path d="m110.351,222.893c-15.036,0-27.266,12.23-27.266,27.266 0,15.03 12.23,27.266 27.266,27.266s27.266-12.236 27.266-27.266c-0.006-15.042-12.23-27.266-27.266-27.266zm0,37.232c-5.501,0-9.977-4.471-9.977-9.972s4.476-9.977 9.977-9.977c5.501,0 9.977,4.476 9.977,9.977s-4.476,9.972-9.977,9.972z"/>
      <path d="m352.358,222.893c-15.036,0-27.272,12.23-27.272,27.266 0,15.03 12.236,27.266 27.272,27.266s27.266-12.236 27.266-27.266c0-15.042-12.231-27.266-27.266-27.266zm0,37.232c-5.501,0-9.977-4.471-9.977-9.972s4.476-9.977 9.977-9.977c5.495,0 9.977,4.476 9.977,9.977s-4.482,9.972-9.977,9.972z"/>
      <rect width="139.957" x="161.373" y="250.247" height="17.283"/>
      <polygon points="418.235,228.446 412.228,200.039 406.337,199.405 404.154,189.684 396.598,189.125 398.723,198.584     309.922,189.014 258.015,148.389 153.392,148.389 120.485,155.095 78.69,185.225 65.074,185.225 40.433,159.03 0,159.03     19.093,198.753 19.093,222.893 5.332,222.893 12.504,256.987 47.134,267.18 52.012,250.596 27.295,243.325 26.637,240.182     36.388,240.182 36.388,194.812 27.493,176.318 32.959,176.318 57.594,202.513 84.272,202.513 127.581,171.295 155.133,165.683     252.054,165.683 303.158,205.674 397.908,215.885 404.119,245.235 396.866,252.977 409.486,264.799 425.797,247.377     425.814,228.446   "/>
    </g>
  </g>
</svg>
