<?xml version='1.0' encoding='iso-8859-1'?>
<svg version="1.1" xmlns="http://www.w3.org/2000/svg" viewBox="0 0 403.414 403.414" xmlns:xlink="http://www.w3.org/1999/xlink" enable-background="new 0 0 403.414 403.414">
  <g>
    <g fill="#010202">
      <path d="m90.844,225.719c-21.497,0-38.996,17.498-38.996,38.996 0,21.509 17.498,39.007 38.996,39.007 21.503,0 39.001-17.498 39.001-39.007 0.001-21.497-17.498-38.996-39.001-38.996zm0,54.946c-8.79,0-15.944-7.154-15.944-15.95 0-8.79 7.154-15.938 15.944-15.938 8.796,0 15.944,7.154 15.944,15.938 0,8.801-7.148,15.95-15.944,15.95z"/>
      <path d="m334.51,225.719c-21.497,0-38.996,17.498-38.996,38.996 0,21.509 17.498,39.007 38.996,39.007 21.503,0 39.001-17.498 39.001-39.007 0.006-21.497-17.492-38.996-39.001-38.996zm0,54.946c-8.79,0-15.944-7.154-15.944-15.95 0-8.79 7.154-15.938 15.944-15.938 8.796,0 15.95,7.154 15.95,15.938 0.006,8.801-7.154,15.95-15.95,15.95z"/>
      <rect width="91.712" x="166.827" y="245.948" height="17.295"/>
      <polygon points="400.073,238.293 400.073,182.358 349.697,170.873 274.809,170.873 247.461,112.499     165.843,99.692 21.66,99.692 21.66,150.091 0,150.091 0,225.719 21.66,225.719 21.66,248.241 33.89,260.658 46.208,248.526     38.949,241.157 38.949,116.987 164.487,116.987 235.708,128.158 263.813,188.156 347.753,188.156 382.784,196.148     382.784,255.587 403.414,255.587 403.414,238.293   "/>
    </g>
  </g>
</svg>
