<?xml version='1.0' encoding='iso-8859-1'?>
<svg version="1.1" xmlns="http://www.w3.org/2000/svg" viewBox="0 0 349.918 349.918" xmlns:xlink="http://www.w3.org/1999/xlink" enable-background="new 0 0 349.918 349.918">
  <g>
    <g fill="#010202">
      <rect width="104.891" x="128.74" y="192.728" height="17.295"/>
      <path d="m84.453,179.019c-13.837,0-25.101,11.258-25.101,25.101 0,13.837 11.264,25.095 25.101,25.095 13.843,0 25.101-11.258 25.101-25.095-0.001-13.843-11.259-25.101-25.101-25.101zm0,32.907c-4.302,0-7.806-3.504-7.806-7.806 0-4.308 3.504-7.812 7.806-7.812s7.812,3.504 7.812,7.812c0,4.302-3.511,7.806-7.812,7.806z"/>
      <path d="m280.1,179.019c-13.843,0-25.101,11.258-25.101,25.101 0,13.837 11.258,25.095 25.101,25.095 13.837,0 25.101-11.258 25.101-25.095 0-13.843-11.264-25.101-25.101-25.101zm0,32.907c-4.308,0-7.812-3.504-7.812-7.806 0-4.308 3.504-7.812 7.812-7.812 4.302,0 7.806,3.504 7.806,7.812 0,4.302-3.498,7.806-7.806,7.806z"/>
      <polygon points="202.47,120.704 123.693,120.704 31.83,145.088 0,136.036 43.827,198.357 57.967,188.415     38.786,161.131 125.951,137.992 199.28,137.992 326.261,186.517 324.265,190.714 339.877,198.142 349.918,177.046   "/>
    </g>
  </g>
</svg>
