<?xml version='1.0' encoding='iso-8859-1'?>
<svg version="1.1" xmlns="http://www.w3.org/2000/svg" viewBox="0 0 334.26 334.26" xmlns:xlink="http://www.w3.org/1999/xlink" enable-background="new 0 0 334.26 334.26">
  <g>
    <g>
      <path d="m57.035,178.228c-14.634,0-26.538,11.91-26.538,26.544 0,14.64 11.904,26.544 26.538,26.544 14.64,0 26.544-11.904 26.544-26.544-0.005-14.634-11.904-26.544-26.544-26.544zm0,35.794c-5.099,0-9.25-4.15-9.25-9.25s4.15-9.25 9.25-9.25c5.105,0 9.256,4.15 9.256,9.25s-4.151,9.25-9.256,9.25z"/>
      <path d="m274.39,178.228c-14.634,0-26.538,11.91-26.538,26.544 0,14.64 11.904,26.544 26.538,26.544s26.538-11.904 26.538-26.544c-0.006-14.634-11.91-26.544-26.538-26.544zm0,35.794c-5.105,0-9.256-4.15-9.256-9.25s4.15-9.25 9.256-9.25c5.099,0 9.25,4.15 9.25,9.25s-4.151,9.25-9.25,9.25z"/>
      <rect width="136.156" x="97.143" y="200.22" height="17.295"/>
      <polygon points="243.317,147.737 191.02,107.746 67.56,107.746 59.666,112.583 53.496,102.943 38.937,112.263 44.922,121.612     0,149.122 0,204.772 17.289,204.772 17.289,158.809 72.432,125.035 185.164,125.035 237.152,164.793 316.965,168.018     316.965,204.772 334.26,204.772 334.26,151.422   "/>
    </g>
  </g>
</svg>
