<?xml version='1.0' encoding='iso-8859-1'?>
<svg version="1.1" xmlns="http://www.w3.org/2000/svg" viewBox="0 0 454.908 454.908" xmlns:xlink="http://www.w3.org/1999/xlink" enable-background="new 0 0 454.908 454.908">
  <g>
    <g fill="#010202">
      <path d="m94.418,228.781c-16.06,0-29.117,13.068-29.117,29.117s13.057,29.117 29.117,29.117c16.055,0 29.117-13.063 29.117-29.117 0.001-16.054-13.062-29.117-29.117-29.117zm0,43.822c-8.115,0-14.71-6.595-14.71-14.698 0-8.12 6.601-14.71 14.71-14.71s14.704,6.595 14.704,14.71c0.006,8.102-6.589,14.698-14.704,14.698z"/>
      <path d="m356.042,228.781c-16.055,0-29.117,13.068-29.117,29.117s13.063,29.117 29.117,29.117 29.117-13.063 29.117-29.117c0-16.054-13.062-29.117-29.117-29.117zm0,43.822c-8.115,0-14.704-6.595-14.704-14.698 0-8.12 6.595-14.71 14.704-14.71s14.71,6.595 14.71,14.71c5.68434e-14,8.102-6.601,14.698-14.71,14.698z"/>
      <rect width="165.162" x="142.652" y="258.946" height="17.295"/>
      <polygon points="400.341,207.854 353.126,198.64 298.786,201.888 221.522,167.892 141.284,173.015     0,209.379 13.54,257.834 34.362,274.366 45.114,260.821 28.686,247.781 21.404,221.726 144.014,190.164 218.42,185.42     295.648,219.398 351.968,216.033 394.595,224.346 430.966,243.188 426.332,251.309 408.997,259.831 416.623,275.356     438.725,264.482 454.908,236.116   "/>
    </g>
  </g>
</svg>
