<?xml version='1.0' encoding='iso-8859-1'?>
<svg version="1.1" xmlns="http://www.w3.org/2000/svg" viewBox="0 0 441.648 441.648" xmlns:xlink="http://www.w3.org/1999/xlink" enable-background="new 0 0 441.648 441.648">
  <g>
    <g>
      <path d="m82.817,221.566c-16.899,0-30.642,13.744-30.642,30.642s13.744,30.642 30.642,30.642c16.893,0 30.642-13.744 30.642-30.642s-13.749-30.642-30.642-30.642zm0,43.996c-7.364,0-13.348-5.99-13.348-13.354 0-7.364 5.984-13.348 13.348-13.348s13.348,5.984 13.348,13.348c1.42109e-14,7.364-5.99,13.354-13.348,13.354z"/>
      <path d="m335.843,227.067c-15.379,0-27.889,12.504-27.889,27.889 0,15.379 12.51,27.889 27.889,27.889 15.385,0 27.895-12.51 27.895-27.889s-12.516-27.889-27.895-27.889zm0,38.495c-5.844,0-10.6-4.756-10.6-10.6s4.756-10.6 10.6-10.6c5.85,0 10.6,4.756 10.6,10.6s-4.75,10.6-10.6,10.6z"/>
      <rect width="173.766" x="121.353" y="261.161" height="17.289"/>
      <polygon points="253.026,169.764 152.857,169.764 52.425,188.164 29.827,161.312 1.531,158.797 0,176.022 21.195,177.902     32.849,191.744 0.92,197.6 0.92,234.576 29.49,250.811 38.035,235.775 18.208,224.517 18.208,212.002 154.428,187.047     250.034,187.047 424.359,249.385 424.359,249.752 413.566,255.445 421.646,270.737 441.648,260.166 441.648,237.207   "/>
    </g>
  </g>
</svg>
