<?xml version='1.0' encoding='iso-8859-1'?>
<svg version="1.1" xmlns="http://www.w3.org/2000/svg" viewBox="0 0 354.424 354.424" xmlns:xlink="http://www.w3.org/1999/xlink" enable-background="new 0 0 354.424 354.424">
  <g>
    <g fill="#010202">
      <path d="m86.665,191.261c-21.753,0-39.455,17.702-39.455,39.45 0,21.759 17.702,39.456 39.455,39.456s39.45-17.696 39.45-39.455c0.005-21.749-17.691-39.451-39.45-39.451zm0,55.86c-9.046,0-16.398-7.364-16.398-16.404 0-9.04 7.358-16.392 16.398-16.392 9.04,0 16.398,7.358 16.398,16.392 0.006,9.04-7.358,16.404-16.398,16.404z"/>
      <path d="m296.271,191.261c-21.753,0-39.45,17.702-39.45,39.45 0,21.759 17.696,39.456 39.45,39.456s39.45-17.696 39.45-39.455c0-21.749-17.696-39.451-39.45-39.451zm0,55.86c-9.046,0-16.398-7.364-16.398-16.404 0-9.04 7.358-16.392 16.398-16.392s16.398,7.358 16.398,16.392c0.006,9.04-7.352,16.404-16.398,16.404z"/>
      <rect width="86.315" x="148.31" y="211.775" height="17.295"/>
      <polygon points="334.626,155.345 334.626,141.793 229.532,133.388 199.856,84.258 44.287,84.258     27.732,141.142 0,141.142 0,198.008 22.33,198.008 22.33,214.749 15.234,214.749 15.234,232.044 39.613,232.044 39.613,162.179     57.262,101.546 190.106,101.546 219.322,149.914 317.338,157.755 317.338,172.64 337.141,172.64 337.141,191.913 354.424,191.913     354.424,155.345   "/>
    </g>
  </g>
</svg>
