<?xml version='1.0' encoding='iso-8859-1'?>
<svg version="1.1" xmlns="http://www.w3.org/2000/svg" viewBox="0 0 420.709 420.709" xmlns:xlink="http://www.w3.org/1999/xlink" enable-background="new 0 0 420.709 420.709">
  <g>
    <g>
      <path d="m74.667,228.141c-21.299,0-38.629,17.329-38.629,38.623 0,21.299 17.329,38.629 38.629,38.629 21.294,0 38.623-17.329 38.623-38.629s-17.329-38.623-38.623-38.623zm0,59.951c-11.764,0-21.34-9.576-21.34-21.334 0-11.759 9.576-21.334 21.34-21.334s21.334,9.576 21.334,21.334c0.001,11.759-9.575,21.334-21.334,21.334z"/>
      <path d="m340.442,228.141c-21.305,0-38.635,17.329-38.635,38.623 0,21.299 17.329,38.629 38.635,38.629 21.294,0 38.623-17.329 38.623-38.629-0.006-21.299-17.33-38.623-38.623-38.623zm0,59.951c-11.764,0-21.34-9.576-21.34-21.334 0-11.759 9.576-21.334 21.34-21.334 11.759,0 21.329,9.576 21.329,21.334-0.001,11.759-9.576,21.334-21.329,21.334z"/>
      <rect width="104.244" x="155.429" y="248.474" height="17.295"/>
      <polygon points="321.785,176.647 256.431,115.316 72.438,115.316 0,195.554 0,234.113 17.283,234.113 17.283,202.208     80.116,132.611 249.586,132.611 314.951,193.936 403.414,193.936 403.414,236.785 420.709,236.785 420.709,176.647   "/>
    </g>
  </g>
</svg>
