<?xml version='1.0' encoding='iso-8859-1'?>
<svg version="1.1" xmlns="http://www.w3.org/2000/svg" viewBox="0 0 449.523 449.523" xmlns:xlink="http://www.w3.org/1999/xlink" enable-background="new 0 0 449.523 449.523">
  <g>
    <g fill="#010202">
      <path d="m79.627,245.22c-24.938,0-45.224,20.281-45.224,45.224s20.281,45.224 45.224,45.224 45.23-20.281 45.23-45.224-20.287-45.224-45.23-45.224zm0,67.397c-12.224,0-22.173-9.948-22.173-22.178 0-12.23 9.948-22.173 22.173-22.173 12.23,0 22.173,9.942 22.173,22.173s-9.943,22.178-22.173,22.178z"/>
      <path d="m377.592,245.22c-24.932,0-45.218,20.281-45.218,45.224s20.281,45.224 45.218,45.224c24.943,0 45.23-20.281 45.23-45.224s-20.287-45.224-45.23-45.224zm0,67.397c-12.224,0-22.173-9.948-22.173-22.178 0-12.23 9.948-22.173 22.173-22.173 12.236,0 22.173,9.942 22.173,22.173s-9.943,22.178-22.173,22.178z"/>
      <rect width="175.297" x="139.41" y="276.526" height="17.289"/>
      <polygon points="333.817,191.253 307.762,130.044 221.912,130.044 221.912,113.855 204.624,113.855     204.624,130.044 112.994,130.044 112.994,113.855 95.705,113.855 95.705,130.044 8.534,130.044 8.534,231.168 0,239.195 0,269.89     17.283,269.89 17.283,246.669 25.822,238.636 25.822,147.338 296.335,147.338 322.39,208.541 432.235,208.541 432.235,269.89     449.523,269.89 449.523,191.253   "/>
    </g>
  </g>
</svg>
