<?xml version='1.0' encoding='iso-8859-1'?>
<svg version="1.1" xmlns="http://www.w3.org/2000/svg" viewBox="0 0 330.418 330.418" xmlns:xlink="http://www.w3.org/1999/xlink" enable-background="new 0 0 330.418 330.418">
  <g>
    <g fill="#010202">
      <path d="m40.387,164.97c-18.028,0-32.691,14.669-32.691,32.697 0,18.022 14.669,32.686 32.691,32.686s32.691-14.669 32.691-32.686c0-18.028-14.669-32.697-32.691-32.697zm0,42.331c-5.315,0-9.64-4.325-9.64-9.634 0-5.321 4.325-9.64 9.64-9.64s9.634,4.319 9.634,9.64c0,5.309-4.319,9.634-9.634,9.634z"/>
      <path d="m300.608,172.06c-16.439,0-29.81,13.377-29.81,29.81s13.371,29.81 29.81,29.81c16.433,0 29.81-13.377 29.81-29.81s-13.377-29.81-29.81-29.81zm0,42.331c-6.91,0-12.521-5.617-12.521-12.521s5.617-12.521 12.521-12.521 12.515,5.617 12.515,12.521-5.617,12.521-12.515,12.521z"/>
      <polygon points="216.656,136.109 192.44,136.109 192.44,122.884 168.294,98.738 96.141,98.738     71.087,130.503 37.762,130.503 0,155.691 9.599,170.075 43.001,147.792 79.47,147.792 104.524,116.026 161.134,116.026     175.151,130.044 175.151,153.398 199.367,153.398 199.367,200.258 81.35,200.258 81.35,217.552 263.603,217.552 263.603,200.258     216.656,200.258   "/>
      <rect width="11.52" x="228.123" y="144.288" height="46.714"/>
      <rect width="11.526" x="245.226" y="144.288" height="46.714"/>
      <rect width="11.526" x="262.334" y="144.288" height="34.094"/>
      <rect width="11.52" x="279.442" y="144.288" height="23.354"/>
    </g>
  </g>
</svg>
