<?xml version='1.0' encoding='iso-8859-1'?>
<svg version="1.1" xmlns="http://www.w3.org/2000/svg" viewBox="0 0 450.228 450.228" xmlns:xlink="http://www.w3.org/1999/xlink" enable-background="new 0 0 450.228 450.228">
  <g>
    <g fill="#010202">
      <path d="m92.253,230.085c-15.537,0-28.18,12.632-28.18,28.174s12.643,28.186 28.18,28.186c15.542,0 28.186-12.643 28.186-28.186s-12.644-28.174-28.186-28.174zm0,39.066c-6.002,0-10.891-4.89-10.891-10.891s4.89-10.891 10.891-10.891c6.007,0 10.891,4.89 10.891,10.891s-4.884,10.891-10.891,10.891z"/>
      <path d="m355.565,230.085c-15.542,0-28.186,12.632-28.186,28.174s12.643,28.186 28.186,28.186c15.542,0 28.186-12.643 28.186-28.186s-12.644-28.174-28.186-28.174zm0,39.066c-6.007,0-10.891-4.89-10.891-10.891s4.884-10.891 10.891-10.891c6.002,0 10.891,4.89 10.891,10.891s-4.889,10.891-10.891,10.891z"/>
      <rect width="183.889" x="131.965" y="258.783" height="17.283"/>
      <polygon points="372.813,208.745 330.645,200.753 262.689,170.797 233.1,163.783 179.436,163.783     98.54,190.129 66.11,189.465 49.904,182.835 5.123,182.835 10.251,215.253 0,215.253 0,248.777 18.948,266.001 30.578,253.212     17.289,241.139 17.289,232.542 30.485,232.542 25.363,200.124 46.505,200.124 62.536,206.678 101.107,207.476 182.177,181.077     231.081,181.077 257.165,187.253 325.481,217.366 368.29,225.486 431.542,247.892 428.626,274.419 445.815,276.305     450.228,236.168   "/>
    </g>
  </g>
</svg>
