<?xml version='1.0' encoding='iso-8859-1'?>
<svg version="1.1" xmlns="http://www.w3.org/2000/svg" viewBox="0 0 247.816 247.816" xmlns:xlink="http://www.w3.org/1999/xlink" enable-background="new 0 0 247.816 247.816">
  <g>
    <g fill="#010202">
      <rect width="75.482" x="84.767" y="163.759" height="17.295"/>
      <path d="m35.602,136.802c-19.629,0-35.602,15.973-35.602,35.596 0,19.635 15.973,35.608 35.602,35.608s35.596-15.973 35.596-35.608c0-19.623-15.967-35.596-35.596-35.596zm0,53.915c-10.094,0-18.313-8.219-18.313-18.313 0-10.094 8.214-18.307 18.313-18.307s18.313,8.208 18.313,18.307c7.10543e-15,10.099-8.219,18.313-18.313,18.313z"/>
      <path d="m212.214,136.802c-19.629,0-35.602,15.973-35.602,35.596 0,19.635 15.973,35.608 35.602,35.608s35.602-15.973 35.602-35.608c0-19.623-15.973-35.596-35.602-35.596zm0,53.915c-10.094,0-18.313-8.219-18.313-18.313 0-10.094 8.214-18.307 18.313-18.307s18.313,8.208 18.313,18.307c0.001,10.099-8.219,18.313-18.313,18.313z"/>
      <polygon points="88.073,114.309 88.073,61.296 102.155,57.774 133.862,67.804 134.083,114.222     203.57,114.222 203.57,126.074 220.859,126.074 220.859,96.939 151.291,96.939 151.087,55.12 102.702,39.811 70.785,47.791     70.785,101.171 25.357,113.785 29.985,130.445   "/>
    </g>
  </g>
</svg>
