<?xml version='1.0' encoding='iso-8859-1'?>
<svg version="1.1" xmlns="http://www.w3.org/2000/svg" viewBox="0 0 276.555 276.555" xmlns:xlink="http://www.w3.org/1999/xlink" enable-background="new 0 0 276.555 276.555">
  <g>
    <g fill="#010202">
      <path d="m227.157,157.874c-13.453,0-24.408,10.955-24.408,24.408 0,13.458 10.961,24.414 24.408,24.414 13.458,0 24.42-10.955 24.42-24.414-5.68434e-14-13.452-10.961-24.408-24.42-24.408zm0,31.533c-3.923,0-7.119-3.196-7.119-7.125s3.196-7.125 7.119-7.125c3.935,0 7.131,3.196 7.131,7.125s-3.202,7.125-7.131,7.125z"/>
      <path d="m50.347,157.874c-13.458,0-24.408,10.955-24.408,24.408 0,13.458 10.95,24.414 24.408,24.414s24.408-10.955 24.408-24.414c0-13.452-10.95-24.408-24.408-24.408zm0,31.533c-3.929,0-7.125-3.196-7.125-7.125s3.196-7.125 7.125-7.125 7.125,3.196 7.125,7.125-3.202,7.125-7.125,7.125z"/>
      <rect width="81.234" x="98.138" y="173.638" height="17.295"/>
      <polygon points="271.497,138.851 264.005,128.239 247.63,116.544 210.701,110.939 183.598,79.08     150.516,69.859 94.378,69.859 61.157,81.298 33.92,116.597 17.393,132.64 3.167,152.891 0,177.177 17.143,179.401 19.763,159.341     30.607,143.915 46.854,128.14 71.687,95.955 97.271,87.154 148.147,87.154 173.865,94.314 201.719,127.057 240.947,133.018     251.577,140.603 255.657,146.389 259.261,159.236 259.261,178.289 276.555,178.289 276.555,156.844   "/>
    </g>
  </g>
</svg>
