<?xml version='1.0' encoding='iso-8859-1'?>
<svg version="1.1" xmlns="http://www.w3.org/2000/svg" viewBox="0 0 449.867 449.867" xmlns:xlink="http://www.w3.org/1999/xlink" enable-background="new 0 0 449.867 449.867">
  <g>
    <g fill="#010202">
      <path d="m74.679,216.374c-19.146,0-34.723,15.577-34.723,34.723 0,19.14 15.577,34.711 34.723,34.711 19.14,0 34.717-15.571 34.717-34.711 0-19.146-15.571-34.723-34.717-34.723zm0,52.145c-9.611,0-17.428-7.818-17.428-17.423 0-9.611 7.818-17.428 17.428-17.428 9.605,0 17.423,7.818 17.423,17.428 0.005,9.611-7.812,17.423-17.423,17.423z"/>
      <path d="m355.809,227.963c-15.944,0-28.925,12.975-28.925,28.925 0,15.95 12.975,28.925 28.925,28.925 15.95,0 28.925-12.975 28.925-28.925 0.001-15.949-12.975-28.925-28.925-28.925zm0,40.556c-6.421,0-11.636-5.216-11.636-11.636 0-6.415 5.216-11.631 11.636-11.631 6.421,0 11.636,5.216 11.636,11.631 0.001,6.42-5.215,11.636-11.636,11.636z"/>
      <rect width="187.9" x="125.142" y="248.244" height="17.289"/>
      <polygon points="351.234,197.6 334.69,198.171 263.568,164.053 188.418,164.053 117.656,186.488     79.656,181.953 19.239,188.95 0,223.359 5.064,258.134 22.173,255.643 17.958,226.677 30.014,205.11 79.627,199.364     119.315,204.097 191.095,181.342 259.633,181.342 331.046,215.593 348.108,215.006 432.572,249.758 432.572,256.883     449.867,256.883 449.867,238.168   "/>
    </g>
  </g>
</svg>
