<?xml version='1.0' encoding='iso-8859-1'?>
<svg version="1.1" xmlns="http://www.w3.org/2000/svg" viewBox="0 0 276.631 276.631" xmlns:xlink="http://www.w3.org/1999/xlink" enable-background="new 0 0 276.631 276.631">
  <g>
    <g fill="#010202">
      <path d="m51.93,147.222c-18.593,0-33.728,15.129-33.728,33.728 0,18.593 15.135,33.722 33.728,33.722s33.728-15.129 33.728-33.722c0-18.599-15.135-33.728-33.728-33.728zm0,50.16c-9.063,0-16.433-7.375-16.433-16.433 0-9.069 7.375-16.439 16.433-16.439s16.433,7.375 16.433,16.439c0,9.064-7.369,16.433-16.433,16.433z"/>
      <path d="m247.409,161.658c-14.506,0-26.306,11.799-26.306,26.3 0,14.506 11.794,26.306 26.306,26.306 14.5,0 26.3-11.794 26.3-26.306 0-14.501-11.8-26.3-26.3-26.3zm0,35.311c-4.971,0-9.017-4.046-9.017-9.017 0-4.971 4.04-9.005 9.017-9.005 4.971,0 9.011,4.034 9.011,9.005 0,4.971-4.04,9.017-9.011,9.017z"/>
      <rect width="122.598" x="91.974" y="171.455" height="17.295"/>
      <polygon points="253.405,115.409 225.428,116.684 202.359,126.138 199.862,127.494 168.917,73.113     153.893,81.664 184.675,135.76 182.3,137.046 103.092,125.014 91.124,115.345 73.468,102.964 51.971,97.306 62.263,84.004     63.747,92.393 80.768,89.371 75.919,62.03 57.443,61.96 30.386,96.956 30.415,96.98 22.697,96.98 0,125.352 0,165.5 17.289,165.5     17.289,131.417 31.003,114.268 48.501,114.268 66.087,118.896 80.488,128.978 95.868,141.406 185.455,155.016 209.787,141.785     229.206,133.821 247.898,132.972 259.342,141.732 259.342,152.688 276.631,152.688 276.631,133.199   "/>
    </g>
  </g>
</svg>
