<?xml version='1.0' encoding='iso-8859-1'?>
<svg version="1.1" xmlns="http://www.w3.org/2000/svg" viewBox="0 0 512.054 512.054" xmlns:xlink="http://www.w3.org/1999/xlink" enable-background="new 0 0 512.054 512.054">
  <g>
    <g fill="#010202">
      <path d="m66.221,250.968c-21.416,0-38.838,17.417-38.838,38.833s17.423,38.838 38.838,38.838 38.838-17.423 38.838-38.838-17.428-38.833-38.838-38.833zm0,58.823c-11.025,0-19.99-8.97-19.99-19.996s8.965-19.984 19.99-19.984 19.99,8.959 19.99,19.984c0,11.025-8.971,19.996-19.99,19.996z"/>
      <path d="m489.555,283.642c-12.405,0-22.499,10.094-22.499,22.499s10.094,22.493 22.499,22.493c12.405,0 22.499-10.088 22.499-22.493 0-12.405-10.094-22.499-22.499-22.499zm0,26.149c-2.014,0-3.644-1.636-3.644-3.65 0-2.014 1.63-3.65 3.644-3.65 2.014,0 3.65,1.636 3.65,3.65 0,2.014-1.636,3.65-3.65,3.65z"/>
      <rect width="338.794" x="118.349" y="301.95" height="18.849"/>
      <polygon points="45.405,245.328 62.35,237.079 45.41,202.263 60.697,202.263 60.697,183.414 0,183.414     0,202.263 24.454,202.263   "/>
      <polygon points="137.809,245.106 154.19,228.732 164.988,228.732 164.988,209.877 146.378,209.877     118.966,237.295 118.966,269.963 137.809,269.963   "/>
      <polygon points="221.47,235.216 166.024,235.216 166.024,269.963 184.867,269.963 184.867,254.059     202.621,254.059 202.621,278.764 456.509,295.931 457.778,277.128 221.47,261.155   "/>
    </g>
  </g>
</svg>
