<?xml version='1.0' encoding='iso-8859-1'?>
<svg version="1.1" xmlns="http://www.w3.org/2000/svg" viewBox="0 0 512.048 512.048" xmlns:xlink="http://www.w3.org/1999/xlink" enable-background="new 0 0 512.048 512.048">
  <g>
    <g>
      <rect width="249.696" x="137.431" y="288.439" height="16.724"/>
      <path d="m87.654,273.898c-21.521,0-39.025,17.51-39.025,39.025 0,21.515 17.504,39.025 39.025,39.025 21.515,0 39.025-17.51 39.025-39.025 0-21.515-17.51-39.025-39.025-39.025zm0,55.748c-9.221,0-16.724-7.503-16.724-16.724 0-9.221 7.503-16.724 16.724-16.724s16.724,7.503 16.724,16.724c0,9.221-7.503,16.724-16.724,16.724z"/>
      <path d="m436.909,273.31c-21.596,0-39.17,17.638-39.17,39.322 0,21.684 17.574,39.322 39.17,39.322 21.596,0 39.17-17.638 39.17-39.322 0-21.684-17.574-39.322-39.17-39.322zm0,56.336c-9.302,0-16.87-7.637-16.87-17.021s7.573-17.021 16.87-17.021c9.296,0 16.864,7.637 16.864,17.021s-7.562,17.021-16.864,17.021z"/>
      <polygon points="500.284,211.268 405.417,203.229 335.93,160.095 197.44,160.095 197.44,210.977 0,210.977 0,305.163     32.214,305.163 32.214,288.439 16.724,288.439 16.724,227.707 214.164,227.707 214.164,176.819 331.157,176.819 400.009,219.552     492.78,227.416 495.324,229.954 495.324,284.253 493.56,286.017 485.131,286.017 485.131,302.741 500.487,302.741     512.048,291.181 512.048,223.033   "/>
    </g>
  </g>
</svg>
