<?xml version="1.0" encoding="iso-8859-1"?>
<!-- Generator: Adobe Illustrator 18.0.0, SVG Export Plug-In . SVG Version: 6.00 Build 0)  -->
<!DOCTYPE svg PUBLIC "-//W3C//DTD SVG 1.1//EN" "http://www.w3.org/Graphics/SVG/1.1/DTD/svg11.dtd">
<svg version="1.1" id="Capa_1" xmlns="http://www.w3.org/2000/svg" xmlns:xlink="http://www.w3.org/1999/xlink" x="0px" y="0px"
	 viewBox="0 0 369.5 369.5" style="enable-background:new 0 0 369.5 369.5;" xml:space="preserve">
<g>
	<path style="fill:#211915;" d="M362.251,138.494c-4.537-2.894-10.162-3.268-15.041-0.998l-8.812,4.097h-14.664
		c-13.498-5.58-90.454-35.77-146.142-23.04c-6.698,1.531-13.39,4.12-19.887,7.695c-17.441,9.597-31.158,17.486-36.349,20.493
		c-17.015-0.303-88.016-0.28-117.157,20.464c-3.307,2.354-4.862,6.474-3.937,10.427l10.507,44.865
		c1.059,4.522,5.092,7.72,9.736,7.72c0.002,0,0.005,0,0.007,0l17.16-0.011C41.945,244,54.821,254.05,70,254.05
		c15.195,0,28.081-10.07,32.339-23.887l156.293-0.103c4.226,13.869,17.136,23.99,32.368,23.99c15.306,0,28.264-10.221,32.426-24.193
		c0.859-0.149,1.699-0.396,2.495-0.765l37.782-17.503c3.535-1.637,5.797-5.178,5.797-9.073v-50.801
		C369.5,146.331,366.79,141.389,362.251,138.494z M277.167,220.217c0-7.628,6.205-13.833,13.833-13.833s13.833,6.205,13.833,13.833
		S298.628,234.05,291,234.05S277.167,227.845,277.167,220.217z M83.833,220.217c0,7.628-6.205,13.833-13.833,13.833
		s-13.833-6.205-13.833-13.833S62.372,206.384,70,206.384S83.833,212.589,83.833,220.217z M123.658,166.8
		c0.096,0.003,0.193,0.004,0.289,0.004H210c5.522,0,10-4.478,10-10s-4.478-10-10-10h-48.144c1.782-0.988,3.614-2,5.491-3.033
		c4.869-2.679,9.815-4.604,14.702-5.721c53.538-12.239,134.895,22.375,135.708,22.726c1.25,0.539,2.598,0.817,3.96,0.817h18.892
		c1.456,0,2.895-0.318,4.216-0.932l4.675-2.174v37.64l-26.753,12.394c-4.771-12.909-17.201-22.137-31.747-22.137
		c-15.118,0-27.949,9.968-32.273,23.676l-156.419,0.104C98.017,196.402,85.156,186.384,70,186.384
		c-15.171,0-28.042,10.039-32.32,23.822l-9.245,0.006l-7.026-30.002C47.018,167.643,102.791,166.196,123.658,166.8z"/>
</g>
<g>
</g>
<g>
</g>
<g>
</g>
<g>
</g>
<g>
</g>
<g>
</g>
<g>
</g>
<g>
</g>
<g>
</g>
<g>
</g>
<g>
</g>
<g>
</g>
<g>
</g>
<g>
</g>
<g>
</g>
</svg>
