<?xml version="1.0" encoding="iso-8859-1"?>
<!-- Generator: Adobe Illustrator 18.0.0, SVG Export Plug-In . SVG Version: 6.00 Build 0)  -->
<!DOCTYPE svg PUBLIC "-//W3C//DTD SVG 1.1//EN" "http://www.w3.org/Graphics/SVG/1.1/DTD/svg11.dtd">
<svg version="1.1" id="Capa_1" xmlns="http://www.w3.org/2000/svg" xmlns:xlink="http://www.w3.org/1999/xlink" x="0px" y="0px"
	 viewBox="0 0 302 302" style="enable-background:new 0 0 302 302;" xml:space="preserve">
<g>
	<path style="fill:#211915;" d="M292,169.938h-20.64c-0.063-0.377-0.143-0.755-0.252-1.132L228.826,22.323H292
		c5.523,0,10-4.478,10-10s-4.477-10-10-10H10c-5.523,0-10,4.478-10,10s4.477,10,10,10h21.145v147.614H10c-5.523,0-10,4.478-10,10
		v74.747c0,5.522,4.477,10,10,10h21.633c4.561,20.01,22.487,34.992,43.858,34.992s39.297-14.982,43.858-34.992h63.303
		c4.561,20.01,22.487,34.992,43.858,34.992s39.297-14.982,43.858-34.992H292c5.523,0,10-4.478,10-10v-74.747
		C302,174.415,297.523,169.938,292,169.938z M51.145,22.323h156.902c0.05,0.234,0.097,0.468,0.165,0.701l42.407,146.913h-18.099
		c-0.299-0.451-0.628-0.889-1.009-1.299l-53.436-57.476l4.958-4.28c4.181-3.608,4.645-9.924,1.036-14.104
		c-3.609-4.182-9.924-4.646-14.104-1.036l-25.499,22.009c-4.181,3.608-4.645,9.924-1.036,14.104
		c1.978,2.291,4.768,3.466,7.575,3.466c2.314,0,4.64-0.799,6.53-2.43l5.39-4.652l42.486,45.698h-89.428v-9.445h14.632
		c5.523,0,10-4.478,10-10s-4.477-10-10-10H91.35V83.673c0-5.522-4.477-10-10-10s-10,4.478-10,10v66.819c0,5.522,4.477,10,10,10
		h14.632v9.445H51.145V22.323z M100.482,254.685c0,13.78-11.211,24.992-24.992,24.992s-24.992-11.212-24.992-24.992
		s11.211-24.992,24.992-24.992S100.482,240.904,100.482,254.685z M251.501,254.685c0,13.78-11.211,24.992-24.992,24.992
		s-24.992-11.212-24.992-24.992s11.211-24.992,24.992-24.992S251.501,240.904,251.501,254.685z M282,244.685h-11.633
		c-4.561-20.01-22.487-34.992-43.858-34.992s-39.297,14.982-43.858,34.992h-63.303c-4.561-20.01-22.487-34.992-43.858-34.992
		s-39.297,14.982-43.858,34.992H20v-54.747h262V244.685z"/>
</g>
<g>
</g>
<g>
</g>
<g>
</g>
<g>
</g>
<g>
</g>
<g>
</g>
<g>
</g>
<g>
</g>
<g>
</g>
<g>
</g>
<g>
</g>
<g>
</g>
<g>
</g>
<g>
</g>
<g>
</g>
</svg>
