<?xml version="1.0" encoding="iso-8859-1"?>
<!-- Generator: Adobe Illustrator 18.0.0, SVG Export Plug-In . SVG Version: 6.00 Build 0)  -->
<!DOCTYPE svg PUBLIC "-//W3C//DTD SVG 1.1//EN" "http://www.w3.org/Graphics/SVG/1.1/DTD/svg11.dtd">
<svg version="1.1" id="Capa_1" xmlns="http://www.w3.org/2000/svg" xmlns:xlink="http://www.w3.org/1999/xlink" x="0px" y="0px"
	 viewBox="0 0 356.227 356.227" style="enable-background:new 0 0 356.227 356.227;" xml:space="preserve">
<g>
	<path style="fill:#211915;" d="M354.751,145.752l-29.109-47.458c-1.82-2.967-5.049-4.771-8.524-4.771c-0.041,0-0.083,0-0.124,0.001
		l-80.398,1c-5.475,0.068-9.876,4.524-9.876,9.999v102.946h-21.838c-0.312-0.685-0.696-1.348-1.175-1.97L77.792,41.925
		c-1.893-2.459-4.82-3.9-7.924-3.9H41.039c-5.522,0-10,4.478-10,10V156.02c0,5.522,4.478,10,10,10c0.011,0,0.022-0.001,0.033-0.002
		c0.011,0,0.022,0.002,0.033,0.002c3.508,0,6.361,2.854,6.361,6.36c0,3.508-2.854,6.361-6.361,6.361c-3.507,0-6.36-2.854-6.36-6.361
		c0-5.522-4.478-10-10-10s-10,4.478-10,10c0,14.536,11.825,26.361,26.36,26.361c14.536,0,26.361-11.825,26.361-26.361
		c0-11.022-6.802-20.48-16.428-24.411V86.204l68.201,121.265H10c-5.522,0-10,4.478-10,10v58.545c0,5.522,4.478,10,10,10h22.247
		c4.503,18.45,21.164,32.188,40.982,32.188c19.817,0,36.478-13.738,40.981-32.188h136.282c4.503,18.45,21.164,32.188,40.981,32.188
		c19.818,0,36.479-13.738,40.982-32.188h13.772c5.522,0,10-4.478,10-10V150.98C356.227,149.135,355.716,147.325,354.751,145.752z
		 M313.662,276.014c0,12.234-9.954,22.188-22.189,22.188c-12.234,0-22.188-9.954-22.188-22.188c0-12.235,9.954-22.189,22.188-22.189
		C303.708,253.824,313.662,263.778,313.662,276.014z M246.719,114.398l64.844-0.806l10.834,17.663h-47.537c-5.522,0-10,4.478-10,10
		v52.012c0,5.522,4.478,10,10,10h61.367v62.746h-3.772c-4.503-18.451-21.164-32.189-40.982-32.189
		c-19.817,0-36.478,13.739-40.981,32.189h-3.773V114.398z M334.517,151.015l1.71,2.787v29.465h-51.367v-32.012h47.497
		C333.099,151.256,333.82,151.169,334.517,151.015z M95.417,276.014c0,12.234-9.954,22.188-22.188,22.188
		c-12.235,0-22.189-9.954-22.189-22.188c0-12.235,9.954-22.189,22.189-22.189C85.463,253.824,95.417,263.778,95.417,276.014z
		 M20,227.469h206.719v38.545H114.209c-4.503-18.451-21.164-32.189-40.981-32.189c-19.818,0-36.479,13.739-40.982,32.189H20V227.469
		z M58.137,58.024h6.81l115.038,149.444h-37.799L58.137,58.024z"/>
</g>
<g>
</g>
<g>
</g>
<g>
</g>
<g>
</g>
<g>
</g>
<g>
</g>
<g>
</g>
<g>
</g>
<g>
</g>
<g>
</g>
<g>
</g>
<g>
</g>
<g>
</g>
<g>
</g>
<g>
</g>
</svg>
