<?xml version="1.0" encoding="iso-8859-1"?>
<!-- Generator: Adobe Illustrator 18.0.0, SVG Export Plug-In . SVG Version: 6.00 Build 0)  -->
<!DOCTYPE svg PUBLIC "-//W3C//DTD SVG 1.1//EN" "http://www.w3.org/Graphics/SVG/1.1/DTD/svg11.dtd">
<svg version="1.1" id="Capa_1" xmlns="http://www.w3.org/2000/svg" xmlns:xlink="http://www.w3.org/1999/xlink" x="0px" y="0px"
	 viewBox="0 0 372.779 372.779" style="enable-background:new 0 0 372.779 372.779;" xml:space="preserve">
<g>
	<path style="fill:#211915;" d="M315.959,250.419c-4.075-11.606-16.834-17.735-28.439-13.66l-37.485,13.159
		c-12.827-35.061-46.524-60.152-85.972-60.152c-11.866,0-23.211,2.271-33.625,6.401l8.624-15.033
		c2.328-3.974,3.558-8.515,3.558-13.136c0-2.074-0.246-4.14-0.732-6.144c-0.008-0.035-0.017-0.069-0.025-0.104L106.808,19.762
		c-0.007-0.028-0.017-0.053-0.024-0.081C103.95,8.388,93.716,0,81.557,0C67.216,0,55.548,11.667,55.548,26.008
		c0,14.341,11.667,26.009,26.009,26.009c4.287,0,8.331-1.049,11.899-2.894l28.97,117.344c0.006,0.027,0.013,0.053,0.02,0.08
		c0.115,0.468,0.174,0.956,0.174,1.45c0,1.091-0.277,2.113-0.823,3.04c-0.02,0.034-0.039,0.067-0.059,0.101l-36.62,63.837
		c-0.1,0.175-0.183,0.355-0.271,0.534c-7.812,13.47-12.29,29.103-12.29,45.764c0,50.457,41.05,91.506,91.506,91.506
		c45.745,0,83.757-33.742,90.458-77.644l47.583-16.21c5.677-1.934,10.248-5.97,12.87-11.365
		C317.596,262.167,317.946,256.079,315.959,250.419z M81.557,32.017c-3.313,0-6.009-2.695-6.009-6.009
		c0-3.313,2.695-6.008,6.009-6.008s6.009,2.695,6.009,6.008C87.566,29.322,84.87,32.017,81.557,32.017z M164.063,352.779
		c-39.429,0-71.506-32.078-71.506-71.506c0-39.428,32.078-71.506,71.506-71.506s71.506,32.078,71.506,71.506
		C235.57,320.702,203.492,352.779,164.063,352.779z M296.986,258.817c-0.192,0.395-0.579,0.92-1.332,1.176l-40.396,13.762
		c-0.118-1.448-0.268-2.887-0.453-4.315l39.339-13.81c1.205-0.422,2.522,0.213,2.943,1.413
		C297.351,257.794,297.178,258.422,296.986,258.817z"/>
	<path style="fill:#211915;" d="M141.859,274.858c1.953,1.953,4.512,2.929,7.071,2.929c2.559,0,5.119-0.977,7.071-2.929
		c3.905-3.905,3.906-10.237,0-14.142l-24.053-24.053c-3.906-3.905-10.237-3.905-14.142,0c-3.905,3.905-3.906,10.237,0,14.142
		L141.859,274.858z"/>
	<path style="fill:#211915;" d="M178.967,276.667c2.559,0,5.119-0.976,7.071-2.929l24.053-24.053c3.905-3.905,3.905-10.237,0-14.143
		c-3.905-3.905-10.237-3.905-14.143,0l-24.053,24.053c-3.905,3.905-3.905,10.237,0,14.143
		C173.849,275.69,176.408,276.667,178.967,276.667z"/>
	<path style="fill:#211915;" d="M186.758,291.472c-3.905-3.905-10.237-3.905-14.143,0c-3.905,3.905-3.905,10.237,0,14.143
		l24.053,24.053c1.953,1.953,4.512,2.929,7.071,2.929s5.119-0.976,7.071-2.929c3.905-3.905,3.905-10.237,0-14.143L186.758,291.472z"
		/>
	<path style="fill:#211915;" d="M141.92,289.57l-24.053,24.053c-3.905,3.905-3.905,10.237,0,14.143
		c1.953,1.953,4.512,2.929,7.071,2.929s5.119-0.976,7.071-2.929l24.053-24.053c3.905-3.905,3.905-10.237,0-14.143
		C152.158,285.665,145.826,285.665,141.92,289.57z"/>
</g>
<g>
</g>
<g>
</g>
<g>
</g>
<g>
</g>
<g>
</g>
<g>
</g>
<g>
</g>
<g>
</g>
<g>
</g>
<g>
</g>
<g>
</g>
<g>
</g>
<g>
</g>
<g>
</g>
<g>
</g>
</svg>
