<?xml version="1.0" encoding="iso-8859-1"?>
<!-- Generator: Adobe Illustrator 18.0.0, SVG Export Plug-In . SVG Version: 6.00 Build 0)  -->
<!DOCTYPE svg PUBLIC "-//W3C//DTD SVG 1.1//EN" "http://www.w3.org/Graphics/SVG/1.1/DTD/svg11.dtd">
<svg version="1.1" id="Capa_1" xmlns="http://www.w3.org/2000/svg" xmlns:xlink="http://www.w3.org/1999/xlink" x="0px" y="0px"
	 viewBox="0 0 377.193 377.193" style="enable-background:new 0 0 377.193 377.193;" xml:space="preserve">
<g>
	<path style="fill:#211915;" d="M375.236,169.413c-1.886-2.552-4.87-4.058-8.043-4.058h-35.577l6.789-38.519
		c0.513-2.911-0.288-5.9-2.188-8.164s-4.704-3.572-7.66-3.572h-29.621c-3.399,0-6.566,1.727-8.407,4.585l-29.416,45.669
		c-24.927,0-129.404,0.005-189.819,0.044c-30.597,0.02-57.823,18.345-69.363,46.685c-3.188,7.83-2.39,16.783,2.135,23.95
		c4.472,7.083,11.781,11.42,20.048,11.899c0.52,0.03,1.041,0.045,1.566,0.045h71.25c4.764,8.418,13.804,14.114,24.147,14.114h35.032
		c5.522,0,10-4.477,10-10v-4.114h57.164c32.203,0,63.577-6.346,93.25-18.862l46.955-19.806c2.726-1.15,4.803-3.448,5.672-6.276
		l7.603-24.741C377.684,175.26,377.121,171.965,375.236,169.413z M351.403,192.697l-42.654,17.992
		c-27.199,11.473-55.958,17.29-85.477,17.29h-67.164c-5.522,0-10,4.477-10,10v4.114h-25.032c-4.26,0-7.725-3.465-7.725-7.725
		c0-10.442,8.495-18.938,18.938-18.938h47.016c4.748,0,9.212,1.849,12.568,5.206c3.904,3.907,10.237,3.907,14.142,0.001
		c3.905-3.905,3.906-10.237,0.001-14.142c-7.134-7.135-16.62-11.065-26.711-11.065h-47.016c-19.295,0-35.356,14.106-38.413,32.548
		H25.678c-0.133,0-0.266-0.003-0.403-0.012c-2.396-0.139-3.722-1.694-4.299-2.609c-0.522-0.827-1.619-3.041-0.523-5.731
		c0.989-2.428,2.14-4.751,3.429-6.969c0.383,0.044,0.77,0.073,1.164,0.073H62.13c5.522,0,10-4.477,10-10s-4.478-10-10-10H43.847
		c8.157-4.705,17.567-7.325,27.459-7.331c68.939-0.044,195.259-0.044,195.26-0.044c3.399,0,6.566-1.727,8.407-4.585l29.416-45.669
		h12.251l-6.789,38.519c-0.513,2.911,0.288,5.899,2.188,8.164s4.704,3.572,7.66,3.572h33.959L351.403,192.697z"/>
</g>
<g>
</g>
<g>
</g>
<g>
</g>
<g>
</g>
<g>
</g>
<g>
</g>
<g>
</g>
<g>
</g>
<g>
</g>
<g>
</g>
<g>
</g>
<g>
</g>
<g>
</g>
<g>
</g>
<g>
</g>
</svg>
