<?xml version="1.0" encoding="iso-8859-1"?>
<!-- Generator: Adobe Illustrator 18.0.0, SVG Export Plug-In . SVG Version: 6.00 Build 0)  -->
<!DOCTYPE svg PUBLIC "-//W3C//DTD SVG 1.1//EN" "http://www.w3.org/Graphics/SVG/1.1/DTD/svg11.dtd">
<svg version="1.1" id="Capa_1" xmlns="http://www.w3.org/2000/svg" xmlns:xlink="http://www.w3.org/1999/xlink" x="0px" y="0px"
	 viewBox="0 0 381.666 381.666" style="enable-background:new 0 0 381.666 381.666;" xml:space="preserve">
<g>
	<path style="fill:#211915;" d="M350.188,128.007c17.519-0.95,31.479-15.502,31.479-33.253c0-18.363-14.939-33.302-33.302-33.302
		H44.279c-18.365,0-33.306,14.941-33.306,33.306V235.31H10c-5.522,0-10,4.477-10,10s4.478,10,10,10h0.974v0.081
		c0,18.365,14.94,33.306,33.306,33.306h15.958c4.836,18.125,21.389,31.518,41.017,31.518s36.181-13.393,41.017-31.518h111.451
		c4.836,18.125,21.389,31.518,41.018,31.518c19.628,0,36.181-13.393,41.017-31.518h13.448c17.898,0,32.459-14.561,32.459-32.459
		v-19.072c0-7.093-1.427-13.979-4.242-20.476L350.188,128.007z M336.209,268.697c-4.165-19.066-21.171-33.387-41.468-33.387
		c-20.297,0-37.303,14.321-41.469,33.387h-14.7V227.14h121.454c1.085,3.226,1.639,6.585,1.639,10.025v19.072
		c0,6.87-5.589,12.459-12.459,12.459H336.209z M294.741,300.215c-12.381,0-22.453-10.072-22.453-22.452s10.072-22.453,22.453-22.453
		c12.38,0,22.452,10.072,22.452,22.453S307.121,300.215,294.741,300.215z M101.255,300.215c-12.38,0-22.452-10.072-22.452-22.452
		s10.072-22.453,22.452-22.453s22.452,10.072,22.452,22.453S113.635,300.215,101.255,300.215z M101.255,235.31
		c-20.296,0-37.302,14.321-41.468,33.387H44.279c-7.337,0-13.306-5.969-13.306-13.306v-28.25h129.373
		c0.055,0,0.108-0.007,0.163-0.008v41.565h-17.787C138.557,249.631,121.551,235.31,101.255,235.31z M30.974,94.757
		c0-7.337,5.969-13.306,13.306-13.306h304.085c7.335,0,13.302,5.968,13.302,13.303s-5.967,13.302-13.302,13.302h-11.461
		c-0.151-0.004-0.305-0.004-0.458,0H30.974V94.757z M180.51,268.697V159.359h38.063v109.338H180.51z M220.171,139.359h-41.26
		c-10.146,0-18.401,8.255-18.401,18.401v49.388c-0.055-0.001-0.108-0.008-0.163-0.008H30.974v-79.084h298.308l1.952,6.357h-42.677
		c-11.613,0-21.061,9.448-21.061,21.061v21.487c0,11.613,9.447,21.061,21.061,21.061h62.212l2.801,9.119H238.572v-49.38
		C238.572,147.614,230.317,139.359,220.171,139.359z M344.626,178.021h-56.07c-0.585,0-1.061-0.476-1.061-1.061v-21.487
		c0-0.585,0.476-1.061,1.061-1.061h48.819L344.626,178.021z"/>
	<path style="fill:#211915;" d="M126.61,136.359H66.871c-12.103,0-21.949,9.846-21.949,21.949v17.764
		c0,12.103,9.847,21.949,21.949,21.949h59.739c12.103,0,21.949-9.846,21.949-21.949v-17.764
		C148.56,146.205,138.713,136.359,126.61,136.359z M128.56,176.072c0,1.075-0.874,1.949-1.949,1.949H66.871
		c-1.075,0-1.949-0.875-1.949-1.949v-17.764c0-1.075,0.874-1.949,1.949-1.949h59.739c1.075,0,1.949,0.875,1.949,1.949V176.072z"/>
</g>
<g>
</g>
<g>
</g>
<g>
</g>
<g>
</g>
<g>
</g>
<g>
</g>
<g>
</g>
<g>
</g>
<g>
</g>
<g>
</g>
<g>
</g>
<g>
</g>
<g>
</g>
<g>
</g>
<g>
</g>
</svg>
