<?xml version="1.0" encoding="iso-8859-1"?>
<!-- Generator: Adobe Illustrator 18.0.0, SVG Export Plug-In . SVG Version: 6.00 Build 0)  -->
<!DOCTYPE svg PUBLIC "-//W3C//DTD SVG 1.1//EN" "http://www.w3.org/Graphics/SVG/1.1/DTD/svg11.dtd">
<svg version="1.1" id="Capa_1" xmlns="http://www.w3.org/2000/svg" xmlns:xlink="http://www.w3.org/1999/xlink" x="0px" y="0px"
	 viewBox="0 0 371.435 371.435" style="enable-background:new 0 0 371.435 371.435;" xml:space="preserve">
<g>
	<path style="fill:#211915;" d="M371.434,228.894c-0.032-5.79-0.927-11.526-2.658-17.05l-28.79-91.782
		c-7.146-22.781-27.99-38.087-51.865-38.087h-15.662l-5.732-25.683c-1.021-4.571-5.076-7.822-9.76-7.822h-24.623
		c-4.716,0-8.79,3.294-9.778,7.905l-5.485,25.6H34.915C15.663,81.975,0,97.637,0,116.889v135.42
		c0,19.252,15.663,34.915,34.915,34.915h7.251c4.177,20.371,22.243,35.741,43.831,35.741s39.654-15.369,43.831-35.741h105.255
		c4.177,20.371,22.242,35.741,43.831,35.741c21.861,0,40.098-15.764,43.971-36.519c11.951-1.949,22.958-7.568,31.668-16.325
		C365.523,259.092,371.518,244.451,371.434,228.894z M254.173,278.224c0-13.642,11.099-24.741,24.74-24.741
		c13.643,0,24.741,11.099,24.741,24.741s-11.099,24.741-24.741,24.741C265.272,302.965,254.173,291.866,254.173,278.224z
		 M110.738,278.224c0,13.642-11.099,24.741-24.741,24.741s-24.741-11.099-24.741-24.741s11.099-24.741,24.741-24.741
		S110.738,264.582,110.738,278.224z M322.013,266.244c-5.253-18.869-22.579-32.76-43.099-32.76
		c-20.875,0-38.453,14.373-43.368,33.741h-106.18c-4.915-19.368-22.493-33.741-43.369-33.741s-38.454,14.373-43.369,33.741h-7.714
		c-8.224,0-14.915-6.69-14.915-14.915v-31.473h330.493c0.605,2.677,0.927,5.412,0.942,8.166
		c0.055,10.193-3.873,19.787-11.062,27.014C335.251,261.166,328.917,264.656,322.013,266.244z M34.915,101.975h253.206
		c9.661,0,18.522,3.979,24.843,10.609h-57.138c-5.522,0-10,4.477-10,10v57.005c0,5.523,4.478,10,10,10h85.008l3.528,11.248H20
		v-83.948C20,108.665,26.69,101.975,34.915,101.975z M322.952,132.584l11.608,37.005h-68.734v-37.005H322.952z M240.428,68.47h8.524
		l1.787,8.005h-12.026L240.428,68.47z"/>
	<path style="fill:#211915;" d="M81.263,158.016h13.454v13.454c0,5.523,4.477,10,10,10s10-4.477,10-10v-13.454h13.454
		c5.523,0,10-4.477,10-10s-4.477-10-10-10h-13.454v-13.454c0-5.523-4.477-10-10-10s-10,4.477-10,10v13.454H81.263
		c-5.523,0-10,4.477-10,10S75.74,158.016,81.263,158.016z"/>
</g>
<g>
</g>
<g>
</g>
<g>
</g>
<g>
</g>
<g>
</g>
<g>
</g>
<g>
</g>
<g>
</g>
<g>
</g>
<g>
</g>
<g>
</g>
<g>
</g>
<g>
</g>
<g>
</g>
<g>
</g>
</svg>
