<?xml version="1.0" encoding="iso-8859-1"?>
<!-- Generator: Adobe Illustrator 18.0.0, SVG Export Plug-In . SVG Version: 6.00 Build 0)  -->
<!DOCTYPE svg PUBLIC "-//W3C//DTD SVG 1.1//EN" "http://www.w3.org/Graphics/SVG/1.1/DTD/svg11.dtd">
<svg version="1.1" id="Capa_1" xmlns="http://www.w3.org/2000/svg" xmlns:xlink="http://www.w3.org/1999/xlink" x="0px" y="0px"
	 viewBox="0 0 395.848 395.848" style="enable-background:new 0 0 395.848 395.848;" xml:space="preserve">
<g>
	<path style="fill:#211915;" d="M394.65,195.159c-1.745-3.237-5.125-5.255-8.802-5.255h-14v-15.618c0-5.523-4.477-10-10-10h-48.924
		c-5.523,0-10,4.477-10,10v15.618h-7.076v-15.618c0-5.523-4.477-10-10-10h-48.924c-5.523,0-10,4.477-10,10v15.618h-7.076v-15.618
		c0-5.523-4.477-10-10-10h-48.924c-5.523,0-10,4.477-10,10v15.618h-11.229v-38.237c0-5.523-4.477-10-10-10h-3v-14.118
		c0-5.523-4.477-10-10-10h-64c-5.523,0-10,4.477-10,10v14.118h-3c-5.523,0-10,4.477-10,10v38.237H10
		c-3.118,0-6.057,1.454-7.949,3.932c-1.892,2.479-2.52,5.697-1.697,8.705l18.695,68.394c1.188,4.348,5.139,7.363,9.646,7.363
		h312.153c3.365,0,6.504-1.692,8.354-4.503l45-68.394C396.223,202.329,396.395,198.396,394.65,195.159z M322.924,184.286h28.924
		v5.618h-28.924V184.286z M246.924,184.286h28.924v5.618h-28.924V184.286z M170.924,184.286h28.924v5.618h-28.924V184.286z
		 M62.695,137.549h44v4.118h-44V137.549z M49.695,161.667h70v28.237h-70V161.667z M335.457,258.298H36.328l-2.42-8.853h307.373
		L335.457,258.298z M354.424,229.471c-0.171-0.009-0.34-0.026-0.513-0.026H30.581c-0.714,0-1.408,0.078-2.08,0.22L23.1,209.904
		h344.198L354.424,229.471z"/>
</g>
<g>
</g>
<g>
</g>
<g>
</g>
<g>
</g>
<g>
</g>
<g>
</g>
<g>
</g>
<g>
</g>
<g>
</g>
<g>
</g>
<g>
</g>
<g>
</g>
<g>
</g>
<g>
</g>
<g>
</g>
</svg>
