<?xml version="1.0" encoding="iso-8859-1"?>
<!-- Generator: Adobe Illustrator 18.0.0, SVG Export Plug-In . SVG Version: 6.00 Build 0)  -->
<!DOCTYPE svg PUBLIC "-//W3C//DTD SVG 1.1//EN" "http://www.w3.org/Graphics/SVG/1.1/DTD/svg11.dtd">
<svg version="1.1" id="Capa_1" xmlns="http://www.w3.org/2000/svg" xmlns:xlink="http://www.w3.org/1999/xlink" x="0px" y="0px"
	 viewBox="0 0 370.434 370.434" style="enable-background:new 0 0 370.434 370.434;" xml:space="preserve">
<g>
	<path style="fill:#211915;" d="M370.434,211.641c-0.032-5.791-0.927-11.527-2.658-17.05l-28.791-91.782
		c-7.146-22.781-27.989-38.087-51.864-38.087H34.914C15.662,64.722,0,80.385,0,99.637v135.42c0,19.252,15.662,34.915,34.914,34.915
		h7.251c4.177,20.371,22.243,35.741,43.832,35.741s39.654-15.369,43.831-35.741h104.255c4.177,20.371,22.242,35.741,43.831,35.741
		c21.861,0,40.098-15.764,43.971-36.519c11.951-1.949,22.958-7.568,31.668-16.325C364.522,241.839,370.518,227.198,370.434,211.641z
		 M253.173,260.972c0-13.642,11.099-24.741,24.74-24.741c13.643,0,24.741,11.099,24.741,24.741
		c0,13.642-11.099,24.741-24.741,24.741C264.271,285.712,253.173,274.614,253.173,260.972z M110.737,260.972
		c0,13.642-11.099,24.741-24.74,24.741c-13.643,0-24.741-11.099-24.741-24.741c0-13.642,11.099-24.741,24.741-24.741
		C99.639,236.231,110.737,247.33,110.737,260.972z M321.012,248.991c-5.253-18.869-22.579-32.76-43.099-32.76
		c-20.875,0-38.453,14.373-43.368,33.741h-105.18c-4.915-19.368-22.493-33.741-43.368-33.741s-38.454,14.373-43.369,33.741h-7.714
		c-8.224,0-14.914-6.69-14.914-14.915v-31.473h329.492c0.604,2.677,0.927,5.411,0.941,8.166
		c0.055,10.193-3.873,19.787-11.062,27.015C334.25,243.914,327.916,247.404,321.012,248.991z M34.914,84.722H287.12
		c9.661,0,18.522,3.979,24.843,10.609h-57.138c-5.522,0-10,4.477-10,10v57.005c0,5.523,4.478,10,10,10h85.008l3.528,11.248H20
		V99.637C20,91.413,26.69,84.722,34.914,84.722z M321.951,115.331l11.608,37.005h-68.734v-37.005H321.951z"/>
</g>
<g>
</g>
<g>
</g>
<g>
</g>
<g>
</g>
<g>
</g>
<g>
</g>
<g>
</g>
<g>
</g>
<g>
</g>
<g>
</g>
<g>
</g>
<g>
</g>
<g>
</g>
<g>
</g>
<g>
</g>
</svg>
