<?xml version="1.0" encoding="iso-8859-1"?>
<!-- Generator: Adobe Illustrator 18.0.0, SVG Export Plug-In . SVG Version: 6.00 Build 0)  -->
<!DOCTYPE svg PUBLIC "-//W3C//DTD SVG 1.1//EN" "http://www.w3.org/Graphics/SVG/1.1/DTD/svg11.dtd">
<svg version="1.1" id="Capa_1" xmlns="http://www.w3.org/2000/svg" xmlns:xlink="http://www.w3.org/1999/xlink" x="0px" y="0px"
	 viewBox="0 0 345.764 345.764" style="enable-background:new 0 0 345.764 345.764;" xml:space="preserve">
<g>
	<path style="fill:#211915;" d="M335.764,198.781h-11.796c-4.522-27.984-23.677-51.115-49.338-61.292l-21.73-31.678
		c-13.694-19.964-36.323-31.882-60.533-31.882H101.26c-2.783,0-5.44,1.16-7.332,3.2l-50.792,54.768H10c-5.523,0-10,4.477-10,10
		v16.61c0,32.222,18.741,60.142,45.89,73.456c0.891,22.137,19.169,39.874,41.521,39.874c19.471,0,35.85-13.461,40.339-31.563h72.717
		c4.489,18.102,20.869,31.563,40.339,31.563s35.85-13.461,40.339-31.563h15.106c13.346,0,24.595-9.142,27.819-21.492h11.693
		c5.523,0,10-4.477,10-10S341.287,198.781,335.764,198.781z M240.806,251.835c-8.281,0-15.476-4.698-19.087-11.563h38.174
		C256.281,247.137,249.086,251.835,240.806,251.835z M81.766,220.272C47.708,220.272,20,192.564,20,158.506v-6.61h225.373
		c32.879,0,59.627,26.749,59.627,59.627c0,4.824-3.925,8.749-8.749,8.749H81.766z M87.411,251.835
		c-8.766,0-16.313-5.266-19.681-12.794c4.564,0.793,9.249,1.231,14.036,1.231h24.731C102.886,247.137,95.691,251.835,87.411,251.835
		z M236.407,117.124l10.154,14.802c-0.397-0.006-0.79-0.03-1.188-0.03H158.5V93.928h33.866
		C209.979,93.928,226.443,102.6,236.407,117.124z M138.5,93.928v37.968H70.413l35.212-37.968H138.5z"/>
</g>
<g>
</g>
<g>
</g>
<g>
</g>
<g>
</g>
<g>
</g>
<g>
</g>
<g>
</g>
<g>
</g>
<g>
</g>
<g>
</g>
<g>
</g>
<g>
</g>
<g>
</g>
<g>
</g>
<g>
</g>
</svg>
