<?xml version="1.0" encoding="iso-8859-1"?>
<!-- Generator: Adobe Illustrator 19.0.0, SVG Export Plug-In . SVG Version: 6.00 Build 0)  -->
<svg version="1.1" id="Layer_1" xmlns="http://www.w3.org/2000/svg" xmlns:xlink="http://www.w3.org/1999/xlink" x="0px" y="0px"
	 viewBox="0 0 512 512" style="enable-background:new 0 0 512 512;" xml:space="preserve">
<g>
	<g>
		<path d="M494.403,419.948L265.632,191.177L434.453,22.356c2.726-2.726,3.789-6.701,2.788-10.424c-1-3.724-3.912-6.629-7.638-7.622
			c-63.937-17.026-157.637,17.134-246.248,89.341L158.883,69.18c-0.002-0.002-0.003-0.005-0.006-0.007
			c-25.229-25.227-66.274-25.227-91.503,0c-25.223,25.224-25.226,66.262-0.011,91.491c0.004,0.005,0.007,0.01,0.011,0.014
			l24.864,24.864C22.346,272.898-10.585,365.079,6.121,427.792c0.993,3.725,3.899,6.637,7.622,7.638
			c0.925,0.249,1.865,0.37,2.799,0.37c2.822,0,5.576-1.11,7.626-3.158L189.379,267.43l228.772,228.772
			C428.341,506.391,441.867,512,456.248,512c0.013,0,0.03,0,0.043,0c14.38-0.012,27.909-5.629,38.096-15.815
			C515.409,475.161,515.416,440.962,494.403,419.948z M82.626,84.424c14.181-14.181,35.839-16.355,52.372-6.621l-58.993,58.993
			C66.269,120.263,68.444,98.605,82.626,84.424z M181.753,244.553c-0.001,0.001-0.001,0.002-0.003,0.003L23.754,402.552
			c-4.085-56.895,30.043-136.858,91.299-210.88c3.548-4.286,3.252-10.566-0.682-14.501l-24.121-24.12l61.002-61.002l23.796,23.797
			c3.961,3.958,10.294,4.232,14.574,0.621c75.275-63.42,156.74-98.798,214.758-94.54l-161.621,161.62c0,0-0.003,0.002-0.004,0.003
			L181.753,244.553z M479.135,480.935c-6.117,6.117-14.237,9.49-22.861,9.497c-0.009,0-0.017,0-0.026,0
			c-8.62,0-16.731-3.367-22.845-9.482L204.63,252.179l45.752-45.752l228.77,228.771C491.757,447.804,491.75,468.32,479.135,480.935z
			"/>
	</g>
</g>
<g>
</g>
<g>
</g>
<g>
</g>
<g>
</g>
<g>
</g>
<g>
</g>
<g>
</g>
<g>
</g>
<g>
</g>
<g>
</g>
<g>
</g>
<g>
</g>
<g>
</g>
<g>
</g>
<g>
</g>
</svg>
